<svg width="68" height="48" viewBox="0 0 68 48" fill="none" xmlns="http://www.w3.org/2000/svg">
<g opacity="0.3">
<path d="M-3.8147e-06 16.8273C0.253195 24.6596 2.61638 31.7069 7.87448 37.6402C10.9213 41.0837 14.7277 43.4554 18.9561 45.1856C22.3152 46.5613 25.8009 47.4475 29.3879 47.937C29.8184 47.9961 30.2572 48.0214 30.6877 47.9792C31.3544 47.9117 31.8946 47.4559 32.0465 46.8398C32.1984 46.2152 31.9959 45.6751 31.4135 45.2784C30.291 44.5104 29.0334 43.9533 27.8603 43.2612C24.5687 41.3116 21.5219 39.0581 18.9477 36.2054C18.0109 35.1673 17.2006 34.0448 16.652 32.7451C16.4073 32.1711 16.4917 32.0867 17.1078 32.0361C20.585 31.766 23.6994 30.5844 26.3411 28.2803C29.7171 25.3348 31.7089 21.6465 32.0127 17.1396C32.5698 9.19758 27.2695 1.97298 19.1334 0.318748C10.0013 -1.53804 1.21535 4.9354 0.151915 14.2194C0.0506363 15.0887 -3.8147e-06 15.9495 -3.8147e-06 16.8273Z" fill="#0E97F7"/>
<path d="M35.4224 16.709C35.3633 23.2753 37.1948 29.2845 40.883 34.703C44.0733 39.3956 48.4199 42.7125 53.6105 44.9238C57.2144 46.4599 60.9786 47.4726 64.8778 47.9284C65.2408 47.9706 65.6037 47.979 65.975 47.9875C66.6334 47.9959 67.0807 47.6499 67.3423 46.9578C67.5617 46.3755 67.4267 45.9028 66.9119 45.4555C66.4308 45.0419 65.8653 44.7465 65.3083 44.4427C62.2952 42.8053 59.3919 40.9908 56.7924 38.7373C55.0622 37.2434 53.4839 35.6145 52.3951 33.572C52.2263 33.2513 52.0913 32.9137 51.9394 32.5761C51.8212 32.3229 51.9141 32.1879 52.1757 32.1204C52.6315 32.0106 53.0957 31.9853 53.5514 31.9178C59.299 31.0232 63.3924 27.8666 65.9075 22.7014C69.4861 15.3586 66.8275 4.56391 56.5223 0.86721C49.9138 -1.50442 40.8493 0.900969 36.9416 9.16369C35.5996 11.9911 35.4224 12.9026 35.4224 16.709Z" fill="#0E97F7"/>
</g>
</svg>
