<svg width="19" height="12" viewBox="0 0 19 12" fill="none" xmlns="http://www.w3.org/2000/svg">
<path d="M17.4257 2.21656C16.8856 2.21656 16.5086 2.45736 16.5086 2.80204V3.85319C16.0245 2.89655 15.28 2.21656 14.3686 2.21656H5.80857C5.63978 2.21652 5.5029 2.35334 5.50286 2.52214V2.52229V4.35925C5.50458 3.86045 5.3041 3.36275 4.90725 2.99939C4.16008 2.31524 2.99978 2.36637 2.31571 3.11362C1.67508 3.81333 1.67367 4.8861 2.31242 5.58753C2.13618 5.60694 1.96972 5.67848 1.83429 5.79294V0.73372C1.83429 0.322318 1.43155 0 0.917143 0C0.40274 0 0 0.322318 0 0.73372V11.2663C0 11.6777 0.40274 12 0.917143 12C1.43155 12 1.83429 11.6777 1.83429 11.2663V9.24841H16.5086V11.4145C16.5086 11.7592 16.8856 12 17.4257 12C17.9658 12 18.3429 11.7592 18.3429 11.4145V2.80204C18.3429 2.45736 17.9658 2.21656 17.4257 2.21656ZM1.22286 11.2663C1.21957 11.2914 1.11689 11.3885 0.917143 11.3885C0.716518 11.3885 0.614409 11.2914 0.611429 11.2663V0.73372C0.614409 0.70865 0.716518 0.611465 0.917143 0.611465C1.11689 0.611465 1.21957 0.70865 1.22286 0.73372V11.2663ZM6.11429 2.82803H14.3686C15.5216 2.82803 16.4005 4.54494 16.4993 6.19108H6.11429V2.82803ZM5.50286 4.35986V5.83349C5.37094 5.70535 5.20295 5.62078 5.02147 5.59112C5.34209 5.2409 5.50118 4.8 5.50286 4.35986ZM3.66857 3.13376C4.34393 3.13376 4.89143 3.68129 4.89143 4.35669C4.89143 5.03209 4.34393 5.57962 3.66857 5.57962C2.99321 5.57962 2.44571 5.03209 2.44571 4.35669C2.44644 3.68159 2.99352 3.13448 3.66857 3.13376ZM16.5086 8.63694H1.83429V6.80167C1.99337 6.78913 2.11608 6.65641 2.11612 6.49682C2.11317 6.3313 2.24467 6.19456 2.41017 6.19108H4.8792C5.04471 6.19456 5.1762 6.3313 5.17326 6.49682C5.17322 6.66562 5.31003 6.80251 5.47882 6.80255H5.47897H16.5086V8.63694ZM17.7314 11.3348C17.5339 11.4065 17.3175 11.4065 17.12 11.3348V2.88176C17.3175 2.8101 17.5339 2.8101 17.7314 2.88176V11.3348Z" fill="#7C7C99"/>
</svg>
