<svg width="26" height="24" viewBox="0 0 26 24" fill="none" xmlns="http://www.w3.org/2000/svg">
<path d="M24.4286 12.8572H24.0001V3.85715C24.0001 1.71427 22.2858 0 20.1429 0C18.246 0 16.8817 1.40655 16.729 3.46747C15.7332 3.6557 15 4.51342 15 5.57142C15 5.82856 15.1715 5.99997 15.4286 5.99997H18.8572C19.1143 5.99997 19.2857 5.82856 19.2857 5.57142C19.2857 4.52512 18.5689 3.67454 17.5899 3.47374C17.7179 2.11189 18.5359 0.85711 20.1429 0.85711C21.8143 0.85711 23.1429 2.18567 23.1429 3.8571V12.8571H10.2443C10.0504 11.8687 9.19574 11.1428 8.1429 11.1428C7.71435 10.6286 7.11433 10.2857 6.42863 10.2857C5.61436 10.2857 4.88577 10.7571 4.5429 11.4428C4.20002 11.2714 3.81431 11.1428 3.42859 11.1428C2.37576 11.1428 1.52106 11.8687 1.3272 12.8571H1.28572C0.557127 12.8571 0 13.4142 0 14.1428C0 14.8714 0.557127 15.4285 1.28572 15.4285H1.80076L2.95715 20.0143C3.30002 21.3428 4.50001 22.2857 5.87146 22.2857H6.21433L5.6572 23.4C5.52863 23.6143 5.61436 23.8715 5.82862 23.9572C5.87146 24 5.95719 24 6.00003 24C6.17144 24 6.30001 23.9143 6.38574 23.7857L7.13573 22.2857H19.0286L19.7572 23.7429C19.8429 23.9143 19.9715 24 20.1429 24C20.2286 24 20.2715 24 20.3143 23.9143C20.4857 23.8285 20.5715 23.5714 20.4857 23.3571L19.9489 22.2834C21.2757 22.2363 22.4232 21.3096 22.7572 20.0571L23.9244 15.4285H24.4286C25.1572 15.4285 25.7143 14.8714 25.7143 14.1428C25.7143 13.4143 25.1572 12.8572 24.4286 12.8572ZM18.3857 5.14286H15.9429C16.1143 4.62858 16.6286 4.2857 17.1858 4.2857C17.7429 4.2857 18.2143 4.62858 18.3857 5.14286ZM3.42859 12C3.81431 12 4.15718 12.1714 4.45717 12.4714C4.5429 12.6 4.71431 12.6429 4.88572 12.6C5.05713 12.5572 5.14287 12.4286 5.18571 12.2571C5.31428 11.6143 5.82856 11.1428 6.47142 11.1428C6.94287 11.1428 7.37142 11.3571 7.58573 11.7857C7.67146 11.9571 7.88571 12.0428 8.05717 12C8.10001 12 8.1429 12 8.18575 12C8.74287 12 9.21432 12.3429 9.38573 12.8572H2.22856C2.40002 12.3429 2.87142 12 3.42859 12ZM21.9858 19.8C21.7286 20.7429 20.8714 21.4286 19.8858 21.4286H5.9143C4.92856 21.4286 4.07145 20.7429 3.81431 19.8L2.7 15.4286H23.0143L21.9858 19.8ZM24.4286 14.5714H23.5715H2.14288H1.28572C1.02857 14.5714 0.857161 14.4 0.857161 14.1429C0.857161 13.8857 1.02857 13.7143 1.28572 13.7143H1.71427H9.85713H24.4286C24.6858 13.7143 24.8572 13.8857 24.8572 14.1429C24.8572 14.4 24.6858 14.5714 24.4286 14.5714Z" fill="#4B4B66"/>
<path d="M15.4286 7.92859C15.6857 7.92859 15.8571 7.75718 15.8571 7.50004V7.28573C15.8571 7.02859 15.6857 6.85718 15.4286 6.85718C15.1714 6.85718 15 7.02859 15 7.28573V7.50004C15 7.75718 15.1714 7.92859 15.4286 7.92859Z" fill="#4B4B66"/>
<path d="M15.4286 9.89997C15.6857 9.89997 15.8571 9.68567 15.8571 9.47141V8.99997C15.8571 8.74282 15.6857 8.57141 15.4286 8.57141C15.1714 8.57141 15 8.74282 15 8.99997V9.47141C15 9.72851 15.1714 9.89997 15.4286 9.89997Z" fill="#4B4B66"/>
<path d="M15.4286 11.5714C15.6857 11.5714 15.8571 11.4 15.8571 11.1429V10.9286C15.8571 10.6714 15.6857 10.5 15.4286 10.5C15.1714 10.5 15 10.6714 15 10.9286V11.1429C15 11.4 15.1714 11.5714 15.4286 11.5714Z" fill="#4B4B66"/>
<path d="M17.1429 7.92859C17.4001 7.92859 17.5715 7.75718 17.5715 7.50004V7.28573C17.5715 7.02859 17.4001 6.85718 17.1429 6.85718C16.8858 6.85718 16.7144 7.02859 16.7144 7.28573V7.50004C16.7144 7.75718 16.8858 7.92859 17.1429 7.92859Z" fill="#4B4B66"/>
<path d="M16.7144 9.47141C16.7144 9.72856 16.8858 9.89997 17.1429 9.89997C17.4001 9.89997 17.5715 9.68567 17.5715 9.47141V8.99997C17.5715 8.74282 17.4001 8.57141 17.1429 8.57141C16.8858 8.57141 16.7144 8.74282 16.7144 8.99997V9.47141Z" fill="#4B4B66"/>
<path d="M16.7144 11.1429C16.7144 11.4 16.8858 11.5714 17.1429 11.5714C17.4001 11.5714 17.5715 11.4 17.5715 11.1429V10.9286C17.5715 10.6714 17.4001 10.5 17.1429 10.5C16.8858 10.5 16.7144 10.6714 16.7144 10.9286V11.1429Z" fill="#4B4B66"/>
<path d="M18.8573 7.92859C19.1144 7.92859 19.2858 7.75718 19.2858 7.50004V7.28573C19.2858 7.02859 19.1144 6.85718 18.8573 6.85718C18.6001 6.85718 18.4287 7.02859 18.4287 7.28573V7.50004C18.4287 7.75718 18.6001 7.92859 18.8573 7.92859Z" fill="#4B4B66"/>
<path d="M18.4287 9.47141C18.4287 9.72856 18.6001 9.89997 18.8573 9.89997C19.1144 9.89997 19.2859 9.68572 19.2859 9.47141V8.99997C19.2859 8.74282 19.1145 8.57141 18.8573 8.57141C18.6002 8.57141 18.4288 8.74282 18.4288 8.99997V9.47141H18.4287Z" fill="#4B4B66"/>
<path d="M18.4287 11.1429C18.4287 11.4 18.6001 11.5714 18.8573 11.5714C19.1144 11.5714 19.2858 11.4 19.2858 11.1429V10.9286C19.2858 10.6714 19.1144 10.5 18.8573 10.5C18.6001 10.5 18.4287 10.6714 18.4287 10.9286V11.1429Z" fill="#4B4B66"/>
</svg>
