<svg width="20" height="24" viewBox="0 0 20 24" fill="none" xmlns="http://www.w3.org/2000/svg">
<path d="M5.6002 5.59995H7.2002C7.4211 5.59995 7.6002 5.42085 7.6002 5.19995V3.59995C7.6002 3.37905 7.4211 3.19995 7.2002 3.19995H5.6002C5.3793 3.19995 5.2002 3.37905 5.2002 3.59995V5.19995C5.2002 5.42085 5.3793 5.59995 5.6002 5.59995ZM6.0002 3.99995H6.8002V4.79995H6.0002V3.99995Z" fill="#4B4B66"/>
<path d="M8.7999 5.59995H10.3999C10.6208 5.59995 10.7999 5.42085 10.7999 5.19995V3.59995C10.7999 3.37905 10.6208 3.19995 10.3999 3.19995H8.7999C8.579 3.19995 8.3999 3.37905 8.3999 3.59995V5.19995C8.3999 5.42085 8.579 5.59995 8.7999 5.59995ZM9.1999 3.99995H9.9999V4.79995H9.1999V3.99995Z" fill="#4B4B66"/>
<path d="M12.0001 5.59995H13.6001C13.821 5.59995 14.0001 5.42085 14.0001 5.19995V3.59995C14.0001 3.37905 13.821 3.19995 13.6001 3.19995H12.0001C11.7792 3.19995 11.6001 3.37905 11.6001 3.59995V5.19995C11.6001 5.42085 11.7792 5.59995 12.0001 5.59995ZM12.4001 3.99995H13.2001V4.79995H12.4001V3.99995Z" fill="#4B4B66"/>
<path d="M5.6002 8.80002H7.2002C7.4211 8.80002 7.6002 8.62092 7.6002 8.40002V6.80002C7.6002 6.57912 7.4211 6.40002 7.2002 6.40002H5.6002C5.3793 6.40002 5.2002 6.57912 5.2002 6.80002V8.40002C5.2002 8.62092 5.3793 8.80002 5.6002 8.80002ZM6.0002 7.20002H6.8002V8.00002H6.0002V7.20002Z" fill="#4B4B66"/>
<path d="M8.7999 8.80002H10.3999C10.6208 8.80002 10.7999 8.62092 10.7999 8.40002V6.80002C10.7999 6.57912 10.6208 6.40002 10.3999 6.40002H8.7999C8.579 6.40002 8.3999 6.57912 8.3999 6.80002V8.40002C8.3999 8.62092 8.579 8.80002 8.7999 8.80002ZM9.1999 7.20002H9.9999V8.00002H9.1999V7.20002Z" fill="#4B4B66"/>
<path d="M12.0001 8.80002H13.6001C13.821 8.80002 14.0001 8.62092 14.0001 8.40002V6.80002C14.0001 6.57912 13.821 6.40002 13.6001 6.40002H12.0001C11.7792 6.40002 11.6001 6.57912 11.6001 6.80002V8.40002C11.6001 8.62092 11.7792 8.80002 12.0001 8.80002ZM12.4001 7.20002H13.2001V8.00002H12.4001V7.20002Z" fill="#4B4B66"/>
<path d="M5.6002 12H7.2002C7.4211 12 7.6002 11.8209 7.6002 11.6V9.99998C7.6002 9.77908 7.4211 9.59998 7.2002 9.59998H5.6002C5.3793 9.59998 5.2002 9.77908 5.2002 9.99998V11.6C5.2002 11.8209 5.3793 12 5.6002 12ZM6.0002 10.4H6.8002V11.2H6.0002V10.4Z" fill="#4B4B66"/>
<path d="M8.7999 12H10.3999C10.6208 12 10.7999 11.8209 10.7999 11.6V9.99998C10.7999 9.77908 10.6208 9.59998 10.3999 9.59998H8.7999C8.579 9.59998 8.3999 9.77908 8.3999 9.99998V11.6C8.3999 11.8209 8.579 12 8.7999 12ZM9.1999 10.4H9.9999V11.2H9.1999V10.4Z" fill="#4B4B66"/>
<path d="M12.0001 12H13.6001C13.821 12 14.0001 11.8209 14.0001 11.6V9.99998C14.0001 9.77908 13.821 9.59998 13.6001 9.59998H12.0001C11.7792 9.59998 11.6001 9.77908 11.6001 9.99998V11.6C11.6001 11.8209 11.7792 12 12.0001 12ZM12.4001 10.4H13.2001V11.2H12.4001V10.4Z" fill="#4B4B66"/>
<path d="M5.6002 15.2H7.2002C7.4211 15.2 7.6002 15.0209 7.6002 14.8V13.2C7.6002 12.9791 7.4211 12.8 7.2002 12.8H5.6002C5.3793 12.8 5.2002 12.9791 5.2002 13.2V14.8C5.2002 15.0209 5.3793 15.2 5.6002 15.2ZM6.0002 13.6H6.8002V14.4H6.0002V13.6Z" fill="#4B4B66"/>
<path d="M8.7999 15.2H10.3999C10.6208 15.2 10.7999 15.0209 10.7999 14.8V13.2C10.7999 12.9791 10.6208 12.8 10.3999 12.8H8.7999C8.579 12.8 8.3999 12.9791 8.3999 13.2V14.8C8.3999 15.0209 8.579 15.2 8.7999 15.2ZM9.1999 13.6H9.9999V14.4H9.1999V13.6Z" fill="#4B4B66"/>
<path d="M12.0001 15.2H13.6001C13.821 15.2 14.0001 15.0209 14.0001 14.8V13.2C14.0001 12.9791 13.821 12.8 13.6001 12.8H12.0001C11.7792 12.8 11.6001 12.9791 11.6001 13.2V14.8C11.6001 15.0209 11.7792 15.2 12.0001 15.2ZM12.4001 13.6H13.2001V14.4H12.4001V13.6Z" fill="#4B4B66"/>
<path d="M5.6002 18.4H7.2002C7.4211 18.4 7.6002 18.2209 7.6002 18V16.4C7.6002 16.1791 7.4211 16 7.2002 16H5.6002C5.3793 16 5.2002 16.1791 5.2002 16.4V18C5.2002 18.2209 5.3793 18.4 5.6002 18.4ZM6.0002 16.8H6.8002V17.6H6.0002V16.8Z" fill="#4B4B66"/>
<path d="M8.7999 18.4H10.3999C10.6208 18.4 10.7999 18.2209 10.7999 18V16.4C10.7999 16.1791 10.6208 16 10.3999 16H8.7999C8.579 16 8.3999 16.1791 8.3999 16.4V18C8.3999 18.2209 8.579 18.4 8.7999 18.4ZM9.1999 16.8H9.9999V17.6H9.1999V16.8Z" fill="#4B4B66"/>
<path d="M12.0001 18.4H13.6001C13.821 18.4 14.0001 18.2209 14.0001 18V16.4C14.0001 16.1791 13.821 16 13.6001 16H12.0001C11.7792 16 11.6001 16.1791 11.6001 16.4V18C11.6001 18.2209 11.7792 18.4 12.0001 18.4ZM12.4001 16.8H13.2001V17.6H12.4001V16.8Z" fill="#4B4B66"/>
<path d="M15.6 23.2V2.4H16C16.2209 2.4 16.4 2.2209 16.4 2V0.4C16.4 0.1791 16.2209 0 16 0H3.2C2.9791 0 2.8 0.1791 2.8 0.4V2C2.8 2.2209 2.9791 2.4 3.2 2.4H3.6V23.2H0V24H19.2V23.2H15.6ZM3.6 0.8H15.6V1.6H3.6V0.8ZM9.2 23.2H7.6V20H9.2V23.2ZM11.6 23.2H10V20H11.6V23.2ZM14.8 23.2H12.4V19.6C12.4 19.3791 12.2209 19.2 12 19.2H7.2C6.9791 19.2 6.8 19.3791 6.8 19.6V23.2H4.4V2.4H14.8V23.2Z" fill="#4B4B66"/>
</svg>
