<svg width="134" height="103" viewBox="0 0 134 103" fill="none" xmlns="http://www.w3.org/2000/svg">
<path d="M125.633 36.6103C127.496 40.0246 130.233 43.2413 130.459 47.0788C130.825 53.2583 124.815 57.8858 122.36 63.6138C119.341 70.6398 121.881 78.9074 119.2 86.0462C117.253 91.2099 112.513 95.3578 106.926 96.7122C102.75 97.728 98.3477 97.2765 94.0306 97.3047C81.7845 97.4176 69.5666 101.65 57.4615 99.7314C51.4796 98.772 45.8362 96.3454 39.8542 95.5835C32.6589 94.6524 24.2785 95.781 19.1431 90.8995C11.9478 84.071 17.2808 71.5145 11.8913 63.3317C10.1419 60.6793 7.34843 58.6195 6.41728 55.6567C5.31682 52.1578 7.09448 48.4614 9.2954 45.4704C11.4963 42.5076 14.2333 39.7706 15.4185 36.2999C16.4907 33.1679 15.8417 29.7536 14.5155 26.7062C12.4839 22.0222 18.1555 11.2998 29.4422 12.1181C34.6059 12.4849 36.9479 6.50295 42.6195 4.83816C49.1094 2.94763 57.264 4.47134 62.0327 6.05149C66.886 7.65984 72.8961 8.50635 75.6896 4.38669C79.6118 -1.42598 91.35 -2.35713 96.6265 7.12372C98.5453 10.5662 100.266 13.275 104.358 12.9928C126.536 11.5538 122.84 31.5595 125.633 36.6103ZM65.1647 4.64064C65.1647 5.43071 65.1647 6.78512 68.6636 6.55939C69.7359 6.50295 70.6106 5.9104 70.6106 5.12033C70.6106 4.33026 69.7359 3.68127 68.6636 3.68127C67.5914 3.68127 65.1647 3.37089 65.1647 4.64064ZM30.712 8.50635C30.5991 8.56278 30.5427 8.67565 30.4862 8.78852C30.2605 9.12712 29.8655 9.35285 29.4704 9.52216C29.2447 9.60681 28.9907 9.69146 28.8214 9.86076C28.5393 10.1429 28.5675 10.6508 28.8779 10.8766C29.1318 11.0741 29.4704 11.1023 29.809 11.0741C31.0224 11.0176 32.2075 10.5662 33.1668 9.83254C34.3519 8.87317 31.3892 8.13953 30.712 8.50635ZM27.3824 10.3404C26.9591 10.0583 26.4512 10.2276 26.028 10.4251C25.9433 10.4815 25.8587 10.538 25.8305 10.6226C25.774 10.8201 26.028 10.9612 26.2255 11.0176C26.5359 11.1023 26.8745 11.2152 27.1849 11.1023C27.4953 11.0176 27.8056 10.5944 27.3824 10.3404ZM11.9196 35.6227C11.6092 34.6916 10.9038 34.2401 9.8033 34.7762C9.15431 35.0866 8.70284 35.6792 8.30781 36.2717C7.68704 37.2311 7.15092 38.3033 7.292 39.4038C7.37665 40.2221 7.85634 40.9839 8.53354 41.4636C8.81571 41.6611 9.15431 41.8022 9.49291 41.8022C9.88795 41.8022 10.2266 41.5765 10.5369 41.3508C11.2424 40.8146 11.7785 40.081 12.3146 39.4038C12.5968 39.037 12.8789 38.6419 12.9354 38.2187C13.0482 37.2311 12.2017 36.4692 11.9196 35.6227ZM125.323 64.1217C125.041 64.2346 124.759 64.3757 124.618 64.6296C124.505 64.8272 124.448 65.0529 124.448 65.2786C124.392 65.7583 124.364 66.2098 124.364 66.6895C124.364 67.1974 124.42 67.7617 124.815 68.1285C125.351 68.6082 126.198 68.4389 126.875 68.2414C127.27 68.1285 127.693 68.0157 127.947 67.7053C128.145 67.4795 128.201 67.1974 128.258 66.9152C128.427 65.9841 128.935 64.5732 128.37 64.0653C127.778 63.5574 126.339 63.7267 125.323 64.1217ZM86.1581 100.352C86.017 100.493 85.8759 100.634 85.7913 100.804C85.5655 101.283 85.7912 101.904 86.2991 102.102C86.5531 102.214 86.8353 102.214 87.1174 102.186C89.4594 102.158 91.9707 102.073 93.8331 100.719C94.0588 100.55 94.2845 100.324 94.2563 100.07C94.1999 99.7314 93.8048 99.5903 93.4662 99.5339C91.096 99.1106 88.0204 98.6027 86.1581 100.352ZM41.8576 96.7686C39.826 96.4865 36.6093 96.1196 36.6093 97.7562C36.6093 98.377 39.4874 98.9695 39.9389 99.0824C41.4062 99.4492 42.7888 99.9571 44.1996 100.493C46.852 101.481 48.9965 100.155 46.8802 98.6591C45.159 97.4176 43.4942 96.9661 41.8576 96.7686Z" fill="#F9F9FB"/>
<path d="M108.534 57.9422C108.534 57.9422 113.246 57.519 117.733 55.6849C117.874 55.6284 117.959 56.5878 117.959 56.5878C117.959 56.5878 118.608 55.2898 118.833 55.2052C121.26 54.0765 123.461 52.4682 124.646 50.2672C124.646 50.2672 125.239 63.7549 107.885 66.7459L108.534 57.9422Z" fill="#3E50D8"/>
<path d="M114.319 73.3486C114.319 73.3486 120.047 76.396 131.249 76.9039C131.249 76.9039 123.63 83.8453 106.221 81.4751L106.785 73.5461L114.319 73.3486Z" fill="#3E50D8"/>
<path d="M106.305 65.6454C106.305 65.6454 108.901 63.9806 113.077 62.5698C113.247 62.5133 113.585 63.5009 113.585 63.5009C113.585 63.5009 114.149 62.203 114.46 62.1183C119.482 60.6228 126.339 59.6352 133.704 61.7233C133.704 61.7233 131.475 64.8271 126.875 68.2414C126.678 68.3824 125.38 68.2696 125.38 68.2696C125.38 68.2696 125.916 68.9186 125.747 69.0597C121.401 72.0789 115.222 75.1545 107.18 76.396L106.305 65.6454Z" fill="#00C1B4"/>
<g opacity="0.4">
<g opacity="0.4">
<path d="M133.732 61.7233C131.559 63.1059 129.302 64.3192 126.988 65.4479C124.674 66.5766 122.304 67.5642 119.906 68.4671C118.692 68.9186 117.479 69.3136 116.266 69.7369L114.403 70.3012C114.093 70.3858 113.783 70.4987 113.472 70.5834L112.541 70.8091C110.058 71.4863 107.519 71.9378 104.979 72.3046L106.87 71.9096L107.801 71.712C108.111 71.6556 108.421 71.571 108.732 71.4863L110.594 71.0348L112.456 70.5269C113.698 70.1883 114.911 69.7933 116.125 69.4265C117.338 69.0032 118.551 68.6082 119.736 68.1285C122.135 67.2538 124.505 66.2662 126.847 65.194C128.004 64.6578 129.161 64.0935 130.318 63.5292C131.475 62.9648 132.603 62.3723 133.732 61.7233Z" fill="white"/>
</g>
<path opacity="0.4" d="M118.072 68.975C118.551 68.5235 119.003 68.072 119.483 67.6206C119.934 67.1691 120.386 66.7176 120.837 66.238C121.288 65.7583 121.684 65.2786 122.107 64.7707C122.502 64.2628 122.869 63.7267 123.235 63.1905C123.01 63.8113 122.699 64.4039 122.333 64.94C121.966 65.4761 121.571 66.0122 121.119 66.4919C120.216 67.4231 119.2 68.2978 118.072 68.975Z" fill="white"/>
<path opacity="0.4" d="M111.13 71.0348C111.638 70.6962 112.118 70.3012 112.569 69.9061C113.021 69.5111 113.444 69.0596 113.811 68.6082C114.206 68.1567 114.545 67.6488 114.855 67.1409C115.165 66.633 115.419 66.0687 115.673 65.5043C115.56 66.0969 115.391 66.7176 115.109 67.282C114.855 67.8463 114.488 68.3824 114.093 68.8621C113.698 69.3418 113.247 69.7933 112.739 70.1601C112.259 70.5269 111.723 70.8373 111.13 71.0348Z" fill="white"/>
<g opacity="0.4">
<path d="M118.072 68.975C118.975 69.0032 119.849 69.0314 120.724 68.975C121.176 68.9468 121.599 68.8903 122.022 68.8339C122.474 68.7775 122.897 68.6646 123.348 68.6082C122.953 68.8339 122.53 69.0314 122.107 69.1443C121.655 69.2572 121.204 69.3418 120.752 69.37C120.301 69.3982 119.849 69.3982 119.398 69.3418C118.947 69.2289 118.495 69.1443 118.072 68.975Z" fill="white"/>
</g>
<path opacity="0.4" d="M111.271 71.063C111.808 71.1195 112.344 71.1759 112.88 71.2323C113.416 71.2888 113.952 71.317 114.46 71.3452C114.996 71.3734 115.532 71.3734 116.04 71.3452C116.576 71.317 117.112 71.2605 117.648 71.1759C117.141 71.4016 116.633 71.5427 116.068 71.6274C115.532 71.712 114.968 71.712 114.432 71.712C113.388 71.6556 112.287 71.4581 111.271 71.063Z" fill="white"/>
</g>
<g opacity="0.2278">
<g opacity="0.2278">
<path opacity="0.5" d="M122.897 53.7943C122.445 55.0641 121.627 56.1646 120.696 57.1521C119.765 58.1397 118.664 58.958 117.507 59.6352L116.604 60.1149C116.294 60.2842 115.984 60.3971 115.673 60.5382C115.053 60.8203 114.404 61.0179 113.783 61.2154C113.472 61.3282 113.134 61.3847 112.795 61.4693L111.808 61.6951C111.13 61.8079 110.481 61.8926 109.804 61.9772C110.453 61.8079 111.102 61.6668 111.751 61.5258L112.711 61.2436C113.021 61.1589 113.36 61.0743 113.67 60.9332C114.291 60.6793 114.911 60.4817 115.532 60.1996C115.843 60.0585 116.153 59.9456 116.435 59.7763L117.31 59.2966C118.439 58.6194 119.539 57.8294 120.47 56.9264C120.696 56.7007 120.95 56.4749 121.176 56.221C121.288 56.1081 121.401 55.967 121.514 55.8542L121.825 55.4591C122.22 54.9512 122.586 54.3869 122.897 53.7943Z" fill="#605ACA"/>
</g>
</g>
<path d="M127.581 77.8633C126.791 78.0044 126 78.1173 125.21 78.2019C124.42 78.2866 123.63 78.343 122.812 78.3712C121.204 78.4559 119.623 78.3994 118.015 78.3148C117.225 78.2583 116.407 78.1455 115.617 78.0326C114.827 77.9197 114.037 77.7787 113.246 77.5529C111.695 77.1579 110.171 76.5935 108.816 75.747C109.55 76.0856 110.284 76.396 111.017 76.65C111.779 76.9039 112.541 77.1014 113.303 77.2707C114.855 77.6093 116.435 77.8351 118.015 77.9479C119.595 78.089 121.175 78.1173 122.784 78.089C124.392 78.0608 125.972 78.0044 127.581 77.8633Z" fill="#4CA1FF"/>
<path d="M120.075 80.6567C119.031 80.7414 117.959 80.5157 116.999 80.0642C116.52 79.8102 116.096 79.4999 115.73 79.1048C115.363 78.7098 115.109 78.2301 114.939 77.7504C115.25 78.1737 115.56 78.5687 115.927 78.9073C116.322 79.2177 116.717 79.4999 117.169 79.7256C117.62 79.9513 118.1 80.1206 118.579 80.2899C119.059 80.431 119.567 80.5721 120.075 80.6567Z" fill="#4CA1FF"/>
<path d="M115.899 80.9107C114.855 80.7696 113.867 80.3182 113.049 79.6692C112.626 79.3306 112.287 78.9355 112.005 78.4559C111.723 78.0044 111.582 77.4683 111.525 76.9604C111.723 77.4401 111.949 77.8915 112.231 78.3148C112.541 78.7098 112.88 79.0766 113.275 79.387C113.67 79.6974 114.093 79.9796 114.516 80.2335C114.968 80.4593 115.419 80.7132 115.899 80.9107Z" fill="#4CA1FF"/>
<path d="M70.1592 92.3103C68.4098 90.3069 65.7574 89.1218 63.105 89.1501C61.1298 89.1783 59.2111 89.8273 57.2641 89.7144C55.2043 89.6015 53.2291 88.5575 51.9029 86.9774C50.605 85.369 50.0124 83.2245 50.2946 81.1929C50.5203 79.641 51.3386 78.089 52.7494 77.3836C53.5113 77.0168 54.386 76.9039 55.2607 76.9886C56.0508 77.0732 56.7845 77.2708 57.5181 77.5811C59.1547 78.3148 60.5655 79.5845 61.6942 80.9672C62.71 82.2369 65.052 84.1275 66.6321 85.3408C67.5633 86.0462 68.2405 86.5259 68.2405 86.5259C69.3409 87.5417 69.3974 91.0124 70.1592 92.3103Z" fill="#3E50D8"/>
<path d="M52.9468 81.729C57.8847 83.1399 63.3306 85.115 67.1681 88.5011" stroke="white" stroke-miterlimit="10" stroke-linecap="round" stroke-linejoin="round"/>
<path d="M84.7474 81.0236C84.6627 81.8419 84.4934 82.6884 84.0984 83.4221C83.8162 83.93 83.4494 84.3814 83.0261 84.7765C82.8004 84.974 82.5747 85.1715 82.3489 85.369C81.446 86.0744 80.402 86.6106 79.3579 86.9492C77.806 87.4288 76.1695 87.5417 74.7586 88.3882C74.1096 88.7832 73.5453 89.3476 73.0938 89.9966C72.8116 90.3916 72.5859 90.8431 72.4448 91.2946V89.9119C72.5859 88.3882 72.7552 86.8363 73.3195 85.369C73.6864 84.4096 74.2225 83.5349 74.7868 82.6884C75.718 81.334 76.7902 80.0925 78.0035 79.0484C78.9911 78.2019 80.148 77.4965 81.3613 77.3272C82.5747 77.1579 83.8726 77.5812 84.437 78.6534C84.7756 79.3588 84.8038 80.2053 84.7474 81.0236Z" fill="#1A1859"/>
<path opacity="0.31" d="M73.291 88.614C74.1657 86.5541 75.6612 84.7483 77.4953 83.5632C78.624 82.8013 79.8938 82.2934 81.0506 81.6162C82.2075 80.9108 83.3362 79.9514 83.8723 78.6816" stroke="#0B43A4" stroke-miterlimit="10" stroke-linecap="round" stroke-linejoin="round"/>
<path d="M71.3725 89.8837C73.5452 87.7392 76.6208 86.7516 79.64 86.3002C82.1513 85.9334 84.8037 85.9334 87.1739 86.8927C87.9075 87.2031 88.6412 87.6264 89.0926 88.2753C89.5441 88.9526 89.6005 89.9119 89.0644 90.5045C88.613 91.0124 87.8793 91.1253 87.2021 91.1535C84.973 91.2381 82.8285 90.5891 80.6558 90.1377C76.9312 89.3476 72.868 89.1783 69.4819 90.8995" fill="#52D2BC"/>
<path d="M74.0815 88.755C78.568 86.8645 85.0579 87.4853 87.8796 89.4322" stroke="#00AD9F" stroke-miterlimit="10" stroke-linecap="round" stroke-linejoin="round"/>
<path d="M20.9774 66.7177C18.9458 65.7301 17.9864 63.1341 16.3216 62.598C14.2618 61.8926 13.6692 64.1782 10.3396 63.6138C7.54618 63.1341 6.67145 59.9739 1.98746 60.9614C0.5484 61.2718 -0.382756 62.4569 0.153364 63.9242C0.5484 65.3633 2.5518 66.2944 3.7369 67.0281C4.78093 67.6206 5.71208 67.931 6.33285 69.0315C6.33285 69.0315 6.33285 69.0597 6.36107 69.0597C6.78432 69.9626 6.61502 70.7527 7.60261 71.4017C9.88817 73.0665 12.7381 70.4141 15.334 70.4987C17.1681 70.5552 17.1117 72.4739 19.3408 73.01C21.5417 73.5461 20.8081 71.5992 25.4074 73.3769C25.5767 73.4333 25.746 73.3486 25.8307 73.1793C25.8871 73.0665 25.8589 72.9254 25.7743 72.8407C22.5011 69.5111 23.9684 68.1567 20.9774 66.7177Z" fill="#4A84D8"/>
<path d="M20.9774 66.7177C18.9458 65.7301 17.9864 63.1341 16.3216 62.598C14.2618 61.8926 13.6692 64.1782 10.3396 63.6138C7.54618 63.1341 6.67145 59.9739 1.98746 60.9614C0.5484 61.2718 -0.382756 62.4569 0.153364 63.9242C0.5484 65.3633 2.5518 66.2944 3.7369 67.0281C4.78093 67.6206 5.71208 67.931 6.33285 69.0315C6.33285 69.0315 6.33285 69.0597 6.36107 69.0597C6.78432 69.9626 6.61502 70.7527 7.60261 71.4017C9.88817 73.0665 12.7381 70.4141 15.334 70.4987C17.1681 70.5552 17.1117 72.4739 19.3408 73.01C21.5417 73.5461 20.8081 71.5992 25.4074 73.3769C25.5767 73.4333 25.746 73.3486 25.8307 73.1793C25.8871 73.0665 25.8589 72.9254 25.7743 72.8407C22.5011 69.5111 23.9684 68.1567 20.9774 66.7177Z" fill="#00AD9F"/>
<g opacity="0.5">
<g opacity="0.5">
<path opacity="0.5" d="M23.5737 71.0913C22.1346 70.3859 21.2317 68.975 19.9337 68.0721C19.3129 67.6488 18.6075 67.3102 17.8739 67.282C17.0274 67.2538 16.1809 67.6771 15.3344 67.3949C14.7136 67.1692 14.2339 66.6613 13.6414 66.3509C13.3592 66.2098 13.0488 66.0969 12.7102 66.1251C12.2587 66.1251 11.8355 66.2944 11.4122 66.3227C9.91674 66.4355 8.73163 65.194 7.60296 64.3757C6.13568 63.3035 4.3298 62.7109 2.52392 62.7391C2.41106 62.7391 2.46749 63.0213 2.58036 63.0213C4.24515 62.9931 5.88173 63.4728 7.26435 64.4039C8.42124 65.1658 9.46527 66.3791 10.9043 66.5766C11.2711 66.633 11.6662 66.5766 12.033 66.5202C12.4563 66.4355 12.8513 66.3509 13.2745 66.4637C13.9235 66.6613 14.4032 67.1692 14.9676 67.5078C15.2779 67.6771 15.5883 67.7899 15.9551 67.7899C16.3784 67.7899 16.7734 67.7053 17.1967 67.6488C17.6199 67.5924 18.015 67.5642 18.4382 67.6488C18.8333 67.7335 19.1719 67.8746 19.5105 68.0721C21.0342 68.9468 21.9935 70.5834 23.5737 71.3735C23.6866 71.4299 23.6583 71.1477 23.5737 71.0913Z" fill="#4CA1FF"/>
</g>
</g>
<path d="M40.7292 80.3746C34.0418 81.0801 32.9978 81.6444 31.3895 80.9672C29.3579 80.0925 27.2134 80.3182 25.1535 79.4717C23.0937 78.6252 20.8646 77.9762 18.6637 78.343C17.9583 78.4559 17.1964 78.7381 17.1117 79.5564C17.0835 79.895 17.1682 80.2053 17.3657 80.4875C17.8454 81.1647 18.6355 81.3905 19.3973 81.588L21.9086 82.2934C22.7269 82.5191 22.6705 83.7324 21.824 83.8453H21.7957C21.0903 83.93 20.3849 83.7889 19.6795 83.6478C18.1558 83.3092 16.6321 82.9142 15.0801 82.9142C13.1896 82.9142 11.2144 83.5914 10.2833 85.3408C9.94467 85.9616 9.8318 86.6952 9.94467 87.3724C10.2833 89.3194 12.0891 89.9684 13.6975 89.7991C14.8262 89.6862 15.8984 89.2629 16.9707 88.8679C19.5666 87.9368 21.7957 88.9526 24.5892 89.0372C32.236 89.2065 40.7292 80.3746 40.7292 80.3746Z" fill="#7EE8D4"/>
<path d="M12.061 86.4695C16.8015 85.9334 21.5983 85.369 26.1695 83.93C27.4956 83.5067 29.2169 83.3939 32.9979 80.6004" stroke="#00AD9F" stroke-miterlimit="10" stroke-linecap="round" stroke-linejoin="round"/>
<path d="M19.7641 58.9016C19.9334 59.0145 20.0745 59.1273 20.272 59.212C21.0903 59.607 22.0214 59.6635 22.6704 60.3971C23.0937 60.8486 23.3476 61.4693 23.658 62.0337C23.7144 62.1466 23.7991 62.2594 23.8837 62.3723C24.8995 63.7549 25.8871 63.896 26.9312 63.896C27.3544 63.896 27.8059 63.8396 28.2856 63.8396C28.991 63.8396 29.7528 63.9242 30.5429 64.3757C31.0508 64.6579 31.5869 65.0811 32.1513 65.6737C32.2641 65.7865 32.4334 65.7865 32.5745 65.7019C32.7156 65.6172 32.772 65.4761 32.7438 65.3351C32.4617 64.0653 31.8973 63.2188 31.2483 62.598C29.386 60.8204 26.6208 60.6793 26.4515 57.0393C26.4233 56.2492 26.5926 55.7131 26.4515 55.1488C26.395 54.8666 26.254 54.5844 25.9718 54.2741C25.4074 53.6533 24.5892 53.3993 23.8555 52.9196C21.8803 51.5088 22.8397 49.2232 22.6422 47.0505C22.5293 45.2729 20.921 44.116 19.623 43.1002C17.9864 41.8869 17.9864 39.7424 16.886 38.1058C15.7855 36.4974 13.0485 35.8485 11.5812 38.0212C10.0293 40.1939 10.8758 42.9027 11.3272 45.0754C11.4401 45.6397 11.6376 46.1476 11.9198 46.6273C12.7381 48.0381 14.1489 49.0539 15.334 50.2673C16.0677 51.0009 16.6884 51.8474 17.1399 52.8068C17.3939 53.3711 17.5914 53.9355 17.7042 54.5844C17.7325 54.7255 17.7607 54.8666 17.7889 55.0077C18.0711 56.5314 18.4097 57.8858 19.7641 58.9016Z" fill="#7EE8D4"/>
<g opacity="0.5">
<g opacity="0.5">
<path opacity="0.5" d="M12.7944 38.0494C12.8509 39.178 12.8791 40.3067 13.2177 41.379C13.3588 41.8869 13.5845 42.3948 13.8667 42.818C14.1206 43.213 14.4592 43.5516 14.826 43.862C15.5315 44.4828 16.3215 45.0471 16.9141 45.7808C17.2245 46.1758 17.422 46.5991 17.5631 47.107C17.6759 47.5867 17.7888 48.0946 18.0992 48.4896C18.4378 48.9128 18.9739 49.0821 19.3972 49.4208C19.7358 49.7029 20.0179 50.0697 20.2155 50.4648C20.6669 51.2548 20.8927 52.1296 21.2877 52.9479C21.4852 53.3429 21.711 53.7097 21.9931 54.0483C22.3599 54.4433 22.8678 54.7255 23.15 55.177C23.4322 55.6567 23.4604 56.2492 23.4886 56.7853C23.545 57.3215 23.6297 57.8294 23.8272 58.3091C24.6737 60.4818 26.79 61.7233 28.7652 62.6827C29.0473 62.8237 29.3295 62.9366 29.6117 63.0777C29.7528 63.1341 29.7245 62.8802 29.6399 62.8237C27.6365 61.8926 25.3791 60.8486 24.2505 58.7605C23.9965 58.2808 23.8272 57.7447 23.7426 57.2086C23.6579 56.6725 23.6579 56.1364 23.5168 55.6285C23.3757 55.1206 23.1218 54.7255 22.7268 54.3869C22.3317 54.0765 21.9931 53.7661 21.7392 53.3147C20.808 51.8474 20.6669 49.844 19.0586 48.8846C18.8046 48.7435 18.5507 48.6025 18.3531 48.4332C18.1556 48.2639 18.0145 48.0381 17.9299 47.7842C17.7606 47.3045 17.7042 46.7966 17.4784 46.3451C17.0834 45.5268 16.378 44.9061 15.7008 44.3417C14.9389 43.7209 14.1771 43.072 13.7256 42.1972C13.2177 41.1814 13.1048 40.0528 13.0484 38.9241C13.0202 38.6419 13.0202 38.3598 13.0202 38.1058C12.9637 37.9647 12.7944 37.8801 12.7944 38.0494Z" fill="#4CA1FF"/>
</g>
</g>
<path opacity="0.37" d="M28.2576 63.8396C28.9631 63.8396 29.7249 63.9242 30.515 64.3757C30.5996 63.247 30.9665 63.0213 31.2204 62.598C29.3581 60.8204 26.5929 60.6793 26.4236 57.0393C26.3953 56.2492 26.5646 55.7131 26.4236 55.1488C25.8592 56.3339 24.8716 56.5596 24.9563 57.7447C25.0127 58.9863 26.5929 60.1149 26.875 61.6669C27.1008 62.9648 27.5804 63.3034 28.2576 63.8396Z" fill="#5A4FD1"/>
<path d="M46.3444 82.2369C45.0746 81.729 43.4098 81.5315 42.5915 82.632C41.9143 83.5349 42.2529 84.8329 42.7326 85.8769C43.1276 86.7516 43.6355 87.6263 44.4538 88.106C45.0182 88.4164 45.6954 88.5293 46.3444 88.6139C48.1502 88.8397 49.9843 88.9243 51.8184 88.9243C53.9347 88.9243 56.5024 89.7708 58.2519 91.097C55.9945 86.9209 50.5769 83.9299 46.3444 82.2369Z" fill="#1A1859"/>
<path opacity="0.31" d="M44.1436 84.974C45.7519 85.0304 47.3603 85.1433 48.9122 85.623C50.4923 86.1027 56.559 88.8679 57.4901 90.053" stroke="white" stroke-miterlimit="10" stroke-linecap="round" stroke-linejoin="round"/>
<path d="M107.97 51.1984C107.942 51.3959 107.913 51.5652 107.913 51.7628C107.913 52.6375 108.252 53.4558 107.913 54.3305C107.716 54.8948 107.265 55.3745 106.954 55.8824C106.869 55.9953 106.813 56.1082 106.757 56.221C105.995 57.6601 106.277 58.5912 106.757 59.466C106.954 59.8328 107.18 60.1996 107.377 60.5946C107.688 61.1872 107.913 61.8926 107.885 62.7673C107.857 63.3317 107.744 63.9524 107.462 64.7143C107.406 64.8554 107.49 64.9965 107.631 65.0811C107.772 65.1658 107.913 65.1375 108.026 65.0529C108.986 64.2628 109.465 63.4445 109.719 62.598C110.453 60.256 109.381 57.8294 112.456 56.1081C113.105 55.7413 113.67 55.6567 114.093 55.3181C114.319 55.1488 114.488 54.8948 114.629 54.528C114.911 53.7944 114.798 52.9761 114.911 52.1578C115.278 49.8722 117.62 49.7029 119.426 48.6307C120.893 47.7842 121.204 45.9219 121.514 44.3699C121.853 42.4512 123.715 41.5483 124.618 39.9117C125.521 38.2751 124.928 35.6509 122.445 35.3406C119.934 34.9455 117.987 36.8078 116.294 38.134C115.842 38.4726 115.504 38.8677 115.222 39.2909C114.347 40.5889 114.065 42.2255 113.557 43.7774C113.246 44.7368 112.795 45.6115 112.146 46.4016C111.779 46.853 111.356 47.2763 110.876 47.6431C110.763 47.7277 110.651 47.8124 110.538 47.8971C109.296 48.7436 108.252 49.6183 107.97 51.1984Z" fill="#7EE8D4"/>
<g opacity="0.5">
<g opacity="0.5">
<path opacity="0.5" d="M122.84 36.2999C121.937 36.7796 121.034 37.2875 120.272 37.9929C119.905 38.3315 119.567 38.6983 119.313 39.1216C119.059 39.5166 118.918 39.9681 118.777 40.4196C118.523 41.3225 118.41 42.3101 117.987 43.1566C117.761 43.6081 117.451 43.9467 117.084 44.2853C116.745 44.5675 116.378 44.8778 116.209 45.3011C116.011 45.809 116.096 46.3451 115.955 46.853C115.842 47.2481 115.645 47.6149 115.391 47.9535C114.883 48.6589 114.234 49.2514 113.726 49.9286C113.472 50.2673 113.246 50.6059 113.105 51.0009C112.908 51.4806 112.908 52.0167 112.625 52.4682C112.343 52.8632 111.92 53.1172 111.525 53.3711C111.102 53.6533 110.678 53.9354 110.34 54.3023C108.788 55.9388 108.619 58.3091 108.619 60.4535C108.619 60.7639 108.619 61.1025 108.647 61.4129C108.647 61.554 108.816 61.6386 108.816 61.4411C108.76 59.212 108.703 56.7289 110.171 54.8666C110.481 54.4716 110.848 54.133 111.271 53.8508C111.666 53.5968 112.089 53.3711 112.456 53.0325C112.823 52.6939 112.992 52.2989 113.105 51.8192C113.218 51.3677 113.359 50.9445 113.613 50.5494C114.065 49.844 114.685 49.2514 115.221 48.6307C115.758 47.9817 116.181 47.2481 116.237 46.4015C116.265 46.0912 116.265 45.809 116.378 45.5268C116.463 45.3011 116.632 45.1036 116.802 44.9343C117.14 44.6239 117.507 44.3417 117.789 43.9749C118.353 43.2413 118.551 42.3101 118.777 41.4072C119.002 40.4478 119.256 39.5449 119.905 38.783C120.554 37.9929 121.457 37.4568 122.332 36.9489C122.558 36.836 122.784 36.695 123.009 36.5821C123.037 36.5257 122.953 36.2435 122.84 36.2999Z" fill="#4CA1FF"/>
</g>
</g>
<path d="M32.01 80.7415C32.01 80.7415 23.6296 78.9074 17.1962 79.5846C16.9987 79.6128 17.2526 78.3431 17.2526 78.3431C17.2526 78.3431 15.9264 79.7539 15.5878 79.8103C12.0325 80.3747 8.59004 81.588 6.24805 83.9864C6.24805 83.9864 10.537 66.3791 34.0134 69.0033L32.01 80.7415Z" fill="#3E50D8"/>
<path d="M36.8917 81.7008C36.8917 81.7008 33.1389 80.0078 28.4549 76.3679C28.2574 76.2268 29.1039 75.0981 29.1039 75.0981C29.1039 75.0981 27.2415 75.4085 26.9029 75.1263C21.5417 70.6116 15.3905 63.6421 12.2866 53.8226C12.2866 53.8226 17.4221 54.0483 24.6174 56.6725C24.9278 56.7854 25.7461 58.3091 25.7461 58.3091C25.7461 58.3091 26.0847 57.2086 26.3386 57.3215C32.9413 59.9739 40.9267 64.6297 48.2349 72.7843L36.8917 81.7008Z" fill="#00C1B4"/>
<g opacity="0.4">
<g opacity="0.4">
<path opacity="0.4" d="M12.3145 54.0483C15.4747 55.4592 18.4939 57.0957 21.4567 58.8734C24.4195 60.6229 27.2976 62.5698 30.0628 64.6014C31.4737 65.6172 32.7999 66.7177 34.1543 67.7617L36.1295 69.4265C36.4681 69.7087 36.8067 69.9908 37.1171 70.273L38.0764 71.1477C40.6724 73.4333 43.0426 75.9446 45.2999 78.5405L43.4658 76.7064L42.5629 75.7753C42.2525 75.4649 41.9421 75.1827 41.6317 74.9006L39.7694 73.1229L37.8225 71.4299C36.5527 70.273 35.1983 69.229 33.8721 68.1285C32.5177 67.0845 31.1633 66.0123 29.7525 64.9965C26.9872 62.9366 24.1373 61.0179 21.231 59.1838C19.7637 58.2809 18.2964 57.3779 16.8009 56.5314C15.3619 55.6567 13.8382 54.8384 12.3145 54.0483Z" fill="#5084DA"/>
</g>
<g opacity="0.4">
<path opacity="0.4" d="M31.9532 66.2944C31.1067 66.0969 30.2602 65.8994 29.4136 65.7019C28.5671 65.5326 27.7206 65.3633 26.8741 65.2222C26.0276 65.0811 25.1529 64.9682 24.3064 64.8836C23.4317 64.8271 22.5852 64.7707 21.7104 64.7707C22.557 64.5732 23.4599 64.4885 24.3346 64.4885C25.2093 64.4885 26.1123 64.5732 26.9588 64.7143C28.68 65.0247 30.373 65.5043 31.9532 66.2944Z" fill="#5084DA"/>
</g>
<g opacity="0.4">
<path opacity="0.4" d="M23.7138 60.651C23.0931 60.6228 22.5005 60.5946 21.908 60.5664C21.3154 60.5382 20.6946 60.5382 20.1021 60.5382C19.5095 60.5382 18.917 60.5946 18.2962 60.6228C17.7037 60.6793 17.1111 60.7639 16.5186 60.8768C17.0829 60.651 17.6754 60.4535 18.268 60.3689C18.8606 60.256 19.4813 60.1996 20.1021 60.1996C21.3154 60.1996 22.5287 60.3124 23.7138 60.651Z" fill="#5084DA"/>
</g>
<g opacity="0.4">
<path opacity="0.4" d="M39.4028 72.5303C38.641 72.1917 37.8509 71.9378 37.089 71.7403C36.299 71.5427 35.5089 71.3734 34.6906 71.2888C33.9005 71.2041 33.0822 71.1759 32.2639 71.2041C31.4457 71.2323 30.6556 71.3452 29.8091 71.4863C30.5709 71.1759 31.3892 70.922 32.2075 70.8373C33.0258 70.6962 33.9005 70.7244 34.7188 70.8091C35.5653 70.8937 36.3836 71.0913 37.1737 71.3734C37.9637 71.6556 38.7256 72.0506 39.4028 72.5303Z" fill="#5084DA"/>
</g>
<g opacity="0.4">
<path opacity="0.4" d="M31.9533 66.2944C31.3325 65.2504 30.7118 64.2628 29.9781 63.3316C29.6395 62.852 29.2445 62.4005 28.8495 61.9772C28.4544 61.5258 28.0312 61.1307 27.6079 60.6793C28.144 60.9614 28.6519 61.3 29.1034 61.6951C29.5549 62.0901 29.9781 62.5416 30.3449 63.0495C30.7118 63.5292 31.0504 64.0653 31.3043 64.6014C31.6147 65.1093 31.8404 65.7019 31.9533 66.2944Z" fill="#5084DA"/>
</g>
<g opacity="0.4">
<path opacity="0.4" d="M39.29 72.3893C38.9796 71.7403 38.641 71.0913 38.3024 70.4705C37.9638 69.8497 37.6252 69.2008 37.2584 68.6082C36.8916 67.9874 36.4965 67.3949 36.1015 66.8023C35.6782 66.238 35.2268 65.6736 34.7471 65.1375C35.3678 65.5326 35.9322 66.0123 36.4119 66.5766C36.8916 67.1409 37.3148 67.7335 37.7098 68.3542C38.4435 69.5958 39.0078 70.9502 39.29 72.3893Z" fill="#5084DA"/>
</g>
</g>
<g opacity="0.5">
<g opacity="0.5">
<path opacity="0.5" d="M9.83154 80.1489C10.9038 78.6816 12.3711 77.5529 13.923 76.65C15.5031 75.7189 17.1961 75.0981 18.9738 74.6184L20.3 74.3362C20.7515 74.2516 21.2029 74.1951 21.6544 74.1387C22.5573 73.9976 23.4603 73.9976 24.3632 73.9694C24.8147 73.9412 25.2662 73.9976 25.7176 73.9976L27.072 74.0541C27.975 74.1669 28.8497 74.2798 29.7526 74.4209C28.8497 74.3927 27.9468 74.308 27.072 74.2798H25.7176C25.2662 74.2798 24.8147 74.2516 24.3914 74.308C23.4885 74.3927 22.6138 74.3927 21.739 74.562C21.2876 74.6466 20.8643 74.6748 20.4129 74.7595L19.1149 75.0416C17.3937 75.4649 15.7289 76.0857 14.1487 76.904C13.7537 77.1015 13.3586 77.3272 12.9918 77.5529C12.7943 77.6658 12.625 77.7787 12.4275 77.9198L11.8914 78.3148C11.1295 78.9074 10.4523 79.4999 9.83154 80.1489Z" fill="#4CA1FF"/>
</g>
</g>
<g opacity="0.5">
<g opacity="0.5">
<path opacity="0.5" d="M24.3353 74.1951C23.8556 74.9852 23.3759 75.7189 22.9809 76.4807C22.7833 76.8757 22.614 77.2708 22.4447 77.6658C22.3036 78.0891 22.1908 78.5123 22.0779 78.9638C21.8522 78.0608 22.1061 77.0733 22.5294 76.255C22.7551 75.8317 23.0091 75.4649 23.3195 75.0981C23.6016 74.7595 23.9402 74.4209 24.3353 74.1951Z" fill="#4CA1FF"/>
</g>
</g>
<path d="M75.2098 79.8385H61.3271V89.3758H75.2098V79.8385Z" fill="#0E97F7"/>
<path opacity="0.5" d="M75.2098 79.8385H61.3271V83.3092H75.2098V79.8385Z" fill="#605ACA"/>
<path d="M82.3488 89.2347H54.1884C53.2855 89.2347 52.5801 89.9684 52.5801 90.8431C52.5801 91.7178 53.3137 92.4515 54.1884 92.4515H82.3488C83.2518 92.4515 83.9572 91.7178 83.9572 90.8431C83.9572 89.9684 83.2518 89.2347 82.3488 89.2347Z" fill="#0E97F7"/>
<path opacity="0.5" d="M83.9572 90.8431C83.9572 91.7178 83.2236 92.4515 82.3488 92.4515H54.1884C53.2855 92.4515 52.5801 91.7178 52.5801 90.8431C52.5801 90.702 52.6083 90.5892 52.6365 90.4481C52.8058 91.1535 53.4548 91.6614 54.1884 91.6614H82.3488C83.1107 91.6614 83.7315 91.1535 83.9008 90.4481C83.9572 90.5892 83.9572 90.702 83.9572 90.8431Z" fill="#605ACA"/>
<path d="M24.8431 81.1647C24.3069 81.1647 23.8555 80.7133 23.8555 80.1772V22.8405C23.8555 22.3044 24.3069 21.8529 24.8431 21.8529H111.666C112.202 21.8529 112.654 22.3044 112.654 22.8405V80.1772C112.654 80.7133 112.202 81.1647 111.666 81.1647H24.8431Z" fill="white"/>
<path d="M111.694 22.5583C111.864 22.5583 111.977 22.6712 111.977 22.8405V80.1771C111.977 80.3464 111.864 80.4593 111.694 80.4593H24.8429C24.6736 80.4593 24.5607 80.3464 24.5607 80.1771V22.8405C24.5607 22.6712 24.6736 22.5583 24.8429 22.5583H111.694ZM111.694 21.1475H24.8429C23.9118 21.1475 23.1499 21.9093 23.1499 22.8405V80.1771C23.1499 81.1083 23.9118 81.8701 24.8429 81.8701H111.666C112.597 81.8701 113.359 81.1083 113.359 80.1771V22.8405C113.387 21.9093 112.625 21.1475 111.694 21.1475Z" fill="#0E97F7"/>
<path d="M113.387 80.0643V74.4773H23.1499V80.0925C23.1499 81.1365 23.9964 82.0112 25.0686 82.0112H111.469C112.513 81.983 113.387 81.1365 113.387 80.0643Z" fill="#0E97F7"/>
<path d="M68.2685 41.0404C72.1021 41.0404 75.2098 37.9326 75.2098 34.099C75.2098 30.2655 72.1021 27.1577 68.2685 27.1577C64.4349 27.1577 61.3271 30.2655 61.3271 34.099C61.3271 37.9326 64.4349 41.0404 68.2685 41.0404Z" fill="#C8EEFB"/>
<path d="M70.9489 32.5189C70.9489 34.0144 69.7356 35.1995 68.2683 35.1995C66.7728 35.1995 65.5877 33.9862 65.5877 32.5189C65.5877 31.0517 66.801 29.8383 68.2683 29.8383C69.7638 29.8101 70.9489 31.0234 70.9489 32.5189ZM72.3315 43.7492V39.0652C72.3315 37.2876 70.8925 35.8203 69.0866 35.8203H67.45C65.6724 35.8203 64.2051 37.2594 64.2051 39.0652V43.7492C64.2051 44.2571 64.6001 44.6522 65.108 44.6522H71.4286C71.9083 44.6522 72.3315 44.2571 72.3315 43.7492Z" fill="#1A1859"/>
<path d="M84.9166 48.9693H51.6207C50.097 48.9693 48.8555 47.7278 48.8555 46.2041C48.8555 44.6804 50.097 43.4388 51.6207 43.4388H84.9166C86.4403 43.4388 87.6818 44.6804 87.6818 46.2041C87.6536 47.7278 86.4121 48.9693 84.9166 48.9693Z" fill="#C8EEFB"/>
<path d="M83.7598 46.9377H52.7777C52.3827 46.9377 52.0723 46.6273 52.0723 46.2323C52.0723 45.8372 52.3827 45.5269 52.7777 45.5269H83.7316C84.1266 45.5269 84.437 45.8372 84.437 46.2323C84.4652 46.5991 84.1548 46.9377 83.7598 46.9377Z" fill="#0E97F7"/>
<path d="M84.9449 58.8452H51.649C50.1253 58.8452 48.8838 57.6037 48.8838 56.08C48.8838 54.5563 50.1253 53.3147 51.649 53.3147H84.9167C86.4404 53.3147 87.6819 54.5563 87.6819 56.08C87.6819 57.6319 86.4404 58.8452 84.9449 58.8452Z" fill="#C8EEFB"/>
<path d="M52.4955 56.87C52.1004 56.87 51.79 56.5597 51.79 56.1646C51.79 55.7696 52.1004 55.4592 52.4955 55.4592C52.8905 55.4592 53.2009 55.7696 53.2009 56.1646C53.2291 56.5597 52.8905 56.87 52.4955 56.87ZM55.3736 56.1646C55.3736 55.7696 55.0632 55.4592 54.6682 55.4592C54.2731 55.4592 53.9627 55.7696 53.9627 56.1646C53.9627 56.5597 54.2731 56.87 54.6682 56.87C55.035 56.87 55.3736 56.5597 55.3736 56.1646ZM57.4898 56.1646C57.4898 55.7696 57.1795 55.4592 56.7844 55.4592C56.3894 55.4592 56.079 55.7696 56.079 56.1646C56.079 56.5597 56.3894 56.87 56.7844 56.87C57.1795 56.87 57.4898 56.5597 57.4898 56.1646ZM59.6343 56.1646C59.6343 55.7696 59.3239 55.4592 58.9289 55.4592C58.5339 55.4592 58.2235 55.7696 58.2235 56.1646C58.2235 56.5597 58.5339 56.87 58.9289 56.87C59.3239 56.87 59.6343 56.5597 59.6343 56.1646ZM61.7788 56.1646C61.7788 55.7696 61.4684 55.4592 61.0734 55.4592C60.6783 55.4592 60.368 55.7696 60.368 56.1646C60.368 56.5597 60.6783 56.87 61.0734 56.87C61.4402 56.87 61.7788 56.5597 61.7788 56.1646ZM63.8951 56.1646C63.8951 55.7696 63.5847 55.4592 63.1896 55.4592C62.7946 55.4592 62.4842 55.7696 62.4842 56.1646C62.4842 56.5597 62.7946 56.87 63.1896 56.87C63.5847 56.87 63.8951 56.5597 63.8951 56.1646ZM66.0395 56.1646C66.0395 55.7696 65.7292 55.4592 65.3341 55.4592C64.9391 55.4592 64.6287 55.7696 64.6287 56.1646C64.6287 56.5597 64.9391 56.87 65.3341 56.87C65.7292 56.87 66.0395 56.5597 66.0395 56.1646Z" fill="#0E97F7"/>
<path d="M72.9811 69.229H63.5284C62.0047 69.229 60.7632 67.9875 60.7632 66.4638C60.7632 64.9401 62.0047 63.6985 63.5284 63.6985H72.9811C74.5048 63.6985 75.7463 64.9401 75.7463 66.4638C75.7463 67.9875 74.5048 69.229 72.9811 69.229Z" fill="#7450F0"/>
<path opacity="0.09" d="M103.145 81.8419V78.7098C103.145 77.6658 102.298 76.8475 101.283 76.8475H101.113V73.9412C101.113 69.6522 97.6145 66.1816 93.3537 66.1816C89.0648 66.1816 85.5941 69.6805 85.5941 73.9412V76.8475H85.4248C84.3808 76.8475 83.5625 77.694 83.5625 78.7098V81.8419H103.145ZM88.1336 73.8848C88.1336 71.0066 90.4756 68.6929 93.3255 68.6929C96.2036 68.6929 98.5174 71.0349 98.5174 73.8848V76.7911H88.1054V73.8848H88.1336Z" fill="black"/>
<path d="M91.4066 66.1251C87.1176 66.1251 83.647 69.624 83.647 73.8848V81.3622H99.1945V73.8848C99.1662 69.5958 95.6956 66.1251 91.4066 66.1251ZM86.2147 78.7945V73.8848C86.2147 71.0066 88.5567 68.6929 91.4066 68.6929C94.2847 68.6929 96.5985 71.0349 96.5985 73.8848V78.7945H86.2147Z" fill="#F9714E"/>
<path opacity="0.4" d="M91.4069 67.6488C87.9927 67.6488 85.1992 70.4423 85.1992 73.8565V79.8385H97.6146V73.8848C97.6146 70.4423 94.8212 67.6488 91.4069 67.6488ZM96.5988 78.7945H86.1868V73.8848C86.1868 71.0066 88.5288 68.6929 91.3787 68.6929C94.2568 68.6929 96.5706 71.0349 96.5706 73.8848V78.7945H96.5988Z" fill="#F9714E"/>
<path d="M99.3076 92.4514H83.5061C82.4621 92.4514 81.5874 91.6049 81.5874 90.5327V78.7098C81.5874 77.6658 82.4339 76.7911 83.5061 76.7911H99.3076C100.352 76.7911 101.226 77.6376 101.226 78.7098V90.5609C101.226 91.6049 100.352 92.4514 99.3076 92.4514Z" fill="#FFB255"/>
<path d="M93.9079 82.8886C93.9079 81.6825 92.9387 80.7133 91.7325 80.7133C90.5264 80.7133 89.5571 81.6825 89.5571 82.8886C89.5571 83.7286 90.031 84.461 90.7417 84.8271V87.1533H92.7448V84.8056C93.4341 84.4394 93.9079 83.7286 93.9079 82.8886Z" fill="#1A1859"/>
<path d="M93.8613 20.1034C93.7484 19.7648 93.7484 19.3698 94.0024 19.1158C94.1999 18.9183 94.5103 18.8337 94.7642 18.9465C96.7112 19.7931 96.4855 22.8405 96.4855 22.8405C96.4855 22.8405 94.6514 22.5583 93.8613 20.1034Z" fill="#00AD9F"/>
<path d="M93.8049 25.775C92.5633 28.0606 97.0216 27.8631 98.6299 26.5369C98.6299 26.5369 94.9053 23.8281 93.8049 25.775Z" fill="#00AD9F"/>
<path d="M99.448 20.2727C99.1376 19.8495 99.0247 19.2287 99.3633 18.8337C99.6173 18.5515 100.041 18.4386 100.407 18.5233C100.774 18.6079 101.338 18.9465 101.592 19.2569C103.06 21.091 102.383 22.8687 102.383 22.8687C102.383 22.8687 99.9559 20.9499 99.448 20.2727Z" fill="#00AD9F"/>
<path d="M117.168 25.8879C117.055 25.5211 117.084 25.0978 117.366 24.8439C117.535 24.6746 117.789 24.6181 118.015 24.6463C118.241 24.6746 118.466 24.7592 118.692 24.8439C119.143 25.0414 119.51 25.4082 119.708 25.8597C120.272 26.9883 119.877 28.3992 119.877 28.3992C119.877 28.3992 117.45 26.7908 117.168 25.8879Z" fill="#00AD9F"/>
<path d="M111.61 30.064C110.82 29.3586 109.606 29.161 108.647 29.5843C108.393 29.6972 108.167 29.8382 108.026 30.064C107.688 30.5437 107.8 31.2773 108.167 31.757C108.534 32.2367 109.098 32.5188 109.635 32.7728C110.622 33.2243 112.174 33.3089 113.218 33.5911C113.218 33.5911 113.19 31.4748 111.61 30.064Z" fill="#00AD9F"/>
<path d="M95.2441 20.5831C95.8931 22.7276 97.7554 24.3642 99.8153 25.2389C101.875 26.1136 104.161 26.3394 106.418 26.5087C108.647 26.6498 110.933 26.7344 113.105 27.327C115.222 27.8913 117.31 29.1046 118.241 31.108C119.341 33.5347 118.354 36.441 116.83 38.6137C115.278 40.7864 113.19 42.5358 111.695 44.765C111.017 45.7808 110.425 46.9659 110.566 48.1792C110.763 49.8158 112.118 51.0009 113.388 52.0167" stroke="#086356" stroke-miterlimit="10" stroke-linecap="round" stroke-linejoin="round"/>
<path d="M100.436 19.793C101.932 21.4296 103.117 24.0256 103.399 26.2265" stroke="#086356" stroke-miterlimit="10" stroke-linecap="round" stroke-linejoin="round"/>
<path d="M95.4131 26.1701C96.2596 26.3958 97.1343 26.6215 98.009 26.6215C98.8838 26.6215 99.8996 26.1419 100.549 25.5211" stroke="#086356" stroke-miterlimit="10" stroke-linecap="round" stroke-linejoin="round"/>
<path d="M118.636 26.029C119.426 26.7908 119.906 27.8913 119.962 28.9917C119.99 30.0922 119.398 31.4466 118.664 32.2649" stroke="#086356" stroke-miterlimit="10" stroke-linecap="round" stroke-linejoin="round"/>
<path d="M110.312 31.0516C111.892 32.5189 113.274 33.704 115.052 34.9455C115.87 35.5098 117.45 36.2435 118.184 36.046" stroke="#086356" stroke-miterlimit="10" stroke-linecap="round" stroke-linejoin="round"/>
</svg>
