<svg width="34" height="42" viewBox="0 0 34 42" fill="none" xmlns="http://www.w3.org/2000/svg">
<path d="M27.6645 27.6678V9.0026H24.998V7.00277C25.0083 6.29034 24.7989 5.59204 24.3981 5.00293H31.6642C32.0178 5.00293 32.3569 5.14339 32.6069 5.39342C32.8569 5.64345 32.9974 5.98256 32.9974 6.33615V39.6668C32.9974 40.0204 32.8569 40.3595 32.6069 40.6095C32.3569 40.8595 32.0178 41 31.6642 41H2.33322C1.97963 41 1.64052 40.8595 1.39049 40.6095C1.14046 40.3595 1 40.0204 1 39.6668V6.33615C1 5.98256 1.14046 5.64345 1.39049 5.39342C1.64052 5.14339 1.97963 5.00293 2.33322 5.00293H9.5993C9.19854 5.59204 8.98905 6.29034 8.99935 7.00277V9.0026H6.3329V35.6671H19.6651L27.6645 27.6678Z" fill="#DDA991"/>
<path d="M21.6651 3.66979H20.2653C20.1123 2.91633 19.7035 2.23892 19.1082 1.75236C18.5129 1.2658 17.7677 1 16.9989 1C16.23 1 15.4848 1.2658 14.8895 1.75236C14.2942 2.23892 13.8855 2.91633 13.7325 3.66979H12.3326C11.8872 3.64033 11.4408 3.70635 11.023 3.86343C10.6053 4.02051 10.2259 4.26503 9.91033 4.58061C9.59475 4.8962 9.35023 5.27556 9.19315 5.6933C9.03607 6.11104 8.97005 6.55753 8.99951 7.00285V9.00269H24.9982V7.00285C25.0171 6.56012 24.9438 6.11829 24.7829 5.70536C24.6221 5.29244 24.3773 4.91742 24.0639 4.60407C23.7506 4.29073 23.3756 4.04588 22.9626 3.88505C22.5497 3.72423 22.1079 3.65093 21.6651 3.66979Z" fill="#C3D1FF"/>
<path opacity="0.15" d="M4.33301 37.6669H18.3319V35.6671H6.33284V11.0024H4.33301V37.6669Z" fill="#000064"/>
<path d="M6.33301 9.00244V35.6669H19.6653V27.6676H27.6646V9.00244H6.33301Z" fill="#EBF5FF"/>
<path d="M19.665 35.6673L27.6644 27.668H19.665V35.6673Z" fill="#EBF5FF"/>
<path opacity="0.15" d="M19.665 35.6673L27.6644 27.668H19.665V35.6673Z" fill="#000064"/>
<path opacity="0.08" d="M16.9985 29.001H19.665V35.6671H16.9985V29.001Z" fill="#000064"/>
<path opacity="0.15" d="M6.33292 9.00273V11.0026H22.3316V9.00273H8.99937V7.00289C8.99248 6.57233 9.06014 6.14382 9.19936 5.73633C8.39191 5.80443 7.64225 6.18272 7.10777 6.79177C6.57329 7.40083 6.29557 8.19327 6.33292 9.00273Z" fill="#000064"/>
<path d="M8.99946 9.00244H6.33301V35.6669H19.6653L27.6646 27.6676V9.00244H24.9982" stroke="#2E4369" stroke-miterlimit="10" stroke-linecap="round" stroke-linejoin="round"/>
<path d="M19.665 35.6673V27.668H27.6644" stroke="#2E4369" stroke-miterlimit="10" stroke-linecap="round" stroke-linejoin="round"/>
<path d="M24.3981 5.00293H31.6642C32.0178 5.00293 32.3569 5.14339 32.6069 5.39342C32.8569 5.64345 32.9974 5.98256 32.9974 6.33615V39.6668C32.9974 40.0204 32.8569 40.3595 32.6069 40.6095C32.3569 40.8595 32.0178 41 31.6642 41H2.33322C1.97963 41 1.64052 40.8595 1.39049 40.6095C1.14046 40.3595 1 40.0204 1 39.6668V6.33615C1 5.98256 1.14046 5.64345 1.39049 5.39342C1.64052 5.14339 1.97963 5.00293 2.33322 5.00293H9.5993" stroke="#2E4369" stroke-miterlimit="10" stroke-linecap="round" stroke-linejoin="round"/>
<path d="M21.6651 3.66979H20.2653C20.1123 2.91633 19.7035 2.23892 19.1082 1.75236C18.5129 1.2658 17.7677 1 16.9989 1C16.23 1 15.4848 1.2658 14.8895 1.75236C14.2942 2.23892 13.8855 2.91633 13.7325 3.66979H12.3326C11.8872 3.64033 11.4408 3.70635 11.023 3.86343C10.6053 4.02052 10.2259 4.26503 9.91033 4.58061C9.59475 4.8962 9.35023 5.27556 9.19315 5.6933C9.03607 6.11104 8.97005 6.55753 8.99951 7.00285V9.00269H24.9982V7.00285C25.0171 6.56012 24.9438 6.11829 24.7829 5.70536C24.6221 5.29244 24.3773 4.91742 24.0639 4.60407C23.7506 4.29073 23.3756 4.04588 22.9626 3.88505C22.5497 3.72423 22.1079 3.65093 21.6651 3.66979V3.66979Z" stroke="#2E4369" stroke-miterlimit="10" stroke-linecap="round" stroke-linejoin="round"/>
</svg>
