<svg width="207" height="244" viewBox="0 0 207 244" fill="none" xmlns="http://www.w3.org/2000/svg">
<path opacity="0.95" d="M72.4544 111.441H9.22518C4.22974 111.441 0.174805 107.386 0.174805 102.391V39.1617C0.174805 34.1663 4.22974 30.1113 9.22518 30.1113H72.4544C77.4499 30.1113 81.5048 34.1663 81.5048 39.1617V102.391C81.5048 107.386 77.4499 111.441 72.4544 111.441Z" fill="#EBF3FF"/>
<path d="M59.6574 92.9243H22.0066V94.7899H59.6574V92.9243Z" fill="#7C7C99"/>
<path d="M54.3228 98.7832H27.3413V100.649H54.3228V98.7832Z" fill="#7C7C99"/>
<path opacity="0.95" d="M195.521 188.963H105.526C99.6365 188.963 94.8723 184.199 94.8723 178.309V68.9803C94.8723 63.0906 99.6365 58.3264 105.526 58.3264H195.521C201.411 58.3264 206.175 63.0906 206.175 68.9803V178.309C206.175 184.184 201.411 188.963 195.521 188.963Z" fill="#ECF4FF"/>
<path d="M154.17 135.385H145.335V137.02H154.17V135.385Z" fill="#00C1B4"/>
<path d="M163.205 150.372H111.832V153.533H163.205V150.372Z" fill="#00C1B4"/>
<path d="M153.368 165.574H111.832V168.735H153.368V165.574Z" fill="#00C1B4"/>
<path d="M136.177 157.973H111.832V161.134H136.177V157.973Z" fill="#00C1B4"/>
<path d="M176.634 71.3545V72.958H186.054V81.7925H187.658V71.3545H176.634ZM112.711 81.7771H114.314V72.9426H123.735V71.3391H112.726V81.7771H112.711ZM186.039 127.368V136.203H176.619V137.806H187.627V127.368H186.039ZM114.314 127.368H112.711V137.806H123.719V136.203H114.299V127.368H114.314Z" fill="#00C1B4"/>
<path d="M182.662 168.966C177.466 168.966 173.242 164.741 173.242 159.545C173.242 154.35 177.466 150.125 182.662 150.125C187.858 150.125 192.083 154.35 192.083 159.545C192.083 164.741 187.858 168.966 182.662 168.966ZM182.662 151.96C178.469 151.96 175.077 155.367 175.077 159.545C175.077 163.739 178.484 167.131 182.662 167.131C186.841 167.131 190.248 163.724 190.248 159.545C190.248 155.367 186.841 151.96 182.662 151.96Z" fill="#00C1B4"/>
<path d="M182.061 163.261L177.79 158.975L179.07 157.695L182.061 160.686L186.255 156.493L187.534 157.788L182.061 163.261Z" fill="#00C1B4"/>
<path opacity="0.95" d="M141.805 53.8088H96.9229C92.8217 53.8088 89.4915 50.4786 89.4915 46.3774V7.43148C89.4915 3.33029 92.8217 0 96.9229 0H141.805C145.906 0 149.236 3.33029 149.236 7.43148V46.362C149.236 50.4786 145.906 53.8088 141.805 53.8088Z" fill="#ECF4FF"/>
<path d="M121.499 43.6331H116.766V44.5119H121.499V43.6331Z" fill="#7C7C99"/>
<path d="M122.301 10.2684C122.301 10.2684 125.122 11.8102 124.228 15.6185C123.334 19.4267 122.994 19.9201 123.719 21.4619C124.444 23.0037 125.091 29.4484 124.305 30.6202C123.534 31.792 115.671 24.8693 114.792 19.3188C113.913 13.7683 115.887 11.4248 116.581 10.5459C117.274 9.68254 119.803 8.86539 122.301 10.2684Z" fill="#344052"/>
<path d="M127.589 41.7366H124.567C124.428 40.241 124.289 39.208 124.32 39.0538C124.366 38.8072 121.314 30.8052 121.036 30.1422C120.743 29.4793 119.633 27.7062 119.479 26.041C119.325 24.3759 121.514 23.6975 121.514 23.6975C124.459 24.2217 125.446 28.2921 125.446 28.2921C125.446 28.2921 126.679 36.5407 127.311 38.8534C127.465 39.4547 127.543 40.5031 127.589 41.7366Z" fill="#EEA886"/>
<path d="M126.063 30.281L121.561 32.1775C121.561 32.1775 117.429 21.9245 120.898 23.0654C124.367 24.2064 125.908 26.3495 126.063 30.281Z" fill="#3480B5"/>
<path d="M125.076 35.1068C124.937 36.1244 124.413 39.7322 124.521 40.7035C124.536 40.8577 124.613 41.2277 124.706 41.7365H113.867C114.16 40.7035 114.422 39.7939 114.576 39.2696C115.1 37.5274 114.592 37.0495 114.329 35.6618C114.222 35.1222 113.867 34.0738 113.466 32.902C113.327 32.5166 113.204 32.1003 113.065 31.6994C112.587 30.2193 112.371 28.7083 112.233 27.8295C111.585 23.6666 114.792 23.2658 114.792 23.2658C115.979 23.0499 118.061 22.4023 118.061 22.4023L121.314 23.0807C121.314 23.0807 121.622 23.2041 122.069 23.5279C122.285 23.682 122.532 23.8979 122.809 24.1754C123.164 24.5454 123.873 25.5939 124.582 26.7348C124.798 27.0894 125.014 27.444 125.215 27.7986C125.878 28.9396 126.355 29.8647 126.34 30.9131C126.34 31.9461 125.199 34.0892 125.076 35.1068Z" fill="#3480B5"/>
<path d="M121.329 23.0654C121.329 23.0654 123.364 26.5499 122.609 26.812C121.853 27.0741 117.845 26.1953 116.287 22.8958C116.272 22.8958 118.908 21.7086 121.329 23.0654Z" fill="#EEA886"/>
<path d="M121.036 24.6533C121.036 24.6533 119.217 25.4243 117.583 22.8957C117.583 22.8957 118.03 20.0279 117.089 18.3628C116.149 16.6977 121.175 20.3517 121.175 20.3517C121.175 20.3517 121.098 20.6909 121.005 21.1997C120.959 21.4618 120.913 21.7548 120.882 22.0785C120.851 22.3406 120.836 22.6182 120.82 22.8957C120.79 23.5587 120.836 24.1908 121.036 24.6533Z" fill="#EEA886"/>
<path d="M116.519 28.5696C116.149 30.4968 113.466 32.902 113.466 32.902C113.327 32.5166 113.204 32.1003 113.065 31.6994C114.915 30.5122 116.519 28.5696 116.519 28.5696Z" fill="#393D63"/>
<path d="M115.856 30.0959C115.686 30.7897 114.9 37.882 114.992 38.1287C115.039 38.2675 115.424 39.9018 115.794 41.7365H112.294C111.94 40.5648 111.724 39.5934 111.77 39.0384C111.986 36.6486 111.184 29.0167 111.184 29.0167C111.184 29.0167 110.459 24.4067 114.283 23.8208C114.283 23.8208 116.55 24.1137 116.688 25.7943C116.827 27.4595 116.025 29.4021 115.856 30.0959Z" fill="#EEA886"/>
<path d="M110.907 31.0827L115.655 32.1928C115.655 32.1928 119.417 24.8692 116.025 23.5433C112.448 22.1248 110.043 27.0894 110.907 31.0827Z" fill="#3480B5"/>
<path d="M121.853 10.6848C121.853 10.6848 125.985 12.1958 123.364 19.3189C120.743 26.442 115.409 18.1009 116.21 13.7222C117.028 9.34345 121.853 10.6848 121.853 10.6848Z" fill="#EEA987"/>
<path d="M123.996 15.0171C123.996 15.0171 121.823 16.9598 118.323 17.0523C118.323 17.0523 117.505 19.0412 117.367 19.6579C117.367 19.6579 113.913 13.722 117.891 10.7309C121.869 7.7244 125.461 13.7683 123.996 15.0171Z" fill="#344052"/>
<path d="M118.801 17.4685C118.801 16.9443 118.523 15.7263 117.737 16.0192C116.935 16.3122 117.66 18.7945 118.184 18.6711C118.168 18.6865 118.801 18.7174 118.801 17.4685Z" fill="#EEA987"/>
<path d="M120.82 22.7879C118.878 22.2483 118.138 20.3981 118.107 20.3364C119.68 22.3716 120.867 22.0787 120.867 22.0787C120.851 22.3562 120.836 22.5258 120.82 22.7879Z" fill="#A77860"/>
<path d="M133.556 9.74418V10.6076H138.613V15.3563H139.476V9.74418H133.556ZM99.2508 15.3409H100.114V10.5922H105.171V9.72876H99.2662V15.3409H99.2508ZM138.613 39.8093V44.558H133.556V45.4215H139.461V39.8247H138.613V39.8093ZM100.099 39.8093H99.2354V45.406H105.14V44.558H100.083V39.8093H100.099Z" fill="#7C7C99"/>
<path d="M44.0082 83.8433H37.6714V85.015H44.0082V83.8433Z" fill="#7C7C99"/>
<path d="M59.8116 38.5605V39.7015H66.5647V46.0383H67.7056V38.5605H59.8116ZM13.9739 46.0383H15.1148V39.7015H21.8679V38.5605H13.9739V46.0383ZM66.5493 78.7245V85.0613H59.7962V86.2022H67.7056V78.7245H66.5493ZM15.1148 78.7245H13.9739V86.2022H21.8679V85.0613H15.1148V78.7245Z" fill="#7C7C99"/>
<path d="M41.0326 18.3626C41.0326 18.3626 45.0259 15.8032 48.6183 20.3515C52.2107 24.8998 50.9156 29.2631 50.1755 33.3489C49.4354 37.4039 45.8122 46.6547 47.3386 50.7404C48.8804 54.8262 46.9069 56.9539 46.9069 56.9539C46.9069 56.9539 34.5416 60.1146 35.9909 41.5205C37.4248 22.9263 41.0326 18.3626 41.0326 18.3626Z" fill="#163342"/>
<path d="M33.5086 59.5751C33.5086 59.5751 29.8853 69.1651 26.4625 78.1076H17.1809C18.5994 73.7289 20.0332 69.0572 20.2028 68.2092C20.5112 66.5441 20.65 61.6103 22.5464 58.1413C24.4428 54.6722 28.9757 53.3154 28.9757 53.3154C36.4534 53.6546 33.5086 59.5751 33.5086 59.5751Z" fill="#1D3B54"/>
<path d="M56.759 68.9494C56.759 68.9494 55.3097 73.6519 53.9221 78.1231H23.6565C23.5332 77.7376 23.3636 77.3213 23.1785 76.8742C20.9584 71.74 19.8791 67.3767 20.9584 64.4627C22.0376 61.5487 28.174 53.5622 29.762 53.2538C31.3501 52.93 35.8984 50.7869 35.8984 50.7869C38.8741 50.3398 43.114 50.5557 44.5787 51.0799C46.028 51.5887 54.1533 52.4058 57.129 54.7185C60.5518 57.355 56.759 68.9494 56.759 68.9494Z" fill="#EDDAD3"/>
<path d="M34.4491 60.932L31.6738 57.6942L34.079 49.1526C34.0945 49.1526 34.8962 53.9013 34.4491 60.932Z" fill="#D6C5BE"/>
<path d="M33.7397 45.5138C33.7397 45.5138 34.6494 53.8858 34.4644 56.5994C34.4644 56.5994 39.1977 61.3481 44.594 51.0489C44.594 51.0489 42.3276 46.8089 44.039 41.0272C45.735 35.2454 33.7397 45.5138 33.7397 45.5138Z" fill="#EEA886"/>
<path d="M34.449 56.5994V60.9318L39.907 56.8615L34.449 56.5994Z" fill="#EEA886"/>
<path d="M34.449 60.932L36.7154 58.1414L44.3473 50.5403L46.8142 52.9147L34.449 60.932Z" fill="#D6C5BE"/>
<path d="M59.9505 61.2709C59.9505 61.2709 58.64 66.1122 55.1092 78.1074H39.352C38.8587 71.8014 38.5966 66.7752 38.7045 65.2488C39.0128 60.978 45.4113 51.2646 45.4113 51.2646C45.4113 51.2646 49.4046 51.7426 53.6908 52.6831C58.5629 53.7315 59.9505 61.2709 59.9505 61.2709Z" fill="#1D3B54"/>
<path d="M32.5219 52.2668C28.6212 56.9385 27.2335 67.1915 27.0177 78.1074H23.5178C19.4474 69.6121 20.5421 65.7422 20.5421 65.7422C22.6698 58.4803 28.9758 53.3153 28.9758 53.3153L32.5219 52.2668Z" fill="#1D3B54"/>
<path d="M31.6737 57.6942L28.1892 58.6655L34.0943 49.1526L31.6737 57.6942Z" fill="#FAE6DE"/>
<path d="M36.7156 58.1414L39.9071 62.3196L46.4289 51.4037L44.3475 50.5403L36.7156 58.1414Z" fill="#FAE6DE"/>
<path d="M33.9248 47.3486L34.0944 48.9983C34.0944 48.9983 37.8564 49.7384 42.7747 43.7253C42.7747 43.7253 39.2749 47.9807 33.9248 47.3486Z" fill="#A77860"/>
<path d="M34.8808 47.472C33.4007 47.4103 29.2533 46.9324 27.2181 37.3886C24.7204 25.7326 30.24 19.6887 34.9579 18.5632C39.6758 17.4377 44.0391 19.0874 46.4598 25.1776C46.4598 25.1776 48.2328 29.9263 45.3651 38.3908C42.4819 46.8553 36.4689 47.5337 34.8808 47.472Z" fill="#EEA987"/>
<path d="M38.6737 26.1335C38.6737 26.1335 32.3369 26.5344 26.4318 35.3843C26.4318 35.3843 23.6719 24.7305 30.8876 19.8584C38.1032 15.0017 43.1603 19.18 44.9179 21.2922C44.9179 21.2922 47.4465 21.8781 47.5236 26.6577C47.6007 31.4527 50.823 38.6683 43.7616 42.1065C43.7616 42.1065 44.44 36.6332 43.8079 35.3843C43.1757 34.1354 41.0172 34.9834 38.6737 26.1335Z" fill="#163342"/>
<path d="M43.4531 33.2718C43.7768 32.4392 44.6402 32.1155 45.1182 32.9943C45.5962 33.8885 45.0257 37.3268 43.746 37.7122C42.4663 38.0822 42.8055 34.9524 43.4531 33.2718Z" fill="#EEA987"/>
<path d="M66.056 78.1076H55.7413C54.6621 75.4557 53.6445 73.0967 52.9815 71.4007C50.7459 65.7886 41.8651 55.2118 47.5235 51.6965C47.5235 51.6965 54.9396 51.2494 58.6708 55.5664C62.3865 59.8989 62.1861 65.0331 63.142 67.2687C63.8358 68.9339 65.1926 74.6385 66.056 78.1076Z" fill="#1D3B54"/>
<path d="M185.638 121.247H174.152C173.751 118.472 173.458 116.468 173.458 116.468C173.458 116.468 173.288 118.333 173.026 121.247H124.706C124.49 119.15 124.29 117.855 124.197 117.809C124.059 117.732 123.55 119.135 122.887 121.247H109.874C113.266 107.741 118.061 91.5522 121.037 90.4112C126.063 88.484 146.569 82.1626 146.569 82.1626H158.271C158.271 82.1626 179.07 88.0985 180.997 94.5433C182.385 99.1378 184.204 109.283 185.638 121.247Z" fill="#E65353"/>
<path d="M173.304 112.459L172.918 112.382C172.934 112.274 174.83 101.882 172.147 95.9926L172.502 95.8384C175.246 101.851 173.334 112.351 173.304 112.459Z" fill="#B84343"/>
<path d="M173.242 110.378C173.227 110.301 172.116 102.237 169.696 99.2152L169.989 98.9685C172.486 102.068 173.581 109.977 173.627 110.316L173.242 110.378Z" fill="#B84343"/>
<path d="M152.967 44.1883C152.967 44.1883 163.899 45.9151 162.233 63.0136C160.568 80.1122 150.932 78.7092 150.284 78.6938C149.637 78.6783 140.602 79.0021 139.893 58.1261C139.893 58.1261 139.584 42.6927 152.967 44.1883Z" fill="#EEA987"/>
<path d="M158.071 73.6521C158.071 73.6521 157.778 80.6827 158.456 82.2091C159.135 83.7355 149.437 88.623 143.516 83.165C143.516 83.165 144.95 75.5177 144.549 72.8195C144.148 70.1213 158.071 73.6521 158.071 73.6521Z" fill="#EEA987"/>
<path d="M162.403 58.1877C162.403 58.1877 163.606 56.9081 164.037 58.2032C164.469 59.4983 162.187 65.28 162.326 65.5421C162.326 65.5421 162.11 66.0509 161.817 65.7734C161.54 65.4805 162.403 58.1877 162.403 58.1877Z" fill="#EEA987"/>
<path d="M140.016 57.9718C140.016 57.9718 138.844 56.6767 138.382 57.9564C137.919 59.2361 140.109 65.0641 139.939 65.3262C139.939 65.3262 140.155 65.835 140.448 65.5575C140.741 65.2799 140.016 57.9718 140.016 57.9718Z" fill="#EEA987"/>
<path d="M162.403 60.8088L160.831 62.9056C160.831 62.9056 160.877 58.3265 160.63 57.6018C160.383 56.8772 160.923 54.3795 160.723 53.8552C160.507 53.331 153.245 55.2583 141.327 54.0865C141.327 54.0865 142.653 58.2185 141.882 58.5115C141.111 58.8044 141.481 63.8769 141.481 63.8769L140.201 62.4277C140.201 62.4277 138.752 53.7627 138.891 52.3134C139.076 50.3862 138.413 41.3821 155.172 42.9393C157.084 43.1089 158.934 43.8027 160.46 44.9745C162.187 46.285 163.96 48.3356 163.791 51.1571C163.575 54.8574 162.403 60.8088 162.403 60.8088Z" fill="#424242"/>
<path d="M158.456 82.2091C158.456 82.2091 160.923 82.7333 150.608 92.6162C150.608 92.6162 143.285 84.5218 143.531 83.165C143.747 81.8236 158.456 82.2091 158.456 82.2091Z" fill="#EEA987"/>
<path d="M123.118 121.247H109.535C111.647 113.184 114.191 104.673 115.764 99.2149C118.477 89.8253 122.193 89.5632 122.193 89.5632L124.213 117.809C124.197 117.824 123.75 119.197 123.118 121.247Z" fill="#4F544F"/>
<path d="M150.593 92.6316L153.368 98.0741L162.079 84.3521L158.456 82.209L150.593 92.6316Z" fill="#C24646"/>
<path d="M185.962 121.247H174.044C173.735 118.781 173.535 117.162 173.535 117.162C173.535 117.162 173.504 118.734 173.458 121.247H156.467C156.483 120.492 156.529 119.783 156.591 119.135C158.009 105.598 158.425 82.209 158.425 82.209C158.425 82.209 176.588 84.645 180.982 94.5434C183.557 100.263 185.068 111.688 185.962 121.247Z" fill="#4F544F"/>
<path d="M150.593 92.6317L146.692 98.0742L141.049 87.9908L143.516 83.1804L150.593 92.6317Z" fill="#C24646"/>
<path d="M143.516 83.1804C143.516 83.1804 141.419 92.1537 140.386 105.166C140.093 108.867 138.767 114.695 136.994 121.263H124.552L124.197 117.825L122.177 89.5789L143.516 83.1804Z" fill="#4F544F"/>
<path d="M158.024 78.7246L164.099 82.2091L157.747 102.9L158.024 78.7246Z" fill="#4F544F"/>
<path d="M144.102 79.5725L143.516 83.1803L139.523 102.083L137.472 82.1627L144.102 79.5725Z" fill="#4F544F"/>
<path d="M145.351 76.4888C145.351 76.4888 147.664 79.0328 151.148 78.7553C154.617 78.4777 157.053 76.3655 157.053 76.3655C157.053 76.3655 155.573 79.9887 151.009 80.2046C146.446 80.4204 145.351 76.4888 145.351 76.4888Z" fill="#A77860"/>
<path d="M106.667 126.674L120.913 134.507L135.221 111.996L117.907 105.983L106.667 126.674Z" fill="#292C47"/>
<path d="M107.561 125.996L120.898 133.319L134.265 112.258L118.092 106.646L107.561 125.996Z" fill="white"/>
<path d="M102.689 122.064C102.689 122.064 105.172 120.877 106.251 120.26C107.345 119.644 110.136 118.796 110.367 118.58C110.599 118.379 118.662 117.886 119.156 117.454C119.649 117.038 120.127 118.441 118.03 118.904C115.933 119.366 113.019 120.476 112.865 121.293C112.711 122.111 115.008 122.311 115.255 122.974C115.486 123.652 115.193 123.498 114.854 123.637C114.515 123.776 112.11 122.45 111.046 122.82C109.982 123.205 108.363 122.681 107.546 122.959C106.729 123.236 102.782 124.562 102.782 124.562L102.689 122.064Z" fill="#FD9F9E"/>
<path d="M121.607 131.685C121.607 131.685 123.689 129.804 124.706 129.033C125.708 128.247 127.605 125.934 127.882 125.811C128.16 125.672 131.768 118.256 132.369 117.963C132.955 117.67 131.814 116.668 130.565 118.457C129.316 120.245 127.127 122.558 126.294 122.388C125.462 122.219 126.171 119.968 125.631 119.49C125.092 119.012 125.107 119.351 124.845 119.598C124.583 119.86 124.907 122.65 124.136 123.498C123.365 124.346 123.226 126.089 122.656 126.752C122.07 127.415 119.279 130.621 119.279 130.621L121.607 131.685Z" fill="#FD9F9E"/>
<path d="M76.7408 231.902C76.7408 231.902 76.2937 235.032 76.232 235.495C76.1704 235.957 71.2212 235.217 71.2212 235.217L70.8203 231.486C70.8203 231.502 76.1241 231.455 76.7408 231.902Z" fill="#424773"/>
<path d="M76.2782 235.094C76.2782 235.094 77.8508 236.975 79.3618 237.807C80.8881 238.624 83.2625 238.948 84.1722 239.812C84.8197 240.428 86.5311 243.065 80.2252 243.019C73.9192 242.972 70.8819 243.389 70.2035 242.371C69.5251 241.353 71.1748 234.893 71.1748 234.893C71.1748 234.893 72.6704 235.433 76.2782 235.094Z" fill="#292C47"/>
<path d="M112.248 231.902C112.248 231.902 111.801 235.032 111.74 235.495C111.678 235.957 106.729 235.217 106.729 235.217L106.328 231.486C106.328 231.502 111.632 231.455 112.248 231.902Z" fill="#424773"/>
<path d="M111.801 235.094C111.801 235.094 113.374 236.975 114.885 237.807C116.411 238.625 121.992 239.303 122.887 240.151C123.534 240.768 124.614 243.234 115.733 243.003C109.427 242.834 106.389 243.373 105.711 242.356C105.033 241.338 106.682 234.878 106.682 234.878C106.682 234.878 108.101 235.464 111.801 235.094Z" fill="#292C47"/>
<path d="M80.8419 151.528C80.8419 151.528 76.1856 158.929 76.5248 165.62C76.8794 172.312 74.8289 179.62 74.135 186.604C73.3487 194.39 70.1572 212.83 70.0493 217.008C69.9259 221.171 70.5426 234.477 70.5426 234.477L76.9257 234.616C76.9257 234.616 82.2912 202.377 83.6788 199.093C85.0664 195.809 91.9583 172.358 92.1895 169.721C92.4516 167.069 80.8419 151.528 80.8419 151.528Z" fill="#1A1859"/>
<path d="M105.357 152.53C105.357 152.53 108.872 170.862 109.334 174.964C109.797 179.065 110.105 194.776 110.337 197.335C110.568 199.895 111.878 230.823 113.112 234.616H104.94C104.94 234.616 98.6651 212.136 98.6651 201.498C98.6651 190.86 93.8238 178.371 90.694 171.356C87.5641 164.341 80.4102 164.171 78.4829 151.158C78.4983 151.143 102.766 148.398 105.357 152.53Z" fill="#1A1859"/>
<path d="M88.6126 89.3165C88.6126 89.3165 94.8569 86.9884 97.7401 91.7371C100.623 96.5013 100.346 106.03 97.2005 107.201C94.0552 108.373 89.3219 107.756 87.703 104.781C86.0841 101.805 84.6348 97.5035 84.6965 94.6203C84.7736 91.7371 86.9783 90.1491 88.6126 89.3165Z" fill="#FD9F9E"/>
<path d="M96.5221 107.417C96.5221 107.417 96.26 109.098 96.6917 109.93C97.1234 110.763 88.5972 110.778 88.5972 110.778C88.5972 110.778 87.9034 106.261 86.5929 102.437C85.2823 98.6136 96.5221 107.417 96.5221 107.417Z" fill="#FD9F9E"/>
<path d="M86.5929 102.437C86.5929 102.437 87.1787 103.409 89.5839 103.039C91.9892 102.668 94.9186 99.4615 95.9207 99.1069C96.9229 98.7523 96.9383 98.1664 96.9383 98.1664L97.5705 99.0915L98.6343 99.1532C98.6343 99.1532 97.663 96.3009 99.1277 95.1291C100.592 93.9573 97.6013 85.8783 89.8923 88.561C89.8923 88.561 83.9718 90.1953 84.1876 93.5564C84.4035 96.933 85.2669 100.757 86.5929 102.437Z" fill="#253858"/>
<path d="M97.2003 109.822C97.2003 109.822 97.1695 108.234 96.4602 108.08C95.7356 107.926 88.5046 107.232 87.6257 107.587V109.437C87.6257 109.437 89.3217 110.485 97.2003 109.822Z" fill="#5DC5FF"/>
<path d="M96.7686 96.9484C96.6298 96.3779 95.1959 94.7744 94.6409 96.5013C94.0858 98.2281 95.4735 100.556 96.2444 100.356C97.0307 100.14 97.1232 98.3822 96.7686 96.9484Z" fill="#FD9F9E"/>
<path d="M125.893 128.602C125.878 128.602 125.878 128.602 125.893 128.602C125.923 128.617 125.938 128.617 125.893 128.602Z" fill="#323657"/>
<path d="M75.5843 169.151C75.5843 169.151 79.4234 170.277 85.9607 171.001C92.4979 171.726 108.841 170.739 108.933 169.968C109.041 169.197 105.418 141.214 105.619 139.764C105.819 138.33 105.942 133.181 105.942 133.181C106.019 134.584 107.453 140.335 109.18 143.465C109.812 144.59 111.909 148.152 112.911 147.335C117.799 143.434 125.385 128.71 125.862 128.586C125.462 128.417 122.27 126.936 121.823 126.798C121.438 126.674 117.907 130.406 115.764 132.718C114.808 133.751 114.129 134.507 114.129 134.507C113.513 133.119 111.262 124.362 110.568 121.324C108.995 114.494 109.226 114.201 109.226 114.201C104.447 112.752 97.185 109.807 97.185 109.807L87.6104 109.422C87.6104 109.422 78.8221 111.364 75.3531 112.922C75.0293 113.076 75.0293 120.769 74.1196 122.789L76.9874 128.848C76.9874 128.848 78.6525 140.844 78.9917 146.178C79.1613 148.63 75.5843 169.151 75.5843 169.151Z" fill="#7450F0"/>
<path d="M73.7342 132.795C73.9808 133.597 75.1218 134.291 75.8618 134.584C76.3398 134.769 76.864 134.83 77.3882 134.738L77.7583 134.661L84.3263 133.443C84.3263 133.443 85.7602 116.899 75.353 112.937C75.0909 113.029 71.4369 125.379 73.7342 132.795Z" fill="#7450F0"/>
<path d="M75.8618 134.584C76.3398 134.769 76.864 134.831 77.3882 134.738L77.7582 134.661L77.1107 126.212L75.8618 134.584Z" fill="#5331CA"/>
<path d="M114.145 134.507L114.947 137.899C114.947 137.899 115.81 134.491 115.779 132.718C114.823 133.767 114.145 134.507 114.145 134.507Z" fill="#5331CA"/>
<path d="M86.8395 89.8715C86.8395 89.8715 78.6526 88.8385 86.7008 102.53L86.8395 89.8715Z" fill="#253858"/>
<path d="M128.638 110.778L129.47 109.345L122.902 107.094L122.07 108.512L128.638 110.778Z" fill="#292C47"/>
</svg>
