<svg width="24" height="18" viewBox="0 0 24 18" fill="none" xmlns="http://www.w3.org/2000/svg">
<path d="M8.99978 9.72729H14.818M6.09069 14.8182V16.2727C6.09069 16.4656 6.01406 16.6506 5.87767 16.787C5.74128 16.9234 5.5563 17 5.36341 17H2.45432C2.26144 17 2.07645 16.9234 1.94006 16.787C1.80367 16.6506 1.72705 16.4656 1.72705 16.2727V14.7455L6.09069 14.8182ZM22.0907 14.7455V16.2727C22.0907 16.4656 22.0141 16.6506 21.8777 16.787C21.7413 16.9234 21.5563 17 21.3634 17H18.4543C18.2614 17 18.0765 16.9234 17.9401 16.787C17.8037 16.6506 17.727 16.4656 17.727 16.2727V14.8182L22.0907 14.7455Z" stroke="#4B4B66" stroke-linecap="round" stroke-linejoin="round"/>
<path d="M19.9091 5.36364H22.8182M19.9091 5.36364L17 1H6.81818L3.90909 5.36364L1 8.27273V13.7273C1 14.0166 1.11493 14.2941 1.31952 14.4987C1.52411 14.7032 1.80158 14.8182 2.09091 14.8182H21.7273C22.0166 14.8182 22.2941 14.7032 22.4987 14.4987C22.7032 14.2941 22.8182 14.0166 22.8182 13.7273V8.27273L19.9091 5.36364ZM3.25455 6.09091H20.6364H3.25455ZM1 11.9091H22.8182H1ZM1 5.36364H3.90909H1Z" stroke="#4B4B66" stroke-linecap="round" stroke-linejoin="round"/>
<path d="M1 9H4.63636L7.54545 11.9091M22.8182 9H19.1818L16.2727 11.9091" stroke="#4B4B66" stroke-linecap="round" stroke-linejoin="round"/>
</svg>
