<svg width="20" height="19" viewBox="0 0 20 19" fill="none" xmlns="http://www.w3.org/2000/svg">
<path d="M12.4199 18.2428H16.655V8.49277M3.34473 8.56264V18.2428H7.5798M16.655 6.32411V1.90753H13.9324V4.15968L16.655 6.32411Z" stroke="#4B4B66" stroke-miterlimit="10" stroke-linecap="round" stroke-linejoin="round"/>
<path d="M9.99983 9.77267C10.8352 9.77267 11.5124 9.09549 11.5124 8.26014C11.5124 7.4248 10.8352 6.74762 9.99983 6.74762C9.16449 6.74762 8.4873 7.4248 8.4873 8.26014C8.4873 9.09549 9.16449 9.77267 9.99983 9.77267Z" stroke="#4B4B66" stroke-miterlimit="10" stroke-linecap="round" stroke-linejoin="round"/>
<path d="M7.57997 12.1927H12.42V18.2428H7.57997V12.1927ZM10 1L1.05675 8.15455C1.04 8.16795 1.02629 8.18477 1.01653 8.20388C1.00678 8.22299 1.0012 8.24395 1.00017 8.26538C0.999144 8.28681 1.00268 8.30821 1.01056 8.32817C1.01844 8.34812 1.03047 8.36618 1.04586 8.38113L2.04019 9.37546C2.06662 9.40187 2.10188 9.41757 2.1392 9.41952C2.17651 9.42148 2.21322 9.40955 2.24226 9.38605L10 3.11754L17.7593 9.38484C17.7883 9.40834 17.825 9.42027 17.8623 9.41831C17.8996 9.41636 17.9349 9.40066 17.9613 9.37425L18.9557 8.38113C18.9707 8.36609 18.9824 8.34805 18.99 8.32818C18.9976 8.30831 19.0009 8.28706 18.9998 8.26582C18.9986 8.24458 18.993 8.22383 18.9832 8.20491C18.9735 8.186 18.9599 8.16935 18.9433 8.15606L10 1Z" stroke="#4B4B66" stroke-miterlimit="10" stroke-linecap="round" stroke-linejoin="round"/>
</svg>
