<svg width="305" height="165" viewBox="0 0 305 165" fill="none" xmlns="http://www.w3.org/2000/svg">
<g opacity="0.38">
<path opacity="0.38" d="M305 61.6324H248.771V28.0782H203.759V161.157H248.771V161.086H305V61.6324Z" fill="#5DC5FF"/>
<path opacity="0.38" d="M192.4 17.9126H162.369V161.086H192.4V17.9126Z" fill="#5DC5FF"/>
<path opacity="0.38" d="M120.41 10.8748V45.2109H108.482V12.5098L92.0112 0.637939L75.6111 12.5098V161.157H108.482H120.41V161.086H152.5V10.8748H120.41Z" fill="#5DC5FF"/>
<path opacity="0.38" d="M34.7882 43.8385V89.4283H27.9015V26.7277H0V161.157H22.6478H27.9015H34.7882H41.4618H62.7607V43.8385H34.7882Z" fill="#5DC5FF"/>
</g>
<path d="M305 161.157H0V164.356H305V161.157Z" fill="#1A1859"/>
<path d="M111.464 61.064H53.105V161.086H111.464V61.064Z" fill="#EBC3C2"/>
<path d="M104.507 68.4574H59.5659V75.8507H104.507V68.4574Z" fill="#5A3362"/>
<path d="M104.507 81.1824H59.5659V88.5756H104.507V81.1824Z" fill="#5A3362"/>
<path d="M104.507 93.8362H59.5659V101.229H104.507V93.8362Z" fill="#5A3362"/>
<path d="M104.507 106.49H59.5659V113.883H104.507V106.49Z" fill="#5A3362"/>
<path d="M104.507 119.144H59.5659V126.537H104.507V119.144Z" fill="#5A3362"/>
<path d="M104.507 131.869H59.5659V139.262H104.507V131.869Z" fill="#5A3362"/>
<path d="M104.507 58.718H59.5659V61.064H104.507V58.718Z" fill="#E9A178"/>
<path d="M227.472 48.41H169.113V161.086H227.472V48.41Z" fill="#D0BCBC"/>
<path d="M220.585 55.8033H175.645V63.1966H220.585V55.8033Z" fill="#5A3362"/>
<path d="M220.585 68.4574H175.645V75.8507H220.585V68.4574Z" fill="#5A3362"/>
<path d="M220.585 81.1824H175.645V88.5756H220.585V81.1824Z" fill="#5A3362"/>
<path d="M220.585 93.8362H175.645V101.229H220.585V93.8362Z" fill="#5A3362"/>
<path d="M220.585 106.49H175.645V113.883H220.585V106.49Z" fill="#5A3362"/>
<path d="M220.585 119.144H175.645V126.537H220.585V119.144Z" fill="#5A3362"/>
<path d="M210.149 43.1494H186.862V48.41H210.149V43.1494Z" fill="#BE94A8"/>
<path d="M211.64 41.3722H184.945V43.1494H211.64V41.3722Z" fill="#E9A178"/>
<path d="M199.571 45.4243H197.441V48.4101H199.571V45.4243Z" fill="#74537A"/>
<path d="M44.2427 89.387H7.10718V161.086H44.2427V89.387Z" fill="#E9A178"/>
<path d="M39.8602 94.0916H11.2632V98.7961H39.8602V94.0916Z" fill="#5A3362"/>
<path d="M39.8602 102.144H11.2632V106.848H39.8602V102.144Z" fill="#5A3362"/>
<path d="M39.8602 110.241H11.2632V114.945H39.8602V110.241Z" fill="#5A3362"/>
<path d="M39.8602 118.293H11.2632V122.997H39.8602V118.293Z" fill="#5A3362"/>
<path d="M39.8602 126.345H11.2632V131.049H39.8602V126.345Z" fill="#5A3362"/>
<path d="M39.8602 134.397H11.2632V139.101H39.8602V134.397Z" fill="#5A3362"/>
<path d="M33.2194 86.0396H18.4014V89.387H33.2194V86.0396Z" fill="#BE94A8"/>
<path d="M34.1682 84.9088H17.1816V86.0397H34.1682V84.9088Z" fill="#E9A178"/>
<path d="M26.4881 87.4871H25.1328V89.387H26.4881V87.4871Z" fill="#74537A"/>
<path d="M152.926 21.7516H134.254V29.4292H152.926V21.7516Z" fill="#D0BCBC"/>
<path d="M149.589 14.074H137.52V21.7516H149.589V14.074Z" fill="#BE94A8"/>
<path d="M157.044 29.4291H129.71V161.157H157.044V29.4291Z" fill="#EBC3C2"/>
<path d="M137.946 32.6993H133.402V37.2491H137.946V32.6993Z" fill="#5A3362"/>
<path d="M145.826 32.6993H141.282V37.2491H145.826V32.6993Z" fill="#5A3362"/>
<path d="M153.778 32.6993H149.234V37.2491H153.778V32.6993Z" fill="#5A3362"/>
<path d="M137.946 40.6613H133.402V45.211H137.946V40.6613Z" fill="#5A3362"/>
<path d="M145.826 40.6613H141.282V45.211H145.826V40.6613Z" fill="#5A3362"/>
<path d="M153.778 40.6613H149.234V45.211H153.778V40.6613Z" fill="#5A3362"/>
<path d="M137.946 48.5522H133.402V53.102H137.946V48.5522Z" fill="#5A3362"/>
<path d="M145.826 48.5522H141.282V53.102H145.826V48.5522Z" fill="#5A3362"/>
<path d="M153.778 48.5522H149.234V53.102H153.778V48.5522Z" fill="#5A3362"/>
<path d="M137.946 56.4431H133.402V60.9928H137.946V56.4431Z" fill="#5A3362"/>
<path d="M145.826 56.4431H141.282V60.9928H145.826V56.4431Z" fill="#5A3362"/>
<path d="M153.778 56.4431H149.234V60.9928H153.778V56.4431Z" fill="#5A3362"/>
<path d="M137.946 64.405H133.402V68.9547H137.946V64.405Z" fill="#5A3362"/>
<path d="M145.826 64.405H141.282V68.9547H145.826V64.405Z" fill="#5A3362"/>
<path d="M153.778 64.405H149.234V68.9547H153.778V64.405Z" fill="#5A3362"/>
<path d="M137.946 72.2959H133.402V76.8456H137.946V72.2959Z" fill="#5A3362"/>
<path d="M145.826 72.2959H141.282V76.8456H145.826V72.2959Z" fill="#5A3362"/>
<path d="M153.778 72.2959H149.234V76.8456H153.778V72.2959Z" fill="#5A3362"/>
<path d="M137.946 80.2578H133.402V84.8075H137.946V80.2578Z" fill="#5A3362"/>
<path d="M145.826 80.2578H141.282V84.8075H145.826V80.2578Z" fill="#5A3362"/>
<path d="M153.778 80.2578H149.234V84.8075H153.778V80.2578Z" fill="#5A3362"/>
<path d="M137.946 88.149H133.402V92.6988H137.946V88.149Z" fill="#5A3362"/>
<path d="M145.826 88.149H141.282V92.6988H145.826V88.149Z" fill="#5A3362"/>
<path d="M153.778 88.149H149.234V92.6988H153.778V88.149Z" fill="#5A3362"/>
<path d="M137.946 96.0398H133.402V100.59H137.946V96.0398Z" fill="#5A3362"/>
<path d="M145.826 96.0398H141.282V100.59H145.826V96.0398Z" fill="#5A3362"/>
<path d="M153.778 96.0398H149.234V100.59H153.778V96.0398Z" fill="#5A3362"/>
<path d="M137.946 104.002H133.402V108.552H137.946V104.002Z" fill="#5A3362"/>
<path d="M145.826 104.002H141.282V108.552H145.826V104.002Z" fill="#5A3362"/>
<path d="M153.778 104.002H149.234V108.552H153.778V104.002Z" fill="#5A3362"/>
<path d="M137.946 111.893H133.402V116.442H137.946V111.893Z" fill="#5A3362"/>
<path d="M145.826 111.893H141.282V116.442H145.826V111.893Z" fill="#5A3362"/>
<path d="M153.778 111.893H149.234V116.442H153.778V111.893Z" fill="#5A3362"/>
<path d="M144.335 26.7278H142.844V29.3581H144.335V26.7278Z" fill="#74537A"/>
<path d="M144.335 19.1212H142.844V21.7515H144.335V19.1212Z" fill="#74537A"/>
<path d="M143.554 14.0739V7.60474" stroke="#74537A" stroke-miterlimit="10"/>
<path d="M50.2653 155.186C52.1822 153.693 54.0281 151.561 55.59 148.93C55.874 148.433 55.519 147.864 54.9511 147.864C53.9571 147.935 53.0342 147.935 52.0402 147.793C51.4012 147.722 51.2592 146.869 51.8272 146.513C54.5961 144.878 56.9389 142.461 58.4299 139.76C58.7139 139.262 58.3589 138.765 57.7909 138.765C56.9389 138.765 56.158 138.693 55.377 138.551C54.8091 138.409 54.5961 137.698 55.093 137.343C57.3649 135.708 58.7848 133.362 59.9918 131.158C60.2048 130.731 59.9208 130.234 59.4238 130.163C58.8558 130.092 58.6429 129.452 58.9978 129.025C60.2758 127.604 61.3407 126.182 62.1217 124.689C62.4057 124.191 63.1156 124.191 63.3286 124.689C64.1096 126.182 65.1745 127.604 66.4524 129.025C66.8074 129.452 66.5944 130.092 66.0265 130.163C65.5295 130.234 65.2455 130.731 65.4585 131.158C66.6654 133.362 68.0854 135.708 70.3572 137.343C70.8542 137.698 70.7122 138.48 70.0733 138.551C69.2923 138.693 68.4403 138.836 67.6594 138.765C67.1624 138.765 66.8074 139.333 67.0204 139.76C68.5113 142.461 70.8542 144.878 73.6231 146.513C74.191 146.869 74.0491 147.651 73.4101 147.793C72.4871 147.935 71.4932 147.935 70.4992 147.864C69.9313 147.864 69.5763 148.433 69.8603 148.93C71.4222 151.561 73.2681 153.693 75.185 155.186C75.682 155.613 75.398 156.395 74.759 156.395H50.6913C50.0523 156.466 49.7683 155.613 50.2653 155.186Z" fill="#CAD26A"/>
<path d="M64.0386 156.466H61.5537V161.157H64.0386V156.466Z" fill="#E9A178"/>
<path d="M177.064 155.186C178.981 153.693 180.827 151.561 182.389 148.93C182.673 148.433 182.318 147.864 181.75 147.864C180.756 147.935 179.833 147.935 178.839 147.793C178.2 147.722 178.058 146.869 178.626 146.513C181.395 144.878 183.738 142.461 185.229 139.76C185.513 139.262 185.158 138.765 184.59 138.765C183.738 138.765 182.957 138.693 182.176 138.551C181.608 138.409 181.395 137.698 181.892 137.343C184.164 135.708 185.584 133.362 186.791 131.158C187.004 130.731 186.72 130.234 186.223 130.163C185.655 130.092 185.442 129.452 185.797 129.025C187.075 127.604 188.14 126.182 188.921 124.689C189.205 124.191 189.915 124.191 190.128 124.689C190.909 126.182 191.974 127.604 193.252 129.025C193.607 129.452 193.394 130.092 192.826 130.163C192.329 130.234 192.045 130.731 192.258 131.158C193.465 133.362 194.884 135.708 197.156 137.343C197.653 137.698 197.511 138.48 196.872 138.551C196.091 138.693 195.239 138.836 194.458 138.765C193.961 138.765 193.607 139.333 193.819 139.76C195.31 142.461 197.653 144.878 200.422 146.513C200.99 146.869 200.848 147.651 200.209 147.793C199.286 147.935 198.292 147.935 197.298 147.864C196.73 147.864 196.375 148.433 196.659 148.93C198.221 151.561 200.067 153.693 201.984 155.186C202.481 155.613 202.197 156.395 201.558 156.395H177.49C176.851 156.466 176.567 155.613 177.064 155.186Z" fill="#867E53"/>
<path d="M190.838 156.466H188.353V161.157H190.838V156.466Z" fill="#E9A178"/>
<path d="M65.7423 155.186C67.6592 153.693 69.5052 151.561 71.0671 148.93C71.3511 148.433 70.9961 147.864 70.4281 147.864C69.4342 147.935 68.5112 147.935 67.5173 147.793C66.8783 147.722 66.7363 146.869 67.3043 146.513C70.0731 144.878 72.416 142.461 73.9069 139.76C74.1909 139.262 73.8359 138.765 73.268 138.765C72.416 138.765 71.635 138.693 70.8541 138.551C70.2861 138.409 70.0731 137.698 70.5701 137.343C72.842 135.708 74.2619 133.362 75.4688 131.158C75.6818 130.731 75.3978 130.234 74.9009 130.163C74.3329 130.092 74.1199 129.452 74.4749 129.025C75.7528 127.604 76.8178 126.182 77.5987 124.689C77.8827 124.191 78.5927 124.191 78.8057 124.689C79.5866 126.182 80.6516 127.604 81.9295 129.025C82.2845 129.452 82.0715 130.092 81.5035 130.163C81.0065 130.234 80.7226 130.731 80.9356 131.158C82.1425 133.362 83.5624 135.708 85.8343 137.343C86.3313 137.698 86.1893 138.48 85.5503 138.551C84.7694 138.693 83.9174 138.836 83.1364 138.765C82.6395 138.765 82.2845 139.333 82.4975 139.76C83.9884 142.461 86.3313 144.878 89.1001 146.513C89.6681 146.869 89.5261 147.651 88.8871 147.793C87.9642 147.935 86.9702 147.935 85.9763 147.864C85.4083 147.864 85.0533 148.433 85.3373 148.93C86.8992 151.561 88.7451 153.693 90.662 155.186C91.159 155.613 90.875 156.395 90.2361 156.395H66.1683C65.5294 156.466 65.2454 155.613 65.7423 155.186Z" fill="#00C1B4"/>
<path d="M79.5159 156.466H77.031V161.157H79.5159V156.466Z" fill="#E9A178"/>
<path d="M233.436 155.186C235.353 153.693 237.199 151.561 238.76 148.93C239.044 148.433 238.689 147.864 238.121 147.864C237.128 147.935 236.205 147.935 235.211 147.793C234.572 147.722 234.43 146.869 234.998 146.513C237.766 144.878 240.109 142.461 241.6 139.76C241.884 139.262 241.529 138.765 240.961 138.765C240.109 138.765 239.328 138.693 238.547 138.551C237.979 138.409 237.766 137.698 238.263 137.343C240.535 135.708 241.955 133.362 243.162 131.158C243.375 130.731 243.091 130.234 242.594 130.163C242.026 130.092 241.813 129.452 242.168 129.025C243.446 127.604 244.511 126.182 245.292 124.689C245.576 124.191 246.286 124.191 246.499 124.689C247.28 126.182 248.345 127.604 249.623 129.025C249.978 129.452 249.765 130.092 249.197 130.163C248.7 130.234 248.416 130.731 248.629 131.158C249.836 133.362 251.256 135.708 253.528 137.343C254.025 137.698 253.883 138.48 253.244 138.551C252.463 138.693 251.611 138.836 250.83 138.765C250.333 138.765 249.978 139.333 250.191 139.76C251.682 142.461 254.025 144.878 256.793 146.513C257.361 146.869 257.219 147.651 256.58 147.793C255.658 147.935 254.664 147.935 253.67 147.864C253.102 147.864 252.747 148.433 253.031 148.93C254.593 151.561 256.438 153.693 258.355 155.186C258.852 155.613 258.568 156.395 257.929 156.395H233.72C233.223 156.466 232.939 155.613 233.436 155.186Z" fill="#00C1B4"/>
<path d="M247.209 156.466H244.724V161.157H247.209V156.466Z" fill="#E9A178"/>
<path d="M143.413 93.8358H88.8164V161.157H143.413V93.8358Z" fill="#FD7171"/>
<path d="M135.39 90.9213H96.9097V93.8359H135.39V90.9213Z" fill="#E9A178"/>
<path d="M120.41 147.651H111.819V161.087H120.41V147.651Z" fill="#5A3362"/>
<path d="M136.81 99.5945H95.4189V112.248H136.81V99.5945Z" fill="#5A3362"/>
<path d="M136.81 115.447H95.4189V128.101H136.81V115.447Z" fill="#5A3362"/>
<path d="M136.81 131.301H95.4189V143.954H136.81V131.301Z" fill="#5A3362"/>
<path d="M116.15 99.5945V143.67" stroke="#DF6E82" stroke-miterlimit="10"/>
<path d="M3.83366 155.186C5.75056 153.693 7.59646 151.561 9.15838 148.93C9.44236 148.433 9.08738 147.864 8.51941 147.864C7.52546 147.935 6.60251 147.935 5.60856 147.793C4.9696 147.722 4.82761 146.869 5.39558 146.513C8.16443 144.878 10.5073 142.461 11.9982 139.76C12.2822 139.262 11.9272 138.765 11.3593 138.765C10.5073 138.765 9.72635 138.693 8.94539 138.551C8.37742 138.409 8.16443 137.698 8.6614 137.343C10.9333 135.708 12.3532 133.362 13.5601 131.158C13.7731 130.731 13.4892 130.234 12.9922 130.163C12.4242 130.092 12.2112 129.452 12.5662 129.025C13.8441 127.604 14.9091 126.182 15.69 124.689C15.974 124.191 16.684 124.191 16.897 124.689C17.6779 126.182 18.7429 127.604 20.0208 129.025C20.3758 129.452 20.1628 130.092 19.5948 130.163C19.0979 130.234 18.8139 130.731 19.0269 131.158C20.2338 133.362 21.6537 135.708 23.9256 137.343C24.4226 137.698 24.2806 138.48 23.6416 138.551C22.8607 138.693 22.0087 138.836 21.2277 138.765C20.7308 138.765 20.3758 139.333 20.5888 139.76C22.0797 142.461 24.4226 144.878 27.1914 146.513C27.7594 146.869 27.6174 147.651 26.9784 147.793C26.0555 147.935 25.0615 147.935 24.0676 147.864C23.4996 147.864 23.1446 148.433 23.4286 148.93C24.9905 151.561 26.8365 153.693 28.7534 155.186C29.2503 155.613 28.9663 156.395 28.3274 156.395H4.25964C3.62067 156.466 3.33668 155.613 3.83366 155.186Z" fill="#00C1B4"/>
<path d="M17.6072 156.466H15.1223V161.157H17.6072V156.466Z" fill="#E9A178"/>
<path d="M105.43 155.755C107.276 154.404 109.05 152.485 110.541 150.068C110.825 149.641 110.47 149.072 109.973 149.143C109.05 149.215 108.127 149.215 107.205 149.072C106.566 149.001 106.495 148.219 106.992 147.935C109.618 146.442 111.89 144.238 113.31 141.75C113.523 141.324 113.239 140.826 112.742 140.826C111.961 140.826 111.18 140.755 110.399 140.613C109.831 140.471 109.689 139.831 110.115 139.475C112.245 137.982 113.665 135.85 114.801 133.788C115.014 133.362 114.73 132.935 114.304 132.864C113.736 132.793 113.523 132.153 113.878 131.798C115.156 130.518 116.15 129.167 116.86 127.817C117.144 127.39 117.783 127.39 118.067 127.817C118.777 129.167 119.771 130.518 121.049 131.798C121.404 132.153 121.191 132.793 120.623 132.864C120.126 132.935 119.913 133.362 120.126 133.788C121.262 135.85 122.682 137.911 124.812 139.475C125.309 139.831 125.096 140.471 124.528 140.613C123.747 140.755 122.966 140.826 122.185 140.826C121.688 140.826 121.333 141.324 121.617 141.75C123.037 144.238 125.309 146.442 127.935 147.935C128.432 148.219 128.361 149.001 127.722 149.072C126.8 149.215 125.877 149.215 124.954 149.143C124.457 149.143 124.102 149.641 124.386 150.068C125.877 152.485 127.651 154.404 129.497 155.755C129.994 156.11 129.71 156.892 129.071 156.892H105.785C105.146 156.821 104.933 156.11 105.43 155.755Z" fill="#00C1B4"/>
<path d="M118.564 156.821H116.221V161.086H118.564V156.821Z" fill="#E9A178"/>
<path d="M293.996 138.196L269.928 129.452L245.789 138.196V161.158H293.996V138.196Z" fill="#FD7171"/>
<path d="M296.907 139.973C296.836 139.973 296.694 139.973 296.623 139.902L269.928 130.234L243.163 139.973C242.737 140.115 242.311 139.902 242.169 139.475C242.027 139.049 242.24 138.622 242.666 138.48L269.644 128.741C269.786 128.67 269.999 128.67 270.212 128.741L297.191 138.48C297.617 138.622 297.83 139.049 297.688 139.475C297.546 139.76 297.191 139.973 296.907 139.973Z" fill="#E9A178"/>
<path d="M245.931 140.115C245.931 141.181 245.079 142.106 243.943 142.106C242.878 142.106 241.955 141.252 241.955 140.115C241.955 139.049 242.807 138.125 243.943 138.125C245.079 138.125 245.931 139.049 245.931 140.115Z" fill="#E9A178"/>
<path d="M249.339 138.835C249.339 139.902 248.487 140.826 247.351 140.826C246.286 140.826 245.363 139.973 245.363 138.835C245.363 137.769 246.215 136.845 247.351 136.845C248.487 136.845 249.339 137.769 249.339 138.835Z" fill="#E9A178"/>
<path d="M250.759 139.617C251.857 139.617 252.747 138.726 252.747 137.627C252.747 136.528 251.857 135.636 250.759 135.636C249.661 135.636 248.771 136.528 248.771 137.627C248.771 138.726 249.661 139.617 250.759 139.617Z" fill="#E9A178"/>
<path d="M254.238 138.338C255.336 138.338 256.226 137.447 256.226 136.348C256.226 135.248 255.336 134.357 254.238 134.357C253.14 134.357 252.25 135.248 252.25 136.348C252.25 137.447 253.14 138.338 254.238 138.338Z" fill="#E9A178"/>
<path d="M257.645 137.201C258.743 137.201 259.633 136.31 259.633 135.21C259.633 134.111 258.743 133.22 257.645 133.22C256.547 133.22 255.657 134.111 255.657 135.21C255.657 136.31 256.547 137.201 257.645 137.201Z" fill="#E9A178"/>
<path d="M263.041 133.931C263.041 134.997 262.189 135.921 261.053 135.921C259.988 135.921 259.065 135.068 259.065 133.931C259.065 132.864 259.917 131.94 261.053 131.94C262.189 131.94 263.041 132.793 263.041 133.931Z" fill="#E9A178"/>
<path d="M264.461 134.641C265.559 134.641 266.449 133.75 266.449 132.651C266.449 131.552 265.559 130.66 264.461 130.66C263.363 130.66 262.473 131.552 262.473 132.651C262.473 133.75 263.363 134.641 264.461 134.641Z" fill="#E9A178"/>
<path d="M267.94 133.433C269.038 133.433 269.928 132.542 269.928 131.442C269.928 130.343 269.038 129.452 267.94 129.452C266.842 129.452 265.952 130.343 265.952 131.442C265.952 132.542 266.842 133.433 267.94 133.433Z" fill="#E9A178"/>
<path d="M293.854 140.115C293.854 141.181 294.706 142.106 295.842 142.106C296.907 142.106 297.83 141.252 297.83 140.115C297.83 139.049 296.978 138.125 295.842 138.125C294.777 138.125 293.854 139.049 293.854 140.115Z" fill="#E9A178"/>
<path d="M290.446 138.835C290.446 139.902 291.298 140.826 292.434 140.826C293.499 140.826 294.422 139.973 294.422 138.835C294.422 137.769 293.57 136.845 292.434 136.845C291.298 136.845 290.446 137.769 290.446 138.835Z" fill="#E9A178"/>
<path d="M289.097 139.617C290.195 139.617 291.085 138.726 291.085 137.627C291.085 136.528 290.195 135.636 289.097 135.636C287.999 135.636 287.109 136.528 287.109 137.627C287.109 138.726 287.999 139.617 289.097 139.617Z" fill="#E9A178"/>
<path d="M285.547 138.338C286.645 138.338 287.535 137.447 287.535 136.348C287.535 135.248 286.645 134.357 285.547 134.357C284.449 134.357 283.559 135.248 283.559 136.348C283.559 137.447 284.449 138.338 285.547 138.338Z" fill="#E9A178"/>
<path d="M282.139 137.201C283.237 137.201 284.127 136.31 284.127 135.21C284.127 134.111 283.237 133.22 282.139 133.22C281.041 133.22 280.151 134.111 280.151 135.21C280.151 136.31 281.041 137.201 282.139 137.201Z" fill="#E9A178"/>
<path d="M276.744 133.931C276.744 134.997 277.596 135.921 278.732 135.921C279.796 135.921 280.719 135.068 280.719 133.931C280.719 132.864 279.867 131.94 278.732 131.94C277.596 131.94 276.744 132.793 276.744 133.931Z" fill="#E9A178"/>
<path d="M275.394 134.641C276.492 134.641 277.382 133.75 277.382 132.651C277.382 131.552 276.492 130.66 275.394 130.66C274.296 130.66 273.406 131.552 273.406 132.651C273.406 133.75 274.296 134.641 275.394 134.641Z" fill="#E9A178"/>
<path d="M271.845 133.433C272.943 133.433 273.833 132.542 273.833 131.442C273.833 130.343 272.943 129.452 271.845 129.452C270.747 129.452 269.857 130.343 269.857 131.442C269.857 132.542 270.747 133.433 271.845 133.433Z" fill="#E9A178"/>
<path d="M266.236 131.442C266.236 133.504 267.869 135.139 269.928 135.139C271.987 135.139 273.62 133.504 273.62 131.442L269.928 129.452L266.236 131.442Z" fill="#E9A178"/>
<path d="M269.928 141.537C271.026 141.537 271.916 140.646 271.916 139.546C271.916 138.447 271.026 137.556 269.928 137.556C268.83 137.556 267.94 138.447 267.94 139.546C267.94 140.646 268.83 141.537 269.928 141.537Z" fill="#F7EEDC"/>
<path d="M274.188 147.65H265.597V161.086H274.188V147.65Z" fill="#5A3362"/>
<path d="M259.705 145.305H249.339V155.684H259.705V145.305Z" fill="#5A3362"/>
<path d="M249.339 150.494H259.705" stroke="#DF6E82" stroke-miterlimit="10"/>
<path d="M254.522 155.683V145.304" stroke="#DF6E82" stroke-miterlimit="10"/>
<path d="M290.446 145.304H280.081V155.683H290.446V145.304Z" fill="#5A3362"/>
<path d="M280.081 150.494H290.446" stroke="#DF6E82" stroke-miterlimit="10"/>
<path d="M285.263 155.683V145.304" stroke="#DF6E82" stroke-miterlimit="10"/>
<path d="M69.2924 138.196L45.1536 129.452L21.0149 138.196V161.158H69.2924V138.196Z" fill="#D0BCBC"/>
<path d="M72.1323 139.973C72.0613 139.973 71.9193 139.973 71.8483 139.902L45.1537 130.234L18.4591 139.973C18.0332 140.115 17.6072 139.902 17.4652 139.475C17.3232 139.049 17.5362 138.622 17.9622 138.48L44.9408 128.741C45.0827 128.67 45.2957 128.67 45.5087 128.741L72.4873 138.48C72.9133 138.622 73.1263 139.049 72.9843 139.475C72.7713 139.76 72.4873 139.973 72.1323 139.973Z" fill="#FD7171"/>
<path d="M19.169 142.106C20.2669 142.106 21.1569 141.214 21.1569 140.115C21.1569 139.016 20.2669 138.125 19.169 138.125C18.0712 138.125 17.1812 139.016 17.1812 140.115C17.1812 141.214 18.0712 142.106 19.169 142.106Z" fill="#FD7171"/>
<path d="M24.5647 138.835C24.5647 139.902 23.7127 140.826 22.5768 140.826C21.5118 140.826 20.5889 139.973 20.5889 138.835C20.5889 137.769 21.4408 136.845 22.5768 136.845C23.7127 136.845 24.5647 137.769 24.5647 138.835Z" fill="#FD7171"/>
<path d="M25.9847 139.617C27.0826 139.617 27.9726 138.726 27.9726 137.627C27.9726 136.528 27.0826 135.636 25.9847 135.636C24.8868 135.636 23.9968 136.528 23.9968 137.627C23.9968 138.726 24.8868 139.617 25.9847 139.617Z" fill="#FD7171"/>
<path d="M29.4635 138.338C30.5614 138.338 31.4514 137.447 31.4514 136.348C31.4514 135.248 30.5614 134.357 29.4635 134.357C28.3656 134.357 27.4756 135.248 27.4756 136.348C27.4756 137.447 28.3656 138.338 29.4635 138.338Z" fill="#FD7171"/>
<path d="M32.942 137.201C34.0399 137.201 34.9299 136.31 34.9299 135.21C34.9299 134.111 34.0399 133.22 32.942 133.22C31.8441 133.22 30.9541 134.111 30.9541 135.21C30.9541 136.31 31.8441 137.201 32.942 137.201Z" fill="#FD7171"/>
<path d="M38.3378 133.931C38.3378 134.997 37.4859 135.921 36.35 135.921C35.285 135.921 34.3621 135.068 34.3621 133.931C34.3621 132.864 35.214 131.94 36.35 131.94C37.4149 131.94 38.3378 132.793 38.3378 133.931Z" fill="#FD7171"/>
<path d="M41.6748 132.651C41.6748 133.717 40.8228 134.641 39.6869 134.641C38.6219 134.641 37.699 133.788 37.699 132.651C37.699 131.585 38.5509 130.66 39.6869 130.66C40.7518 130.731 41.6748 131.585 41.6748 132.651Z" fill="#FD7171"/>
<path d="M45.1538 131.442C45.1538 132.509 44.3018 133.433 43.1659 133.433C42.1009 133.433 41.178 132.58 41.178 131.442C41.178 130.376 42.0299 129.452 43.1659 129.452C44.2308 129.452 45.1538 130.376 45.1538 131.442Z" fill="#FD7171"/>
<path d="M71.0675 142.106C72.1654 142.106 73.0554 141.214 73.0554 140.115C73.0554 139.016 72.1654 138.125 71.0675 138.125C69.9696 138.125 69.0796 139.016 69.0796 140.115C69.0796 141.214 69.9696 142.106 71.0675 142.106Z" fill="#FD7171"/>
<path d="M65.6714 138.835C65.6714 139.902 66.5233 140.826 67.6593 140.826C68.7952 140.826 69.6472 139.973 69.6472 138.835C69.6472 137.769 68.7952 136.845 67.6593 136.845C66.5233 136.845 65.6714 137.769 65.6714 138.835Z" fill="#FD7171"/>
<path d="M64.3226 139.617C65.4205 139.617 66.3105 138.726 66.3105 137.627C66.3105 136.528 65.4205 135.636 64.3226 135.636C63.2247 135.636 62.3347 136.528 62.3347 137.627C62.3347 138.726 63.2247 139.617 64.3226 139.617Z" fill="#FD7171"/>
<path d="M60.8439 138.338C61.9417 138.338 62.8318 137.447 62.8318 136.348C62.8318 135.248 61.9417 134.357 60.8439 134.357C59.746 134.357 58.856 135.248 58.856 136.348C58.856 137.447 59.746 138.338 60.8439 138.338Z" fill="#FD7171"/>
<path d="M55.377 135.21C55.377 136.277 56.2289 137.201 57.3649 137.201C58.4298 137.201 59.3527 136.348 59.3527 135.21C59.3527 134.144 58.5008 133.22 57.3649 133.22C56.2999 133.22 55.377 134.144 55.377 135.21Z" fill="#FD7171"/>
<path d="M51.9692 133.931C51.9692 134.997 52.8212 135.921 53.9571 135.921C55.0931 135.921 55.945 135.068 55.945 133.931C55.945 132.864 55.0931 131.94 53.9571 131.94C52.8212 131.94 51.9692 132.793 51.9692 133.931Z" fill="#FD7171"/>
<path d="M50.6205 134.641C51.7184 134.641 52.6084 133.75 52.6084 132.651C52.6084 131.552 51.7184 130.66 50.6205 130.66C49.5226 130.66 48.6326 131.552 48.6326 132.651C48.6326 133.75 49.5226 134.641 50.6205 134.641Z" fill="#FD7171"/>
<path d="M47.0707 133.433C48.1685 133.433 49.0586 132.542 49.0586 131.442C49.0586 130.343 48.1685 129.452 47.0707 129.452C45.9728 129.452 45.0828 130.343 45.0828 131.442C45.0828 132.542 45.9728 133.433 47.0707 133.433Z" fill="#FD7171"/>
<path d="M41.4617 131.442C41.4617 133.504 43.0946 135.139 45.1535 135.139C47.2124 135.139 48.8453 133.504 48.8453 131.442L45.1535 129.452L41.4617 131.442Z" fill="#FD7171"/>
<path d="M45.1539 141.537C46.2518 141.537 47.1418 140.646 47.1418 139.546C47.1418 138.447 46.2518 137.556 45.1539 137.556C44.056 137.556 43.166 138.447 43.166 139.546C43.166 140.646 44.056 141.537 45.1539 141.537Z" fill="#F7EEDC"/>
<path d="M49.4135 147.65H40.823V161.086H49.4135V147.65Z" fill="#5A3362"/>
<path d="M34.9302 145.305H24.5647V155.684H34.9302V145.305Z" fill="#5A3362"/>
<path d="M24.5647 150.494H35.0012" stroke="#D0BCBC" stroke-miterlimit="10"/>
<path d="M29.8184 155.683V145.304" stroke="#D0BCBC" stroke-miterlimit="10"/>
<path d="M65.6718 145.304H55.3064V155.683H65.6718V145.304Z" fill="#5A3362"/>
<path d="M55.3064 150.494H65.6718" stroke="#D0BCBC" stroke-miterlimit="10"/>
<path d="M60.489 155.683V145.304" stroke="#D0BCBC" stroke-miterlimit="10"/>
<path d="M240.606 125.755H192.4V161.157H240.606V125.755Z" fill="#E9A178"/>
<path d="M220.798 147.651H212.208V161.086H220.798V147.651Z" fill="#5A3362"/>
<path d="M206.315 145.304H195.95V155.683H206.315V145.304Z" fill="#5A3362"/>
<path d="M195.949 150.493H206.315" stroke="#E9A178" stroke-miterlimit="10"/>
<path d="M201.132 155.683V145.304" stroke="#E9A178" stroke-miterlimit="10"/>
<path d="M237.056 145.304H226.691V155.683H237.056V145.304Z" fill="#5A3362"/>
<path d="M226.691 150.493H237.056" stroke="#E9A178" stroke-miterlimit="10"/>
<path d="M231.873 155.683V145.304" stroke="#E9A178" stroke-miterlimit="10"/>
<path d="M206.316 131.727H195.95V142.106H206.316V131.727Z" fill="#5A3362"/>
<path d="M195.949 136.916H206.315" stroke="#E9A178" stroke-miterlimit="10"/>
<path d="M201.132 142.105V131.726" stroke="#E9A178" stroke-miterlimit="10"/>
<path d="M237.056 131.726H226.691V142.105H237.056V131.726Z" fill="#5A3362"/>
<path d="M226.691 136.916H237.056" stroke="#E9A178" stroke-miterlimit="10"/>
<path d="M231.873 142.105V131.726" stroke="#E9A178" stroke-miterlimit="10"/>
<path d="M221.437 131.727H211.072V142.106H221.437V131.727Z" fill="#5A3362"/>
<path d="M211.072 136.916H221.437" stroke="#E9A178" stroke-miterlimit="10"/>
<path d="M216.254 142.105V131.726" stroke="#E9A178" stroke-miterlimit="10"/>
<path d="M194.672 126.11C194.317 127.105 193.181 127.674 192.187 127.319C191.193 126.963 190.625 125.826 190.98 124.831C191.335 123.835 192.471 123.267 193.465 123.622C194.53 123.906 195.098 125.044 194.672 126.11Z" fill="#FD7171"/>
<path d="M198.363 126.039C198.008 127.034 196.873 127.603 195.879 127.248C194.885 126.892 194.317 125.755 194.672 124.759C195.027 123.764 196.163 123.196 197.157 123.551C198.221 123.906 198.718 125.044 198.363 126.039Z" fill="#FD7171"/>
<path d="M201.913 126.039C201.558 127.034 200.422 127.603 199.428 127.248C198.434 126.892 197.866 125.755 198.221 124.759C198.576 123.764 199.712 123.196 200.706 123.551C201.771 123.906 202.268 125.044 201.913 126.039Z" fill="#FD7171"/>
<path d="M205.605 126.039C205.25 127.034 204.114 127.603 203.12 127.248C202.126 126.892 201.558 125.755 201.913 124.759C202.268 123.764 203.404 123.196 204.398 123.551C205.463 123.906 205.96 125.044 205.605 126.039Z" fill="#FD7171"/>
<path d="M209.297 126.181C208.942 127.177 207.806 127.745 206.812 127.39C205.818 127.034 205.25 125.897 205.605 124.902C205.96 123.907 207.096 123.338 208.09 123.693C209.084 123.978 209.652 125.115 209.297 126.181Z" fill="#FD7171"/>
<path d="M212.918 126.11C212.563 127.105 211.427 127.674 210.433 127.319C209.439 126.963 208.871 125.826 209.226 124.831C209.581 123.835 210.717 123.267 211.711 123.622C212.776 123.977 213.273 125.044 212.918 126.11Z" fill="#FD7171"/>
<path d="M216.468 126.11C216.113 127.105 214.977 127.674 213.983 127.319C212.989 126.963 212.421 125.826 212.776 124.831C213.131 123.835 214.267 123.267 215.261 123.622C216.326 123.977 216.823 125.044 216.468 126.11Z" fill="#FD7171"/>
<path d="M220.088 126.11C219.733 127.105 218.597 127.674 217.603 127.319C216.61 126.963 216.042 125.826 216.397 124.831C216.752 123.835 217.887 123.267 218.881 123.622C219.946 123.906 220.443 125.044 220.088 126.11Z" fill="#FD7171"/>
<path d="M223.78 126.039C223.425 127.034 222.289 127.603 221.295 127.248C220.301 126.892 219.733 125.755 220.088 124.759C220.443 123.764 221.579 123.196 222.573 123.551C223.567 123.906 224.135 125.044 223.78 126.039Z" fill="#FD7171"/>
<path d="M227.33 126.039C226.975 127.034 225.839 127.603 224.845 127.248C223.851 126.892 223.283 125.755 223.638 124.759C223.993 123.764 225.129 123.196 226.123 123.551C227.117 123.906 227.685 125.044 227.33 126.039Z" fill="#FD7171"/>
<path d="M231.022 126.039C230.667 127.034 229.531 127.603 228.537 127.248C227.543 126.892 226.975 125.755 227.33 124.759C227.685 123.764 228.821 123.196 229.815 123.551C230.88 123.906 231.377 125.044 231.022 126.039Z" fill="#FD7171"/>
<path d="M234.643 126.181C234.288 127.177 233.152 127.745 232.158 127.39C231.164 127.034 230.596 125.897 230.951 124.902C231.306 123.907 232.442 123.338 233.436 123.693C234.501 123.978 234.997 125.115 234.643 126.181Z" fill="#FD7171"/>
<path d="M238.334 126.11C237.979 127.105 236.844 127.674 235.85 127.319C234.856 126.963 234.288 125.826 234.643 124.831C234.998 123.835 236.134 123.267 237.127 123.622C238.192 123.977 238.689 125.044 238.334 126.11Z" fill="#FD7171"/>
<path d="M241.884 126.11C241.529 127.105 240.394 127.674 239.4 127.319C238.406 126.963 237.838 125.826 238.193 124.831C238.548 123.835 239.684 123.267 240.678 123.622C241.742 123.977 242.239 125.044 241.884 126.11Z" fill="#FD7171"/>
<path d="M239.613 106.063H193.252L190.909 125.399H242.027L239.613 106.063Z" fill="#FD7171"/>
<path d="M119.132 155.186C121.049 153.693 122.895 151.561 124.456 148.93C124.74 148.433 124.385 147.864 123.818 147.864C122.824 147.935 121.901 147.935 120.907 147.793C120.268 147.722 120.126 146.869 120.694 146.513C123.463 144.878 125.805 142.461 127.296 139.76C127.58 139.262 127.225 138.765 126.657 138.765C125.805 138.765 125.024 138.693 124.243 138.551C123.676 138.409 123.463 137.698 123.96 137.343C126.231 135.708 127.651 133.362 128.858 131.158C129.071 130.731 128.787 130.234 128.29 130.163C127.722 130.092 127.509 129.452 127.864 129.025C129.142 127.604 130.207 126.182 130.988 124.689C131.272 124.191 131.982 124.191 132.195 124.689C132.976 126.182 134.041 127.604 135.319 129.025C135.674 129.452 135.461 130.092 134.893 130.163C134.396 130.234 134.112 130.731 134.325 131.158C135.532 133.362 136.952 135.708 139.224 137.343C139.721 137.698 139.579 138.48 138.94 138.551C138.159 138.693 137.307 138.836 136.526 138.765C136.029 138.765 135.674 139.333 135.887 139.76C137.378 142.461 139.721 144.878 142.49 146.513C143.057 146.869 142.915 147.651 142.277 147.793C141.354 147.935 140.36 147.935 139.366 147.864C138.798 147.864 138.443 148.433 138.727 148.93C140.289 151.561 142.135 153.693 144.051 155.186C144.548 155.613 144.264 156.395 143.625 156.395H119.416C118.919 156.466 118.635 155.613 119.132 155.186Z" fill="#CAD26A"/>
<path d="M132.905 156.466H130.42V161.157H132.905V156.466Z" fill="#E9A178"/>
<path d="M183.028 137.698H134.822V161.086H183.028V137.698Z" fill="#FAD269"/>
<path d="M163.22 147.65H154.63V161.086H163.22V147.65Z" fill="#5A3362"/>
<path d="M148.737 145.234H138.372V155.613H148.737V145.234Z" fill="#5A3362"/>
<path d="M138.372 150.494H148.737" stroke="#5A3362" stroke-miterlimit="10"/>
<path d="M143.554 155.684V145.233" stroke="#5A3362" stroke-miterlimit="10"/>
<path d="M179.478 145.233H169.113V155.612H179.478V145.233Z" fill="#5A3362"/>
<path d="M169.113 150.494H179.478" stroke="#5A3362" stroke-miterlimit="10"/>
<path d="M174.296 155.684V145.233" stroke="#5A3362" stroke-miterlimit="10"/>
<path d="M137.094 139.12C136.739 140.115 135.603 140.684 134.609 140.329C133.615 139.973 133.047 138.836 133.402 137.841C133.757 136.845 134.893 136.277 135.887 136.632C136.952 136.987 137.52 138.125 137.094 139.12Z" fill="#E9A178"/>
<path d="M140.786 139.12C140.431 140.115 139.295 140.684 138.301 140.328C137.307 139.973 136.739 138.836 137.094 137.84C137.449 136.845 138.585 136.276 139.579 136.632C140.644 136.916 141.141 138.054 140.786 139.12Z" fill="#E9A178"/>
<path d="M144.335 139.12C143.98 140.115 142.844 140.684 141.85 140.328C140.856 139.973 140.288 138.836 140.643 137.84C140.998 136.845 142.134 136.276 143.128 136.632C144.193 136.916 144.69 138.054 144.335 139.12Z" fill="#E9A178"/>
<path d="M148.027 139.12C147.672 140.115 146.536 140.684 145.542 140.328C144.548 139.973 143.98 138.836 144.335 137.84C144.69 136.845 145.826 136.276 146.82 136.632C147.885 136.987 148.453 138.125 148.027 139.12Z" fill="#E9A178"/>
<path d="M151.719 139.191C151.364 140.186 150.228 140.755 149.234 140.399C148.24 140.044 147.672 138.907 148.027 137.911C148.382 136.916 149.518 136.347 150.512 136.703C151.506 137.058 152.074 138.196 151.719 139.191Z" fill="#E9A178"/>
<path d="M155.34 139.12C154.985 140.115 153.849 140.684 152.855 140.328C151.861 139.973 151.293 138.836 151.648 137.84C152.003 136.845 153.139 136.276 154.133 136.632C155.198 136.987 155.766 138.125 155.34 139.12Z" fill="#E9A178"/>
<path d="M158.89 139.12C158.535 140.115 157.399 140.684 156.405 140.328C155.411 139.973 154.843 138.836 155.198 137.84C155.553 136.845 156.689 136.276 157.683 136.632C158.748 136.987 159.316 138.125 158.89 139.12Z" fill="#E9A178"/>
<path d="M162.51 139.12C162.155 140.115 161.02 140.684 160.026 140.328C159.032 139.973 158.464 138.836 158.819 137.84C159.174 136.845 160.31 136.276 161.304 136.632C162.368 136.987 162.865 138.125 162.51 139.12Z" fill="#E9A178"/>
<path d="M166.202 139.12C165.847 140.115 164.711 140.684 163.717 140.328C162.724 139.973 162.156 138.836 162.511 137.84C162.866 136.845 164.001 136.276 164.995 136.632C166.06 136.916 166.557 138.054 166.202 139.12Z" fill="#E9A178"/>
<path d="M169.752 139.12C169.397 140.115 168.261 140.684 167.267 140.328C166.273 139.973 165.705 138.836 166.06 137.84C166.415 136.845 167.551 136.276 168.545 136.632C169.61 136.916 170.107 138.054 169.752 139.12Z" fill="#E9A178"/>
<path d="M173.444 139.12C173.089 140.115 171.953 140.684 170.959 140.328C169.965 139.973 169.397 138.836 169.752 137.84C170.107 136.845 171.243 136.276 172.237 136.632C173.302 136.987 173.799 138.125 173.444 139.12Z" fill="#E9A178"/>
<path d="M177.065 139.191C176.71 140.186 175.574 140.755 174.58 140.399C173.586 140.044 173.018 138.907 173.373 137.911C173.728 136.916 174.864 136.347 175.858 136.703C176.852 137.058 177.491 138.196 177.065 139.191Z" fill="#E9A178"/>
<path d="M180.757 139.12C180.402 140.115 179.266 140.684 178.272 140.328C177.278 139.973 176.71 138.836 177.065 137.84C177.42 136.845 178.556 136.276 179.55 136.632C180.615 136.987 181.112 138.125 180.757 139.12Z" fill="#E9A178"/>
<path d="M184.306 139.12C183.951 140.115 182.815 140.684 181.821 140.328C180.827 139.973 180.259 138.836 180.614 137.84C180.969 136.845 182.105 136.276 183.099 136.632C184.164 136.987 184.661 138.125 184.306 139.12Z" fill="#E9A178"/>
<path d="M182.035 119.144H135.674L133.331 138.409H184.448L182.035 119.144Z" fill="#E9A178"/>
</svg>
