<svg width="417" height="15" viewBox="0 0 417 15" fill="none" xmlns="http://www.w3.org/2000/svg">
<path d="M203.668 12.096C202.844 12.096 202.136 11.948 201.544 11.652C200.952 11.356 200.5 10.944 200.188 10.416C199.876 9.88 199.72 9.26 199.72 8.556C199.72 7.62 199.932 6.768 200.356 6C200.78 5.232 201.376 4.624 202.144 4.176C202.92 3.728 203.812 3.504 204.82 3.504C205.644 3.504 206.352 3.652 206.944 3.948C207.544 4.244 208 4.66 208.312 5.196C208.624 5.724 208.78 6.34 208.78 7.044C208.78 7.98 208.568 8.832 208.144 9.6C207.72 10.368 207.12 10.976 206.344 11.424C205.568 11.872 204.676 12.096 203.668 12.096ZM203.776 11.028C204.528 11.028 205.192 10.852 205.768 10.5C206.344 10.148 206.788 9.676 207.1 9.084C207.412 8.484 207.568 7.828 207.568 7.116C207.568 6.34 207.32 5.724 206.824 5.268C206.336 4.804 205.636 4.572 204.724 4.572C203.972 4.572 203.308 4.748 202.732 5.1C202.156 5.452 201.708 5.928 201.388 6.528C201.076 7.128 200.92 7.78 200.92 8.484C200.92 9.26 201.168 9.88 201.664 10.344C202.16 10.8 202.864 11.028 203.776 11.028ZM216.734 5.64L215.474 12H214.37L214.526 11.184C214.238 11.48 213.898 11.704 213.506 11.856C213.122 12 212.702 12.072 212.246 12.072C211.542 12.072 210.986 11.884 210.578 11.508C210.17 11.132 209.966 10.608 209.966 9.936C209.966 9.712 209.99 9.468 210.038 9.204L210.746 5.64H211.898L211.19 9.216C211.15 9.432 211.13 9.612 211.13 9.756C211.13 10.172 211.25 10.492 211.49 10.716C211.738 10.932 212.102 11.04 212.582 11.04C213.19 11.04 213.694 10.868 214.094 10.524C214.502 10.18 214.774 9.676 214.91 9.012L215.582 5.64H216.734Z" fill="#9CA8B9"/>
<rect y="8" width="184" height="1" fill="#CDD3DC"/>
<rect x="233" y="8" width="184" height="1" fill="#CDD3DC"/>
</svg>
