<svg width="20" height="19" viewBox="0 0 20 19" fill="none" xmlns="http://www.w3.org/2000/svg">
<path d="M13.36 14.53L11.2 13.33M11.2 13.33L5.8 15.7M11.2 13.33V1M5.8 15.7L1 13.33V1.3L5.8 3.67M5.8 15.7V3.67M5.8 3.67L11.2 1M11.2 1L16.6 3.67V9.76" stroke="#4B4B66" stroke-miterlimit="10" stroke-linecap="round" stroke-linejoin="round"/>
<path d="M16 9.69995C15.2044 9.69995 14.4413 10.016 13.8787 10.5786C13.3161 11.1412 13 11.9043 13 12.7C13 15.4 16 18.4 16 18.4C16 18.4 19 15.4 19 12.7C19 11.9043 18.6839 11.1412 18.1213 10.5786C17.5587 10.016 16.7956 9.69995 16 9.69995Z" stroke="#4B4B66" stroke-miterlimit="10" stroke-linecap="round" stroke-linejoin="round"/>
<path d="M16.0001 13.6C16.4972 13.6 16.9001 13.1971 16.9001 12.7C16.9001 12.203 16.4972 11.8 16.0001 11.8C15.503 11.8 15.1001 12.203 15.1001 12.7C15.1001 13.1971 15.503 13.6 16.0001 13.6Z" stroke="#4B4B66" stroke-miterlimit="10" stroke-linecap="round" stroke-linejoin="round"/>
</svg>
