<svg width="228" height="192" viewBox="0 0 228 192" fill="none" xmlns="http://www.w3.org/2000/svg">
<path d="M227.226 145.549L175.742 161.42C175.355 161.42 174.967 161.42 174.58 161.033L167.613 138.968C167.613 138.581 167.613 138.194 168.387 137.807L219.871 121.936C220.258 121.936 220.645 121.936 221.032 122.323L228 144.387C227.613 144.775 227.613 145.162 227.226 145.549Z" fill="#36BA9B"/>
<path d="M223.742 140.13L219.871 127.742C217.936 128.129 216 127.355 215.613 125.42L173.806 138.194C174.194 140.13 173.419 142.065 171.484 142.452L175.355 154.839C177.29 154.452 179.226 155.226 179.613 157.162L221.42 144.388C220.645 142.839 221.807 140.904 223.742 140.13Z" fill="#46CEAE"/>
<path d="M205.161 139.355C206.323 143.614 204 147.872 199.742 149.42C195.484 150.581 191.226 148.259 189.678 144.001C188.516 139.743 190.839 135.484 195.097 133.936C199.355 132.775 204 135.097 205.161 139.355Z" fill="#36BA9B"/>
<path d="M215.613 135.871C216 137.42 215.225 139.355 213.29 140.129C211.742 140.517 209.806 139.742 209.032 137.807C208.645 136.258 209.419 134.323 211.354 133.549C213.29 133.162 215.225 134.323 215.613 135.871Z" fill="#36BA9B"/>
<path d="M185.42 145.162C185.807 146.71 185.033 148.646 183.097 149.42C181.549 149.807 179.613 149.033 178.839 147.097C178.452 145.549 179.226 143.613 181.162 142.839C183.097 142.452 185.033 143.613 185.42 145.162Z" fill="#36BA9B"/>
<path d="M195.097 136.259L194.71 135.484L196.645 135.097L197.033 135.871C198.581 135.484 199.742 136.259 200.129 137.807V138.194L198.194 138.968V138.581C197.807 137.807 197.42 137.807 196.645 137.807C195.871 138.194 195.484 138.581 195.871 139.355C196.258 140.13 196.645 140.517 198.581 140.904C200.516 141.678 201.678 142.065 202.065 143.613C202.452 145.162 202.065 146.323 200.516 147.097L200.904 147.872L198.968 148.259L198.194 147.097C196.646 147.484 195.484 146.71 195.097 145.162L194.71 144.388L196.645 143.613L197.033 144.388C197.42 145.162 197.807 145.162 198.581 145.162C199.355 144.775 199.742 144.388 199.355 143.613C198.968 142.839 198.581 142.452 196.645 142.065C194.71 141.678 193.549 140.904 193.162 139.355C193.162 138.194 193.549 137.033 195.097 136.259Z" fill="#FECE58"/>
<path d="M218.323 147.871C218.323 147.871 219.485 146.323 225.291 146.323C225.678 146.323 226.065 145.936 226.452 145.936L226.065 140.903C226.065 140.516 225.678 140.129 225.291 140.129C225.291 140.129 169.936 142.839 169.936 143.226L170.323 160.645C170.71 160.258 218.323 147.871 218.323 147.871Z" fill="#D1D3D4"/>
<path d="M224.903 165.678L171.097 168.001C170.71 168.001 170.322 167.613 170.322 167.226L169.161 144C169.161 143.613 169.548 143.226 169.935 143.226L223.742 140.904C224.129 140.904 224.516 141.291 224.516 141.678L225.677 164.904C226.065 164.904 225.677 165.678 224.903 165.678Z" fill="#36BA9B"/>
<path d="M222.967 159.484L222.58 146.71C220.644 146.71 219.096 145.162 219.096 143.613L175.354 145.549C175.354 147.484 173.805 149.033 172.257 149.033L172.644 161.807C174.579 161.807 176.128 163.355 176.128 164.904L219.87 162.968C219.87 161.42 221.031 159.484 222.967 159.484Z" fill="#46CEAE"/>
<path d="M205.547 154.065C205.547 158.323 202.45 162.194 197.805 162.194C193.547 162.194 189.676 159.098 189.676 154.452C189.676 150.194 192.773 146.323 197.418 146.323C201.676 146.323 205.16 149.42 205.547 154.065Z" fill="#36BA9B"/>
<path d="M216.386 153.291C216.386 155.227 215.225 156.775 213.29 156.775C211.354 156.775 209.806 155.614 209.806 153.678C209.806 151.743 210.967 150.194 212.902 150.194C214.838 150.194 216.386 151.743 216.386 153.291Z" fill="#36BA9B"/>
<path d="M185.032 154.84C185.032 156.775 183.87 158.323 181.935 158.323C179.999 158.323 178.451 157.162 178.451 155.227C178.451 153.291 179.612 151.743 181.548 151.743C183.483 151.743 185.032 152.904 185.032 154.84Z" fill="#36BA9B"/>
<path d="M196.257 148.646V147.872H198.193V148.646C199.741 149.033 200.515 149.807 200.902 151.356V151.743H198.967V151.356C198.967 150.581 198.58 150.194 197.806 150.194C197.031 150.194 196.644 150.581 196.644 151.356C196.644 152.13 197.031 152.904 198.58 153.678C200.515 154.839 201.289 155.614 201.289 157.162C201.289 158.71 200.515 159.872 198.967 160.259V161.033H197.031V160.259C195.483 159.872 194.709 159.098 194.322 157.549V156.775H196.257V157.549C196.257 158.323 196.644 158.71 197.418 158.71C198.193 158.71 198.58 158.323 198.58 157.549C198.58 156.775 198.193 156.001 196.644 155.227C194.709 154.065 193.935 153.291 193.935 151.743C193.935 150.194 194.709 149.033 196.257 148.646Z" fill="#FECE58"/>
<path d="M226.065 160.259L173.807 146.71C173.42 146.71 173.033 146.71 172.646 147.485L169.936 161.42L170.323 163.356C172.646 163.356 175.355 163.356 177.678 163.356C176.517 159.872 178.839 155.614 183.097 157.162C193.549 160.646 204.001 162.968 214.452 166.065C215.227 166.452 216.001 166.839 216.775 167.614C218.323 167.614 219.485 167.614 221.033 167.614C222.581 167.614 223.743 167.614 225.291 167.614L226.452 162.194C226.452 161.807 226.452 160.646 226.065 160.259Z" fill="#D1D3D4"/>
<path d="M221.033 185.033L168.387 173.033C168 173.033 167.613 172.646 167.613 171.872L172.646 149.42C172.646 149.033 173.42 148.646 173.807 148.646L226.452 160.646C226.839 160.646 227.226 161.033 227.226 161.807L222.194 184.259C222.194 184.646 221.42 185.033 221.033 185.033Z" fill="#36BA9B"/>
<path d="M220.646 178.452L223.355 166.065C221.42 165.678 220.258 163.743 220.646 161.807L178.065 152.13C178.065 154.065 176.129 155.227 174.194 154.839L171.484 167.227C173.42 167.614 174.581 169.549 174.194 171.485L216.775 181.162C217.162 179.227 219.097 178.065 220.646 178.452Z" fill="#46CEAE"/>
<path d="M205.162 168.387C204.001 172.646 199.742 175.355 195.484 174.194C191.226 173.033 188.517 168.775 189.678 164.516C190.839 160.258 195.097 157.549 199.355 158.71C203.613 159.871 206.323 164.129 205.162 168.387Z" fill="#36BA9B"/>
<path d="M216 171.097C215.613 173.033 213.678 173.807 212.129 173.42C210.194 173.033 209.42 171.097 209.807 169.549C210.194 167.614 212.129 166.839 213.678 167.226C215.226 167.226 216.387 169.162 216 171.097Z" fill="#36BA9B"/>
<path d="M185.42 163.743C185.033 165.678 183.098 166.452 181.549 166.065C179.614 165.678 178.84 163.743 179.227 162.194C179.614 160.259 181.549 159.485 183.098 159.872C184.646 160.259 185.808 162.194 185.42 163.743Z" fill="#36BA9B"/>
<path d="M197.807 161.033V160.259L199.743 160.646V161.42C201.291 162.194 201.678 163.356 201.291 164.517V164.904L199.356 164.517V164.13C199.356 163.356 199.356 162.968 198.582 162.581C197.807 162.581 197.42 162.581 197.42 163.356C197.42 164.13 197.42 164.904 198.582 166.065C200.13 167.614 200.517 168.775 200.13 169.936C199.743 171.485 198.582 172.259 197.033 172.259V173.033L195.098 172.646V171.872C193.549 171.098 193.162 169.936 193.549 168.388V167.614L195.485 168.001L195.098 168.775C195.098 169.549 195.098 169.936 195.872 169.936C196.646 169.936 197.033 169.936 197.42 169.162C197.42 168.388 197.42 167.614 196.259 166.452C194.711 164.904 194.323 163.743 194.711 162.581C195.485 161.807 196.259 161.033 197.807 161.033Z" fill="#FECE58"/>
<path d="M169.548 180.001V182.71C169.548 183.097 169.935 183.872 171.096 184.259V181.549H171.484V184.646C171.871 185.033 172.645 185.033 173.032 185.033V181.936H173.419V184.646C173.806 184.646 174.58 185.033 174.967 185.033V181.936H175.355V185.033C175.742 185.033 176.516 185.033 176.903 185.033V182.323H177.29V185.033H177.677C178.064 185.033 178.451 185.033 178.838 185.033V182.323H179.226V185.033C179.613 185.033 180.387 185.033 180.774 185.033V181.936H181.161V185.033C181.935 185.033 182.322 184.646 182.709 184.646V181.936H183.097V184.646C183.871 184.259 184.258 184.259 184.645 183.872V180.775H185.032V183.484C185.419 183.097 185.419 183.097 185.419 182.71V180.001H169.548Z" fill="#F5BA46"/>
<path d="M171.096 181.162V183.872C171.096 183.872 171.096 183.872 171.483 183.872L171.096 181.162Z" fill="#FECE58"/>
<path d="M173.031 181.936V184.646C173.031 184.646 173.031 184.646 173.419 184.646L173.031 181.936Z" fill="#FECE58"/>
<path d="M174.967 181.936V185.033C174.967 185.033 174.967 185.033 175.354 185.033L174.967 181.936Z" fill="#FECE58"/>
<path d="M176.902 182.323V185.033C176.902 185.033 176.902 185.033 177.289 185.033L176.902 182.323Z" fill="#FECE58"/>
<path d="M178.838 182.323V185.033C178.838 185.033 178.838 185.033 179.225 185.033L178.838 182.323Z" fill="#FECE58"/>
<path d="M180.773 181.936V185.033C180.773 185.033 180.773 185.033 181.161 185.033L180.773 181.936Z" fill="#FECE58"/>
<path d="M182.709 181.549V184.259H183.096L182.709 181.549Z" fill="#FECE58"/>
<path d="M184.644 180.388V183.484C184.644 183.484 185.031 183.484 185.031 183.097L184.644 180.388Z" fill="#FECE58"/>
<path d="M185.42 180.001C185.42 181.549 181.936 182.71 177.678 182.71C173.42 182.71 169.936 181.549 169.936 180.001C169.936 178.452 173.42 177.291 177.678 177.291C181.936 177.291 185.42 178.452 185.42 180.001Z" fill="#FECE58"/>
<path d="M177.29 181.936C174.193 181.936 170.709 181.162 170.709 179.614C170.709 178.065 173.806 177.291 177.29 177.291C180.386 177.291 183.87 178.065 183.87 179.614C183.87 181.162 180.386 181.936 177.29 181.936ZM177.29 178.065C173.806 178.065 171.483 178.839 171.483 180.001C171.483 180.775 173.806 181.936 177.29 181.936C180.774 181.936 183.096 181.162 183.096 180.001C183.483 178.839 181.161 178.065 177.29 178.065Z" fill="#F5BA46"/>
<path d="M169.548 176.904V179.613C169.548 180 169.935 180.775 171.096 181.162V178.065H171.484V181.162C171.871 181.162 172.645 181.549 173.032 181.549V178.839H173.419V181.936C173.806 181.936 174.58 182.323 174.967 182.323V179.226H175.355V181.936C175.742 181.936 176.516 181.936 176.903 181.936V179.226H177.29V181.936H177.677C178.064 181.936 178.451 181.936 178.838 181.936V179.226H179.226V181.936C179.613 181.936 180.387 181.936 180.774 181.936V178.839H181.161V181.936C181.935 181.936 182.322 181.549 182.709 181.549V178.839H183.097V181.549C183.871 181.162 184.258 181.162 184.645 180.775V177.678H185.032V180.387C185.419 180 185.419 179.613 185.419 179.613V176.904H169.548Z" fill="#F5BA46"/>
<path d="M170.709 178.065V180.775C170.709 180.775 170.709 180.775 171.096 180.775L170.709 178.065Z" fill="#FECE58"/>
<path d="M172.644 178.839V181.549C172.644 181.549 172.644 181.549 173.031 181.549L172.644 178.839Z" fill="#FECE58"/>
<path d="M174.579 179.226V181.936C174.579 181.936 174.579 181.936 174.966 181.936L174.579 179.226Z" fill="#FECE58"/>
<path d="M176.515 179.613V182.323C176.515 182.323 176.515 182.323 176.902 182.323L176.515 179.613Z" fill="#FECE58"/>
<path d="M178.45 179.226V181.936H178.837L178.45 179.226Z" fill="#FECE58"/>
<path d="M180.386 178.839V181.936H180.773L180.386 178.839Z" fill="#FECE58"/>
<path d="M182.322 178.839V181.549H182.709L182.322 178.839Z" fill="#FECE58"/>
<path d="M184.257 177.678V180.774C184.257 180.774 184.644 180.774 184.644 180.387L184.257 177.678Z" fill="#FECE58"/>
<path d="M185.032 176.904C185.032 178.452 181.548 179.614 177.29 179.614C173.032 179.614 169.548 178.452 169.548 176.904C169.548 175.356 173.032 174.194 177.29 174.194C181.548 174.194 185.032 175.356 185.032 176.904Z" fill="#FECE58"/>
<path d="M177.29 179.226C174.193 179.226 170.709 178.452 170.709 176.904C170.709 175.355 173.806 174.581 177.29 174.581C180.774 174.581 183.87 175.355 183.87 176.904C183.483 178.452 180.386 179.226 177.29 179.226ZM177.29 175.355C173.806 175.355 171.483 176.13 171.483 177.291C171.483 178.065 173.806 179.226 177.29 179.226C180.774 179.226 183.096 178.452 183.096 177.291C183.096 176.13 180.774 175.355 177.29 175.355Z" fill="#F5BA46"/>
<path d="M170.324 174.194V176.904C170.324 177.291 170.711 178.065 171.872 178.452V175.743H172.259V178.839C172.647 178.839 173.421 179.226 173.808 179.226V176.517H174.195V179.226C174.582 179.226 175.356 179.614 175.743 179.614V176.517H176.13V179.614C176.518 179.614 177.292 179.614 177.679 179.614V176.904H178.066V179.614H178.453C178.84 179.614 179.227 179.614 179.614 179.614V176.904H180.001V179.614C180.389 179.614 181.163 179.614 181.55 179.614V176.517H181.937V179.614C182.711 179.614 183.098 179.226 183.485 179.226V176.517H183.872V179.226C184.647 178.839 185.034 178.839 185.421 178.452V175.356H185.808V178.065C186.195 177.678 186.195 177.291 186.195 177.291V174.194H170.324Z" fill="#F5BA46"/>
<path d="M171.872 175.356V178.065C171.872 178.065 171.872 178.065 172.259 178.065L171.872 175.356Z" fill="#FECE58"/>
<path d="M173.42 176.13V178.839C173.42 178.839 173.42 178.839 173.807 178.839L173.42 176.13Z" fill="#FECE58"/>
<path d="M175.355 176.13V179.226C175.355 179.226 175.355 179.226 175.742 179.226L175.355 176.13Z" fill="#FECE58"/>
<path d="M177.291 176.517V179.226C177.291 179.226 177.291 179.226 177.678 179.226L177.291 176.517Z" fill="#FECE58"/>
<path d="M179.227 176.517V179.226H179.614L179.227 176.517Z" fill="#FECE58"/>
<path d="M181.162 176.13V179.226H181.549L181.162 176.13Z" fill="#FECE58"/>
<path d="M183.097 175.743V178.452H183.484L183.097 175.743Z" fill="#FECE58"/>
<path d="M185.033 174.581V177.678C185.033 177.678 185.42 177.678 185.42 177.291L185.033 174.581Z" fill="#FECE58"/>
<path d="M185.807 174.194C185.807 175.743 182.323 176.904 178.065 176.904C173.807 176.904 170.323 175.743 170.323 174.194C170.323 172.646 173.807 171.485 178.065 171.485C182.323 171.485 185.807 172.646 185.807 174.194Z" fill="#FECE58"/>
<path d="M178.065 176.13C174.968 176.13 171.484 175.356 171.484 173.807C171.484 172.259 174.968 171.485 178.065 171.485C181.162 171.485 184.645 172.259 184.645 173.807C184.258 175.356 181.162 176.13 178.065 176.13ZM178.065 172.259C174.581 172.259 172.258 173.033 172.258 174.194C172.258 174.969 174.581 176.13 178.065 176.13C181.549 176.13 183.871 175.356 183.871 174.194C183.871 173.033 181.549 172.259 178.065 172.259Z" fill="#F5BA46"/>
<path d="M169.548 171.097V173.807C169.548 174.194 169.935 174.968 171.096 175.355V172.646H171.484V175.742C171.871 176.129 172.645 176.129 173.032 176.129V173.42H173.419V176.129C173.806 176.129 174.58 176.517 174.967 176.517V173.42H175.355V176.517C175.742 176.517 176.516 176.517 176.903 176.517V173.807H177.29V176.517H177.677C178.064 176.517 178.451 176.517 178.838 176.517V173.807H179.226V176.517C179.613 176.517 180.387 176.517 180.774 176.517V173.42H181.161V176.517C181.935 176.517 182.322 176.129 182.709 176.129V173.42H183.097V176.129C183.871 175.742 184.258 175.742 184.645 175.355V172.258H185.032V174.968C185.419 174.581 185.419 174.581 185.419 174.194V171.484H169.548V171.097Z" fill="#F5BA46"/>
<path d="M171.096 172.259V174.968C171.096 174.968 171.096 174.968 171.483 174.968L171.096 172.259Z" fill="#FECE58"/>
<path d="M173.031 173.033V175.742C173.031 175.742 173.031 175.742 173.419 175.742L173.031 173.033Z" fill="#FECE58"/>
<path d="M174.967 173.42V176.516C174.967 176.516 174.967 176.516 175.354 176.516L174.967 173.42Z" fill="#FECE58"/>
<path d="M176.902 173.807V176.516C176.902 176.516 176.902 176.516 177.289 176.516L176.902 173.807Z" fill="#FECE58"/>
<path d="M178.838 173.42V176.129C178.838 176.129 178.838 176.129 179.225 176.129L178.838 173.42Z" fill="#FECE58"/>
<path d="M180.773 173.033V176.129C180.773 176.129 180.773 176.129 181.161 176.129L180.773 173.033Z" fill="#FECE58"/>
<path d="M182.709 173.033V175.742H183.096L182.709 173.033Z" fill="#FECE58"/>
<path d="M184.644 171.871V174.968C184.644 174.968 185.031 174.968 185.031 174.581L184.644 171.871Z" fill="#FECE58"/>
<path d="M185.42 171.097C185.42 172.646 181.936 173.807 177.678 173.807C173.42 173.807 169.936 172.646 169.936 171.097C169.936 169.549 173.42 168.388 177.678 168.388C181.936 168.388 185.42 169.549 185.42 171.097Z" fill="#FECE58"/>
<path d="M177.29 173.42C174.193 173.42 170.709 172.646 170.709 171.097C170.709 169.549 173.806 168.775 177.29 168.775C180.386 168.775 183.87 169.549 183.87 171.097C183.87 172.646 180.386 173.42 177.29 173.42ZM177.29 169.549C173.806 169.549 171.483 170.323 171.483 171.484C171.483 172.258 173.806 173.42 177.29 173.42C180.774 173.42 183.096 172.646 183.096 171.484C183.483 170.323 181.161 169.549 177.29 169.549Z" fill="#F5BA46"/>
<path d="M169.16 168.388V171.097C169.16 171.484 169.547 172.259 170.709 172.646V169.936H171.096V173.033C171.483 173.42 172.257 173.42 172.644 173.42V170.323H173.031V173.033C173.418 173.033 174.193 173.42 174.58 173.42V170.323H174.967V173.42C175.354 173.42 176.128 173.42 176.515 173.42V170.71H176.902V173.42H177.289C177.677 173.42 178.064 173.42 178.451 173.42V170.71H178.838V173.42C179.225 173.42 179.999 173.42 180.386 173.42V170.323H180.773V173.42C181.548 173.42 181.935 173.033 182.322 173.033V170.323H182.709V173.033C183.483 172.646 183.87 172.646 184.257 172.259V169.162H184.644V171.872C185.031 171.484 185.031 171.484 185.031 171.097V168.388H169.16Z" fill="#F5BA46"/>
<path d="M170.708 169.549V172.259C170.708 172.259 170.708 172.259 171.095 172.259L170.708 169.549Z" fill="#FECE58"/>
<path d="M172.643 170.323V173.033C172.643 173.033 172.643 173.033 173.03 173.033L172.643 170.323Z" fill="#FECE58"/>
<path d="M174.579 170.323V173.42C174.579 173.42 174.579 173.42 174.966 173.42L174.579 170.323Z" fill="#FECE58"/>
<path d="M176.515 170.71V173.42C176.515 173.42 176.515 173.42 176.902 173.42L176.515 170.71Z" fill="#FECE58"/>
<path d="M178.45 170.71V173.42C178.45 173.42 178.45 173.42 178.837 173.42L178.45 170.71Z" fill="#FECE58"/>
<path d="M180.385 170.323V173.42C180.385 173.42 180.385 173.42 180.772 173.42L180.385 170.323Z" fill="#FECE58"/>
<path d="M181.933 169.936V172.646H182.32L181.933 169.936Z" fill="#FECE58"/>
<path d="M183.869 168.775V171.871C183.869 171.871 184.256 171.871 184.256 171.484L183.869 168.775Z" fill="#FECE58"/>
<path d="M184.645 168.388C184.645 169.936 181.161 171.098 176.903 171.098C172.645 171.098 169.161 169.936 169.161 168.388C169.161 166.84 172.645 165.678 176.903 165.678C181.161 165.678 184.645 166.84 184.645 168.388Z" fill="#FECE58"/>
<path d="M176.902 170.323C173.805 170.323 170.321 169.549 170.321 168.001C170.321 166.452 173.418 165.678 176.902 165.678C180.386 165.678 183.483 166.452 183.483 168.001C183.483 169.549 179.999 170.323 176.902 170.323ZM176.902 166.452C173.418 166.452 171.095 167.226 171.095 168.388C171.095 169.162 173.418 170.323 176.902 170.323C180.386 170.323 182.708 169.549 182.708 168.388C183.096 167.226 180.386 166.452 176.902 166.452Z" fill="#F5BA46"/>
<path d="M169.936 165.291V168C169.936 168.388 170.323 169.162 171.485 169.549V166.452H171.872V169.549C172.259 169.936 173.033 169.936 173.42 169.936V167.226H173.807V170.323C174.194 170.323 174.969 170.71 175.356 170.71V167.613H175.743V170.323C176.13 170.323 176.904 170.323 177.291 170.323V167.613H177.678V170.323H178.065C178.452 170.323 178.84 170.323 179.227 170.323V167.613H179.614V170.323C180.001 170.323 180.775 170.323 181.162 170.323V167.226H181.549V170.323C182.323 170.323 182.711 169.936 183.098 169.936V167.226H183.485V169.936C184.259 169.549 184.646 169.549 185.033 169.162V166.065H185.42V168.775C185.807 168.388 185.807 168.388 185.807 168V165.291H169.936Z" fill="#F5BA46"/>
<path d="M171.484 166.452V169.162C171.484 169.162 171.484 169.162 171.871 169.162L171.484 166.452Z" fill="#FECE58"/>
<path d="M173.42 167.226V169.936H173.807L173.42 167.226Z" fill="#FECE58"/>
<path d="M175.355 167.613V170.323C175.355 170.323 175.355 170.323 175.742 170.323L175.355 167.613Z" fill="#FECE58"/>
<path d="M176.904 168V170.71H177.291L176.904 168Z" fill="#FECE58"/>
<path d="M178.839 167.613V170.323H179.226L178.839 167.613Z" fill="#FECE58"/>
<path d="M180.774 167.226V170.323H181.162L180.774 167.226Z" fill="#FECE58"/>
<path d="M182.71 167.226V169.936H183.097L182.71 167.226Z" fill="#FECE58"/>
<path d="M184.645 166.065V169.161C184.645 169.161 185.032 169.161 185.032 168.774L184.645 166.065Z" fill="#FECE58"/>
<path d="M185.421 165.291C185.421 166.839 181.937 168.001 177.679 168.001C173.421 168.001 169.937 166.839 169.937 165.291C169.937 163.742 173.421 162.581 177.679 162.581C181.937 162.581 185.421 163.742 185.421 165.291Z" fill="#FECE58"/>
<path d="M177.677 167.613C174.581 167.613 171.097 166.839 171.097 165.291C171.097 163.742 174.581 162.968 177.677 162.968C180.774 162.968 184.258 163.742 184.258 165.291C184.258 166.839 180.774 167.613 177.677 167.613ZM177.677 163.742C174.193 163.742 171.871 164.517 171.871 165.678C171.871 166.452 174.193 167.613 177.677 167.613C181.161 167.613 183.484 166.839 183.484 165.678C183.484 164.517 181.161 163.742 177.677 163.742Z" fill="#F5BA46"/>
<path d="M169.548 162.581V165.291C169.548 165.678 169.935 166.452 171.096 166.839V164.129H171.484V167.226C171.871 167.613 172.645 167.613 173.032 167.613V164.904H173.419V167.613C173.806 167.613 174.58 168 174.967 168V164.904H175.355V168C175.742 168 176.516 168 176.903 168V165.291H177.29V168H177.677C178.064 168 178.451 168 178.838 168V165.291H179.226V168C179.613 168 180.387 168 180.774 168V164.904H181.161V168C181.935 168 182.322 167.613 182.709 167.613V164.904H183.097V167.613C183.871 167.226 184.258 167.226 184.645 166.839V163.742H185.032V166.452C185.419 166.065 185.419 166.065 185.419 165.678V162.581H169.548Z" fill="#F5BA46"/>
<path d="M170.709 163.742V166.452C170.709 166.452 170.709 166.452 171.096 166.452L170.709 163.742Z" fill="#FECE58"/>
<path d="M172.644 164.516V167.226C172.644 167.226 172.644 167.226 173.031 167.226L172.644 164.516Z" fill="#FECE58"/>
<path d="M174.579 164.516V167.613C174.579 167.613 174.579 167.613 174.966 167.613L174.579 164.516Z" fill="#FECE58"/>
<path d="M176.515 164.904V167.613C176.515 167.613 176.515 167.613 176.902 167.613L176.515 164.904Z" fill="#FECE58"/>
<path d="M178.45 164.904V167.613H178.837L178.45 164.904Z" fill="#FECE58"/>
<path d="M180.386 164.516V167.613H180.773L180.386 164.516Z" fill="#FECE58"/>
<path d="M182.322 164.129V166.839H182.709L182.322 164.129Z" fill="#FECE58"/>
<path d="M184.257 162.968V166.065C184.257 166.065 184.644 166.065 184.644 165.678L184.257 162.968Z" fill="#FECE58"/>
<path d="M185.032 162.582C185.032 164.13 181.548 165.291 177.29 165.291C173.032 165.291 169.548 164.13 169.548 162.582C169.548 161.033 173.032 159.872 177.29 159.872C181.548 159.872 185.032 161.033 185.032 162.582Z" fill="#FECE58"/>
<path d="M177.29 164.517C174.193 164.517 170.709 163.743 170.709 162.194C170.709 160.646 173.806 159.872 177.29 159.872C180.774 159.872 183.87 160.646 183.87 162.194C183.483 163.743 180.386 164.517 177.29 164.517ZM177.29 160.646C173.806 160.646 171.483 161.42 171.483 162.581C171.483 163.356 173.806 164.517 177.29 164.517C180.774 164.517 183.096 163.743 183.096 162.581C183.096 161.42 180.774 160.646 177.29 160.646Z" fill="#F5BA46"/>
<path d="M169.548 159.484V162.194C169.548 162.581 169.935 163.355 171.096 163.742V161.032H171.484V164.129C171.871 164.129 172.645 164.516 173.032 164.516V161.807H173.419V164.516C173.806 164.516 174.58 164.903 174.967 164.903V161.807H175.355V164.903C175.742 164.903 176.516 164.903 176.903 164.903V162.194H177.29V164.903H177.677C178.064 164.903 178.451 164.903 178.838 164.903V162.194H179.226V164.903C179.613 164.903 180.387 164.903 180.774 164.903V161.807H181.161V164.903C181.935 164.903 182.322 164.516 182.709 164.516V161.807H183.097V164.516C183.871 164.129 184.258 164.129 184.645 163.742V160.645H185.032V163.355C185.419 162.968 185.419 162.581 185.419 162.581V159.871H169.548V159.484Z" fill="#F5BA46"/>
<path d="M171.096 161.033V163.742C171.096 163.742 171.096 163.742 171.483 163.742L171.096 161.033Z" fill="#FECE58"/>
<path d="M173.031 161.42V164.129C173.031 164.129 173.031 164.129 173.419 164.129L173.031 161.42Z" fill="#FECE58"/>
<path d="M174.967 161.807V164.903C174.967 164.903 174.967 164.903 175.354 164.903L174.967 161.807Z" fill="#FECE58"/>
<path d="M176.902 162.194V164.903C176.902 164.903 176.902 164.903 177.289 164.903L176.902 162.194Z" fill="#FECE58"/>
<path d="M178.838 161.807V164.516C178.838 164.516 178.838 164.516 179.225 164.516L178.838 161.807Z" fill="#FECE58"/>
<path d="M180.773 161.42V164.516C180.773 164.516 180.773 164.516 181.161 164.516L180.773 161.42Z" fill="#FECE58"/>
<path d="M182.709 161.42V164.129H183.096L182.709 161.42Z" fill="#FECE58"/>
<path d="M184.644 160.258V163.355C184.644 163.355 185.031 163.355 185.031 162.968L184.644 160.258Z" fill="#FECE58"/>
<path d="M185.42 159.484C185.42 161.033 181.936 162.194 177.678 162.194C173.42 162.194 169.936 161.033 169.936 159.484C169.936 157.936 173.42 156.775 177.678 156.775C181.936 156.775 185.42 157.936 185.42 159.484Z" fill="#FECE58"/>
<path d="M177.29 161.807C174.193 161.807 170.709 161.033 170.709 159.484C170.709 157.936 173.806 157.162 177.29 157.162C180.386 157.162 183.87 157.936 183.87 159.484C183.87 161.033 180.386 161.807 177.29 161.807ZM177.29 157.936C173.806 157.936 171.483 158.71 171.483 159.871C171.483 160.646 173.806 161.807 177.29 161.807C180.774 161.807 183.096 161.033 183.096 159.871C183.483 158.71 181.161 157.936 177.29 157.936Z" fill="#F5BA46"/>
<path d="M169.16 156.775V159.484C169.16 159.872 169.547 160.646 170.709 161.033V158.323H171.096V161.42C171.483 161.42 172.257 161.807 172.644 161.807V158.71H173.031V161.42C173.418 161.42 174.193 161.807 174.58 161.807V158.71H174.967V161.807C175.354 161.807 176.128 161.807 176.515 161.807V159.097H176.902V161.807H177.289C177.677 161.807 178.064 161.807 178.451 161.807V159.097H178.838V161.807C179.225 161.807 179.999 161.807 180.386 161.807V158.71H180.773V161.807C181.548 161.807 181.935 161.42 182.322 161.42V158.71H182.709V161.42C183.483 161.033 183.87 161.033 184.257 160.646V157.549H184.644V160.259C185.031 159.872 185.031 159.484 185.031 159.484V156.775H169.16Z" fill="#F5BA46"/>
<path d="M170.708 157.936V160.646C170.708 160.646 170.708 160.646 171.095 160.646L170.708 157.936Z" fill="#FECE58"/>
<path d="M172.643 158.71V161.42C172.643 161.42 172.643 161.42 173.03 161.42L172.643 158.71Z" fill="#FECE58"/>
<path d="M174.579 158.71V161.807C174.579 161.807 174.579 161.807 174.966 161.807L174.579 158.71Z" fill="#FECE58"/>
<path d="M176.515 159.097V161.807C176.515 161.807 176.515 161.807 176.902 161.807L176.515 159.097Z" fill="#FECE58"/>
<path d="M178.45 159.097V161.807H178.837L178.45 159.097Z" fill="#FECE58"/>
<path d="M180.385 158.71V161.807H180.772L180.385 158.71Z" fill="#FECE58"/>
<path d="M182.321 158.323V161.033H182.708L182.321 158.323Z" fill="#FECE58"/>
<path d="M184.257 157.162V160.259C184.257 160.259 184.644 160.259 184.644 159.871L184.257 157.162Z" fill="#FECE58"/>
<path d="M184.645 156.775C184.645 158.323 181.161 159.484 176.903 159.484C172.645 159.484 169.161 158.323 169.161 156.775C169.161 155.226 172.645 154.065 176.903 154.065C181.548 154.065 184.645 155.226 184.645 156.775Z" fill="#FECE58"/>
<path d="M176.902 158.71C173.805 158.71 170.321 157.936 170.321 156.388C170.321 154.839 173.805 154.065 176.902 154.065C179.999 154.065 183.483 154.839 183.483 156.388C183.483 157.936 179.999 158.71 176.902 158.71ZM176.902 154.839C173.418 154.839 171.095 155.613 171.095 156.775C171.095 157.549 173.418 158.71 176.902 158.71C180.386 158.71 182.708 157.936 182.708 156.775C183.096 155.613 180.773 154.839 176.902 154.839Z" fill="#F5BA46"/>
<path d="M181.162 156.775H180.001C180.001 157.162 179.614 157.549 179.614 157.549H178.839C179.227 157.162 179.227 157.162 179.227 156.775C179.227 156.387 178.839 156 178.065 156C177.291 156 177.291 156.387 176.904 156.775C176.517 157.162 176.13 157.549 174.968 157.549C174.194 157.549 173.42 157.162 173.42 156.775H172.259V156.387H173.42C173.42 156 173.42 156 173.807 155.613H174.581C174.581 155.613 174.194 156 174.194 156.387C174.194 156.775 174.581 157.162 174.968 157.162C175.356 157.162 175.743 156.775 176.13 156.387C176.517 156 177.291 155.613 178.065 155.613C178.839 155.613 179.614 156 180.001 156.387L181.162 156.775Z" fill="#F5BA46"/>
<path d="M186.58 180.388V183.097C186.58 183.484 186.967 184.259 188.129 184.646V181.936H188.516V185.033C188.903 185.033 189.677 185.42 190.064 185.42V182.71H190.451V185.42C190.838 185.42 191.613 185.807 192 185.807V182.71H192.387V185.807C192.774 185.807 193.548 185.807 193.935 185.807V183.097H194.322V185.807H194.709C195.096 185.807 195.484 185.807 195.871 185.807V183.097H196.258V185.807C196.645 185.807 197.419 185.807 197.806 185.807V182.71H198.193V185.807C198.967 185.807 199.355 185.42 199.742 185.42V182.71H200.129V185.42C200.903 185.033 201.29 185.033 201.677 184.646V181.549H201.29V184.259C201.677 183.871 201.677 183.871 201.677 183.484V180.775H186.58V180.388Z" fill="#F5BA46"/>
<path d="M187.741 181.936V184.646C187.741 184.646 187.741 184.646 188.128 184.646L187.741 181.936Z" fill="#FECE58"/>
<path d="M189.676 182.323V185.033H190.063L189.676 182.323Z" fill="#FECE58"/>
<path d="M191.612 182.71V185.807H191.999L191.612 182.71Z" fill="#FECE58"/>
<path d="M193.548 183.097V185.807H193.935L193.548 183.097Z" fill="#FECE58"/>
<path d="M195.483 182.71V185.807H195.87L195.483 182.71Z" fill="#FECE58"/>
<path d="M197.418 182.323V185.42H197.806L197.418 182.323Z" fill="#FECE58"/>
<path d="M199.354 182.323V185.033H199.741L199.354 182.323Z" fill="#FECE58"/>
<path d="M201.289 181.162V184.258C201.289 184.258 201.676 184.258 201.676 183.871L201.289 181.162Z" fill="#FECE58"/>
<path d="M202.064 180.388C202.064 181.936 198.581 183.097 194.323 183.097C190.064 183.097 186.581 181.936 186.581 180.388C186.581 178.839 190.064 177.678 194.323 177.678C198.581 177.678 202.064 178.839 202.064 180.388Z" fill="#FECE58"/>
<path d="M194.322 182.71C191.225 182.71 188.128 181.936 188.128 180.388C188.128 178.839 191.225 178.065 194.322 178.065C197.419 178.065 200.903 178.839 200.903 180.388C200.516 181.936 197.419 182.71 194.322 182.71ZM194.322 178.839C190.838 178.839 188.516 179.613 188.516 180.775C188.516 181.549 190.838 182.71 194.322 182.71C197.806 182.71 200.128 181.936 200.128 180.775C200.128 179.613 197.806 178.839 194.322 178.839Z" fill="#F5BA46"/>
<path d="M198.195 180.775H197.42C197.42 181.162 197.033 181.549 197.033 181.549H196.259C196.646 181.162 196.646 181.162 196.646 180.775C196.646 180.388 196.259 180.001 195.485 180.001C194.711 180.001 194.711 180.388 194.324 180.775C193.937 181.162 193.549 181.549 192.388 181.549C191.614 181.549 190.84 181.162 190.84 180.775H189.678V180.388H190.84C190.84 180.001 190.84 180.001 191.227 179.614H192.001C192.001 179.614 191.614 180.001 191.614 180.388C191.614 180.775 192.001 181.162 192.388 181.162C192.775 181.162 193.162 180.775 193.549 180.388C193.937 180.001 194.711 179.614 195.485 179.614C196.259 179.614 197.033 180.001 197.42 180.388L198.195 180.775Z" fill="#F5BA46"/>
<path d="M45.6776 156.001H1.16129C0.387098 156.001 0 155.614 0 154.839V104.517H46.8389V154.839C46.8389 155.614 46.4518 156.001 45.6776 156.001Z" fill="#36BA9B"/>
<path d="M45.6776 153.678H1.16129C0.387098 153.678 0 153.291 0 152.517V102.194H46.8389V152.517C46.8389 152.904 46.4518 153.678 45.6776 153.678Z" fill="#46CEAE"/>
<path d="M0 103.742V85.9358C0 85.1616 0.387098 84.7745 1.16129 84.7745H45.6776C46.4518 84.7745 46.8389 85.1616 46.8389 85.9358V103.742H0Z" fill="#646C77"/>
<path d="M46.8389 85.1615L0 103.742H46.8389V85.9357C46.8389 85.5486 46.8389 85.1615 46.8389 85.1615Z" fill="#414953"/>
<path d="M44.1293 89.8065H2.32275V98.7098H44.1293V89.8065Z" fill="#F0F1F5"/>
<path opacity="0.5" d="M44.1293 89.4194H2.32275V90.1936H44.1293V89.4194Z" fill="#CBCFD8"/>
<path d="M11.6128 109.162H3.87085V116.904H11.6128V109.162Z" fill="#646C77"/>
<path d="M22.0652 109.162H14.3232V116.904H22.0652V109.162Z" fill="#646C77"/>
<path d="M32.5161 109.162H24.7742V116.904H32.5161V109.162Z" fill="#646C77"/>
<path d="M11.6128 120.387H3.87085V128.129H11.6128V120.387Z" fill="#646C77"/>
<path d="M22.0652 120.387H14.3232V128.129H22.0652V120.387Z" fill="#646C77"/>
<path d="M32.5161 120.387H24.7742V128.129H32.5161V120.387Z" fill="#646C77"/>
<path d="M43.3557 120.387H35.6138V128.129H43.3557V120.387Z" fill="#646C77"/>
<path d="M11.6128 131.226H3.87085V138.968H11.6128V131.226Z" fill="#646C77"/>
<path d="M22.0652 131.226H14.3232V138.968H22.0652V131.226Z" fill="#646C77"/>
<path d="M32.5161 131.226H24.7742V138.968H32.5161V131.226Z" fill="#646C77"/>
<path d="M43.3557 131.226H35.6138V138.968H43.3557V131.226Z" fill="#646C77"/>
<path d="M11.6128 142.065H3.87085V149.807H11.6128V142.065Z" fill="#646C77"/>
<path d="M22.0652 142.065H14.3232V149.807H22.0652V142.065Z" fill="#646C77"/>
<path d="M32.5169 142.065H14.3232V149.807H32.5169V142.065Z" fill="#646C77"/>
<path d="M43.3557 131.226H35.6138V149.807H43.3557V131.226Z" fill="#646C77"/>
<path d="M11.6128 108.387H3.87085V116.129H11.6128V108.387Z" fill="#F0F1F5"/>
<path d="M22.0652 108.387H14.3232V116.129H22.0652V108.387Z" fill="#F0F1F5"/>
<path d="M32.5161 108.387H24.7742V116.129H32.5161V108.387Z" fill="#F0F1F5"/>
<path d="M43.3557 109.162H35.6138V116.904H43.3557V109.162Z" fill="#646C77"/>
<path d="M43.3557 108.387H35.6138V116.129H43.3557V108.387Z" fill="#EC5563"/>
<path d="M11.6128 119.613H3.87085V127.355H11.6128V119.613Z" fill="#F0F1F5"/>
<path d="M22.0652 119.613H14.3232V127.355H22.0652V119.613Z" fill="#F0F1F5"/>
<path d="M32.5161 119.613H24.7742V127.355H32.5161V119.613Z" fill="#F0F1F5"/>
<path d="M43.3557 119.613H35.6138V127.355H43.3557V119.613Z" fill="#F0F1F5"/>
<path d="M11.6128 130.452H3.87085V138.194H11.6128V130.452Z" fill="#F0F1F5"/>
<path d="M22.0652 130.452H14.3232V138.194H22.0652V130.452Z" fill="#F0F1F5"/>
<path d="M32.5161 130.452H24.7742V138.194H32.5161V130.452Z" fill="#F0F1F5"/>
<path d="M43.3557 130.452H35.6138V138.194H43.3557V130.452Z" fill="#F0F1F5"/>
<path d="M11.6128 141.678H3.87085V149.42H11.6128V141.678Z" fill="#F0F1F5"/>
<path d="M22.0652 141.678H14.3232V149.42H22.0652V141.678Z" fill="#F0F1F5"/>
<path d="M32.5169 141.678H14.3232V149.42H32.5169V141.678Z" fill="#F0F1F5"/>
<path d="M43.3557 130.452H35.6138V149.032H43.3557V130.452Z" fill="#F0F1F5"/>
<path d="M22.4518 91.7423V96.3875H20.5163V91.7423H22.4518ZM23.226 90.9681H19.355V97.5488H23.226V90.9681Z" fill="#CBCFD8"/>
<path opacity="0.5" d="M17.42 91.7423V96.3875H15.4845V91.7423H17.42ZM18.1942 90.9681H14.3232V97.5488H18.1942V90.9681Z" fill="#CBCFD8"/>
<path opacity="0.5" d="M12.3868 91.7423V96.3875H10.4513V91.7423H12.3868ZM13.161 90.9681H9.29004V97.5488H13.161V90.9681Z" fill="#CBCFD8"/>
<path opacity="0.5" d="M7.35533 91.7423V96.3875H5.41984V91.7423H7.35533ZM8.12952 90.9681H4.25854V97.5488H8.12952V90.9681Z" fill="#CBCFD8"/>
<path d="M42.1942 91.7423V96.3875H40.2587V91.7423H42.1942ZM42.9684 90.9681H39.0974V97.5488H42.9684V90.9681Z" fill="#424953"/>
<path d="M20.5156 90.9681V91.7423H22.4511V97.5488H23.2253V90.9681H20.5156Z" fill="#424953"/>
<path d="M37.161 91.7423V96.3875H35.2255V91.7423H37.161ZM37.9352 90.9681H34.0642V97.5488H37.9352V90.9681Z" fill="#424953"/>
<path d="M32.1294 91.7423V96.3875H30.1939V91.7423H32.1294ZM33.2907 90.9681H29.4197V97.5488H33.2907V90.9681Z" fill="#424953"/>
<path d="M27.4833 91.7423V96.3875H25.5478V91.7423H27.4833ZM28.2575 90.9681H24.3865V97.5488H28.2575V90.9681Z" fill="#424953"/>
<path d="M76.645 187.743C72.774 187.743 69.6772 186.969 68.903 185.42C67.7417 185.42 66.9675 185.033 66.9675 185.033C66.9675 184.646 67.7417 184.646 68.903 184.646C69.6772 183.485 72.774 182.711 76.645 182.711H77.0321H144.387C144 183.872 143.613 185.033 143.613 186.582C143.613 186.969 143.613 187.743 143.613 188.13H76.645V187.743Z" fill="#AAB2BD"/>
<path d="M149.419 185.033C149.419 183.484 148.257 182.323 146.709 182.323H140.903C139.354 182.323 138.967 183.484 138.967 185.033H138.193C138.193 186.581 139.354 187.742 140.903 187.742H146.709C148.257 187.742 149.419 186.581 149.419 185.033Z" fill="#646C77"/>
<path d="M76.645 187.743C72.774 187.743 69.6772 186.968 68.903 185.807C67.7417 185.807 66.9675 185.42 66.9675 185.42H149.032C149.032 186.968 147.871 188.13 146.323 188.13H143.613H140.516H76.645V187.743Z" fill="#656D78"/>
<path d="M143.612 190.452C143.612 190.065 142.838 189.678 141.677 189.678H120.386C119.225 189.678 118.451 190.065 118.451 190.452C118.451 190.839 119.225 191.226 120.386 191.226H141.677C142.838 191.226 143.612 190.839 143.612 190.452Z" fill="#AAB2BD"/>
<path d="M142.838 191.226C144.386 191.226 145.548 190.065 145.548 188.904V183.872C145.548 182.71 144.386 181.549 142.838 181.549C141.29 181.549 140.128 182.71 140.128 183.872V188.904C140.128 190.065 141.29 191.226 142.838 191.226Z" fill="#CCD0D9"/>
<path d="M77.8067 182.323H77.0325V187.742H77.8067V182.323Z" fill="#A9B1BC"/>
<path d="M32.9043 3.48388L31.743 1.93549C30.9688 0.774196 29.4204 0 27.872 0H12.7752C11.6139 0 10.4526 1.16129 10.4526 2.32259V5.80647V15.4839V43.355C10.4526 44.5163 11.6139 45.6776 12.7752 45.6776H64.6464C65.8077 45.6776 66.969 44.5163 66.969 43.355V7.74196C66.969 6.58067 65.8077 5.41937 64.6464 5.41937H36.3882C35.2269 5.41937 33.6785 4.64518 32.9043 3.48388Z" fill="#F5BA46"/>
<path d="M63.8717 32.9033H13.549C12.7748 32.9033 12.3877 32.5162 12.3877 31.742V9.29032C12.3877 8.51613 12.7748 8.12903 13.549 8.12903H63.4846C64.2588 8.12903 64.6459 8.51613 64.6459 9.29032V31.742C64.6459 32.1291 64.2588 32.9033 63.8717 32.9033Z" fill="#CBCFD8"/>
<path d="M64.6452 34.8386H12.7741C12.387 34.8386 11.6128 34.4515 11.6128 34.0644V11.6127C11.6128 10.8385 11.9999 10.4514 12.7741 10.4514H64.2581C65.0323 10.4514 65.8065 10.8385 65.8065 11.6127V34.0644C65.8065 34.4515 65.0323 34.8386 64.6452 34.8386Z" fill="#F0F1F4"/>
<path d="M63.8708 52.6453H13.5481C12.3868 52.6453 11.2255 51.8711 11.2255 50.3227L7.35449 14.7097C7.35449 13.5484 8.12869 12.3871 9.28998 12.3871H68.516C69.6773 12.3871 70.4515 13.1613 70.4515 14.7097L66.5805 50.3227C66.1934 51.484 65.4192 52.6453 63.8708 52.6453Z" fill="#F5BA46"/>
<path d="M63.8708 53.4196H13.5481C12.3868 53.4196 11.2255 52.2583 11.2255 51.097L7.35449 15.871C7.35449 14.7098 8.12869 13.5485 9.28998 13.5485H68.516C69.6773 13.5485 70.4515 14.7098 70.4515 15.871L66.5805 51.097C66.1934 52.2583 65.4192 53.4196 63.8708 53.4196Z" fill="#FECE58"/>
<path d="M157.936 176.517H58.4519C56.1293 176.517 54.1938 174.581 54.1938 172.259V32.5164C54.1938 30.1938 56.1293 28.2583 58.4519 28.2583H157.936C160.259 28.2583 162.194 30.1938 162.194 32.5164V172.259C162.194 174.581 160.259 176.517 157.936 176.517Z" fill="#424953"/>
<path d="M157.936 174.969H58.4519C56.1293 174.969 54.1938 173.033 54.1938 170.71V30.968C54.1938 28.6455 56.1293 26.71 58.4519 26.71H157.936C160.259 26.71 162.194 28.6455 162.194 30.968V170.71C162.194 173.033 160.259 174.969 157.936 174.969Z" fill="#1A1859"/>
<path d="M150.195 166.452H66.1946C64.2591 166.452 62.7107 164.904 62.7107 162.581V42.5807C62.7107 40.6452 64.2591 38.7097 66.1946 38.7097H149.808C151.743 38.7097 153.292 40.2581 153.292 42.5807V162.581C153.679 164.517 152.13 166.452 150.195 166.452Z" fill="#CBCFD8"/>
<path d="M150.195 164.517H66.1946C64.2591 164.517 62.7107 162.968 62.7107 160.646V40.6453C62.7107 38.7098 64.2591 36.7743 66.1946 36.7743H149.808C151.743 36.7743 153.292 38.3227 153.292 40.6453V160.646C153.679 162.968 152.13 164.517 150.195 164.517Z" fill="#FDFDFD"/>
<path d="M128.905 29.4196H126.582C126.195 24.3873 123.872 20.9034 120.776 20.9034H96.0013C93.2916 20.9034 90.582 24.7744 90.1949 29.4196H87.8723C82.4529 29.4196 78.1948 34.4519 78.1948 41.0325H138.582C138.582 34.4519 133.937 29.4196 128.905 29.4196ZM98.3239 23.6131H118.066C120.389 23.6131 122.324 25.9357 122.711 29.0325H94.0658C94.0658 25.9357 96.0013 23.6131 98.3239 23.6131Z" fill="#5DC5FF"/>
<path d="M108 23.613H117.677C120 23.613 121.936 25.9356 122.323 29.0324H108V40.6453H138.194C138.194 34.0647 133.936 29.0324 128.516 29.0324H126.194C125.807 24.0001 123.484 20.5162 120.387 20.5162H108V23.613Z" fill="#5DC5FF"/>
<path d="M138.194 41.0327H77.8071V42.9682H138.194V41.0327Z" fill="#3FACD9"/>
<path d="M114.193 48.3871C109.935 48.3871 105.677 49.5484 101.806 51.0968L114.193 78.1936H84.3867C84.3867 94.4518 97.5481 108 114.193 108C130.838 108 144 94.8389 144 78.1936C144 61.5484 130.838 48.3871 114.193 48.3871Z" fill="#7450F0"/>
<path d="M97.1621 48.3871C87.0975 53.0323 79.7427 63.4839 79.7427 75.4839H109.549L97.1621 48.3871Z" fill="#7450F0"/>
<path d="M92.5166 105.291H81.2908V116.517H92.5166V105.291Z" fill="#00C1B4"/>
<path d="M118.451 113.807H94.4514V116.517H118.451V113.807Z" fill="#CBCFD8"/>
<path d="M136.258 118.839H78.5803V121.549H136.258V118.839Z" fill="#CBCFD8"/>
<path d="M136.259 123.871H95.614V126.581H136.259V123.871Z" fill="#CBCFD8"/>
<path d="M136.258 128.904H78.5803V131.226H136.258V128.904Z" fill="#CBCFD8"/>
<path d="M106.451 133.936H78.5803V136.646H106.451V133.936Z" fill="#CBCFD8"/>
<path d="M136.258 133.936H109.936V136.646H136.258V133.936Z" fill="#CBCFD8"/>
<path d="M102.58 138.968H78.5803V141.678H102.58V138.968Z" fill="#CBCFD8"/>
<path d="M136.259 139.355H104.904V142.065H136.259V139.355Z" fill="#CBCFD8"/>
<path d="M92.5159 144.001H78.5803V146.71H92.5159V144.001Z" fill="#00C1B4"/>
<path d="M92.5159 123.871H78.5803V126.581H92.5159V123.871Z" fill="#00C1B4"/>
<path d="M135.871 149.033H125.419V151.355H135.871V149.033Z" fill="#CBCFD8"/>
<path d="M109.55 144.001H95.614V146.71H109.55V144.001Z" fill="#CBCFD8"/>
<path d="M135.871 144.001H111.484V146.71H135.871V144.001Z" fill="#CBCFD8"/>
<path d="M123.484 149.033H78.5803V151.355H123.484V149.033Z" fill="#CBCFD8"/>
<path d="M102.58 154.065H78.5803V156.775H102.58V154.065Z" fill="#CBCFD8"/>
<path d="M135.872 154.065H104.904V156.775H135.872V154.065Z" fill="#CBCFD8"/>
<path d="M136.259 113.807H120.775V116.517H136.259V113.807Z" fill="#CBCFD8"/>
<path d="M78.1944 111.097H72.775C72.3879 111.097 72.3879 110.71 72.3879 110.71V66.5812C72.3879 66.1941 72.775 66.1941 72.775 66.1941H78.1944C78.5815 66.1941 78.5815 66.5812 78.5815 66.5812C78.5815 66.9683 78.1944 66.9683 78.1944 66.9683H73.5492V109.936H78.1944C78.5815 109.936 78.5815 110.323 78.5815 110.323C78.5815 111.097 78.1944 111.097 78.1944 111.097Z" fill="#00C1B4"/>
</svg>
