<svg width="33" height="30" viewBox="0 0 33 30" fill="none" xmlns="http://www.w3.org/2000/svg">
<path d="M24.6197 13.4609H2.24314C1.55657 13.4609 1 14.0175 1 14.7041V27.7571C1 28.4436 1.55657 29.0002 2.24314 29.0002H24.6197C25.3062 29.0002 25.8628 28.4436 25.8628 27.7571V14.7041C25.8628 14.0175 25.3062 13.4609 24.6197 13.4609Z" fill="#F9F9FB"/>
<path d="M27.4686 1.8581C27.4111 1.70483 27.3239 1.56443 27.212 1.44497C27.1 1.3255 26.9656 1.22932 26.8164 1.16194C26.6672 1.09456 26.5062 1.05731 26.3426 1.05233C26.1789 1.04736 26.0159 1.07475 25.8629 1.13293L4.93671 8.74717C4.78344 8.80469 4.64305 8.89192 4.52358 9.00384C4.40411 9.11577 4.30793 9.25018 4.24055 9.39938C4.17317 9.54858 4.13592 9.70961 4.13095 9.87324C4.12597 10.0369 4.15336 10.1999 4.21154 10.3529L5.1957 13.0464L28.4528 4.55157L27.4686 1.8581Z" fill="#7C7C99"/>
<path d="M32.027 14.2892L28.4529 4.55127L5.14404 13.0461L5.29944 13.4604H24.6199C24.9496 13.4604 25.2658 13.5914 25.4989 13.8245C25.7321 14.0577 25.8631 14.3739 25.8631 14.7036V17.8114L31.25 15.8431C31.5568 15.7369 31.8098 15.5148 31.955 15.2244C32.1002 14.934 32.126 14.5984 32.027 14.2892Z" fill="#D3D3DF"/>
<path opacity="0.15" d="M25.8628 14.7041C25.8628 14.3744 25.7318 14.0582 25.4987 13.825C25.2656 13.5919 24.9494 13.4609 24.6197 13.4609H2.24314C1.91344 13.4609 1.59724 13.5919 1.36411 13.825C1.13097 14.0582 1 14.3744 1 14.7041V17.6047H25.8628V14.7041Z" fill="#000064"/>
<path d="M5.29933 13.4608L4.15979 10.3011C4.1016 10.1481 4.07421 9.98511 4.07919 9.82148C4.08417 9.65785 4.12141 9.49682 4.18879 9.34762C4.25617 9.19843 4.35235 9.06401 4.47182 8.95208C4.59129 8.84016 4.73168 8.75293 4.88495 8.69541L25.9147 1.08117C26.0678 1.02299 26.2308 0.995597 26.3944 1.00057C26.558 1.00555 26.7191 1.0428 26.8683 1.11018C27.0175 1.17756 27.1519 1.27374 27.2638 1.39321C27.3757 1.51267 27.4629 1.65307 27.5205 1.80634L32.0269 14.2377C32.085 14.3908 32.1124 14.5538 32.1075 14.7174C32.1025 14.881 32.0652 15.0421 31.9978 15.1913C31.9305 15.3404 31.8343 15.4749 31.7148 15.5868C31.5954 15.6987 31.455 15.7859 31.3017 15.8435L25.8629 17.8118M5.19574 13.0464L28.4528 4.55161M24.1536 9.62776L26.4845 8.799" stroke="#7C7C99" stroke-linecap="round" stroke-linejoin="round"/>
<path d="M24.6197 13.4609H2.24314C1.55657 13.4609 1 14.0175 1 14.7041V27.7571C1 28.4436 1.55657 29.0002 2.24314 29.0002H24.6197C25.3062 29.0002 25.8628 28.4436 25.8628 27.7571V14.7041C25.8628 14.0175 25.3062 13.4609 24.6197 13.4609Z" stroke="#7C7C99" stroke-linecap="round" stroke-linejoin="round"/>
<path d="M20.6833 24.8561H21.7192M5.14404 20.7123H12.3957H5.14404ZM18.6114 17.6045H21.7192H18.6114ZM5.14404 24.8561H6.17999H5.14404ZM10.3238 24.8561H11.3597H10.3238ZM15.5035 24.8561H16.5395H15.5035Z" stroke="#7C7C99" stroke-linecap="round" stroke-linejoin="round"/>
</svg>
