<svg width="26" height="26" viewBox="0 0 26 26" fill="none" xmlns="http://www.w3.org/2000/svg">
<path d="M4.2 18.6H1V1H18.6V4.2" stroke="#4B4B66" stroke-miterlimit="10" stroke-linecap="round" stroke-linejoin="round"/>
<path d="M7.4002 21.8H4.2002V4.20001H21.8002V7.40001" stroke="#4B4B66" stroke-miterlimit="10" stroke-linecap="round" stroke-linejoin="round"/>
<path d="M7.3999 21H24.9999M7.3999 7.40002H24.9999V25H7.3999V7.40002Z" stroke="#4B4B66" stroke-miterlimit="10" stroke-linecap="round" stroke-linejoin="round"/>
<path d="M11.3998 13C12.2835 13 12.9998 12.2836 12.9998 11.4C12.9998 10.5163 12.2835 9.79999 11.3998 9.79999C10.5161 9.79999 9.7998 10.5163 9.7998 11.4C9.7998 12.2836 10.5161 13 11.3998 13Z" stroke="#4B4B66" stroke-miterlimit="10" stroke-linecap="round" stroke-linejoin="round"/>
<path d="M9.7998 21C9.7998 19.88 10.0398 15.4 12.7198 15.4C15.3998 15.4 14.3598 17.8 15.3998 17.8C16.4398 17.8 15.6398 11.4 18.5998 11.4C21.5598 11.4 22.5998 20.12 22.5998 21" stroke="#4B4B66" stroke-miterlimit="10" stroke-linecap="round" stroke-linejoin="round"/>
</svg>
