<svg width="63" height="62" viewBox="0 0 63 62" fill="none" xmlns="http://www.w3.org/2000/svg">
<path d="M9.22681 45H1.22681V1H45.2268V9"  stroke-width="2" stroke-miterlimit="10" stroke-linecap="round" stroke-linejoin="round"/>
<path d="M17.2268 53H9.22681V9H53.2268V17"  stroke-width="2" stroke-miterlimit="10" stroke-linecap="round" stroke-linejoin="round"/>
<path d="M17.2268 51H61.2268M17.2268 17H61.2268V61H17.2268V17Z"  stroke-width="2" stroke-miterlimit="10" stroke-linecap="round" stroke-linejoin="round"/>
<path d="M27.2268 31C29.4359 31 31.2268 29.2091 31.2268 27C31.2268 24.7909 29.4359 23 27.2268 23C25.0177 23 23.2268 24.7909 23.2268 27C23.2268 29.2091 25.0177 31 27.2268 31Z"  stroke-width="2" stroke-miterlimit="10" stroke-linecap="round" stroke-linejoin="round"/>
<path d="M23.2268 51C23.2268 48.2 23.8268 37 30.5268 37C37.2268 37 34.6268 43 37.2268 43C39.8268 43 37.8268 27 45.2268 27C52.6268 27 55.2268 48.8 55.2268 51"  stroke-width="2" stroke-miterlimit="10" stroke-linecap="round" stroke-linejoin="round"/>
</svg>
