<svg width="232" height="200" viewBox="0 0 232 200" fill="none" xmlns="http://www.w3.org/2000/svg">
<path d="M193.288 195.719H4.60851C3.1475 195.719 1.95483 194.843 1.95483 193.77C1.95483 192.697 3.1475 191.822 4.60851 191.822H193.288C194.749 191.822 195.941 192.697 195.941 193.77C195.941 194.865 194.749 195.719 193.288 195.719Z" fill="#D3D3DF"/>
<path d="M111.001 41.287H104.765H94.4187H88.1821C75.3222 41.287 65.1213 52.1164 65.8465 64.9279L68.9889 120.09H94.4187H104.813H130.243L133.385 64.9279C134.11 52.068 123.861 41.287 111.001 41.287Z" fill="#7450F0"/>
<path d="M83.7346 28.1854C82.6226 23.8343 82.2359 19.3382 82.7193 14.8904C82.816 13.9718 82.961 12.9566 83.5412 12.2314C84.1213 11.4579 85.1849 11.0228 86.0068 11.5062C86.2485 9.52406 87.5539 7.83197 89.1493 6.67167C90.793 5.51138 92.7268 4.93123 94.6607 4.54447C100.075 3.48087 105.828 4.01267 110.905 6.09153C112.017 6.52664 113.129 7.10678 113.999 7.92866C118.253 11.9413 118.302 20.1117 116.948 25.333C116.706 26.3 116.319 27.3152 116.465 28.3305" fill="#4A3D99"/>
<path d="M75.5156 66.3302L69.8592 87.4572C69.2307 89.8261 71.0195 92.0984 73.4368 92.0984L84.8947 92.0017" fill="#5DC5FF"/>
<path d="M129.372 66.3302L135.029 87.4572C135.657 89.8261 133.869 92.0984 131.451 92.0984L119.993 92.0017" fill="#5DC5FF"/>
<path d="M108.149 46.6051H92.8235C94.4672 48.9257 97.2713 50.6661 100.51 50.6661C103.75 50.6661 106.505 48.9257 108.149 46.6051Z" fill="#4A9CCE"/>
<path d="M120.96 65.5564H80.3984V56.9026C80.3984 51.1978 85.0396 46.5566 90.7444 46.5566H110.614C116.319 46.5566 120.96 51.1978 120.96 56.9026V65.5564Z" fill="#5DC5FF"/>
<path d="M104.765 46.6051V39.45H96.5942V46.5567H95.1921C96.4491 48.0071 98.4313 48.974 100.704 48.974C102.927 48.974 104.958 48.0555 106.215 46.5567H104.765V46.6051Z" fill="#F08B8A"/>
<path d="M101.816 6.91333H99.5918C91.228 6.91333 84.8464 14.6003 86.055 23.1574L87.3603 32.3431C88.0372 37.226 92.0982 40.8519 96.8361 40.8519H99.5918H101.816H104.571C109.309 40.8519 113.37 37.226 114.047 32.3431L115.352 23.1574C116.513 14.6003 110.131 6.91333 101.816 6.91333Z" fill="#FD9F9E"/>
<path d="M90.1003 32.9185C91.188 31.0183 90.0409 28.3165 87.5382 26.8839C85.0354 25.4513 82.1248 25.8304 81.0371 27.7306C79.9494 29.6308 81.0965 32.3326 83.5992 33.7652C86.1019 35.1978 89.0126 34.8187 90.1003 32.9185Z" fill="#FD9F9E"/>
<path d="M117.471 33.7671C119.974 32.3345 121.121 29.6327 120.033 27.7325C118.945 25.8323 116.035 25.4532 113.532 26.8858C111.029 28.3184 109.882 31.0202 110.97 32.9204C112.058 34.8206 114.968 35.1997 117.471 33.7671Z" fill="#FD9F9E"/>
<path d="M157.606 88.3274H151.466C149.436 88.3274 147.744 86.6353 147.744 84.6048V80.8338C147.744 78.8033 149.436 77.1112 151.466 77.1112H157.606C159.637 77.1112 161.329 78.8033 161.329 80.8338V84.6048C161.329 86.6353 159.685 88.3274 157.606 88.3274ZM151.466 78.9967C150.451 78.9967 149.629 79.8186 149.629 80.8338V84.6048C149.629 85.62 150.451 86.4419 151.466 86.4419H157.606C158.621 86.4419 159.443 85.62 159.443 84.6048V80.8338C159.443 79.8186 158.621 78.9967 157.606 78.9967H151.466Z" fill="#113F56"/>
<path d="M149.242 73.4368H147.212H140.347L141.991 92.0015H147.212H149.242H154.415L156.108 73.4368H149.242Z" fill="#0D334A"/>
<path d="M109.744 53.5186H94.8538H78.4163C76.0957 53.5186 74.307 55.4524 74.4036 57.7246L76.0957 88.3273C76.1924 90.4545 77.9812 92.1466 80.1084 92.1466H94.8538H109.744H124.49C126.617 92.1466 128.406 90.4545 128.502 88.3273L130.194 57.7246C130.339 55.4524 128.502 53.5186 126.182 53.5186H109.744Z" fill="#C5DCFC"/>
<path d="M105.775 74.2065C107.7 72.2807 107.7 69.1585 105.775 67.2327C103.849 65.307 100.727 65.307 98.8008 67.2327C96.8751 69.1585 96.8751 72.2807 98.8008 74.2065C100.727 76.1322 103.849 76.1322 105.775 74.2065Z" fill="white"/>
<path d="M104.475 70.7298C104.475 71.9384 103.508 72.9536 102.251 72.9536C101.042 72.9536 100.027 71.9867 100.027 70.7298C100.027 69.5211 100.994 68.5059 102.251 68.5059C103.508 68.5542 104.475 69.5211 104.475 70.7298Z" fill="#C5DCFC"/>
<g opacity="0.2">
<path opacity="0.2" d="M117.238 77.1596C110.808 75.4676 104.185 74.549 97.7549 72.7602C93.984 71.6966 90.2614 70.3429 87.0706 68.0707C82.5745 64.8799 79.3837 59.9486 78.2717 54.5823C78.175 54.2439 78.1267 53.8571 78.0783 53.5187C75.9511 53.7121 74.3557 55.5492 74.4524 57.7247L76.1445 88.3275C76.2412 90.4547 78.03 92.1468 80.1572 92.1468H94.9026H109.793H124.538C126.666 92.1468 128.454 90.4547 128.551 88.3275L128.938 81.7041C125.215 79.6736 121.251 78.2232 117.238 77.1596Z" fill="#C5DCFC"/>
</g>
<path d="M128.067 92.1469H76.4828C75.9993 92.1469 75.6125 91.7601 75.6125 91.2767V89.7296C75.6125 89.2461 75.9993 88.8594 76.4828 88.8594H128.019C128.503 88.8594 128.889 89.2461 128.889 89.7296V91.2767C128.938 91.7601 128.551 92.1469 128.067 92.1469Z" fill="#B0CBEA"/>
<path d="M76.6759 50.3275C76.4342 50.3275 76.2408 50.1342 76.2408 49.8924V14.7936C76.2408 12.9565 74.7421 11.4577 72.905 11.4577H49.119C48.8772 11.4577 48.6838 11.2644 48.6838 11.0226C48.6838 10.7809 48.8772 10.5875 49.119 10.5875H72.905C75.2255 10.5875 77.111 12.473 77.111 14.7936V49.8441C77.111 50.1342 76.9176 50.3275 76.6759 50.3275Z" fill="#0E97F7"/>
<path d="M72.3731 72.7598H70.1492C67.7319 72.7598 65.7981 70.826 65.7981 68.4087V45.4929C65.7981 43.6075 64.251 42.0604 62.3655 42.0604H35.3404C35.0987 42.0604 34.9053 41.867 34.9053 41.6253C34.9053 41.3836 35.0987 41.1902 35.3404 41.1902H62.3655C64.7828 41.1902 66.7166 43.124 66.7166 45.5413V68.4571C66.7166 70.3425 68.2637 71.8896 70.1492 71.8896H72.3731C72.6148 71.8896 72.8082 72.083 72.8082 72.3247C72.8082 72.5664 72.6148 72.7598 72.3731 72.7598Z" fill="#0E97F7"/>
<path d="M125.505 51.5845C125.263 51.5845 125.07 51.3911 125.07 51.1494V45.3963C125.07 43.5108 126.617 41.9637 128.502 41.9637H159.637C161.039 41.9637 162.151 40.8034 162.151 39.4498V34.1801C162.151 33.9384 162.344 33.745 162.586 33.745C162.827 33.745 163.021 33.9384 163.021 34.1801V39.4014C163.021 41.2869 161.474 42.834 159.588 42.834H128.454C127.052 42.834 125.94 43.9942 125.94 45.3479V51.101C125.988 51.3911 125.795 51.5845 125.505 51.5845Z" fill="#0E97F7"/>
<path d="M170.853 66.5233H133.192C132.95 66.5233 132.757 66.3299 132.757 66.0882C132.757 65.8465 132.95 65.6531 133.192 65.6531H170.853C171.095 65.6531 171.288 65.8465 171.288 66.0882C171.288 66.3299 171.143 66.5233 170.853 66.5233Z" fill="#0E97F7"/>
<path d="M100.559 17.6461L97.7063 29.3941H103.653L100.559 17.6461Z" fill="#FD8C8C"/>
<path d="M96.2077 26.3C96.2077 27.1218 95.821 27.7503 95.3858 27.7503C94.9024 27.7503 94.564 27.1218 94.564 26.3C94.564 25.4781 94.9507 24.8496 95.3858 24.8496C95.821 24.8496 96.2077 25.4781 96.2077 26.3Z" fill="#91435B"/>
<path d="M106.844 26.2997C106.844 27.1216 106.457 27.7501 106.022 27.7501C105.538 27.7501 105.2 27.1216 105.2 26.2997C105.2 25.4779 105.587 24.8494 106.022 24.8494C106.457 24.8494 106.844 25.4779 106.844 26.2997Z" fill="#91435B"/>
<path d="M100.704 33.0198C99.4467 33.0198 98.3831 32.1979 98.093 30.9893C98.0447 30.7476 98.1897 30.5059 98.4314 30.4575C98.6731 30.4092 98.9149 30.5542 98.9632 30.7959C99.2049 31.8112 100.075 32.1496 100.704 32.1496C101.332 32.1496 102.202 31.8112 102.444 30.7959C102.492 30.5542 102.734 30.4092 102.976 30.4575C103.218 30.5059 103.363 30.7476 103.314 30.9893C102.976 32.1979 101.961 33.0198 100.704 33.0198Z" fill="#91435B"/>
<path d="M92.0016 20.4986C93.3069 19.3383 94.999 18.9516 96.6911 19.3867C97.5614 19.6284 97.8998 18.3231 97.0295 18.0813C94.854 17.5012 92.6785 18.033 91.0347 19.5317C90.3579 20.1119 91.3248 21.0788 92.0016 20.4986Z" fill="#91435B"/>
<path d="M109.357 20.4984C108.052 19.3381 106.36 18.9513 104.668 19.3864C103.798 19.6282 103.459 18.3228 104.33 18.0811C106.505 17.501 108.681 18.0328 110.324 19.5315C111.001 20.1116 110.034 21.0785 109.357 20.4984Z" fill="#91435B"/>
<g opacity="0.22">
<path opacity="0.22" d="M85.523 26.9768C86.6349 26.9284 87.6502 26.2033 88.4237 25.3814C90.9377 22.8191 92.3397 19.2415 92.1946 15.6639C93.9834 16.6792 96.1106 16.8242 98.1895 16.8242C100.897 16.8242 103.701 16.5825 106.166 15.4706C108.632 14.3586 110.808 12.2314 111.291 9.52406C107.569 8.79888 103.846 8.31542 100.075 7.977C97.8027 7.78362 95.4821 7.59024 93.2583 7.92866C91.131 8.26708 89.0522 9.13729 87.6985 10.781C86.3448 12.4248 85.9097 14.6487 85.813 16.7759C85.7164 18.9031 85.8614 21.0786 85.4263 23.1575" fill="#FA92AE"/>
</g>
<path d="M100.655 4.83448C96.9326 4.68944 91.2762 5.80139 88.6172 8.65378C86.4416 10.9744 85.0396 13.9718 84.3144 17.0176C83.5893 20.1117 83.3475 23.931 84.7979 26.8317C84.8946 26.9767 84.9429 27.1218 85.1363 27.2185C85.4747 27.4118 85.8131 27.1218 86.1032 26.88C87.7953 25.333 88.9073 23.4475 89.6324 21.3203C90.0676 20.0633 90.3093 18.6613 90.4543 17.356C90.5027 16.9692 90.9378 13.2466 90.6477 13.1499C94.5153 14.3586 98.6247 14.7937 102.637 14.4069C104.378 14.2619 106.118 13.9234 107.665 13.1499C109.212 12.3764 110.614 11.1677 111.291 9.57234C108.681 6.62327 104.668 4.97952 100.655 4.83448Z" fill="#4A3D99"/>
<path d="M111.436 20.6437H106.312C104.475 20.6437 102.976 22.0457 102.782 23.8828C100.8 22.7709 99.3499 23.351 98.5764 23.8828C98.4314 22.094 96.8843 20.6437 95.0472 20.6437H89.9225C87.9887 20.6437 86.3933 22.2391 86.3933 24.1729V27.1703C86.3933 29.1041 87.9887 30.6995 89.9225 30.6995H95.0472C96.981 30.6995 98.5764 29.1041 98.5764 27.1703V24.9948C99.1565 24.5113 100.414 23.351 102.782 24.8981V27.1703C102.782 29.1041 104.378 30.6995 106.312 30.6995H111.436C113.37 30.6995 114.966 29.1041 114.966 27.1703V24.1729C114.966 22.2391 113.37 20.6437 111.436 20.6437ZM97.4644 27.1703C97.4644 28.4757 96.4008 29.5876 95.0472 29.5876H89.9225C88.6172 29.5876 87.5053 28.524 87.5053 27.1703V24.1729C87.5053 22.8676 88.5689 21.7556 89.9225 21.7556H95.0472C96.3525 21.7556 97.4644 22.8192 97.4644 24.1729V27.1703ZM113.854 27.1703C113.854 28.4757 112.79 29.5876 111.436 29.5876H106.312C105.006 29.5876 103.894 28.524 103.894 27.1703V24.1729C103.894 22.8676 104.958 21.7556 106.312 21.7556H111.436C112.742 21.7556 113.854 22.8192 113.854 24.1729V27.1703Z" fill="white"/>
<path d="M169.548 32.2464H149.291C146.342 32.2464 143.925 29.8291 143.925 26.88V13.4883C143.925 10.5392 146.342 8.12195 149.291 8.12195H169.548C172.497 8.12195 174.914 10.5392 174.914 13.4883V26.88C174.866 29.8291 172.497 32.2464 169.548 32.2464Z" fill="#00C1B4"/>
<g opacity="0.22">
<path opacity="0.22" d="M170.321 21.8036C165.68 20.9817 160.845 20.74 156.639 18.6611C153.11 16.8723 150.209 13.7782 148.759 10.104C148.517 9.52383 148.324 8.89534 148.131 8.26685C145.762 8.65361 143.973 10.7325 143.973 13.1981V27.2666C143.973 30.0223 146.197 32.2946 149.001 32.2946H169.934C172.69 32.2946 174.962 30.0707 174.962 27.2666V22.9639C173.415 22.4321 171.868 22.0937 170.321 21.8036Z" fill="#00C1B4"/>
</g>
<path d="M197.25 73.7269H179.797C176.848 73.7269 174.431 71.3096 174.431 68.3606V59.5133C174.431 56.5642 176.848 54.147 179.797 54.147H197.25C200.199 54.147 202.616 56.5642 202.616 59.5133V68.3606C202.568 71.3096 200.199 73.7269 197.25 73.7269Z" fill="#7450F0"/>
<g opacity="0.22">
<path opacity="0.22" d="M196.911 67.2003C192.415 66.33 187.919 64.8797 184.487 61.8339C182.166 59.8034 180.571 57.096 179.7 54.147H179.459C176.703 54.147 174.431 56.3709 174.431 59.1749V68.699C174.431 71.4547 176.655 73.7269 179.459 73.7269H197.588C200.344 73.7269 202.616 71.503 202.616 68.699V68.1188C200.682 67.8288 198.797 67.587 196.911 67.2003Z" fill="#7450F0"/>
</g>
<path d="M39.8366 19.5316H23.109C20.16 19.5316 17.7427 17.1143 17.7427 14.1652V5.36635C17.7427 2.41728 20.16 0 23.109 0H39.8366C42.7857 0 45.2029 2.41728 45.2029 5.36635V14.2136C45.1546 17.1627 42.7857 19.5316 39.8366 19.5316Z" fill="#FD7171"/>
<g opacity="0.22">
<path opacity="0.22" d="M39.3048 11.1678C35.7272 10.7327 31.8596 10.2493 29.1522 7.88032C28.2337 7.10679 27.5085 6.13988 26.88 5.12463C25.8647 3.52922 25.0912 1.78878 24.511 0H22.7706C20.0149 0 17.7427 2.22389 17.7427 5.02793V14.552C17.7427 17.3077 19.9666 19.5799 22.7706 19.5799H40.175C42.9307 19.5799 45.2029 17.356 45.2029 14.552V12.3765C43.3175 11.6996 41.2386 11.4095 39.3048 11.1678Z" fill="#FD7171"/>
</g>
<path d="M25.9615 51.8749H5.36636C2.41728 51.8749 0 49.4576 0 46.5085V36.646C0 33.6969 2.41728 31.2797 5.36636 31.2797H25.9615C28.9106 31.2797 31.3279 33.6969 31.3279 36.646V46.5569C31.3279 49.5059 28.9106 51.8749 25.9615 51.8749Z" fill="#FFB546"/>
<g opacity="0.22">
<path opacity="0.22" d="M16.2441 40.8037C13.15 40.1752 9.86249 39.16 7.83197 36.6944C7.15514 35.8725 6.62334 34.9056 6.23658 33.8903C5.84981 33.0201 5.55974 32.1499 5.31801 31.2797H5.02794C2.27224 31.2797 0 33.5036 0 36.3076V46.8953C0 49.651 2.2239 51.9232 5.02794 51.9232H26.3C29.0557 51.9232 31.3279 49.6993 31.3279 46.8953V43.4627C26.445 42.1574 21.2237 41.7706 16.2441 40.8037Z" fill="#FFB546"/>
</g>
<path d="M52.6966 61.6405H50.2793V82.4774H52.6966V61.6405Z" fill="#9BCED3"/>
<path d="M52.6966 63.9128H50.2793V84.1213H52.6966V63.9128Z" fill="#9B88FE"/>
<path d="M52.6966 63.4775H50.2793V64.2994H52.6966V63.4775Z" fill="#CDEBED"/>
<path d="M53.8719 67.5449L53.2063 78.7903L57.5017 79.0445L58.1673 67.7992L53.8719 67.5449Z" fill="#F0C40C"/>
<path d="M58.2078 69.2309L53.6633 68.9408L53.76 67.2004C53.76 66.8136 54.0984 66.5719 54.4369 66.5719L57.676 66.7653C58.0628 66.7653 58.3045 67.1037 58.3045 67.4421L58.2078 69.2309Z" fill="#0D334A"/>
<path d="M56.5155 72.4218H56.3221C55.9837 72.4218 55.7419 72.1317 55.7419 71.7933L55.9353 68.6508C55.9353 68.3124 56.2254 68.0707 56.5638 68.0707H56.7572C57.0956 68.0707 57.3373 68.3608 57.3373 68.6992L57.144 71.8416C57.144 72.1801 56.8539 72.4218 56.5155 72.4218Z" fill="#0D334A"/>
<path d="M49.1264 69.2401L45.9031 69.5608L46.7502 78.076L49.9735 77.7554L49.1264 69.2401Z" fill="#59AFEC"/>
<path d="M49.3604 70.2944L45.9279 70.6329L45.8312 69.4726C45.7829 69.1341 46.0729 68.7957 46.4114 68.7474L48.5386 68.554C48.877 68.5057 49.2154 68.7957 49.2638 69.1341L49.3604 70.2944Z" fill="#0D334A"/>
<path d="M48.4418 72.8566C48.1518 72.9049 47.8617 72.6632 47.8617 72.3731L47.62 70.1492C47.5716 69.8591 47.8133 69.5691 48.1034 69.5691C48.3935 69.5207 48.6836 69.7624 48.6836 70.0525L48.9253 72.2764C48.9253 72.5665 48.7319 72.8082 48.4418 72.8566Z" fill="#0D334A"/>
<path d="M44.3328 74.6938L45.5898 92.0015H57.8212L59.0781 74.6938H44.3328Z" fill="#59AFEC"/>
<path d="M58.6913 76.6277H44.2843C43.6558 76.6277 43.124 76.0959 43.124 75.4674C43.124 74.8389 43.6558 74.3071 44.2843 74.3071H58.6913C59.3198 74.3071 59.8516 74.8389 59.8516 75.4674C59.8516 76.0959 59.3681 76.6277 58.6913 76.6277Z" fill="#0D334A"/>
<g opacity="0.22">
<path opacity="0.22" d="M45.5897 92.0015H57.8212L57.8695 91.6148C55.839 90.2611 53.6151 89.1008 51.8747 87.4087C48.9256 84.6047 47.3785 80.592 46.9434 76.5793C46.8951 75.9508 46.8467 75.3223 46.7984 74.6938H44.3811V74.7422L45.5897 92.0015Z" fill="#59AFEC"/>
</g>
<path d="M74.9356 122.411L67.9738 190.917C67.9255 191.352 68.2639 191.739 68.7957 191.835C69.4242 191.98 70.0527 191.642 70.101 191.11L80.1569 121.106" fill="#1A1859"/>
<path d="M126.037 122.411L132.998 190.917C133.047 191.352 132.708 191.738 132.177 191.835C131.548 191.98 130.92 191.642 130.871 191.11L120.815 121.106" fill="#1A1859"/>
<path d="M111.049 175.059L111.533 185.405C111.533 185.405 119.848 186.71 120.283 191.835C105.683 191.932 101.429 191.061 101.429 191.061L104.668 169.161" fill="#FA92AE"/>
<path d="M130.146 122.894H70.8744C67.9253 122.894 65.5564 120.525 65.5564 117.576V110.179C65.5564 107.23 67.9253 104.861 70.8744 104.861H130.146C133.095 104.861 135.464 107.23 135.464 110.179V117.576C135.416 120.525 133.047 122.894 130.146 122.894Z" fill="#7450F0"/>
<path d="M103.169 112.645L102.492 176.654L113.225 176.993L120.815 113.467" fill="#B0CBEA"/>
<path d="M120.38 191.835C119.945 186.614 111.533 185.309 111.533 185.309L111.34 181.296C108.487 181.103 105.586 181.103 102.734 181.248L101.284 191.11C101.284 191.062 105.586 191.98 120.38 191.835Z" fill="#362D6B"/>
<path d="M75.1287 105.635C75.1287 105.635 76.434 117.383 82.0421 118.446C87.6501 119.51 111.678 116.948 111.678 116.948L110.131 109.454L75.1287 105.635Z" fill="#B0CBEA"/>
<path d="M140.347 123.813L146.342 126.085C146.342 126.085 144.988 140.202 150.548 140.975C151.95 131.161 152.337 120.622 152.337 120.622L142.377 116.948" fill="#FA92AE"/>
<path d="M82.3321 112.984L141.265 126.085L144.698 116.851L108.342 100.946L76.1439 99.2534C76.1439 99.2051 71.5028 110.566 82.3321 112.984Z" fill="#C5DCFC"/>
<path d="M147.212 118.737C146.293 120.912 145.617 123.233 144.843 125.505L146.293 126.037C146.293 126.037 144.94 140.154 150.499 140.927C151.901 131.113 152.288 120.574 152.288 120.574L147.212 118.737Z" fill="#362D6B"/>
<path d="M43.8218 103.701L36.4733 198.7C36.425 199.28 36.8117 199.86 37.3435 199.957C38.0204 200.151 38.6489 199.667 38.7456 198.942L50.5902 104.91" fill="#1A1859"/>
<path d="M159.364 103.701L166.713 198.7C166.761 199.28 166.374 199.86 165.842 199.957C165.214 200.151 164.537 199.667 164.44 198.942L152.596 104.91" fill="#1A1859"/>
<path d="M172.058 109.118H29.7353C28.7469 109.118 27.9351 107.99 27.9351 106.618V96.0293C27.9351 94.6567 28.7469 93.5293 29.7353 93.5293H172.058C173.046 93.5293 173.858 94.6567 173.858 96.0293V106.618C173.858 107.99 173.046 109.118 172.058 109.118Z" fill="#4B4B66"/>
<path d="M182.484 97.8593H19.3439C18.3551 97.8593 17.543 96.7165 17.543 95.3252V94.3314C17.543 92.9401 18.3551 91.7972 19.3439 91.7972H182.448C183.437 91.7972 184.249 92.9401 184.249 94.3314V95.3252C184.284 96.7165 183.472 97.8593 182.484 97.8593Z" fill="#242430"/>
<path d="M156.603 23.6029H158.667L156.879 20.5189C157.803 20.0509 158.427 19.1149 158.427 18.0829C158.427 16.4869 157.143 15.2029 155.547 15.2029H152.187V23.6029H154.107V20.8429H155.019L156.603 23.6029ZM154.107 17.0029H155.547C156.075 17.0029 156.507 17.4709 156.507 18.0829C156.507 18.6949 156.075 19.1629 155.547 19.1629H154.107V17.0029ZM165.185 21.1909C165.185 19.4389 163.769 19.0429 162.725 18.5989V16.9789C163.073 17.0989 163.313 17.3389 163.469 17.7589L165.089 16.8109C164.621 15.7549 163.757 15.2029 162.725 15.0709V14.0029H161.885V15.0469C160.613 15.1669 159.437 15.9709 159.437 17.5309C159.437 19.1389 160.685 19.7269 161.729 20.1469C161.777 20.1709 161.837 20.1829 161.885 20.2069V21.8629C161.345 21.7669 160.997 21.4309 160.745 20.8549L159.089 21.8149C159.521 22.9669 160.529 23.6629 161.885 23.7589V24.8029H162.725V23.7469C164.153 23.5789 165.185 22.6909 165.185 21.1909ZM161.357 17.5429C161.357 17.2549 161.537 17.0269 161.885 16.9429V18.2029C161.465 17.9629 161.357 17.7709 161.357 17.5429ZM162.725 21.8389V20.5549C163.085 20.7349 163.265 20.9149 163.265 21.2149C163.265 21.4669 163.133 21.7309 162.725 21.8389Z" fill="white"/>
<path d="M40.559 4.73905C39.9807 4.73905 39.577 4.99129 39.577 5.35233V6.4534C39.0587 5.45133 38.2615 4.73905 37.2856 4.73905H28.1201C27.9394 4.73901 27.7928 4.88233 27.7927 5.05914V5.0593V6.98349C27.7946 6.461 27.5799 5.93967 27.155 5.55905C26.355 4.84241 25.1126 4.89598 24.3801 5.67871C23.6942 6.41164 23.6927 7.53536 24.3766 8.2701C24.1879 8.29043 24.0097 8.36537 23.8647 8.48527V3.1858C23.8647 2.75486 23.4334 2.41724 22.8827 2.41724C22.3319 2.41724 21.9006 2.75486 21.9006 3.1858V14.2185C21.9006 14.6494 22.3319 14.9871 22.8827 14.9871C23.4334 14.9871 23.8647 14.6494 23.8647 14.2185V12.1048H39.577V14.3738C39.577 14.7348 39.9807 14.9871 40.559 14.9871C41.1373 14.9871 41.541 14.7348 41.541 14.3738V5.35233C41.541 4.99129 41.1373 4.73905 40.559 4.73905ZM23.21 14.2185C23.2065 14.2448 23.0965 14.3466 22.8827 14.3466C22.6678 14.3466 22.5585 14.2448 22.5553 14.2185V3.1858C22.5585 3.15954 22.6678 3.05774 22.8827 3.05774C23.0965 3.05774 23.2065 3.15954 23.21 3.1858V14.2185ZM28.4474 5.37955H37.2856C38.5202 5.37955 39.4613 7.178 39.5671 8.90231H28.4474V5.37955ZM27.7927 6.98413V8.52774C27.6515 8.39351 27.4716 8.30492 27.2773 8.27386C27.6206 7.90701 27.7909 7.44517 27.7927 6.98413ZM25.8287 5.69981C26.5518 5.69981 27.1381 6.27333 27.1381 6.98081C27.1381 7.68828 26.5518 8.26181 25.8287 8.26181C25.1056 8.26181 24.5194 7.68828 24.5194 6.98081C24.5201 6.27365 25.1059 5.70057 25.8287 5.69981ZM39.577 11.4643H23.8647V9.54189C24.035 9.52876 24.1664 9.38973 24.1664 9.22256C24.1633 9.04919 24.3041 8.90595 24.4813 8.90231H27.125C27.3022 8.90595 27.443 9.04919 27.4398 9.22256C27.4398 9.39938 27.5863 9.54277 27.767 9.54281H27.7672H39.577V11.4643ZM40.8863 14.2903C40.6748 14.3653 40.4432 14.3653 40.2316 14.2903V5.43584C40.4432 5.36078 40.6748 5.36078 40.8863 5.43584V14.2903Z" fill="white"/>
<path d="M7.88037 45.198L11.5113 48.8289L22.919 37.3954L19.3653 33.8418L7.88037 45.198Z" stroke="white" stroke-miterlimit="10" stroke-linecap="round" stroke-linejoin="round"/>
<path d="M17.0478 36.1337L18.3096 37.4212M10.198 42.9319L12.0006 44.7345L10.198 42.9319ZM12.9791 40.1508L14.7817 41.9534L12.9791 40.1508ZM15.7345 37.447L17.5113 39.2238L15.7345 37.447ZM11.5628 41.5671L12.8504 42.8804L11.5628 41.5671ZM14.2924 38.8633L15.58 40.1508L14.2924 38.8633Z" stroke="white" stroke-miterlimit="10" stroke-linecap="round" stroke-linejoin="round"/>
<path d="M198.302 61.264H189.613V59.8171H189.822C190.063 59.8171 190.259 59.6217 190.259 59.3805V57.9677C190.259 57.7266 190.063 57.5311 189.822 57.5311H179.46C179.219 57.5311 179.023 57.7266 179.023 57.9677V59.3805C179.023 59.6217 179.219 59.8171 179.46 59.8171H179.67V69.168C179.67 69.4091 179.865 69.6046 180.106 69.6046H189.176C189.417 69.6046 189.613 69.4091 189.613 69.168V63.55H196.629V69.168C196.629 69.4091 196.825 69.6046 197.066 69.6046C197.307 69.6046 197.503 69.4091 197.503 69.168V63.55H198.302C198.543 63.55 198.739 63.3545 198.739 63.1134V61.7005C198.739 61.4594 198.543 61.264 198.302 61.264ZM197.866 62.6768H189.613V62.1371H197.866V62.6768ZM179.897 58.944V58.4043H189.386V58.944H189.176H180.106H179.897ZM180.543 59.8171H188.74V61.7005V63.1134V68.7314H186.165V65.6654C186.165 65.4243 185.969 65.2289 185.728 65.2289H183.554C183.313 65.2289 183.118 65.4243 183.118 65.6654V68.7314H180.543V59.8171ZM185.292 68.7314H183.991V66.102H185.292V68.7314Z" fill="white"/>
<path d="M195.475 66.3133V65.4618C195.475 64.877 195 64.4012 194.415 64.4012H191.931C191.346 64.4012 190.87 64.877 190.87 65.4618V66.3133C190.508 66.4452 190.248 66.7921 190.248 67.1996V68.9327C190.248 69.1738 190.444 69.3693 190.685 69.3693H190.935V69.4495C190.935 69.6906 191.13 69.8861 191.371 69.8861C191.612 69.8861 191.808 69.6906 191.808 69.4495V69.3693H194.538V69.4495C194.538 69.6906 194.733 69.8861 194.974 69.8861C195.216 69.8861 195.411 69.6906 195.411 69.4495V69.3693H195.661C195.902 69.3693 196.098 69.1738 196.098 68.9327V67.1996C196.098 66.7921 195.838 66.4452 195.475 66.3133ZM191.121 68.4961V67.1995C191.121 67.1606 191.153 67.1288 191.192 67.1288H195.154C195.193 67.1288 195.225 67.1606 195.225 67.1995V68.4961H191.121ZM191.931 65.2744H194.415C194.518 65.2744 194.602 65.3585 194.602 65.4618V66.2557H191.744V65.4618C191.744 65.3585 191.828 65.2744 191.931 65.2744Z" fill="white"/>
<path d="M191.773 67.5707C191.658 67.5707 191.546 67.6168 191.464 67.6985C191.383 67.7796 191.336 67.8925 191.336 68.0073C191.336 68.122 191.383 68.2343 191.464 68.316C191.546 68.3971 191.658 68.4438 191.773 68.4438C191.888 68.4438 192.001 68.3971 192.082 68.316C192.163 68.2349 192.21 68.122 192.21 68.0073C192.21 67.8919 192.163 67.7796 192.082 67.6985C192.001 67.6168 191.888 67.5707 191.773 67.5707Z" fill="white"/>
<path d="M194.572 67.5707C194.457 67.5707 194.345 67.6168 194.263 67.6985C194.182 67.7796 194.135 67.8919 194.135 68.0073C194.135 68.122 194.182 68.2343 194.263 68.316C194.345 68.3971 194.457 68.4438 194.572 68.4438C194.686 68.4438 194.799 68.3971 194.88 68.316C194.961 68.2343 195.008 68.122 195.008 68.0073C195.008 67.8919 194.961 67.7796 194.88 67.6985C194.799 67.6168 194.687 67.5707 194.572 67.5707Z" fill="white"/>
<path d="M182.52 61.0917C182.278 61.0917 182.083 61.2871 182.083 61.5283V62.4489C182.083 62.6901 182.278 62.8855 182.52 62.8855C182.761 62.8855 182.956 62.6901 182.956 62.4489V61.5283C182.956 61.2871 182.761 61.0917 182.52 61.0917Z" fill="white"/>
<path d="M184.641 62.8855C184.883 62.8855 185.078 62.6901 185.078 62.4489V61.5283C185.078 61.2871 184.883 61.0917 184.641 61.0917C184.4 61.0917 184.205 61.2871 184.205 61.5283V62.4489C184.205 62.6901 184.4 62.8855 184.641 62.8855Z" fill="white"/>
<path d="M186.763 62.8855C187.004 62.8855 187.2 62.6901 187.2 62.4489V61.5283C187.2 61.2871 187.004 61.0917 186.763 61.0917C186.522 61.0917 186.326 61.2871 186.326 61.5283V62.4489C186.326 62.6901 186.522 62.8855 186.763 62.8855Z" fill="white"/>
</svg>
