<svg width="149" height="131" viewBox="0 0 149 131" fill="none" xmlns="http://www.w3.org/2000/svg">
<g filter="url(#filter0_d)">
<path d="M24.0001 82.1715L97.5001 22.8085L114 22.8085L143 22.8085L24.0001 122.672L24.0001 97.6715L24.0001 82.1715Z" fill="#7450F0"/>
<path d="M45.2191 82.8796C45.4682 82.6787 45.6622 82.4733 45.8012 82.2634C45.9378 82.0504 46.0243 81.8392 46.0609 81.6298C46.0975 81.4204 46.0867 81.2158 46.0283 81.0162C45.9675 80.8134 45.863 80.6202 45.7148 80.4365C45.4184 80.0692 45.0709 79.887 44.6723 79.89C44.2738 79.8929 43.8286 80.0928 43.3368 80.4897L42.4496 81.2056L44.36 83.573L45.2191 82.8796ZM51.2109 83.8269L50.235 84.6144C50.042 84.7701 49.8417 84.8085 49.6339 84.7294L46.2376 83.7308C46.1219 83.6957 46.0191 83.6862 45.9292 83.7022C45.8393 83.7182 45.7321 83.7764 45.6076 83.8769L45.0006 84.3667L47.186 87.0749L46.0934 87.9566L40.6675 81.2329L42.6472 79.6352C43.0893 79.2785 43.5054 79.0172 43.8958 78.8513C44.2893 78.6828 44.6566 78.5997 44.9977 78.602C45.3362 78.6012 45.648 78.6786 45.9329 78.8342C46.2209 78.9873 46.4805 79.207 46.7116 79.4934C46.9 79.7268 47.04 79.9736 47.1317 80.2337C47.2265 80.4913 47.2735 80.7566 47.2728 81.0296C47.2752 81.3001 47.2289 81.5739 47.1339 81.8511C47.0388 82.1282 46.896 82.4003 46.7053 82.6672C46.9045 82.6401 47.1114 82.6608 47.3259 82.7292L51.2109 83.8269ZM52.2931 78.1349C52.1574 77.9668 52.0069 77.8312 51.8416 77.7282C51.6768 77.6196 51.505 77.55 51.3262 77.5196C51.1449 77.486 50.9604 77.4961 50.7726 77.55C50.5854 77.5983 50.4015 77.6953 50.2209 77.841C49.8567 78.1349 49.6545 78.4703 49.6143 78.8471C49.574 79.224 49.6778 79.6234 49.9258 80.0452L52.2931 78.1349ZM50.3951 80.6842C50.6261 80.945 50.8578 81.1461 51.0902 81.2875C51.32 81.4258 51.5468 81.5127 51.7706 81.5479C51.9975 81.5807 52.2199 81.5632 52.4376 81.4954C52.6559 81.4221 52.8678 81.3025 53.0733 81.1367C53.2694 80.9784 53.4214 80.8197 53.5295 80.6606C53.635 80.4983 53.7193 80.3481 53.7824 80.2097C53.843 80.0683 53.8931 79.9456 53.9327 79.8418C53.9697 79.7348 54.0193 79.6562 54.0816 79.6059C54.1625 79.5406 54.2499 79.5215 54.3437 79.5486L54.9262 79.6876C54.921 79.9232 54.8826 80.1495 54.811 80.3665C54.7395 80.5836 54.6448 80.7911 54.5269 80.989C54.4066 81.1838 54.2677 81.3652 54.1104 81.5333C53.9556 81.7045 53.7941 81.8579 53.626 81.9936C53.296 82.2599 52.9455 82.4528 52.5743 82.5725C52.2037 82.6865 51.8275 82.7203 51.4456 82.6738C51.0668 82.6248 50.6901 82.4893 50.3156 82.2672C49.9442 82.0426 49.5915 81.7234 49.2574 81.3093C48.9911 80.9794 48.7938 80.6298 48.6654 80.2605C48.5401 79.8887 48.4886 79.5191 48.5108 79.1517C48.5361 78.7817 48.6382 78.4243 48.8173 78.0793C48.997 77.7287 49.2627 77.4115 49.6145 77.1276C49.9071 76.8915 50.2168 76.7212 50.5437 76.6168C50.8681 76.5092 51.1947 76.4744 51.5234 76.5123C51.8522 76.5503 52.1744 76.6629 52.49 76.8503C52.8063 77.032 53.1013 77.2925 53.3751 77.6318C53.5007 77.7874 53.5677 77.9055 53.5762 77.986C53.5847 78.0666 53.5438 78.1433 53.4535 78.2161L50.3951 80.6842ZM56.7622 73.0249C56.7637 73.0905 56.7593 73.1455 56.7489 73.1899C56.7384 73.2343 56.7067 73.2778 56.6538 73.3205C56.6009 73.3632 56.5298 73.3898 56.4405 73.4001C56.3543 73.408 56.2532 73.4228 56.1371 73.4445C56.0216 73.4606 55.8927 73.4952 55.7505 73.5483C55.6083 73.6014 55.4532 73.6958 55.2851 73.8314C55.0672 74.0072 54.9072 74.2006 54.805 74.4116C54.7059 74.62 54.6594 74.8426 54.6654 75.0794C54.672 75.3105 54.7314 75.5529 54.8437 75.8067C54.9566 76.0549 55.1172 76.3081 55.3257 76.5665C55.5418 76.8342 55.7635 77.0485 55.991 77.2093C56.2184 77.3701 56.4444 77.4782 56.6689 77.5334C56.8965 77.5862 57.1183 77.5871 57.3342 77.5362C57.5533 77.4828 57.7608 77.377 57.9569 77.2187C58.1499 77.063 58.2883 76.9128 58.372 76.7681C58.4557 76.6235 58.5155 76.4905 58.5512 76.3691C58.5869 76.2478 58.6139 76.1412 58.6323 76.0493C58.6537 75.9548 58.6972 75.8812 58.7625 75.8285C58.8435 75.7632 58.9308 75.7441 59.0247 75.7712L59.6072 75.9102C59.605 76.1432 59.5729 76.3645 59.5106 76.574C59.4484 76.7836 59.3646 76.9823 59.2592 77.1701C59.1513 77.3549 59.0234 77.5275 58.8754 77.6881C58.7299 77.8517 58.5715 78.0026 58.4003 78.1408C58.1046 78.3794 57.7836 78.5485 57.4373 78.6481C57.0916 78.742 56.7381 78.7626 56.3768 78.7097C56.0161 78.6513 55.6579 78.5163 55.3022 78.3048C54.9471 78.0877 54.6125 77.7846 54.2985 77.3954C54.0146 77.0437 53.8019 76.6782 53.6604 76.299C53.5164 75.9167 53.4513 75.5399 53.4654 75.1688C53.4825 74.7952 53.5838 74.4333 53.7691 74.0833C53.9519 73.7302 54.2285 73.4042 54.5989 73.1053C54.9444 72.8265 55.2931 72.6376 55.6451 72.5386C56.0001 72.4372 56.3632 72.4063 56.7345 72.4459L56.7622 73.0249ZM59.0457 69.5168C59.3975 69.2329 59.7615 69.0343 60.1377 68.9209C60.517 68.8049 60.8917 68.7724 61.2617 68.8233C61.6349 68.8717 61.9978 69.0029 62.3504 69.217C62.703 69.431 63.0313 69.7263 63.3352 70.103C63.6392 70.4796 63.8585 70.8629 63.9932 71.2528C64.1279 71.6426 64.1808 72.0266 64.1518 72.4047C64.1234 72.7771 64.0125 73.1365 63.819 73.4827C63.6287 73.8265 63.3577 74.1403 63.0059 74.4242C62.651 74.7106 62.2839 74.9117 61.9046 75.0276C61.5284 75.141 61.1537 75.1736 60.7806 75.1252C60.4049 75.0737 60.0408 74.9409 59.6882 74.7269C59.3355 74.5128 59.0073 74.2175 58.7033 73.8409C58.3994 73.4642 58.18 73.0809 58.0453 72.6911C57.9106 72.3012 57.859 71.9188 57.8905 71.5438C57.922 71.1689 58.0329 70.8095 58.2233 70.4658C58.4167 70.1195 58.6909 69.8032 59.0457 69.5168ZM62.3729 73.6397C62.8025 73.2931 63.006 72.8924 62.9834 72.4377C62.9615 71.9774 62.7345 71.4796 62.3024 70.9441C61.8703 70.4087 61.4317 70.0817 60.9864 69.963C60.5417 69.8387 60.1046 69.9499 59.675 70.2966C59.2392 70.6482 59.0335 71.0558 59.058 71.5192C59.0799 71.9795 59.3069 72.4774 59.739 73.0128C60.171 73.5482 60.6097 73.8752 61.055 73.9939C61.4978 74.1095 61.9371 73.9914 62.3729 73.6397ZM66.2252 71.7106L62.3819 66.9479L62.9889 66.4581C63.1258 66.3476 63.2645 66.341 63.4048 66.4385L63.8056 66.8013C63.8123 66.6314 63.8298 66.4683 63.8578 66.312C63.8834 66.1526 63.9252 66.0006 63.9833 65.856C64.042 65.7059 64.1183 65.5647 64.2121 65.4325C64.3089 65.2977 64.429 65.1726 64.5722 65.057C64.7247 64.934 64.8824 64.8427 65.0451 64.7833C65.2079 64.7239 65.3702 64.6957 65.5321 64.6988C65.697 64.6993 65.8617 64.7283 66.0263 64.7857C66.1908 64.8431 66.3542 64.9245 66.5164 65.0301C66.4549 64.8073 66.4309 64.5928 66.4444 64.3866C66.4579 64.1804 66.5014 63.9859 66.5749 63.8032C66.6485 63.6205 66.7462 63.4517 66.868 63.2969C66.9904 63.1364 67.1294 62.9934 67.285 62.8678C67.5403 62.6618 67.8002 62.5189 68.0647 62.4391C68.3323 62.3567 68.5974 62.3381 68.86 62.3832C69.1232 62.4227 69.381 62.5257 69.6334 62.692C69.8859 62.8583 70.1277 63.0847 70.3588 63.3711L72.8042 66.4015L71.8003 67.2116L69.3549 64.1812C69.0836 63.845 68.807 63.6519 68.525 63.6019C68.2437 63.5462 67.9614 63.6327 67.6781 63.8613C67.5505 63.9643 67.4482 64.0828 67.3713 64.2168C67.2944 64.3508 67.2479 64.4938 67.2316 64.6456C67.2154 64.7975 67.2339 64.9574 67.2871 65.1252C67.3409 65.2874 67.4356 65.4525 67.5712 65.6206L70.0167 68.651L69.0128 69.4611L66.5674 66.4307C66.286 66.0821 66.01 65.8834 65.7393 65.8345C65.4661 65.7826 65.194 65.8659 64.9232 66.0844C64.7365 66.2352 64.6026 66.4228 64.5218 66.6474C64.4384 66.8689 64.3963 67.1162 64.3956 67.3892L67.2291 70.9005L66.2252 71.7106ZM74.7457 60.016C74.61 59.8479 74.4595 59.7124 74.2942 59.6094C74.1294 59.5007 73.9576 59.4312 73.7788 59.4007C73.5975 59.3671 73.413 59.3773 73.2252 59.4312C73.038 59.4794 72.8541 59.5764 72.6736 59.7221C72.3094 60.016 72.1071 60.3514 72.0669 60.7283C72.0266 61.1051 72.1304 61.5045 72.3784 61.9264L74.7457 60.016ZM72.8477 62.5653C73.0787 62.8261 73.3104 63.0272 73.5428 63.1687C73.7726 63.307 73.9994 63.3938 74.2232 63.4291C74.4501 63.4618 74.6725 63.4444 74.8902 63.3766C75.1085 63.3032 75.3204 63.1836 75.5259 63.0178C75.722 62.8596 75.874 62.7009 75.9821 62.5417C76.0876 62.3795 76.1719 62.2292 76.235 62.0909C76.2956 61.9494 76.3457 61.8268 76.3853 61.7229C76.4223 61.6159 76.4719 61.5373 76.5342 61.4871C76.6151 61.4218 76.7025 61.4026 76.7963 61.4297L77.3788 61.5688C77.3736 61.8043 77.3352 62.0306 77.2636 62.2477C77.1921 62.4648 77.0974 62.6722 76.9795 62.8701C76.8592 63.0649 76.7203 63.2464 76.563 63.4145C76.4082 63.5857 76.2467 63.7391 76.0786 63.8747C75.7487 64.141 75.3981 64.334 75.0269 64.4536C74.6563 64.5676 74.2801 64.6014 73.8982 64.5549C73.5194 64.5059 73.1427 64.3704 72.7682 64.1483C72.3968 63.9238 72.0441 63.6045 71.71 63.1905C71.4437 62.8605 71.2464 62.5109 71.118 62.1416C70.9927 61.7698 70.9412 61.4002 70.9634 61.0328C70.9887 60.6629 71.0909 60.3054 71.2699 59.9605C71.4496 59.6099 71.7153 59.2926 72.0671 59.0088C72.3597 58.7727 72.6694 58.6024 72.9963 58.4979C73.3207 58.3903 73.6473 58.3555 73.976 58.3935C74.3048 58.4314 74.627 58.5441 74.9426 58.7314C75.2589 58.9131 75.5539 59.1736 75.8277 59.5129C75.9533 59.6685 76.0204 59.7866 76.0288 59.8672C76.0373 59.9477 75.9964 60.0244 75.9061 60.0973L72.8477 62.5653ZM76.5419 56.5619C76.5592 56.3732 76.5884 56.1928 76.6295 56.0209C76.6713 55.8433 76.7293 55.6731 76.8035 55.5104C76.8778 55.3476 76.9712 55.1926 77.0836 55.0453C77.1961 54.898 77.3348 54.7578 77.4998 54.6247C77.7612 54.4137 78.0252 54.2726 78.2916 54.2015C78.5612 54.1279 78.827 54.1165 79.0889 54.1672C79.354 54.2155 79.6112 54.324 79.8606 54.4929C80.1074 54.6586 80.3388 54.8753 80.5549 55.143L83.0003 58.1734L82.0011 58.9798L79.5556 55.9494C79.2969 55.6288 79.0212 55.44 78.7286 55.3832C78.4392 55.3238 78.1434 55.416 77.8415 55.6596C77.6174 55.8405 77.4503 56.0602 77.3402 56.3186C77.2332 56.5746 77.1672 56.8591 77.1423 57.1722L79.9419 60.6415L78.9381 61.4516L75.0947 56.6889L75.7017 56.1991C75.8386 56.0886 75.9773 56.082 76.1176 56.1795L76.5419 56.5619ZM84.3148 51.1836C84.0291 51.1161 83.7732 51.1144 83.5474 51.1785C83.3215 51.2425 83.1105 51.3537 82.9144 51.5119C82.5222 51.8284 82.3324 52.2206 82.345 52.6885C82.3551 53.1532 82.5874 53.6673 83.0421 54.2307C83.2783 54.5233 83.5054 54.7538 83.7235 54.9222C83.9391 55.0874 84.1463 55.1977 84.3452 55.2531C84.5441 55.3085 84.7343 55.3117 84.9159 55.2629C85.0975 55.214 85.2723 55.1217 85.4404 54.9861C85.6957 54.7801 85.8712 54.5485 85.9669 54.2914C86.0633 54.0286 86.1092 53.732 86.1046 53.4015L84.3148 51.1836ZM82.6397 47.0537L88.2163 53.9642L87.6093 54.454C87.4755 54.562 87.3384 54.5673 87.198 54.4698L86.6911 54.0231C86.6802 54.4174 86.605 54.7891 86.4653 55.1382C86.3287 55.4849 86.0923 55.7939 85.7561 56.0652C85.4884 56.2812 85.2029 56.4242 84.8996 56.4942C84.5938 56.5611 84.2801 56.5546 83.9587 56.4748C83.6373 56.3949 83.3111 56.2392 82.9803 56.0076C82.6501 55.7704 82.3267 55.4556 82.0102 55.0634C81.7238 54.7086 81.5055 54.3425 81.3552 53.9652C81.2081 53.5854 81.134 53.2133 81.1331 52.8492C81.1297 52.4818 81.2038 52.1342 81.3555 51.8062C81.5077 51.4726 81.741 51.1789 82.0554 50.9252C82.3356 50.6991 82.6102 50.5521 82.8791 50.4841C83.1456 50.413 83.4207 50.3941 83.7044 50.4272L81.6358 47.8638L82.6397 47.0537ZM90.3081 48.8375C89.9602 49.1388 89.6821 49.412 89.4739 49.6572C89.2631 49.8992 89.1104 50.1176 89.0156 50.3123C88.9184 50.5038 88.8744 50.6755 88.8838 50.8273C88.8963 50.9765 88.949 51.1087 89.042 51.2239C89.1324 51.336 89.2274 51.4186 89.327 51.4719C89.4271 51.5196 89.5297 51.5448 89.6346 51.5475C89.7402 51.5445 89.845 51.5216 89.9492 51.4787C90.0539 51.4301 90.1577 51.3644 90.2604 51.2815C90.5219 51.0705 90.7071 50.8414 90.816 50.5942C90.9255 50.3413 90.9936 50.0499 91.0203 49.72L90.3081 48.8375ZM86.0189 48.9681C86.1529 48.0324 86.592 47.2643 87.3359 46.6639C87.6099 46.4429 87.8891 46.2921 88.1736 46.2115C88.4587 46.1254 88.7382 46.1054 89.012 46.1518C89.289 46.1956 89.5552 46.2994 89.8108 46.4632C90.067 46.6214 90.3043 46.836 90.5229 47.1068L92.9645 50.1325L92.5163 50.4942C92.4198 50.5721 92.3353 50.6171 92.2629 50.6293C92.188 50.6383 92.097 50.6115 91.9899 50.5489L91.5791 50.2405C91.5456 50.4474 91.5049 50.6422 91.4569 50.8248C91.4065 51.0043 91.3413 51.1751 91.2614 51.3372C91.1846 51.4969 91.0844 51.6497 90.9607 51.7958C90.8426 51.9425 90.6964 52.0861 90.5221 52.2268C90.3291 52.3826 90.1272 52.5018 89.9164 52.5845C89.7087 52.6647 89.5015 52.7009 89.2947 52.6931C89.0853 52.6821 88.8808 52.6261 88.6811 52.5251C88.4845 52.4216 88.2996 52.2625 88.1262 52.0477C87.978 51.864 87.8818 51.6461 87.8377 51.3939C87.7966 51.1392 87.8329 50.853 87.9465 50.5351C88.0607 50.2117 88.265 49.8566 88.5595 49.4699C88.857 49.0807 89.2716 48.6613 89.8032 48.2118L89.547 47.8943C89.2707 47.5519 88.9915 47.3557 88.7096 47.3056C88.4276 47.2556 88.145 47.3449 87.8617 47.5735C87.6687 47.7292 87.527 47.8847 87.4364 48.04C87.3434 48.1922 87.2712 48.3353 87.2199 48.4692C87.1686 48.6031 87.1257 48.7251 87.0912 48.8352C87.0542 48.9422 86.9936 49.0296 86.9096 49.0974C86.8411 49.1527 86.7682 49.1833 86.6907 49.1892C86.6139 49.1896 86.5385 49.1758 86.4647 49.148L86.0189 48.9681ZM94.2826 43.1398C93.9968 43.0723 93.741 43.0706 93.5152 43.1346C93.2893 43.1987 93.0783 43.3098 92.8822 43.4681C92.49 43.7846 92.3002 44.1768 92.3128 44.6446C92.3229 45.1094 92.5552 45.6234 93.0099 46.1869C93.246 46.4795 93.4732 46.71 93.6913 46.8783C93.9069 47.0436 94.1141 47.1539 94.313 47.2093C94.5119 47.2647 94.7021 47.2679 94.8837 47.219C95.0653 47.1702 95.2401 47.0779 95.4082 46.9423C95.6635 46.7363 95.839 46.5047 95.9347 46.2475C96.031 45.9848 96.077 45.6881 96.0724 45.3577L94.2826 43.1398ZM92.6075 39.0098L98.1841 45.9203L97.5771 46.4102C97.4433 46.5182 97.3062 46.5235 97.1658 46.426L96.6588 45.9793C96.648 46.3735 96.5728 46.7452 96.4331 47.0944C96.2965 47.4411 96.0601 47.75 95.7239 48.0213C95.4562 48.2374 95.1707 48.3804 94.8674 48.4504C94.5616 48.5173 94.2479 48.5108 93.9265 48.431C93.6051 48.3511 93.2789 48.1954 92.9481 47.9638C92.6179 47.7265 92.2945 47.4118 91.978 47.0196C91.6916 46.6647 91.4733 46.2986 91.323 45.9213C91.1759 45.5415 91.1018 45.1695 91.1009 44.8053C91.0975 44.438 91.1716 44.0904 91.3232 43.7624C91.4755 43.4288 91.7088 43.1351 92.0232 42.8814C92.3034 42.6553 92.5779 42.5083 92.8469 42.4403C93.1133 42.3692 93.3884 42.3502 93.6722 42.3834L91.6036 39.82L92.6075 39.0098ZM97.5672 38.4307C97.9189 38.1468 98.2829 37.9482 98.6591 37.8347C99.0385 37.7188 99.4131 37.6863 99.7832 37.7372C100.156 37.7856 100.519 37.9168 100.872 38.1308C101.224 38.3449 101.553 38.6402 101.857 39.0168C102.161 39.3935 102.38 39.7768 102.515 40.1666C102.649 40.5565 102.702 40.9405 102.673 41.3185C102.645 41.691 102.534 42.0503 102.34 42.3966C102.15 42.7404 101.879 43.0542 101.527 43.3381C101.172 43.6244 100.805 43.8256 100.426 43.9415C100.05 44.0549 99.6752 44.0874 99.302 44.039C98.9264 43.9875 98.5622 43.8548 98.2096 43.6407C97.857 43.4267 97.5287 43.1314 97.2248 42.7547C96.9208 42.3781 96.7015 41.9948 96.5668 41.6049C96.432 41.2151 96.3804 40.8327 96.412 40.4577C96.4435 40.0828 96.5544 39.7234 96.7447 39.3796C96.9382 39.0333 97.2123 38.717 97.5672 38.4307ZM100.894 42.5536C101.324 42.207 101.527 41.8063 101.505 41.3516C101.483 40.8913 101.256 40.3934 100.824 39.858C100.392 39.3226 99.9531 38.9956 99.5078 38.8769C99.0631 38.7526 98.626 38.8638 98.1964 39.2104C97.7606 39.5621 97.555 39.9697 97.5794 40.4331C97.6014 40.8934 97.8284 41.3912 98.2604 41.9267C98.6925 42.4621 99.1312 42.7891 99.5765 42.9078C100.019 43.0234 100.459 42.9053 100.894 42.5536Z" fill="white"/>
</g>
<defs>
<filter id="filter0_d" x="0.182617" y="0.571777" width="148.69" height="130.1" filterUnits="userSpaceOnUse" color-interpolation-filters="sRGB">
<feFlood flood-opacity="0" result="BackgroundImageFix"/>
<feColorMatrix in="SourceAlpha" type="matrix" values="0 0 0 0 0 0 0 0 0 0 0 0 0 0 0 0 0 0 127 0"/>
<feOffset dy="4"/>
<feGaussianBlur stdDeviation="2"/>
<feColorMatrix type="matrix" values="0 0 0 0 0 0 0 0 0 0 0 0 0 0 0 0 0 0 0.25 0"/>
<feBlend mode="normal" in2="BackgroundImageFix" result="effect1_dropShadow"/>
<feBlend mode="normal" in="SourceGraphic" in2="effect1_dropShadow" result="shape"/>
</filter>
</defs>
</svg>
