<svg width="238" height="206" viewBox="0 0 238 206" fill="none" xmlns="http://www.w3.org/2000/svg">
<g opacity="0.6">
<path opacity="0.4" d="M13.0498 24.1207C13.0498 25.5426 11.9326 26.6598 10.5107 26.6598C9.08886 26.6598 7.97168 25.5426 7.97168 24.1207C7.97168 22.6988 9.08886 21.5817 10.5107 21.5817C11.9326 21.5817 13.0498 22.7496 13.0498 24.1207Z" fill="#EFFAFF"/>
<path opacity="0.4" d="M5.63719 133.301C5.63719 134.722 4.52001 135.84 3.09814 135.84C1.67627 135.84 0.559082 134.722 0.559082 133.301C0.559082 131.879 1.67627 130.761 3.09814 130.761C4.46923 130.761 5.63719 131.879 5.63719 133.301Z" fill="#EFFAFF"/>
<path opacity="0.4" d="M61.7493 81.707C61.7493 83.1289 60.6321 84.2461 59.2102 84.2461C57.7883 84.2461 56.6711 83.1289 56.6711 81.707C56.6711 80.2852 57.7883 79.168 59.2102 79.168C60.6321 79.168 61.7493 80.2852 61.7493 81.707Z" fill="#EFFAFF"/>
<path opacity="0.4" d="M171.691 129.593C171.691 131.015 170.574 132.132 169.152 132.132C167.73 132.132 166.613 131.015 166.613 129.593C166.613 128.172 167.73 127.054 169.152 127.054C170.574 127.054 171.691 128.172 171.691 129.593Z" fill="#EFFAFF"/>
<path opacity="0.4" d="M237.3 70.0275C237.3 71.4493 236.183 72.5665 234.761 72.5665C233.339 72.5665 232.222 71.4493 232.222 70.0275C232.222 68.6056 233.339 67.4884 234.761 67.4884C236.132 67.4884 237.3 68.6056 237.3 70.0275Z" fill="#EFFAFF"/>
<path opacity="0.4" d="M175.5 13.7111C175.5 15.1329 174.383 16.2501 172.961 16.2501C171.539 16.2501 170.422 15.1329 170.422 13.7111C170.422 12.2892 171.539 11.172 172.961 11.172C174.383 11.172 175.5 12.2892 175.5 13.7111Z" fill="#EFFAFF"/>
<path opacity="0.4" d="M222.219 179.003C222.219 180.425 221.102 181.542 219.68 181.542C218.258 181.542 217.141 180.425 217.141 179.003C217.141 177.582 218.258 176.464 219.68 176.464C221.051 176.464 222.219 177.582 222.219 179.003Z" fill="#EFFAFF"/>
<path opacity="0.4" d="M74.8518 182.812C74.8518 184.234 73.7346 185.351 72.3127 185.351C70.8909 185.351 69.7737 184.234 69.7737 182.812C69.7737 181.39 70.8909 180.273 72.3127 180.273C73.7346 180.273 74.8518 181.39 74.8518 182.812Z" fill="#EFFAFF"/>
<path opacity="0.4" d="M10.5122 24.1218L59.2113 81.7076" stroke="#EFFAFF" stroke-width="1.0969" stroke-miterlimit="10"/>
<path opacity="0.4" d="M59.2127 81.7072L3.09961 133.301" stroke="#EFFAFF" stroke-width="1.0969" stroke-miterlimit="10"/>
<path opacity="0.4" d="M3.09961 133.301L72.3143 182.812" stroke="#EFFAFF" stroke-width="1.0969" stroke-miterlimit="10"/>
<path opacity="0.4" d="M72.3127 182.812L169.152 129.593" stroke="#EFFAFF" stroke-width="1.0969" stroke-miterlimit="10"/>
<path opacity="0.4" d="M169.152 129.593L219.679 179.003" stroke="#EFFAFF" stroke-width="1.0969" stroke-miterlimit="10"/>
<path opacity="0.4" d="M219.68 179.004L234.762 70.0275" stroke="#EFFAFF" stroke-width="1.0969" stroke-miterlimit="10"/>
<path opacity="0.4" d="M219.68 179.003L172.961 13.7109" stroke="#EFFAFF" stroke-width="1.0969" stroke-miterlimit="10"/>
<path opacity="0.4" d="M172.961 13.7109L234.762 70.0272" stroke="#EFFAFF" stroke-width="1.0969" stroke-miterlimit="10"/>
<path opacity="0.4" d="M172.961 13.7109L169.152 129.593" stroke="#EFFAFF" stroke-width="1.0969" stroke-miterlimit="10"/>
<path opacity="0.4" d="M172.96 13.7109L59.2104 81.7068" stroke="#EFFAFF" stroke-width="1.0969" stroke-miterlimit="10"/>
<path opacity="0.4" d="M10.5137 24.1218L3.09961 133.301" stroke="#EFFAFF" stroke-width="1.0969" stroke-miterlimit="10"/>
<path opacity="0.4" d="M10.5122 24.1218L234.762 70.0279" stroke="#EFFAFF" stroke-width="1.0969" stroke-miterlimit="10"/>
<path opacity="0.4" d="M72.3128 182.813L10.5122 24.1218" stroke="#EFFAFF" stroke-width="1.0969" stroke-miterlimit="10"/>
<path opacity="0.4" d="M72.3127 182.812L172.961 13.7109" stroke="#EFFAFF" stroke-width="1.0969" stroke-miterlimit="10"/>
<path opacity="0.4" d="M169.152 129.594L59.2104 81.7072" stroke="#EFFAFF" stroke-width="1.0969" stroke-miterlimit="10"/>
<path opacity="0.4" d="M59.2104 81.7071L234.761 70.0275" stroke="#EFFAFF" stroke-width="1.0969" stroke-miterlimit="10"/>
<path opacity="0.4" d="M3.09961 133.3L169.154 129.593" stroke="#EFFAFF" stroke-width="1.0969" stroke-miterlimit="10"/>
</g>
<path d="M221 25.9492C222.402 25.9492 223.539 24.8124 223.539 23.4101C223.539 22.0079 222.402 20.8711 221 20.8711C219.597 20.8711 218.46 22.0079 218.46 23.4101C218.46 24.8124 219.597 25.9492 221 25.9492Z" fill="#EFFAFF"/>
<path d="M227.753 142.847C227.753 144.269 228.87 145.386 230.292 145.386C231.714 145.386 232.831 144.269 232.831 142.847C232.831 141.425 231.714 140.308 230.292 140.308C228.87 140.308 227.753 141.425 227.753 142.847Z" fill="#EFFAFF"/>
<path d="M171.996 81.3511C171.996 82.7729 173.113 83.8901 174.535 83.8901C175.957 83.8901 177.074 82.7729 177.074 81.3511C177.074 79.9292 175.957 78.812 174.535 78.812C173.164 78.812 171.996 79.9292 171.996 81.3511Z" fill="#EFFAFF"/>
<path d="M44.8931 135.992C44.8931 138.328 46.772 140.207 49.1079 140.207C51.4438 140.207 53.3227 138.328 53.3227 135.992C53.3227 133.656 51.4438 131.777 49.1079 131.777C46.772 131.777 44.8931 133.656 44.8931 135.992Z" fill="#EFFAFF"/>
<path d="M0 83.1288C0 84.5506 1.11718 85.6678 2.53906 85.6678C3.96093 85.6678 5.07811 84.5506 5.07811 83.1288C5.07811 81.7069 3.96093 80.5897 2.53906 80.5897C1.16797 80.5897 0 81.7577 0 83.1288Z" fill="#EFFAFF"/>
<path d="M40.5723 2.53906C40.5723 3.96093 41.6894 5.07811 43.1113 5.07811C44.5332 5.07811 45.6504 3.96093 45.6504 2.53906C45.6504 1.11718 44.5332 0 43.1113 0C41.6894 0 40.5723 1.11718 40.5723 2.53906Z" fill="#EFFAFF"/>
<path d="M15.793 181.695C15.793 183.117 16.9102 184.234 18.332 184.234C19.7539 184.234 20.8711 183.117 20.8711 181.695C20.8711 180.273 19.7539 179.156 18.332 179.156C16.9609 179.156 15.793 180.273 15.793 181.695Z" fill="#EFFAFF"/>
<path d="M152.09 188.144C152.09 189.566 153.207 190.683 154.629 190.683C156.051 190.683 157.168 189.566 157.168 188.144C157.168 186.722 156.051 185.605 154.629 185.605C153.207 185.605 152.09 186.722 152.09 188.144Z" fill="#EFFAFF"/>
<path d="M220.999 23.4098L174.535 81.351" stroke="#EFFAFF" stroke-width="1.2517" stroke-miterlimit="10"/>
<path d="M174.535 81.3514L230.292 142.847" stroke="#EFFAFF" stroke-width="1.2517" stroke-miterlimit="10"/>
<path d="M230.293 142.847L154.629 188.144" stroke="#EFFAFF" stroke-width="1.2517" stroke-miterlimit="10"/>
<path d="M154.629 188.144L49.1055 135.992" stroke="#EFFAFF" stroke-width="1.2517" stroke-miterlimit="10"/>
<path d="M49.1068 135.992L18.3335 181.695" stroke="#EFFAFF" stroke-width="1.2517" stroke-miterlimit="10"/>
<path d="M18.3334 181.695L2.54053 83.1285" stroke="#EFFAFF" stroke-width="1.2517" stroke-miterlimit="10"/>
<path d="M18.3335 181.695L43.1147 2.53894" stroke="#EFFAFF" stroke-width="1.2517" stroke-miterlimit="10"/>
<path d="M43.1146 2.53894L2.54053 83.1285" stroke="#EFFAFF" stroke-width="1.2517" stroke-miterlimit="10"/>
<path d="M43.1113 2.53894L49.1035 135.992" stroke="#EFFAFF" stroke-width="1.2517" stroke-miterlimit="10"/>
<path d="M43.1113 2.53894L174.533 81.3512" stroke="#EFFAFF" stroke-width="1.2517" stroke-miterlimit="10"/>
<path d="M220.999 23.4098L230.292 142.847" stroke="#EFFAFF" stroke-width="1.2517" stroke-miterlimit="10"/>
<path d="M221.001 23.4098L2.54053 83.1284" stroke="#EFFAFF" stroke-width="1.2517" stroke-miterlimit="10"/>
<path d="M154.629 188.144L221 23.4098" stroke="#EFFAFF" stroke-width="1.2517" stroke-miterlimit="10"/>
<path d="M154.627 188.144L43.1113 2.53894" stroke="#EFFAFF" stroke-width="1.2517" stroke-miterlimit="10"/>
<path d="M49.1055 135.992L174.535 81.3514" stroke="#EFFAFF" stroke-width="1.2517" stroke-miterlimit="10"/>
<path d="M174.536 81.3514L2.54053 83.1288" stroke="#EFFAFF" stroke-width="1.2517" stroke-miterlimit="10"/>
<path d="M230.292 142.847L49.1055 135.992" stroke="#EFFAFF" stroke-width="1.2517" stroke-miterlimit="10"/>
<g opacity="0.1">
<path opacity="0.1" d="M130 28.3358C130 25.035 127.309 22.3436 124.008 22.3436C122.942 22.3436 121.977 22.5975 121.113 23.1053V23.0545C121.113 16.453 115.781 11.121 109.18 11.121C103.797 11.121 99.2268 14.6757 97.7541 19.6014C96.7385 19.1444 95.5705 18.9413 94.4026 18.9413C89.5784 18.9413 85.6174 22.8514 85.6174 27.7264C85.6174 28.1326 85.6174 30.8748 85.6174 30.8748C85.6174 34.1248 88.2581 36.7654 91.508 36.7654H124.11C127.36 36.7654 130 34.1248 130 30.8748C130 30.824 130 28.5897 130 28.3358Z" fill="#055E9B"/>
</g>
<path d="M128.222 26.8126C128.222 23.5118 125.53 20.8204 122.23 20.8204C121.163 20.8204 120.198 21.0743 119.335 21.5821V21.5313C119.335 14.9298 114.003 9.59778 107.402 9.59778C102.019 9.59778 97.4485 13.1525 95.9758 18.0782C94.9602 17.6212 93.7922 17.4181 92.6242 17.4181C87.8 17.4181 83.8391 21.3282 83.8391 26.2032C83.8391 26.6095 83.8391 29.3516 83.8391 29.3516C83.8391 32.6016 86.4797 35.2422 89.7297 35.2422H122.331C125.581 35.2422 128.222 32.6016 128.222 29.3516C128.222 29.3516 128.222 27.1173 128.222 26.8126Z" fill="#EFFAFF"/>
<g opacity="0.1">
<path opacity="0.1" d="M105.066 23.6128C105.066 21.6831 103.491 20.1597 101.612 20.1597C101.003 20.1597 100.445 20.312 99.9367 20.6167C99.9367 20.6167 99.9367 20.6167 99.9367 20.5659C99.9367 16.7573 96.8391 13.6597 93.0305 13.6597C89.8821 13.6597 87.2414 15.7417 86.3782 18.5854C85.7688 18.3315 85.1086 18.1792 84.3977 18.1792C81.6047 18.1792 79.3196 20.4643 79.3196 23.2573C79.3196 23.5112 79.3196 25.0854 79.3196 25.0854C79.3196 26.9643 80.843 28.4878 82.7219 28.4878H101.663C103.542 28.4878 105.066 26.9643 105.066 25.0854C105.066 25.0854 105.066 23.7651 105.066 23.6128Z" fill="#5DC5FF"/>
</g>
<path d="M103.288 21.8862C103.288 19.9565 101.714 18.4331 99.8349 18.4331C99.2255 18.4331 98.6669 18.5854 98.1591 18.8901C98.1591 18.8901 98.1591 18.8901 98.1591 18.8393C98.1591 15.0308 95.0615 11.9331 91.2529 11.9331C88.1045 11.9331 85.4638 14.0151 84.6006 16.8589C83.9912 16.605 83.331 16.4526 82.6201 16.4526C79.8271 16.4526 77.542 18.7378 77.542 21.5307C77.542 21.7846 77.542 23.3589 77.542 23.3589C77.542 25.2378 79.0654 26.7612 80.9443 26.7612H99.8349C101.714 26.7612 103.237 25.2378 103.237 23.3589C103.288 23.3589 103.288 22.0385 103.288 21.8862Z" fill="#5DC5FF"/>
<g opacity="0.1">
<path opacity="0.1" d="M59.7206 43.113H44.6894C43.7246 43.113 42.9121 43.9255 42.9121 44.8904V69.7223C42.9121 70.6872 43.7246 71.4997 44.6894 71.4997H63.4277C64.3925 71.4997 65.205 70.6872 65.205 69.7223V48.6482L59.7206 43.113Z" fill="black"/>
<path opacity="0.1" d="M59.7183 46.8708C59.7183 47.8357 60.5308 48.6482 61.4956 48.6482H65.2534L59.7183 43.113V46.8708Z" fill="black"/>
<path opacity="0.1" d="M61.5981 58.1954H54.6919V65.8126H61.5981V58.1954Z" fill="black"/>
<path opacity="0.1" d="M56.1128 49.2073H47.3784V50.8323H56.1128V49.2073Z" fill="black"/>
<path opacity="0.1" d="M61.5971 52.2029H47.3784V53.8279H61.5971V52.2029Z" fill="black"/>
<path opacity="0.1" d="M61.5971 55.1987H47.3784V56.8237H61.5971V55.1987Z" fill="black"/>
<path opacity="0.1" d="M53.269 58.1954H47.3784V59.8204H53.269V58.1954Z" fill="black"/>
<path opacity="0.1" d="M53.269 61.1403H47.3784V62.7653H53.269V61.1403Z" fill="black"/>
<path opacity="0.1" d="M53.269 64.1368H47.3784V65.7618H53.269V64.1368Z" fill="black"/>
</g>
<path d="M57.1787 40.5741H42.1982C41.2334 40.5741 40.4209 41.3866 40.4209 42.3514V67.1834C40.4209 68.1482 41.2334 68.9607 42.1982 68.9607H60.9365C61.9013 68.9607 62.7138 68.1482 62.7138 67.1834V46.1092L57.1787 40.5741Z" fill="#5EAEF7"/>
<path d="M57.178 44.3319C57.178 45.2967 57.9905 46.1092 58.9553 46.1092H62.7131L57.178 40.5741V44.3319Z" fill="#268FEF"/>
<path d="M59.0581 55.6559H52.1519V63.273H59.0581V55.6559Z" fill="#075EDB"/>
<path d="M53.5727 46.6676H44.8384V48.2926H53.5727V46.6676Z" fill="#075EDB"/>
<path d="M59.0571 49.6639H44.8384V51.2889H59.0571V49.6639Z" fill="#075EDB"/>
<path d="M59.0571 52.6603H44.8384V54.2853H59.0571V52.6603Z" fill="#075EDB"/>
<path d="M50.729 55.6559H44.8384V57.2809H50.729V55.6559Z" fill="#075EDB"/>
<path d="M50.729 58.6017H44.8384V60.2267H50.729V58.6017Z" fill="#075EDB"/>
<path d="M50.729 61.5974H44.8384V63.2224H50.729V61.5974Z" fill="#075EDB"/>
<g opacity="0.1">
<path opacity="0.1" d="M43.5703 27.5232H28.5898C27.625 27.5232 26.8125 28.3357 26.8125 29.3005V54.1325C26.8125 55.0973 27.625 55.9098 28.5898 55.9098H47.3281C48.2929 55.9098 49.1054 55.0973 49.1054 54.1325V33.0583L43.5703 27.5232Z" fill="black"/>
<path opacity="0.1" d="M43.5728 31.281C43.5728 32.2458 44.3853 33.0583 45.3501 33.0583H49.1079L43.5728 27.5232V31.281Z" fill="black"/>
<path opacity="0.1" d="M36.7666 33.9726C34.5322 33.3124 33.8721 33.5156 33.8721 33.5156V35.496V36.3593V40.3202C33.5166 40.1679 33.1103 40.1171 32.6533 40.1171C31.333 40.1171 30.3174 40.7773 30.3174 41.539C30.3174 42.3007 31.3838 42.9608 32.6533 42.9608C33.9736 42.9608 34.9892 42.3007 34.9892 41.539C34.9892 41.3866 34.9385 41.2343 34.8369 41.0819V36.207C35.4971 36.1562 36.4619 36.2577 37.3252 36.9179C38.9502 38.1366 40.3213 36.9179 40.3213 36.9179C38.4424 36.8163 38.5439 34.4804 36.7666 33.9726Z" fill="black"/>
<path opacity="0.1" d="M43.7719 42.4021L37.1196 38.9998V45.8044C36.7642 45.6521 36.3579 45.6013 35.9009 45.6013C34.5806 45.6013 33.5649 46.2615 33.5649 47.0232C33.5649 47.7849 34.6313 48.445 35.9009 48.445C37.2212 48.445 38.2368 47.7849 38.2368 47.0232C38.2368 46.8708 38.186 46.7185 38.0845 46.5661V42.9099L42.8071 45.3474V48.8513C42.4516 48.6989 42.0454 48.6482 41.5884 48.6482C40.268 48.6482 39.2524 49.3083 39.2524 50.07C39.2524 50.8825 40.3188 51.4919 41.5884 51.4919C42.9087 51.4919 43.9243 50.8318 43.9243 50.07C43.9243 49.9177 43.8735 49.7653 43.7719 49.613V42.4021Z" fill="black"/>
</g>
<path d="M41.4365 25.3909H26.4053C25.4404 25.3909 24.6279 26.2034 24.6279 27.1682V52.0002C24.6279 52.965 25.4404 53.7775 26.4053 53.7775H45.1435C46.1083 53.7775 46.9208 52.965 46.9208 52.0002V30.926L41.4365 25.3909Z" fill="white"/>
<path d="M42.8081 40.422H35.9019V48.0392H42.8081V40.422Z" fill="#D3D3DF"/>
<path d="M37.3252 31.4336H28.5908V33.0586H37.3252V31.4336Z" fill="#D3D3DF"/>
<path d="M42.8095 34.4293H28.5908V36.0543H42.8095V34.4293Z" fill="#D3D3DF"/>
<path d="M42.8095 37.4258H28.5908V39.0508H42.8095V37.4258Z" fill="#D3D3DF"/>
<path d="M34.4814 40.422H28.5908V42.047H34.4814V40.422Z" fill="#D3D3DF"/>
<path d="M34.4814 43.3674H28.5908V44.9924H34.4814V43.3674Z" fill="#D3D3DF"/>
<path d="M34.4814 46.3632H28.5908V47.9882H34.4814V46.3632Z" fill="#D3D3DF"/>
<path d="M41.4399 29.1488C41.4399 30.1136 42.2524 30.9261 43.2173 30.9261H46.9751L41.4399 25.391V29.1488Z" fill="#E6E6E6"/>
<g opacity="0.1">
<path opacity="0.1" d="M150.464 67.2846C150.464 65.8628 150.667 64.4917 150.971 63.2222C141.171 61.5464 128.069 60.0737 120.858 60.0737C113.85 60.0737 101.358 61.4448 91.6591 63.0698C92.0146 64.4409 92.2177 65.8628 92.2177 67.3354C92.2177 75.8667 85.5146 82.8237 77.085 83.2299C78.1006 97.2963 81.7568 116.441 86.0224 126.749C93.081 143.863 117.608 158.894 120.858 161.585C124.108 158.945 148.585 143.863 155.694 126.749C159.96 116.39 163.616 97.1947 164.632 83.1283C156.71 82.2143 150.464 75.4604 150.464 67.2846Z" fill="black"/>
<path opacity="0.1" d="M120.91 67.9957C116.187 67.9957 108.164 68.7067 100.14 69.8238C99.226 78.5582 93.5893 85.9215 85.769 89.273C86.5308 95.6206 87.6479 102.273 88.9683 108.316C90.3393 114.46 91.9136 119.945 93.437 123.703C98.1596 135.078 113.343 146.402 120.91 151.785V108.316V67.9957Z" fill="black"/>
<path opacity="0.1" d="M142.695 69.9766C134.367 68.8086 125.835 68.0469 120.96 68.0469V108.316V151.785C128.527 146.402 143.66 135.129 148.382 123.754C149.956 119.996 151.531 114.512 152.851 108.367C154.222 102.223 155.39 95.4179 156.101 88.9179C148.788 85.3632 143.609 78.2539 142.695 69.9766Z" fill="black"/>
</g>
<path d="M148.23 64.9996C148.23 63.5777 148.433 62.2067 148.738 60.9371C138.937 59.2613 125.835 57.7887 118.624 57.7887C111.617 57.7887 99.1244 59.1598 89.4252 60.7848C89.7807 62.1559 89.9838 63.5777 89.9838 65.0504C89.9838 73.5816 83.2807 80.5386 74.8511 80.9449C75.8667 95.0112 79.5229 114.156 83.7886 124.464C90.8471 141.578 115.374 156.609 118.624 159.3C121.874 156.66 146.351 141.578 153.46 124.464C157.726 114.105 161.382 94.9097 162.398 80.8433C154.425 79.98 148.23 73.2262 148.23 64.9996Z" fill="#5030BD"/>
<path d="M118.625 65.7618C113.903 65.7618 105.879 66.4728 97.8559 67.59C96.9419 76.3243 91.3052 83.6876 83.4849 87.0391C84.2466 93.3868 85.3638 100.039 86.6841 106.082C88.0552 112.227 89.6294 117.711 91.1528 121.469C95.8755 132.844 111.059 144.168 118.625 149.551V106.082V65.7618Z" fill="#7450F0"/>
<path d="M140.409 67.6915C132.081 66.5236 123.55 65.7618 118.675 65.7618V106.031V149.449C126.241 144.066 141.374 132.793 146.097 121.418C147.671 117.66 149.245 112.176 150.566 106.031C151.937 99.8867 153.105 93.0821 153.816 86.5821C146.503 83.0782 141.323 76.0196 140.409 67.6915Z" fill="#7450F0"/>
<g opacity="0.1">
<path opacity="0.1" d="M57.8891 151.886C57.8891 153.004 56.975 153.918 55.8578 153.918H25.2368C24.1196 153.918 23.2056 153.004 23.2056 151.886V109.535C23.2056 108.418 24.1196 107.504 25.2368 107.504H55.807C56.9242 107.504 57.8383 108.418 57.8383 109.535V151.886H57.8891Z" fill="black"/>
<path opacity="0.1" d="M54.3339 146.3C54.3339 147.417 53.4198 148.331 52.3027 148.331H28.791C27.6738 148.331 26.7598 147.417 26.7598 146.3V113.8C26.7598 112.683 27.6738 111.769 28.791 111.769H52.3027C53.4198 111.769 54.3339 112.683 54.3339 113.8V146.3Z" fill="black"/>
<path opacity="0.1" d="M41.3848 109.891C41.3848 110.348 41.0293 110.754 40.5215 110.754C40.0645 110.754 39.6582 110.398 39.6582 109.891C39.6582 109.433 40.0137 109.027 40.5215 109.027C40.9785 109.027 41.3848 109.383 41.3848 109.891Z" fill="black"/>
<path opacity="0.1" d="M42.4043 151.175C42.4043 152.191 41.541 153.054 40.5254 153.054C39.5098 153.054 38.6465 152.191 38.6465 151.175C38.6465 150.16 39.5098 149.296 40.5254 149.296C41.5918 149.296 42.4043 150.16 42.4043 151.175Z" fill="black"/>
<path opacity="0.1" d="M46.9199 129.644H34.1738C33.1582 129.644 32.3457 130.457 32.3457 131.472V132.031V142.187C32.3457 143.203 33.1582 144.015 34.1738 144.015H46.9199C47.9355 144.015 48.748 143.203 48.748 142.187V132.031V131.472C48.748 130.457 47.9355 129.644 46.9199 129.644Z" fill="black"/>
<path opacity="0.1" d="M46.0571 129.644H44.4829V124.312C44.4829 122.535 43.061 121.113 41.2837 121.113H39.7602C37.9829 121.113 36.561 122.535 36.561 124.312V129.644H34.9868V124.312C34.9868 121.671 37.1196 119.539 39.7602 119.539H41.2837C43.9243 119.539 46.0571 121.671 46.0571 124.871V129.644Z" fill="black"/>
<path opacity="0.1" d="M43.5682 139.699L41.5878 136.296C42.2987 135.89 42.8065 135.128 42.8065 134.265C42.8065 132.995 41.7909 131.98 40.5214 131.98C39.2518 131.98 38.2362 132.995 38.2362 134.265C38.2362 135.128 38.744 135.89 39.455 136.296L37.4745 139.699C37.2714 140.054 37.4237 140.359 37.8808 140.359H43.162C43.619 140.359 43.8221 140.054 43.5682 139.699Z" fill="black"/>
</g>
<path d="M55.349 149.347C55.349 150.464 54.435 151.378 53.3178 151.378H22.6968C21.5796 151.378 20.6655 150.464 20.6655 149.347V106.996C20.6655 105.878 21.5796 104.964 22.6968 104.964H53.267C54.3842 104.964 55.2982 105.878 55.2982 106.996V149.347H55.349Z" fill="#268FEF"/>
<path d="M51.7968 143.761C51.7968 144.879 50.8827 145.793 49.7655 145.793H26.2539C25.1367 145.793 24.2227 144.879 24.2227 143.761V111.261C24.2227 110.144 25.1367 109.23 26.2539 109.23H49.7655C50.8827 109.23 51.7968 110.144 51.7968 111.261V143.761Z" fill="#075EDB"/>
<path d="M38.8457 107.351C38.8457 107.808 38.4902 108.214 37.9824 108.214C37.5254 108.214 37.1191 107.859 37.1191 107.351C37.1191 106.894 37.4746 106.488 37.9824 106.488C38.4394 106.488 38.8457 106.843 38.8457 107.351Z" fill="#5EAEF7"/>
<path d="M39.8638 148.636C39.8638 149.652 39.0005 150.515 37.9849 150.515C36.9692 150.515 36.106 149.652 36.106 148.636C36.106 147.62 36.9692 146.757 37.9849 146.757C39.0513 146.757 39.8638 147.62 39.8638 148.636Z" fill="#5EAEF7"/>
<path d="M44.3847 127.105H31.6387C30.623 127.105 29.8105 127.917 29.8105 128.933V129.492V139.648C29.8105 140.664 30.623 141.476 31.6387 141.476H44.3847C45.4003 141.476 46.2128 140.664 46.2128 139.648V129.492V128.933C46.2128 127.917 45.4003 127.105 44.3847 127.105Z" fill="#EFCB12"/>
<path d="M43.5205 127.105H41.9463V121.773C41.9463 119.996 40.5244 118.574 38.7471 118.574H37.2236C35.4463 118.574 34.0244 119.996 34.0244 121.773V127.105H32.4502V121.773C32.4502 119.133 34.583 117 37.2236 117H38.7471C41.3877 117 43.5205 119.133 43.5205 122.332V127.105Z" fill="#EFCB12"/>
<path d="M41.0336 137.16L39.0531 133.757C39.764 133.351 40.2719 132.589 40.2719 131.726C40.2719 130.457 39.2562 129.441 37.9867 129.441C36.7172 129.441 35.7016 130.457 35.7016 131.726C35.7016 132.589 36.2094 133.351 36.9203 133.757L34.9398 137.16C34.7367 137.515 34.8891 137.82 35.3461 137.82H40.6273C41.0844 137.82 41.2875 137.515 41.0336 137.16Z" fill="#075EDB"/>
<g opacity="0.1">
<path opacity="0.1" d="M213.231 58.7527V37.577C213.231 36.7137 212.774 36.0028 212.063 35.5966L199.368 48.3934L211.86 60.8855C212.672 60.5301 213.231 59.7176 213.231 58.7527Z" fill="black"/>
<path opacity="0.1" d="M173.976 35.5966C173.316 36.0028 172.808 36.7137 172.808 37.577V58.7527C172.808 59.7176 173.418 60.5301 174.23 60.8348L186.722 48.3426L173.976 35.5966Z" fill="black"/>
<path opacity="0.1" d="M210.996 60.9879C211.301 60.9879 211.555 60.9371 211.808 60.8355L199.367 48.3942L194.644 53.1168C193.781 53.9801 192.309 53.9801 191.445 53.1168L186.723 48.3942L174.23 60.8863C174.484 60.9879 174.789 61.0387 175.043 61.0387H210.996V60.9879Z" fill="black"/>
<path opacity="0.1" d="M194.644 53.1166L212.112 35.6479C211.757 35.4448 211.401 35.3433 210.995 35.3433H175.093C174.687 35.3433 174.331 35.4448 173.976 35.6479L191.445 53.1166C192.308 53.9799 193.73 53.9799 194.644 53.1166Z" fill="black"/>
<path opacity="0.1" d="M195.914 49.1558C194.949 49.6637 193.934 49.8668 192.715 49.8668C189.77 49.8668 187.281 47.734 187.281 44.2809C187.281 40.5738 189.82 37.3746 193.832 37.3746C196.93 37.3746 199.062 39.5582 199.062 42.5543C199.062 45.2457 197.539 46.8199 195.863 46.8199C195.152 46.8199 194.492 46.3121 194.543 45.2457H194.492C193.883 46.3121 193.02 46.8199 191.953 46.8199C190.937 46.8199 190.023 45.9566 190.023 44.5855C190.023 42.3512 191.801 40.3199 194.289 40.3199C195.051 40.3199 195.762 40.4723 196.219 40.6754L195.609 43.9254C195.355 45.2965 195.559 45.9059 196.168 45.9566C197.082 45.9566 198.098 44.7379 198.098 42.6559C198.098 40.066 196.523 38.1871 193.781 38.1871C190.836 38.1871 188.398 40.5231 188.398 44.1285C188.398 47.1246 190.328 48.9527 193.02 48.9527C194.035 48.9527 195 48.7496 195.711 48.3433L195.914 49.1558ZM194.949 41.4371C194.746 41.3863 194.441 41.3356 194.035 41.3356C192.461 41.3356 191.191 42.8082 191.191 44.5855C191.191 45.398 191.598 45.9566 192.359 45.9566C193.375 45.9566 194.34 44.6363 194.543 43.5191L194.949 41.4371Z" fill="black"/>
</g>
<path d="M210.692 56.2148V35.0391C210.692 34.1758 210.235 33.4648 209.524 33.0586L196.828 45.8554L209.321 58.3476C210.133 57.9921 210.692 57.1796 210.692 56.2148Z" fill="#268FEF"/>
<path d="M171.438 33.0586C170.778 33.4648 170.27 34.1758 170.27 35.0391V56.2148C170.27 57.1796 170.879 57.9921 171.692 58.2968L184.184 45.8046L171.438 33.0586Z" fill="#268FEF"/>
<path d="M208.457 58.4492C208.762 58.4492 209.016 58.3984 209.27 58.2968L196.828 45.8555L192.106 50.5781C191.242 51.4414 189.77 51.4414 188.906 50.5781L184.184 45.8555L171.692 58.3476C171.946 58.4492 172.25 58.5 172.504 58.5H208.457V58.4492Z" fill="#075EDB"/>
<path d="M192.105 50.5777L209.574 33.109C209.218 32.9059 208.863 32.8043 208.457 32.8043H172.554C172.148 32.8043 171.793 32.9059 171.437 33.109L188.906 50.5777C189.769 51.441 191.191 51.441 192.105 50.5777Z" fill="#5EAEF7"/>
<path d="M193.376 46.6172C192.411 47.125 191.395 47.3281 190.176 47.3281C187.231 47.3281 184.743 45.1953 184.743 41.7422C184.743 38.0351 187.282 34.8359 191.294 34.8359C194.391 34.8359 196.524 37.0195 196.524 40.0156C196.524 42.707 195.001 44.2812 193.325 44.2812C192.614 44.2812 191.954 43.7734 192.005 42.707H191.954C191.344 43.7734 190.481 44.2812 189.415 44.2812C188.399 44.2812 187.485 43.4179 187.485 42.0469C187.485 39.8125 189.262 37.7812 191.751 37.7812C192.512 37.7812 193.223 37.9336 193.68 38.1367L193.071 41.3867C192.817 42.7578 193.02 43.3672 193.63 43.4179C194.544 43.4179 195.559 42.1992 195.559 40.1172C195.559 37.5273 193.985 35.6484 191.243 35.6484C188.298 35.6484 185.86 37.9844 185.86 41.5898C185.86 44.5859 187.79 46.414 190.481 46.414C191.497 46.414 192.462 46.2109 193.173 45.8047L193.376 46.6172ZM192.411 38.8984C192.208 38.8476 191.903 38.7969 191.497 38.7969C189.923 38.7969 188.653 40.2695 188.653 42.0469C188.653 42.8594 189.059 43.4179 189.821 43.4179C190.837 43.4179 191.801 42.0976 192.005 40.9805L192.411 38.8984Z" fill="white"/>
<g opacity="0.1">
<path opacity="0.1" d="M68.9609 169.05C68.9609 170.167 68.0468 171.081 66.9296 171.081H50.9336C49.8164 171.081 48.9023 170.167 48.9023 169.05V141.375C48.9023 140.257 49.8164 139.343 50.9336 139.343H66.9296C68.0468 139.343 68.9609 140.257 68.9609 141.375V169.05Z" fill="black"/>
<path opacity="0.1" d="M61.3435 168.746C61.3435 169.355 60.8357 169.863 60.2263 169.863H57.5857C56.9763 169.863 56.4685 169.355 56.4685 168.746C56.4685 168.136 56.9763 167.629 57.5857 167.629H60.2263C60.8865 167.629 61.3435 168.136 61.3435 168.746Z" fill="black"/>
<path opacity="0.1" d="M61.3435 141.172C61.3435 141.527 61.0896 141.781 60.7341 141.781H57.0779C56.7224 141.781 56.4685 141.527 56.4685 141.172C56.4685 140.816 56.7224 140.562 57.0779 140.562H60.7341C61.0896 140.562 61.3435 140.816 61.3435 141.172Z" fill="black"/>
<path opacity="0.1" d="M66.4743 164.379C66.4743 165.496 65.5603 166.41 64.4431 166.41H53.4236C52.3064 166.41 51.3923 165.496 51.3923 164.379V144.828C51.3923 143.711 52.3064 142.797 53.4236 142.797H64.3923C65.5095 142.797 66.4235 143.711 66.4235 144.828V164.379H66.4743Z" fill="black"/>
<path opacity="0.1" d="M63.8843 158.589C63.8843 161.332 61.6499 163.515 58.9585 163.515C56.2163 163.515 54.0327 161.281 54.0327 158.589V155.847C54.0327 153.105 56.2671 150.921 58.9585 150.921C61.7007 150.921 63.8843 153.156 63.8843 155.847V158.589Z" fill="black"/>
<path opacity="0.1" d="M59.8195 160.519C59.0577 161.23 57.6866 160.367 57.2804 158.437C56.8742 156.761 57.7882 154.882 58.3976 154.324C58.8546 153.867 60.0226 154.121 60.4288 155.593C60.7335 156.66 60.2257 158.589 59.8195 158.996C59.2101 159.656 58.4484 158.488 58.296 157.574C58.1945 156.863 58.5499 155.898 58.8038 155.644C59.007 155.441 59.6671 156.101 59.4132 157.167" stroke="black" stroke-miterlimit="10" stroke-linecap="round"/>
<path opacity="0.1" d="M57.6863 153.156C57.2292 153.511 56.2136 154.679 56.1121 156.254" stroke="black" stroke-miterlimit="10" stroke-linecap="round"/>
<path opacity="0.1" d="M60.6831 159.554C62.0034 158.082 62.105 154.781 60.3784 153.156" stroke="black" stroke-miterlimit="10" stroke-linecap="round"/>
<path opacity="0.1" d="M56.2141 158.132C56.2141 158.691 56.5696 160.367 57.2297 161.128" stroke="black" stroke-miterlimit="10" stroke-linecap="round"/>
</g>
<path d="M66.4233 166.511C66.4233 167.628 65.5092 168.542 64.392 168.542H48.396C47.2788 168.542 46.3647 167.628 46.3647 166.511V138.835C46.3647 137.718 47.2788 136.804 48.396 136.804H64.392C65.5092 136.804 66.4233 137.718 66.4233 138.835V166.511Z" fill="#8E6EE5"/>
<path d="M58.8059 166.206C58.8059 166.816 58.2981 167.324 57.6887 167.324H55.0481C54.4387 167.324 53.9309 166.816 53.9309 166.206C53.9309 165.597 54.4387 165.089 55.0481 165.089H57.6887C58.3489 165.089 58.8059 165.597 58.8059 166.206Z" fill="#AC94F7"/>
<path d="M58.8059 138.633C58.8059 138.988 58.552 139.242 58.1965 139.242H54.5403C54.1848 139.242 53.9309 138.988 53.9309 138.633C53.9309 138.277 54.1848 138.023 54.5403 138.023H58.1965C58.552 138.023 58.8059 138.277 58.8059 138.633Z" fill="#AC94F7"/>
<path d="M63.9345 161.839C63.9345 162.957 63.0205 163.871 61.9033 163.871H50.8838C49.7666 163.871 48.8525 162.957 48.8525 161.839V142.289C48.8525 141.172 49.7666 140.257 50.8838 140.257H61.8525C62.9697 140.257 63.8837 141.172 63.8837 142.289V161.839H63.9345Z" fill="#7647DD"/>
<path d="M61.3437 156.05C61.3437 158.792 59.1094 160.976 56.418 160.976C53.6758 160.976 51.4922 158.742 51.4922 156.05V153.308C51.4922 150.566 53.7266 148.382 56.418 148.382C59.1601 148.382 61.3437 150.617 61.3437 153.308V156.05Z" fill="#EFCB12"/>
<path d="M57.2804 157.98C56.5187 158.691 55.1476 157.828 54.7413 155.898C54.3351 154.222 55.2492 152.343 55.8585 151.785C56.3156 151.328 57.4835 151.582 57.8898 153.054C58.1945 154.121 57.6866 156.05 57.2804 156.457C56.671 157.117 55.9093 155.949 55.757 155.035C55.6554 154.324 56.0109 153.359 56.2648 153.105C56.4679 152.902 57.1281 153.562 56.8741 154.628" stroke="#4650E0" stroke-miterlimit="10" stroke-linecap="round"/>
<path d="M55.1472 150.617C54.6902 150.972 53.6746 152.14 53.573 153.714" stroke="#4650E0" stroke-miterlimit="10" stroke-linecap="round"/>
<path d="M58.1436 157.015C59.4639 155.543 59.5654 152.242 57.8389 150.617" stroke="#4650E0" stroke-miterlimit="10" stroke-linecap="round"/>
<path d="M53.6763 155.593C53.6763 156.152 54.0317 157.828 54.6919 158.589" stroke="#4650E0" stroke-miterlimit="10" stroke-linecap="round"/>
<g opacity="0.1">
<path opacity="0.1" d="M228.668 183.371C228.668 184.64 227.652 185.656 226.383 185.656H173.824C172.555 185.656 171.539 184.64 171.539 183.371V149.5C171.539 148.23 172.555 147.215 173.824 147.215H226.332C227.602 147.215 228.617 148.23 228.617 149.5V183.371H228.668Z" fill="black"/>
<path opacity="0.1" d="M176.566 181.949C175.805 181.949 175.195 181.339 175.195 180.577V152.242C175.195 151.48 175.805 150.87 176.566 150.87H223.59C224.351 150.87 224.961 151.48 224.961 152.242V180.577C224.961 181.339 224.351 181.949 223.59 181.949H176.566Z" fill="black"/>
<path opacity="0.1" d="M233.797 183.726C233.797 184.793 232.781 185.656 231.512 185.656H168.695C167.426 185.656 166.41 184.793 166.41 183.726V180.882C166.41 179.816 167.426 178.953 168.695 178.953H231.461C232.73 178.953 233.746 179.816 233.746 180.882V183.726H233.797Z" fill="black"/>
<path opacity="0.1" d="M205.156 181.898C205.156 182.761 204.242 183.472 203.124 183.472H197.031C195.914 183.472 195 182.761 195 181.898C195 181.035 195.914 180.324 197.031 180.324H203.124C204.242 180.375 205.156 181.035 205.156 181.898Z" fill="black"/>
<path opacity="0.1" d="M201.195 148.992C201.195 149.601 200.687 150.16 200.027 150.16C199.418 150.16 198.859 149.652 198.859 148.992C198.859 148.382 199.367 147.824 200.027 147.824C200.687 147.875 201.195 148.382 201.195 148.992Z" fill="black"/>
<path opacity="0.1" d="M205.918 159.199C205.918 162.449 203.277 165.038 200.078 165.038C196.828 165.038 194.238 162.449 194.238 159.199C194.238 155.949 196.828 153.359 200.078 153.359C203.277 153.359 205.918 155.949 205.918 159.199Z" fill="black"/>
<path opacity="0.1" d="M202.973 160.722C202.973 159.757 202.211 158.996 201.246 158.996H200.789C201.5 158.742 202.008 158.031 202.008 157.218C202.008 156.152 201.145 155.339 200.129 155.339C199.062 155.339 198.25 156.203 198.25 157.218C198.25 158.031 198.758 158.691 199.469 158.996H199.012C198.047 158.996 197.285 159.757 197.285 160.722L196.879 163.109H203.48L202.973 160.722Z" fill="black"/>
<path opacity="0.1" d="M213.84 171.691C213.84 173.418 212.469 174.789 210.742 174.789H189.617C187.891 174.789 186.52 173.418 186.52 171.691C186.52 169.965 187.891 168.594 189.617 168.594H210.742C212.469 168.594 213.84 169.965 213.84 171.691Z" fill="black"/>
<path opacity="0.1" d="M192.258 170.625L191.852 170.066L190.481 171.031V169.355H189.77V171.031L188.399 170.066L187.992 170.625L189.516 171.691L187.992 172.757L188.399 173.316L189.77 172.351V174.027H190.481V172.351L191.852 173.316L192.258 172.757L190.735 171.691L192.258 170.625Z" fill="black"/>
<path opacity="0.1" d="M197.234 170.625L196.828 170.066L195.457 171.031V169.355H194.797V171.031L193.426 170.066L193.019 170.625L194.543 171.691L193.019 172.757L193.426 173.316L194.797 172.351V174.027H195.457V172.351L196.828 173.316L197.234 172.757L195.711 171.691L197.234 170.625Z" fill="black"/>
<path opacity="0.1" d="M202.211 170.625L201.804 170.066L200.484 171.031V169.355H199.773V171.031L198.402 170.066L197.996 170.625L199.519 171.691L197.996 172.757L198.402 173.316L199.773 172.351V174.027H200.484V172.351L201.804 173.316L202.211 172.757L200.738 171.691L202.211 170.625Z" fill="black"/>
<path opacity="0.1" d="M207.238 170.625L206.832 170.066L205.461 171.031V169.355H204.75V171.031L203.379 170.066L202.972 170.625L204.496 171.691L202.972 172.757L203.379 173.316L204.75 172.351V174.027H205.461V172.351L206.832 173.316L207.238 172.757L205.715 171.691L207.238 170.625Z" fill="black"/>
<path opacity="0.1" d="M212.215 170.625L211.808 170.066L210.437 171.031V169.355H209.726V171.031L208.406 170.066L208 170.625L209.523 171.691L208 172.757L208.406 173.316L209.726 172.351V174.027H210.437V172.351L211.808 173.316L212.215 172.757L210.691 171.691L212.215 170.625Z" fill="black"/>
</g>
<path d="M226.129 180.832C226.129 182.101 225.114 183.117 223.844 183.117H171.286C170.016 183.117 169 182.101 169 180.832V146.961C169 145.691 170.016 144.676 171.286 144.676H223.793C225.063 144.676 226.078 145.691 226.078 146.961V180.832H226.129Z" fill="#268FEF"/>
<path d="M174.027 179.41C173.266 179.41 172.656 178.8 172.656 178.039V149.703C172.656 148.941 173.266 148.332 174.027 148.332H221.051C221.812 148.332 222.422 148.941 222.422 149.703V178.039C222.422 178.8 221.812 179.41 221.051 179.41H174.027Z" fill="#075EDB"/>
<path d="M231.257 181.187C231.257 182.253 230.241 183.117 228.972 183.117H166.156C164.886 183.117 163.87 182.253 163.87 181.187V178.343C163.87 177.277 164.886 176.413 166.156 176.413H228.921C230.19 176.413 231.206 177.277 231.206 178.343V181.187H231.257Z" fill="#5EAEF7"/>
<path d="M202.615 179.359C202.615 180.222 201.701 180.933 200.584 180.933H194.49C193.373 180.933 192.459 180.222 192.459 179.359C192.459 178.496 193.373 177.785 194.49 177.785H200.584C201.701 177.836 202.615 178.496 202.615 179.359Z" fill="#268FEF"/>
<path d="M198.655 146.453C198.655 147.063 198.147 147.621 197.487 147.621C196.878 147.621 196.319 147.113 196.319 146.453C196.319 145.844 196.827 145.285 197.487 145.285C198.147 145.336 198.655 145.844 198.655 146.453Z" fill="#075EDB"/>
<path d="M203.379 156.66C203.379 159.91 200.738 162.5 197.539 162.5C194.289 162.5 191.699 159.91 191.699 156.66C191.699 153.41 194.289 150.82 197.539 150.82C200.738 150.82 203.379 153.41 203.379 156.66Z" fill="#268FEF"/>
<path d="M200.433 158.183C200.433 157.218 199.671 156.457 198.707 156.457H198.25C198.96 156.203 199.468 155.492 199.468 154.679C199.468 153.613 198.605 152.8 197.589 152.8C196.523 152.8 195.71 153.664 195.71 154.679C195.71 155.492 196.218 156.152 196.929 156.457H196.472C195.507 156.457 194.746 157.218 194.746 158.183L194.339 160.57H200.941L200.433 158.183Z" fill="white"/>
<g opacity="0.1">
<path opacity="0.1" d="M117.558 187.941L117.609 192.867C117.609 194.593 122.128 195.964 127.714 195.863C133.3 195.812 137.769 194.339 137.769 192.663L137.718 187.738" fill="black"/>
<path opacity="0.1" d="M118.269 186.773C117.812 187.128 117.558 187.534 117.558 187.941C117.558 189.667 122.078 191.038 127.664 190.937C133.249 190.886 137.718 189.413 137.718 187.738C137.718 187.331 137.464 186.976 137.058 186.671" fill="black"/>
<path opacity="0.1" d="M117.508 180.578L117.559 185.503C117.559 187.23 122.078 188.601 127.664 188.499C133.25 188.449 137.719 186.976 137.719 185.3L137.668 180.374" fill="black"/>
<path opacity="0.1" d="M118.219 179.409C117.762 179.765 117.508 180.171 117.508 180.577C117.508 182.304 122.028 183.675 127.614 183.573C133.199 183.523 137.668 182.05 137.668 180.374C137.668 179.968 137.414 179.613 137.008 179.308" fill="black"/>
<path opacity="0.1" d="M117.406 173.366L117.457 178.292C117.457 180.019 121.976 181.39 127.562 181.288C133.148 181.238 137.617 179.765 137.617 178.089L137.566 173.163" fill="black"/>
<path opacity="0.1" d="M137.566 173.113C137.566 174.839 133.097 176.261 127.511 176.312C121.926 176.363 117.406 175.042 117.406 173.316C117.406 171.589 121.875 170.167 127.461 170.116C133.047 170.066 137.566 171.437 137.566 173.113Z" fill="black"/>
<path opacity="0.1" d="M101.512 195.456L101.563 201.55C101.563 203.683 107.199 205.359 114.055 205.308C120.961 205.257 126.496 203.429 126.496 201.296L126.445 195.202" fill="black"/>
<path opacity="0.1" d="M102.426 194.034C101.867 194.491 101.512 194.948 101.512 195.456C101.512 197.589 107.149 199.265 114.004 199.214C120.91 199.163 126.445 197.335 126.445 195.202C126.445 194.745 126.141 194.288 125.633 193.831" fill="black"/>
<path opacity="0.1" d="M101.461 186.316L101.512 192.41C101.512 194.542 107.149 196.218 114.004 196.167C120.91 196.117 126.445 194.288 126.445 192.156L126.395 186.062" fill="black"/>
<path opacity="0.1" d="M102.324 184.894C101.766 185.351 101.41 185.808 101.41 186.316C101.41 188.449 107.047 190.124 113.903 190.074C120.809 190.023 126.344 188.195 126.344 186.062C126.344 185.605 126.039 185.148 125.531 184.691" fill="black"/>
<path opacity="0.1" d="M101.359 177.378L101.41 183.472C101.41 185.605 107.046 187.281 113.902 187.23C120.808 187.179 126.343 185.351 126.343 183.218L126.292 177.124" fill="black"/>
<path opacity="0.1" d="M126.292 177.124C126.292 179.257 120.757 181.034 113.851 181.136C106.945 181.187 101.359 179.511 101.359 177.378C101.359 175.245 106.894 173.468 113.8 173.366C120.656 173.316 126.292 174.991 126.292 177.124Z" fill="black"/>
<path opacity="0.1" d="M135.28 191.952C135.28 196.319 131.726 199.925 127.308 199.925C122.941 199.925 119.335 196.37 119.335 191.952C119.335 187.585 122.89 183.98 127.308 183.98C131.726 184.03 135.28 187.585 135.28 191.952Z" fill="black"/>
<path opacity="0.1" d="M130.762 190.327H124.262C123.754 190.327 123.348 190.734 123.348 191.241V191.546V196.726C123.348 197.234 123.754 197.64 124.262 197.64H130.762C131.27 197.64 131.676 197.234 131.676 196.726V191.546V191.241C131.676 190.734 131.27 190.327 130.762 190.327Z" fill="black"/>
<path opacity="0.1" d="M130.304 190.327H129.492V187.636C129.492 186.722 128.781 186.011 127.867 186.011H127.105C126.191 186.011 125.48 186.722 125.48 187.636V190.327H124.668V187.636C124.668 186.316 125.734 185.198 127.105 185.198H127.867C129.187 185.198 130.304 186.265 130.304 187.89V190.327Z" fill="black"/>
<path opacity="0.1" d="M129.035 195.456L128.019 193.73C128.375 193.526 128.629 193.12 128.629 192.714C128.629 192.054 128.121 191.546 127.461 191.546C126.801 191.546 126.293 192.054 126.293 192.714C126.293 193.171 126.547 193.577 126.902 193.73L125.887 195.456C125.785 195.659 125.887 195.812 126.09 195.812H128.781C129.086 195.761 129.137 195.609 129.035 195.456Z" fill="black"/>
</g>
<path d="M115.019 185.402L115.07 190.327C115.07 192.054 119.59 193.425 125.176 193.323C130.761 193.273 135.23 191.8 135.23 190.124L135.179 185.198" fill="#8E6EE5"/>
<path d="M115.73 184.234C115.273 184.589 115.019 184.996 115.019 185.402C115.019 187.128 119.539 188.5 125.125 188.398C130.711 188.347 135.179 186.875 135.179 185.199C135.179 184.792 134.925 184.437 134.519 184.132" fill="#7647DD"/>
<path d="M114.968 178.038L115.019 182.964C115.019 184.691 119.539 186.062 125.124 185.96C130.71 185.91 135.179 184.437 135.179 182.761L135.128 177.835" fill="#8E6EE5"/>
<path d="M115.679 176.87C115.222 177.226 114.968 177.632 114.968 178.038C114.968 179.765 119.488 181.136 125.074 181.034C130.66 180.984 135.128 179.511 135.128 177.835C135.128 177.429 134.874 177.073 134.468 176.769" fill="#7647DD"/>
<path d="M114.867 170.828L114.918 175.753C114.918 177.48 119.438 178.851 125.024 178.749C130.61 178.699 135.078 177.226 135.078 175.55L135.028 170.625" fill="#8E6EE5"/>
<path d="M135.028 170.574C135.028 172.3 130.559 173.722 124.973 173.773C119.387 173.824 114.868 172.503 114.868 170.777C114.868 169.05 119.336 167.628 124.922 167.578C130.508 167.527 135.028 168.898 135.028 170.574Z" fill="#7647DD"/>
<path d="M98.9727 192.917L99.0234 199.011C99.0234 201.144 104.66 202.82 111.516 202.769C118.422 202.718 123.957 200.89 123.957 198.757L123.906 192.663" fill="#AC94F7"/>
<path d="M99.8867 191.496C99.3281 191.953 98.9727 192.41 98.9727 192.917C98.9727 195.05 104.609 196.726 111.465 196.675C118.371 196.624 123.906 194.796 123.906 192.664C123.906 192.207 123.601 191.75 123.094 191.292" fill="#8E6EE5"/>
<path d="M98.9219 183.777L98.9727 189.87C98.9727 192.003 104.609 193.679 111.465 193.628C118.371 193.577 123.906 191.749 123.906 189.617L123.855 183.523" fill="#AC94F7"/>
<path d="M99.7844 182.355C99.2258 182.812 98.8704 183.269 98.8704 183.777C98.8704 185.909 104.507 187.585 111.363 187.534C118.269 187.484 123.804 185.656 123.804 183.523C123.804 183.066 123.499 182.609 122.991 182.152" fill="#8E6EE5"/>
<path d="M98.8206 174.839L98.8713 180.933C98.8713 183.066 104.508 184.742 111.363 184.691C118.27 184.64 123.805 182.812 123.805 180.679L123.754 174.585" fill="#AC94F7"/>
<path d="M123.754 174.585C123.754 176.718 118.219 178.495 111.313 178.597C104.407 178.648 98.8208 176.972 98.8208 174.839C98.8208 172.706 104.356 170.929 111.262 170.828C118.118 170.777 123.754 172.453 123.754 174.585Z" fill="#8E6EE5"/>
<path d="M132.743 189.414C132.743 193.781 129.188 197.386 124.77 197.386C120.403 197.386 116.797 193.832 116.797 189.414C116.797 185.047 120.352 181.441 124.77 181.441C129.188 181.492 132.743 185.047 132.743 189.414Z" fill="#7647DD"/>
<path d="M128.222 187.788H121.722C121.214 187.788 120.808 188.195 120.808 188.702V189.007V194.187C120.808 194.695 121.214 195.101 121.722 195.101H128.222C128.729 195.101 129.136 194.695 129.136 194.187V189.007V188.702C129.136 188.195 128.729 187.788 128.222 187.788Z" fill="#EFCB12"/>
<path d="M127.764 187.788H126.952V185.097C126.952 184.183 126.241 183.472 125.327 183.472H124.565C123.651 183.472 122.94 184.183 122.94 185.097V187.788H122.127V185.097C122.127 183.777 123.194 182.66 124.565 182.66H125.327C126.647 182.66 127.764 183.726 127.764 185.351V187.788Z" fill="#EFCB12"/>
<path d="M126.496 192.918L125.481 191.191C125.836 190.988 126.09 190.582 126.09 190.175C126.09 189.515 125.582 189.007 124.922 189.007C124.262 189.007 123.754 189.515 123.754 190.175C123.754 190.632 124.008 191.039 124.364 191.191L123.348 192.918C123.246 193.121 123.348 193.273 123.551 193.273H126.242C126.547 193.222 126.598 193.07 126.496 192.918Z" fill="#7647DD"/>
<path d="M109.434 101.969L118.574 113.851L134.672 93.0311" stroke="white" stroke-width="9.6768" stroke-miterlimit="10" stroke-linecap="round" stroke-linejoin="round"/>
<rect x="186.976" y="164.683" width="21.3281" height="2.53906" fill="white"/>
<rect x="186.976" y="169.761" width="21.3281" height="2.53906" fill="white"/>
</svg>
