<svg width="102" height="24" viewBox="0 0 102 24" fill="none" xmlns="http://www.w3.org/2000/svg">
<circle cx="55" cy="12" r="11.5" stroke="#BCC2CF"/>
<path d="M53.8076 10.8955C54.8604 10.8955 55.6875 11.1576 56.2891 11.6816C56.8952 12.2012 57.1982 12.9144 57.1982 13.8213C57.1982 14.8558 56.8678 15.667 56.207 16.2549C55.5508 16.8428 54.6439 17.1367 53.4863 17.1367C52.3607 17.1367 51.5016 16.9567 50.9092 16.5967V15.5029C51.2282 15.708 51.6247 15.8698 52.0986 15.9883C52.5726 16.1022 53.0397 16.1592 53.5 16.1592C54.3021 16.1592 54.9242 15.9701 55.3662 15.5918C55.8128 15.2135 56.0361 14.6667 56.0361 13.9512C56.0361 12.5566 55.1816 11.8594 53.4727 11.8594C53.0397 11.8594 52.4609 11.9255 51.7363 12.0576L51.1484 11.6816L51.5244 7.00586H56.4941V8.05176H52.4951L52.2422 11.0527C52.7663 10.9479 53.2881 10.8955 53.8076 10.8955Z" fill="#757B89"/>
<path d="M73.1738 17H72.1777V8.43359H76.9531V9.31836H73.1738V12.4531H76.7246V13.3379H73.1738V17ZM83.7734 13.7832C83.7734 14.8301 83.5098 15.6484 82.9824 16.2383C82.4551 16.8242 81.7266 17.1172 80.7969 17.1172C80.2227 17.1172 79.7129 16.9824 79.2676 16.7129C78.8223 16.4434 78.4785 16.0566 78.2363 15.5527C77.9941 15.0488 77.873 14.459 77.873 13.7832C77.873 12.7363 78.1348 11.9219 78.6582 11.3398C79.1816 10.7539 79.9082 10.4609 80.8379 10.4609C81.7363 10.4609 82.4492 10.7598 82.9766 11.3574C83.5078 11.9551 83.7734 12.7637 83.7734 13.7832ZM78.8809 13.7832C78.8809 14.6035 79.0449 15.2285 79.373 15.6582C79.7012 16.0879 80.1836 16.3027 80.8203 16.3027C81.457 16.3027 81.9395 16.0898 82.2676 15.6641C82.5996 15.2344 82.7656 14.6074 82.7656 13.7832C82.7656 12.9668 82.5996 12.3477 82.2676 11.9258C81.9395 11.5 81.4531 11.2871 80.8086 11.2871C80.1719 11.2871 79.6914 11.4961 79.3672 11.9141C79.043 12.332 78.8809 12.9551 78.8809 13.7832ZM87.5586 16.3145C87.7305 16.3145 87.8965 16.3027 88.0566 16.2793C88.2168 16.252 88.3438 16.2246 88.4375 16.1973V16.9414C88.332 16.9922 88.1758 17.0332 87.9688 17.0645C87.7656 17.0996 87.582 17.1172 87.418 17.1172C86.1758 17.1172 85.5547 16.4629 85.5547 15.1543V11.334H84.6348V10.8652L85.5547 10.4609L85.9648 9.08984H86.5273V10.5781H88.3906V11.334H86.5273V15.1133C86.5273 15.5 86.6191 15.7969 86.8027 16.0039C86.9863 16.2109 87.2383 16.3145 87.5586 16.3145ZM95.2695 13.7832C95.2695 14.8301 95.0059 15.6484 94.4785 16.2383C93.9512 16.8242 93.2227 17.1172 92.293 17.1172C91.7188 17.1172 91.209 16.9824 90.7637 16.7129C90.3184 16.4434 89.9746 16.0566 89.7324 15.5527C89.4902 15.0488 89.3691 14.459 89.3691 13.7832C89.3691 12.7363 89.6309 11.9219 90.1543 11.3398C90.6777 10.7539 91.4043 10.4609 92.334 10.4609C93.2324 10.4609 93.9453 10.7598 94.4727 11.3574C95.0039 11.9551 95.2695 12.7637 95.2695 13.7832ZM90.377 13.7832C90.377 14.6035 90.541 15.2285 90.8691 15.6582C91.1973 16.0879 91.6797 16.3027 92.3164 16.3027C92.9531 16.3027 93.4355 16.0898 93.7637 15.6641C94.0957 15.2344 94.2617 14.6074 94.2617 13.7832C94.2617 12.9668 94.0957 12.3477 93.7637 11.9258C93.4355 11.5 92.9492 11.2871 92.3047 11.2871C91.668 11.2871 91.1875 11.4961 90.8633 11.9141C90.5391 12.332 90.377 12.9551 90.377 13.7832ZM101.123 15.248C101.123 15.8457 100.9 16.3066 100.455 16.6309C100.01 16.9551 99.3848 17.1172 98.5801 17.1172C97.7285 17.1172 97.0645 16.9824 96.5879 16.7129V15.8105C96.8965 15.9668 97.2266 16.0898 97.5781 16.1797C97.9336 16.2695 98.2754 16.3145 98.6035 16.3145C99.1113 16.3145 99.502 16.2344 99.7754 16.0742C100.049 15.9102 100.186 15.6621 100.186 15.3301C100.186 15.0801 100.076 14.8672 99.8574 14.6914C99.6426 14.5117 99.2207 14.3008 98.5918 14.0586C97.9941 13.8359 97.5684 13.6426 97.3145 13.4785C97.0645 13.3105 96.877 13.1211 96.752 12.9102C96.6309 12.6992 96.5703 12.4473 96.5703 12.1543C96.5703 11.6309 96.7832 11.2188 97.209 10.918C97.6348 10.6133 98.2188 10.4609 98.9609 10.4609C99.6523 10.4609 100.328 10.6016 100.988 10.8828L100.643 11.6738C99.998 11.4082 99.4141 11.2754 98.8906 11.2754C98.4297 11.2754 98.082 11.3477 97.8477 11.4922C97.6133 11.6367 97.4961 11.8359 97.4961 12.0898C97.4961 12.2617 97.5391 12.4082 97.625 12.5293C97.7148 12.6504 97.8574 12.7656 98.0527 12.875C98.248 12.9844 98.623 13.1426 99.1777 13.3496C99.9395 13.627 100.453 13.9062 100.719 14.1875C100.988 14.4688 101.123 14.8223 101.123 15.248Z" fill="#757B89"/>
<rect y="13" width="40" height="1" fill="#BCC2CF"/>
</svg>
