<svg width="490" height="24" viewBox="0 0 490 24" fill="none" xmlns="http://www.w3.org/2000/svg">
<circle cx="12" cy="12" r="12" fill="#0E97F7"/>
<path d="M13.7832 17H11.6709V11.2168L11.6914 10.2666L11.7256 9.22754C11.3747 9.57845 11.1309 9.80859 10.9941 9.91797L9.8457 10.8408L8.82715 9.56934L12.0469 7.00586H13.7832V17Z" fill="white"/>
<path d="M33.9766 17H29.1309V8.43359H33.9766V9.61719H30.5312V11.9492H33.7598V13.1211H30.5312V15.8105H33.9766V17ZM41.3887 17H40.0059V13.0156C40.0059 12.5156 39.9043 12.1426 39.7012 11.8965C39.502 11.6504 39.1836 11.5273 38.7461 11.5273C38.1641 11.5273 37.7383 11.6992 37.4688 12.043C37.1992 12.3867 37.0645 12.9629 37.0645 13.7715V17H35.6875V10.5195H36.7656L36.959 11.3691H37.0293C37.2246 11.0605 37.502 10.8223 37.8613 10.6543C38.2207 10.4863 38.6191 10.4023 39.0566 10.4023C40.6113 10.4023 41.3887 11.1934 41.3887 12.7754V17ZM45.4902 17.1172C44.6816 17.1172 44.0508 16.8242 43.5977 16.2383C43.1445 15.6523 42.918 14.8301 42.918 13.7715C42.918 12.709 43.1465 11.8828 43.6035 11.293C44.0645 10.6992 44.7012 10.4023 45.5137 10.4023C46.3652 10.4023 47.0137 10.7168 47.459 11.3457H47.5293C47.4629 10.8809 47.4297 10.5137 47.4297 10.2441V7.88281H48.8125V17H47.7344L47.4941 16.1504H47.4297C46.9883 16.7949 46.3418 17.1172 45.4902 17.1172ZM45.8594 16.0039C46.4258 16.0039 46.8379 15.8457 47.0957 15.5293C47.3535 15.209 47.4863 14.6914 47.4941 13.9766V13.7832C47.4941 12.9668 47.3613 12.3867 47.0957 12.043C46.8301 11.6992 46.4141 11.5273 45.8477 11.5273C45.3633 11.5273 44.9902 11.7246 44.7285 12.1191C44.4668 12.5098 44.3359 13.0684 44.3359 13.7949C44.3359 14.5137 44.4629 15.0625 44.7168 15.4414C44.9707 15.8164 45.3516 16.0039 45.8594 16.0039ZM53.6113 17.1172C52.6035 17.1172 51.8145 16.8242 51.2441 16.2383C50.6777 15.6484 50.3945 14.8379 50.3945 13.8066C50.3945 12.748 50.6582 11.916 51.1855 11.3105C51.7129 10.7051 52.4375 10.4023 53.3594 10.4023C54.2148 10.4023 54.8906 10.6621 55.3867 11.1816C55.8828 11.7012 56.1309 12.416 56.1309 13.3262V14.0703H51.8125C51.832 14.6992 52.002 15.1836 52.3223 15.5234C52.6426 15.8594 53.0938 16.0273 53.6758 16.0273C54.0586 16.0273 54.4141 15.9922 54.7422 15.9219C55.0742 15.8477 55.4297 15.7266 55.8086 15.5586V16.6777C55.4727 16.8379 55.1328 16.9512 54.7891 17.0176C54.4453 17.084 54.0527 17.1172 53.6113 17.1172ZM53.3594 11.4453C52.9219 11.4453 52.5703 11.584 52.3047 11.8613C52.043 12.1387 51.8867 12.543 51.8359 13.0742H54.7773C54.7695 12.5391 54.6406 12.1348 54.3906 11.8613C54.1406 11.584 53.7969 11.4453 53.3594 11.4453ZM60.9824 10.4023C61.2598 10.4023 61.4883 10.4219 61.668 10.4609L61.5332 11.7441C61.3379 11.6973 61.1348 11.6738 60.9238 11.6738C60.373 11.6738 59.9258 11.8535 59.582 12.2129C59.2422 12.5723 59.0723 13.0391 59.0723 13.6133V17H57.6953V10.5195H58.7734L58.9551 11.6621H59.0254C59.2402 11.2754 59.5195 10.9688 59.8633 10.7422C60.2109 10.5156 60.584 10.4023 60.9824 10.4023ZM65.7051 17.1172C64.6973 17.1172 63.9082 16.8242 63.3379 16.2383C62.7715 15.6484 62.4883 14.8379 62.4883 13.8066C62.4883 12.748 62.752 11.916 63.2793 11.3105C63.8066 10.7051 64.5312 10.4023 65.4531 10.4023C66.3086 10.4023 66.9844 10.6621 67.4805 11.1816C67.9766 11.7012 68.2246 12.416 68.2246 13.3262V14.0703H63.9062C63.9258 14.6992 64.0957 15.1836 64.416 15.5234C64.7363 15.8594 65.1875 16.0273 65.7695 16.0273C66.1523 16.0273 66.5078 15.9922 66.8359 15.9219C67.168 15.8477 67.5234 15.7266 67.9023 15.5586V16.6777C67.5664 16.8379 67.2266 16.9512 66.8828 17.0176C66.5391 17.084 66.1465 17.1172 65.7051 17.1172ZM65.4531 11.4453C65.0156 11.4453 64.6641 11.584 64.3984 11.8613C64.1367 12.1387 63.9805 12.543 63.9297 13.0742H66.8711C66.8633 12.5391 66.7344 12.1348 66.4844 11.8613C66.2344 11.584 65.8906 11.4453 65.4531 11.4453ZM72.4023 17.1172C71.4219 17.1172 70.6758 16.832 70.1641 16.2617C69.6562 15.6875 69.4023 14.8652 69.4023 13.7949C69.4023 12.7051 69.668 11.8672 70.1992 11.2812C70.7344 10.6953 71.5059 10.4023 72.5137 10.4023C73.1973 10.4023 73.8125 10.5293 74.3594 10.7832L73.9434 11.8906C73.3613 11.6641 72.8809 11.5508 72.502 11.5508C71.3809 11.5508 70.8203 12.2949 70.8203 13.7832C70.8203 14.5098 70.959 15.0566 71.2363 15.4238C71.5176 15.7871 71.9277 15.9688 72.4668 15.9688C73.0801 15.9688 73.6602 15.8164 74.207 15.5117V16.7129C73.9609 16.8574 73.6973 16.9609 73.416 17.0234C73.1387 17.0859 72.8008 17.1172 72.4023 17.1172ZM73.3867 18.582C73.3867 19.4492 72.791 19.8828 71.5996 19.8828C71.3418 19.8828 71.1055 19.8535 70.8906 19.7949V18.9922C71.1016 19.0469 71.3418 19.0742 71.6113 19.0742C71.8223 19.0742 71.9883 19.041 72.1094 18.9746C72.2344 18.9121 72.2969 18.793 72.2969 18.6172C72.2969 18.2852 71.9473 18.0703 71.248 17.9727L71.7402 17H72.6309L72.3906 17.5156C72.7031 17.5977 72.9473 17.7305 73.123 17.9141C73.2988 18.1016 73.3867 18.3242 73.3867 18.582ZM81.4785 13.748C81.4785 14.8066 81.207 15.6328 80.6641 16.2266C80.1211 16.8203 79.3652 17.1172 78.3965 17.1172C77.791 17.1172 77.2559 16.9805 76.791 16.707C76.3262 16.4336 75.9688 16.041 75.7188 15.5293C75.4688 15.0176 75.3438 14.4238 75.3438 13.748C75.3438 12.6973 75.6133 11.877 76.1523 11.2871C76.6914 10.6973 77.4512 10.4023 78.4316 10.4023C79.3691 10.4023 80.1113 10.7051 80.6582 11.3105C81.2051 11.9121 81.4785 12.7246 81.4785 13.748ZM76.7617 13.748C76.7617 15.2441 77.3145 15.9922 78.4199 15.9922C79.5137 15.9922 80.0605 15.2441 80.0605 13.748C80.0605 12.2676 79.5098 11.5273 78.4082 11.5273C77.8301 11.5273 77.4102 11.7188 77.1484 12.1016C76.8906 12.4844 76.7617 13.0332 76.7617 13.748Z" fill="#0E97F7"/>
<circle cx="142" cy="12" r="11.5" stroke="#BCC2CF"/>
<path d="M145.253 17H138.684V16.0225L141.315 13.377C142.118 12.5658 142.646 11.987 142.901 11.6406C143.157 11.2943 143.348 10.957 143.476 10.6289C143.603 10.3008 143.667 9.94759 143.667 9.56934C143.667 9.03613 143.505 8.61458 143.182 8.30469C142.858 7.99023 142.409 7.83301 141.835 7.83301C141.42 7.83301 141.026 7.90137 140.652 8.03809C140.283 8.1748 139.871 8.42318 139.415 8.7832L138.813 8.01074C139.734 7.24512 140.737 6.8623 141.821 6.8623C142.76 6.8623 143.496 7.10384 144.029 7.58691C144.562 8.06543 144.829 8.71029 144.829 9.52148C144.829 10.1549 144.651 10.7816 144.296 11.4014C143.94 12.0212 143.275 12.805 142.3 13.7529L140.112 15.8926V15.9473H145.253V17Z" fill="#757B89"/>
<path d="M164.07 8.43359H165.143L162.055 17H161.07L158 8.43359H159.055L161.023 13.9766C161.25 14.6133 161.43 15.2324 161.562 15.834C161.703 15.2012 161.887 14.5703 162.113 13.9414L164.07 8.43359ZM170.129 17L169.936 16.0859H169.889C169.568 16.4883 169.248 16.7617 168.928 16.9062C168.611 17.0469 168.215 17.1172 167.738 17.1172C167.102 17.1172 166.602 16.9531 166.238 16.625C165.879 16.2969 165.699 15.8301 165.699 15.2246C165.699 13.9277 166.736 13.248 168.811 13.1855L169.9 13.1504V12.752C169.9 12.248 169.791 11.877 169.572 11.6387C169.357 11.3965 169.012 11.2754 168.535 11.2754C168 11.2754 167.395 11.4395 166.719 11.7676L166.42 11.0234C166.736 10.8516 167.082 10.7168 167.457 10.6191C167.836 10.5215 168.215 10.4727 168.594 10.4727C169.359 10.4727 169.926 10.6426 170.293 10.9824C170.664 11.3223 170.85 11.8672 170.85 12.6172V17H170.129ZM167.932 16.3145C168.537 16.3145 169.012 16.1484 169.355 15.8164C169.703 15.4844 169.877 15.0195 169.877 14.4219V13.8418L168.904 13.8828C168.131 13.9102 167.572 14.0312 167.229 14.2461C166.889 14.457 166.719 14.7871 166.719 15.2363C166.719 15.5879 166.824 15.8555 167.035 16.0391C167.25 16.2227 167.549 16.3145 167.932 16.3145ZM173.832 17H172.859V7.88281H173.832V17ZM181.438 13.7832C181.438 14.8301 181.174 15.6484 180.646 16.2383C180.119 16.8242 179.391 17.1172 178.461 17.1172C177.887 17.1172 177.377 16.9824 176.932 16.7129C176.486 16.4434 176.143 16.0566 175.9 15.5527C175.658 15.0488 175.537 14.459 175.537 13.7832C175.537 12.7363 175.799 11.9219 176.322 11.3398C176.846 10.7539 177.572 10.4609 178.502 10.4609C179.4 10.4609 180.113 10.7598 180.641 11.3574C181.172 11.9551 181.438 12.7637 181.438 13.7832ZM176.545 13.7832C176.545 14.6035 176.709 15.2285 177.037 15.6582C177.365 16.0879 177.848 16.3027 178.484 16.3027C179.121 16.3027 179.604 16.0898 179.932 15.6641C180.264 15.2344 180.43 14.6074 180.43 13.7832C180.43 12.9668 180.264 12.3477 179.932 11.9258C179.604 11.5 179.117 11.2871 178.473 11.2871C177.836 11.2871 177.355 11.4961 177.031 11.9141C176.707 12.332 176.545 12.9551 176.545 13.7832ZM186.078 10.4609C186.363 10.4609 186.619 10.4844 186.846 10.5312L186.711 11.4336C186.445 11.375 186.211 11.3457 186.008 11.3457C185.488 11.3457 185.043 11.5566 184.672 11.9785C184.305 12.4004 184.121 12.9258 184.121 13.5547V17H183.148V10.5781H183.951L184.062 11.7676H184.109C184.348 11.3496 184.635 11.0273 184.971 10.8008C185.307 10.5742 185.676 10.4609 186.078 10.4609ZM190.76 17.1172C189.811 17.1172 189.061 16.8281 188.51 16.25C187.963 15.6719 187.689 14.8691 187.689 13.8418C187.689 12.8066 187.943 11.9844 188.451 11.375C188.963 10.7656 189.648 10.4609 190.508 10.4609C191.312 10.4609 191.949 10.7266 192.418 11.2578C192.887 11.7852 193.121 12.4824 193.121 13.3496V13.9648H188.697C188.717 14.7188 188.906 15.291 189.266 15.6816C189.629 16.0723 190.139 16.2676 190.795 16.2676C191.486 16.2676 192.17 16.123 192.846 15.834V16.7012C192.502 16.8496 192.176 16.9551 191.867 17.0176C191.562 17.084 191.193 17.1172 190.76 17.1172ZM190.496 11.2754C189.98 11.2754 189.568 11.4434 189.26 11.7793C188.955 12.1152 188.775 12.5801 188.721 13.1738H192.078C192.078 12.5605 191.941 12.0918 191.668 11.7676C191.395 11.4395 191.004 11.2754 190.496 11.2754ZM198.928 15.248C198.928 15.8457 198.705 16.3066 198.26 16.6309C197.814 16.9551 197.189 17.1172 196.385 17.1172C195.533 17.1172 194.869 16.9824 194.393 16.7129V15.8105C194.701 15.9668 195.031 16.0898 195.383 16.1797C195.738 16.2695 196.08 16.3145 196.408 16.3145C196.916 16.3145 197.307 16.2344 197.58 16.0742C197.854 15.9102 197.99 15.6621 197.99 15.3301C197.99 15.0801 197.881 14.8672 197.662 14.6914C197.447 14.5117 197.025 14.3008 196.396 14.0586C195.799 13.8359 195.373 13.6426 195.119 13.4785C194.869 13.3105 194.682 13.1211 194.557 12.9102C194.436 12.6992 194.375 12.4473 194.375 12.1543C194.375 11.6309 194.588 11.2188 195.014 10.918C195.439 10.6133 196.023 10.4609 196.766 10.4609C197.457 10.4609 198.133 10.6016 198.793 10.8828L198.447 11.6738C197.803 11.4082 197.219 11.2754 196.695 11.2754C196.234 11.2754 195.887 11.3477 195.652 11.4922C195.418 11.6367 195.301 11.8359 195.301 12.0898C195.301 12.2617 195.344 12.4082 195.43 12.5293C195.52 12.6504 195.662 12.7656 195.857 12.875C196.053 12.9844 196.428 13.1426 196.982 13.3496C197.744 13.627 198.258 13.9062 198.523 14.1875C198.793 14.4688 198.928 14.8223 198.928 15.248Z" fill="#757B89"/>
<circle cx="261" cy="12" r="11.5" stroke="#BCC2CF"/>
<path d="M263.877 9.35742C263.877 9.99544 263.697 10.5173 263.337 10.9229C262.981 11.3285 262.476 11.5996 261.819 11.7363V11.791C262.621 11.8913 263.216 12.1465 263.604 12.5566C263.991 12.9668 264.185 13.5046 264.185 14.1699C264.185 15.1224 263.854 15.8561 263.193 16.3711C262.533 16.8815 261.594 17.1367 260.377 17.1367C259.848 17.1367 259.363 17.0957 258.921 17.0137C258.483 16.9362 258.057 16.7972 257.643 16.5967V15.5166C258.076 15.7308 258.536 15.8949 259.023 16.0088C259.516 16.1182 259.98 16.1729 260.418 16.1729C262.145 16.1729 263.009 15.4961 263.009 14.1426C263.009 12.9303 262.056 12.3242 260.151 12.3242H259.167V11.3467H260.165C260.944 11.3467 261.562 11.1758 262.018 10.834C262.473 10.4876 262.701 10.0091 262.701 9.39844C262.701 8.91081 262.533 8.52799 262.195 8.25C261.863 7.97201 261.409 7.83301 260.835 7.83301C260.397 7.83301 259.985 7.89225 259.598 8.01074C259.21 8.12923 258.768 8.34798 258.271 8.66699L257.697 7.90137C258.107 7.5778 258.579 7.32487 259.112 7.14258C259.65 6.95573 260.215 6.8623 260.808 6.8623C261.778 6.8623 262.533 7.08561 263.07 7.53223C263.608 7.97428 263.877 8.58268 263.877 9.35742Z" fill="#757B89"/>
<path d="M285.016 12.6348C285.016 14.0488 284.631 15.1309 283.861 15.8809C283.096 16.627 281.992 17 280.551 17H278.178V8.43359H280.803C282.135 8.43359 283.17 8.80273 283.908 9.54102C284.646 10.2793 285.016 11.3105 285.016 12.6348ZM283.961 12.6699C283.961 11.5527 283.68 10.7109 283.117 10.1445C282.559 9.57812 281.727 9.29492 280.621 9.29492H279.174V16.1387H280.387C281.574 16.1387 282.467 15.8477 283.064 15.2656C283.662 14.6797 283.961 13.8145 283.961 12.6699ZM289.498 17.1172C288.549 17.1172 287.799 16.8281 287.248 16.25C286.701 15.6719 286.428 14.8691 286.428 13.8418C286.428 12.8066 286.682 11.9844 287.189 11.375C287.701 10.7656 288.387 10.4609 289.246 10.4609C290.051 10.4609 290.688 10.7266 291.156 11.2578C291.625 11.7852 291.859 12.4824 291.859 13.3496V13.9648H287.436C287.455 14.7188 287.645 15.291 288.004 15.6816C288.367 16.0723 288.877 16.2676 289.533 16.2676C290.225 16.2676 290.908 16.123 291.584 15.834V16.7012C291.24 16.8496 290.914 16.9551 290.605 17.0176C290.301 17.084 289.932 17.1172 289.498 17.1172ZM289.234 11.2754C288.719 11.2754 288.307 11.4434 287.998 11.7793C287.693 12.1152 287.514 12.5801 287.459 13.1738H290.816C290.816 12.5605 290.68 12.0918 290.406 11.7676C290.133 11.4395 289.742 11.2754 289.234 11.2754ZM297.666 15.248C297.666 15.8457 297.443 16.3066 296.998 16.6309C296.553 16.9551 295.928 17.1172 295.123 17.1172C294.271 17.1172 293.607 16.9824 293.131 16.7129V15.8105C293.439 15.9668 293.77 16.0898 294.121 16.1797C294.477 16.2695 294.818 16.3145 295.146 16.3145C295.654 16.3145 296.045 16.2344 296.318 16.0742C296.592 15.9102 296.729 15.6621 296.729 15.3301C296.729 15.0801 296.619 14.8672 296.4 14.6914C296.186 14.5117 295.764 14.3008 295.135 14.0586C294.537 13.8359 294.111 13.6426 293.857 13.4785C293.607 13.3105 293.42 13.1211 293.295 12.9102C293.174 12.6992 293.113 12.4473 293.113 12.1543C293.113 11.6309 293.326 11.2188 293.752 10.918C294.178 10.6133 294.762 10.4609 295.504 10.4609C296.195 10.4609 296.871 10.6016 297.531 10.8828L297.186 11.6738C296.541 11.4082 295.957 11.2754 295.434 11.2754C294.973 11.2754 294.625 11.3477 294.391 11.4922C294.156 11.6367 294.039 11.8359 294.039 12.0898C294.039 12.2617 294.082 12.4082 294.168 12.5293C294.258 12.6504 294.4 12.7656 294.596 12.875C294.791 12.9844 295.166 13.1426 295.721 13.3496C296.482 13.627 296.996 13.9062 297.262 14.1875C297.531 14.4688 297.666 14.8223 297.666 15.248ZM301.82 17.1172C300.891 17.1172 300.17 16.832 299.658 16.2617C299.15 15.6875 298.896 14.877 298.896 13.8301C298.896 12.7559 299.154 11.9258 299.67 11.3398C300.189 10.7539 300.928 10.4609 301.885 10.4609C302.193 10.4609 302.502 10.4941 302.811 10.5605C303.119 10.627 303.361 10.7051 303.537 10.7949L303.238 11.6211C303.023 11.5352 302.789 11.4648 302.535 11.4102C302.281 11.3516 302.057 11.3223 301.861 11.3223C300.557 11.3223 299.904 12.1543 299.904 13.8184C299.904 14.6074 300.062 15.2129 300.379 15.6348C300.699 16.0566 301.172 16.2676 301.797 16.2676C302.332 16.2676 302.881 16.1523 303.443 15.9219V16.7832C303.014 17.0059 302.473 17.1172 301.82 17.1172ZM307.902 10.4609C308.188 10.4609 308.443 10.4844 308.67 10.5312L308.535 11.4336C308.27 11.375 308.035 11.3457 307.832 11.3457C307.312 11.3457 306.867 11.5566 306.496 11.9785C306.129 12.4004 305.945 12.9258 305.945 13.5547V17H304.973V10.5781H305.775L305.887 11.7676H305.934C306.172 11.3496 306.459 11.0273 306.795 10.8008C307.131 10.5742 307.5 10.4609 307.902 10.4609ZM310.844 17H309.871V10.5781H310.844V17ZM309.789 8.83789C309.789 8.61523 309.844 8.45312 309.953 8.35156C310.062 8.24609 310.199 8.19336 310.363 8.19336C310.52 8.19336 310.654 8.24609 310.768 8.35156C310.881 8.45703 310.938 8.61914 310.938 8.83789C310.938 9.05664 310.881 9.2207 310.768 9.33008C310.654 9.43555 310.52 9.48828 310.363 9.48828C310.199 9.48828 310.062 9.43555 309.953 9.33008C309.844 9.2207 309.789 9.05664 309.789 8.83789ZM315.473 17.1172C314.543 17.1172 313.822 16.832 313.311 16.2617C312.803 15.6875 312.549 14.877 312.549 13.8301C312.549 12.7559 312.807 11.9258 313.322 11.3398C313.842 10.7539 314.58 10.4609 315.537 10.4609C315.846 10.4609 316.154 10.4941 316.463 10.5605C316.771 10.627 317.014 10.7051 317.189 10.7949L316.891 11.6211C316.676 11.5352 316.441 11.4648 316.188 11.4102C315.934 11.3516 315.709 11.3223 315.514 11.3223C314.209 11.3223 313.557 12.1543 313.557 13.8184C313.557 14.6074 313.715 15.2129 314.031 15.6348C314.352 16.0566 314.824 16.2676 315.449 16.2676C315.984 16.2676 316.533 16.1523 317.096 15.9219V16.7832C316.666 17.0059 316.125 17.1172 315.473 17.1172ZM316.34 18.6934C316.34 19.0723 316.189 19.3652 315.889 19.5723C315.592 19.7793 315.15 19.8828 314.564 19.8828C314.365 19.8828 314.178 19.8652 314.002 19.8301V19.209C314.178 19.2402 314.381 19.2559 314.611 19.2559C314.92 19.2559 315.152 19.2168 315.309 19.1387C315.469 19.0605 315.549 18.916 315.549 18.7051C315.549 18.5371 315.471 18.4004 315.314 18.2949C315.162 18.1934 314.873 18.1094 314.447 18.043L314.963 17H315.607L315.285 17.6738C315.988 17.8262 316.34 18.166 316.34 18.6934ZM322.574 17L322.381 16.0859H322.334C322.014 16.4883 321.693 16.7617 321.373 16.9062C321.057 17.0469 320.66 17.1172 320.184 17.1172C319.547 17.1172 319.047 16.9531 318.684 16.625C318.324 16.2969 318.145 15.8301 318.145 15.2246C318.145 13.9277 319.182 13.248 321.256 13.1855L322.346 13.1504V12.752C322.346 12.248 322.236 11.877 322.018 11.6387C321.803 11.3965 321.457 11.2754 320.98 11.2754C320.445 11.2754 319.84 11.4395 319.164 11.7676L318.865 11.0234C319.182 10.8516 319.527 10.7168 319.902 10.6191C320.281 10.5215 320.66 10.4727 321.039 10.4727C321.805 10.4727 322.371 10.6426 322.738 10.9824C323.109 11.3223 323.295 11.8672 323.295 12.6172V17H322.574ZM320.377 16.3145C320.982 16.3145 321.457 16.1484 321.801 15.8164C322.148 15.4844 322.322 15.0195 322.322 14.4219V13.8418L321.35 13.8828C320.576 13.9102 320.018 14.0312 319.674 14.2461C319.334 14.457 319.164 14.7871 319.164 15.2363C319.164 15.5879 319.27 15.8555 319.48 16.0391C319.695 16.2227 319.994 16.3145 320.377 16.3145ZM321.818 9.7168C321.65 9.7168 321.486 9.68164 321.326 9.61133C321.166 9.53711 321.008 9.45703 320.852 9.37109C320.699 9.28125 320.551 9.20117 320.406 9.13086C320.266 9.05664 320.129 9.01953 319.996 9.01953C319.801 9.01953 319.652 9.07812 319.551 9.19531C319.453 9.3125 319.377 9.49023 319.322 9.72852H318.748C318.799 9.25586 318.936 8.88672 319.158 8.62109C319.385 8.35156 319.676 8.2168 320.031 8.2168C320.211 8.2168 320.385 8.25391 320.553 8.32812C320.721 8.39844 320.881 8.47852 321.033 8.56836C321.186 8.6543 321.332 8.73438 321.473 8.80859C321.613 8.87891 321.746 8.91406 321.871 8.91406C322.062 8.91406 322.205 8.85742 322.299 8.74414C322.393 8.62695 322.469 8.44727 322.527 8.20508H323.107C323.057 8.67773 322.92 9.04883 322.697 9.31836C322.479 9.58398 322.186 9.7168 321.818 9.7168ZM330.848 13.7832C330.848 14.8301 330.584 15.6484 330.057 16.2383C329.529 16.8242 328.801 17.1172 327.871 17.1172C327.297 17.1172 326.787 16.9824 326.342 16.7129C325.896 16.4434 325.553 16.0566 325.311 15.5527C325.068 15.0488 324.947 14.459 324.947 13.7832C324.947 12.7363 325.209 11.9219 325.732 11.3398C326.256 10.7539 326.982 10.4609 327.912 10.4609C328.811 10.4609 329.523 10.7598 330.051 11.3574C330.582 11.9551 330.848 12.7637 330.848 13.7832ZM325.955 13.7832C325.955 14.6035 326.119 15.2285 326.447 15.6582C326.775 16.0879 327.258 16.3027 327.895 16.3027C328.531 16.3027 329.014 16.0898 329.342 15.6641C329.674 15.2344 329.84 14.6074 329.84 13.7832C329.84 12.9668 329.674 12.3477 329.342 11.9258C329.014 11.5 328.527 11.2871 327.883 11.2871C327.246 11.2871 326.766 11.4961 326.441 11.9141C326.117 12.332 325.955 12.9551 325.955 13.7832Z" fill="#757B89"/>
<circle cx="392" cy="12" r="11.5" stroke="#BCC2CF"/>
<path d="M394.725 14.7031H393.241V17H392.154V14.7031H387.294V13.7119L392.038 6.95117H393.241V13.6709H394.725V14.7031ZM392.154 13.6709V10.3486C392.154 9.69694 392.177 8.96094 392.223 8.14062H392.168C391.949 8.57812 391.744 8.94043 391.553 9.22754L388.429 13.6709H392.154Z" fill="#757B89"/>
<path d="M412.846 9.20117C411.904 9.20117 411.16 9.51562 410.613 10.1445C410.07 10.7695 409.799 11.627 409.799 12.7168C409.799 13.8379 410.061 14.7051 410.584 15.3184C411.111 15.9277 411.861 16.2324 412.834 16.2324C413.432 16.2324 414.113 16.125 414.879 15.9102V16.7832C414.285 17.0059 413.553 17.1172 412.682 17.1172C411.42 17.1172 410.445 16.7344 409.758 15.9688C409.074 15.2031 408.732 14.1152 408.732 12.7051C408.732 11.8223 408.896 11.0488 409.225 10.3848C409.557 9.7207 410.033 9.20898 410.654 8.84961C411.279 8.49023 412.014 8.31055 412.857 8.31055C413.756 8.31055 414.541 8.47461 415.213 8.80273L414.791 9.6582C414.143 9.35352 413.494 9.20117 412.846 9.20117ZM420.551 17L420.357 16.0859H420.311C419.99 16.4883 419.67 16.7617 419.35 16.9062C419.033 17.0469 418.637 17.1172 418.16 17.1172C417.523 17.1172 417.023 16.9531 416.66 16.625C416.301 16.2969 416.121 15.8301 416.121 15.2246C416.121 13.9277 417.158 13.248 419.232 13.1855L420.322 13.1504V12.752C420.322 12.248 420.213 11.877 419.994 11.6387C419.779 11.3965 419.434 11.2754 418.957 11.2754C418.422 11.2754 417.816 11.4395 417.141 11.7676L416.842 11.0234C417.158 10.8516 417.504 10.7168 417.879 10.6191C418.258 10.5215 418.637 10.4727 419.016 10.4727C419.781 10.4727 420.348 10.6426 420.715 10.9824C421.086 11.3223 421.271 11.8672 421.271 12.6172V17H420.551ZM418.354 16.3145C418.959 16.3145 419.434 16.1484 419.777 15.8164C420.125 15.4844 420.299 15.0195 420.299 14.4219V13.8418L419.326 13.8828C418.553 13.9102 417.994 14.0312 417.65 14.2461C417.311 14.457 417.141 14.7871 417.141 15.2363C417.141 15.5879 417.246 15.8555 417.457 16.0391C417.672 16.2227 417.971 16.3145 418.354 16.3145ZM426.211 10.4609C426.496 10.4609 426.752 10.4844 426.979 10.5312L426.844 11.4336C426.578 11.375 426.344 11.3457 426.141 11.3457C425.621 11.3457 425.176 11.5566 424.805 11.9785C424.438 12.4004 424.254 12.9258 424.254 13.5547V17H423.281V10.5781H424.084L424.195 11.7676H424.242C424.48 11.3496 424.768 11.0273 425.104 10.8008C425.439 10.5742 425.809 10.4609 426.211 10.4609ZM432.129 17L431.936 16.0859H431.889C431.568 16.4883 431.248 16.7617 430.928 16.9062C430.611 17.0469 430.215 17.1172 429.738 17.1172C429.102 17.1172 428.602 16.9531 428.238 16.625C427.879 16.2969 427.699 15.8301 427.699 15.2246C427.699 13.9277 428.736 13.248 430.811 13.1855L431.9 13.1504V12.752C431.9 12.248 431.791 11.877 431.572 11.6387C431.357 11.3965 431.012 11.2754 430.535 11.2754C430 11.2754 429.395 11.4395 428.719 11.7676L428.42 11.0234C428.736 10.8516 429.082 10.7168 429.457 10.6191C429.836 10.5215 430.215 10.4727 430.594 10.4727C431.359 10.4727 431.926 10.6426 432.293 10.9824C432.664 11.3223 432.85 11.8672 432.85 12.6172V17H432.129ZM429.932 16.3145C430.537 16.3145 431.012 16.1484 431.355 15.8164C431.703 15.4844 431.877 15.0195 431.877 14.4219V13.8418L430.904 13.8828C430.131 13.9102 429.572 14.0312 429.229 14.2461C428.889 14.457 428.719 14.7871 428.719 15.2363C428.719 15.5879 428.824 15.8555 429.035 16.0391C429.25 16.2227 429.549 16.3145 429.932 16.3145ZM437.426 17.1172C436.496 17.1172 435.775 16.832 435.264 16.2617C434.756 15.6875 434.502 14.877 434.502 13.8301C434.502 12.7559 434.76 11.9258 435.275 11.3398C435.795 10.7539 436.533 10.4609 437.49 10.4609C437.799 10.4609 438.107 10.4941 438.416 10.5605C438.725 10.627 438.967 10.7051 439.143 10.7949L438.844 11.6211C438.629 11.5352 438.395 11.4648 438.141 11.4102C437.887 11.3516 437.662 11.3223 437.467 11.3223C436.162 11.3223 435.51 12.1543 435.51 13.8184C435.51 14.6074 435.668 15.2129 435.984 15.6348C436.305 16.0566 436.777 16.2676 437.402 16.2676C437.938 16.2676 438.486 16.1523 439.049 15.9219V16.7832C438.619 17.0059 438.078 17.1172 437.426 17.1172ZM442.652 16.3145C442.824 16.3145 442.99 16.3027 443.15 16.2793C443.311 16.252 443.438 16.2246 443.531 16.1973V16.9414C443.426 16.9922 443.27 17.0332 443.062 17.0645C442.859 17.0996 442.676 17.1172 442.512 17.1172C441.27 17.1172 440.648 16.4629 440.648 15.1543V11.334H439.729V10.8652L440.648 10.4609L441.059 9.08984H441.621V10.5781H443.484V11.334H441.621V15.1133C441.621 15.5 441.713 15.7969 441.896 16.0039C442.08 16.2109 442.332 16.3145 442.652 16.3145ZM447.533 17.1172C446.584 17.1172 445.834 16.8281 445.283 16.25C444.736 15.6719 444.463 14.8691 444.463 13.8418C444.463 12.8066 444.717 11.9844 445.225 11.375C445.736 10.7656 446.422 10.4609 447.281 10.4609C448.086 10.4609 448.723 10.7266 449.191 11.2578C449.66 11.7852 449.895 12.4824 449.895 13.3496V13.9648H445.471C445.49 14.7188 445.68 15.291 446.039 15.6816C446.402 16.0723 446.912 16.2676 447.568 16.2676C448.26 16.2676 448.943 16.123 449.619 15.834V16.7012C449.275 16.8496 448.949 16.9551 448.641 17.0176C448.336 17.084 447.967 17.1172 447.533 17.1172ZM447.27 11.2754C446.754 11.2754 446.342 11.4434 446.033 11.7793C445.729 12.1152 445.549 12.5801 445.494 13.1738H448.852C448.852 12.5605 448.715 12.0918 448.441 11.7676C448.168 11.4395 447.777 11.2754 447.27 11.2754ZM454.488 10.4609C454.773 10.4609 455.029 10.4844 455.256 10.5312L455.121 11.4336C454.855 11.375 454.621 11.3457 454.418 11.3457C453.898 11.3457 453.453 11.5566 453.082 11.9785C452.715 12.4004 452.531 12.9258 452.531 13.5547V17H451.559V10.5781H452.361L452.473 11.7676H452.52C452.758 11.3496 453.045 11.0273 453.381 10.8008C453.717 10.5742 454.086 10.4609 454.488 10.4609ZM457.43 17H456.457V10.5781H457.43V17ZM456.416 9.58203C456.604 9.33984 456.805 9.04688 457.02 8.70312C457.238 8.35938 457.41 8.06055 457.535 7.80664H458.719V7.92969C458.547 8.18359 458.291 8.49609 457.951 8.86719C457.611 9.23828 457.316 9.52539 457.066 9.72852H456.416V9.58203ZM463.635 15.248C463.635 15.8457 463.412 16.3066 462.967 16.6309C462.521 16.9551 461.896 17.1172 461.092 17.1172C460.24 17.1172 459.576 16.9824 459.1 16.7129V15.8105C459.408 15.9668 459.738 16.0898 460.09 16.1797C460.445 16.2695 460.787 16.3145 461.115 16.3145C461.623 16.3145 462.014 16.2344 462.287 16.0742C462.561 15.9102 462.697 15.6621 462.697 15.3301C462.697 15.0801 462.588 14.8672 462.369 14.6914C462.154 14.5117 461.732 14.3008 461.104 14.0586C460.506 13.8359 460.08 13.6426 459.826 13.4785C459.576 13.3105 459.389 13.1211 459.264 12.9102C459.143 12.6992 459.082 12.4473 459.082 12.1543C459.082 11.6309 459.295 11.2188 459.721 10.918C460.146 10.6133 460.73 10.4609 461.473 10.4609C462.164 10.4609 462.84 10.6016 463.5 10.8828L463.154 11.6738C462.51 11.4082 461.926 11.2754 461.402 11.2754C460.941 11.2754 460.594 11.3477 460.359 11.4922C460.125 11.6367 460.008 11.8359 460.008 12.0898C460.008 12.2617 460.051 12.4082 460.137 12.5293C460.227 12.6504 460.369 12.7656 460.564 12.875C460.76 12.9844 461.135 13.1426 461.689 13.3496C462.451 13.627 462.965 13.9062 463.23 14.1875C463.5 14.4688 463.635 14.8223 463.635 15.248ZM467.297 16.3145C467.469 16.3145 467.635 16.3027 467.795 16.2793C467.955 16.252 468.082 16.2246 468.176 16.1973V16.9414C468.07 16.9922 467.914 17.0332 467.707 17.0645C467.504 17.0996 467.32 17.1172 467.156 17.1172C465.914 17.1172 465.293 16.4629 465.293 15.1543V11.334H464.373V10.8652L465.293 10.4609L465.703 9.08984H466.266V10.5781H468.129V11.334H466.266V15.1133C466.266 15.5 466.357 15.7969 466.541 16.0039C466.725 16.2109 466.977 16.3145 467.297 16.3145ZM470.438 17H469.465V10.5781H470.438V17ZM469.383 8.83789C469.383 8.61523 469.438 8.45312 469.547 8.35156C469.656 8.24609 469.793 8.19336 469.957 8.19336C470.113 8.19336 470.248 8.24609 470.361 8.35156C470.475 8.45703 470.531 8.61914 470.531 8.83789C470.531 9.05664 470.475 9.2207 470.361 9.33008C470.248 9.43555 470.113 9.48828 469.957 9.48828C469.793 9.48828 469.656 9.43555 469.547 9.33008C469.438 9.2207 469.383 9.05664 469.383 8.83789ZM475.066 17.1172C474.137 17.1172 473.416 16.832 472.904 16.2617C472.396 15.6875 472.143 14.877 472.143 13.8301C472.143 12.7559 472.4 11.9258 472.916 11.3398C473.436 10.7539 474.174 10.4609 475.131 10.4609C475.439 10.4609 475.748 10.4941 476.057 10.5605C476.365 10.627 476.607 10.7051 476.783 10.7949L476.484 11.6211C476.27 11.5352 476.035 11.4648 475.781 11.4102C475.527 11.3516 475.303 11.3223 475.107 11.3223C473.803 11.3223 473.15 12.1543 473.15 13.8184C473.15 14.6074 473.309 15.2129 473.625 15.6348C473.945 16.0566 474.418 16.2676 475.043 16.2676C475.578 16.2676 476.127 16.1523 476.689 15.9219V16.7832C476.26 17.0059 475.719 17.1172 475.066 17.1172ZM482.168 17L481.975 16.0859H481.928C481.607 16.4883 481.287 16.7617 480.967 16.9062C480.65 17.0469 480.254 17.1172 479.777 17.1172C479.141 17.1172 478.641 16.9531 478.277 16.625C477.918 16.2969 477.738 15.8301 477.738 15.2246C477.738 13.9277 478.775 13.248 480.85 13.1855L481.939 13.1504V12.752C481.939 12.248 481.83 11.877 481.611 11.6387C481.396 11.3965 481.051 11.2754 480.574 11.2754C480.039 11.2754 479.434 11.4395 478.758 11.7676L478.459 11.0234C478.775 10.8516 479.121 10.7168 479.496 10.6191C479.875 10.5215 480.254 10.4727 480.633 10.4727C481.398 10.4727 481.965 10.6426 482.332 10.9824C482.703 11.3223 482.889 11.8672 482.889 12.6172V17H482.168ZM479.971 16.3145C480.576 16.3145 481.051 16.1484 481.395 15.8164C481.742 15.4844 481.916 15.0195 481.916 14.4219V13.8418L480.943 13.8828C480.17 13.9102 479.611 14.0312 479.268 14.2461C478.928 14.457 478.758 14.7871 478.758 15.2363C478.758 15.5879 478.863 15.8555 479.074 16.0391C479.289 16.2227 479.588 16.3145 479.971 16.3145ZM489.041 15.248C489.041 15.8457 488.818 16.3066 488.373 16.6309C487.928 16.9551 487.303 17.1172 486.498 17.1172C485.646 17.1172 484.982 16.9824 484.506 16.7129V15.8105C484.814 15.9668 485.145 16.0898 485.496 16.1797C485.852 16.2695 486.193 16.3145 486.521 16.3145C487.029 16.3145 487.42 16.2344 487.693 16.0742C487.967 15.9102 488.104 15.6621 488.104 15.3301C488.104 15.0801 487.994 14.8672 487.775 14.6914C487.561 14.5117 487.139 14.3008 486.51 14.0586C485.912 13.8359 485.486 13.6426 485.232 13.4785C484.982 13.3105 484.795 13.1211 484.67 12.9102C484.549 12.6992 484.488 12.4473 484.488 12.1543C484.488 11.6309 484.701 11.2188 485.127 10.918C485.553 10.6133 486.137 10.4609 486.879 10.4609C487.57 10.4609 488.246 10.6016 488.906 10.8828L488.561 11.6738C487.916 11.4082 487.332 11.2754 486.809 11.2754C486.348 11.2754 486 11.3477 485.766 11.4922C485.531 11.6367 485.414 11.8359 485.414 12.0898C485.414 12.2617 485.457 12.4082 485.543 12.5293C485.633 12.6504 485.775 12.7656 485.971 12.875C486.166 12.9844 486.541 13.1426 487.096 13.3496C487.857 13.627 488.371 13.9062 488.637 14.1875C488.906 14.4688 489.041 14.8223 489.041 15.248Z" fill="#757B89"/>
<rect x="86" y="13" width="40" height="1" fill="#BCC2CF"/>
<rect x="204" y="13" width="40" height="1" fill="#BCC2CF"/>
<rect x="337" y="13" width="40" height="1" fill="#BCC2CF"/>
</svg>
