<svg width="600" height="25" viewBox="0 0 600 25" fill="none" xmlns="http://www.w3.org/2000/svg">
<path d="M34.9766 17H30.1309V8.43359H34.9766V9.61719H31.5312V11.9492H34.7598V13.1211H31.5312V15.8105H34.9766V17ZM42.3887 17H41.0059V13.0156C41.0059 12.5156 40.9043 12.1426 40.7012 11.8965C40.502 11.6504 40.1836 11.5273 39.7461 11.5273C39.1641 11.5273 38.7383 11.6992 38.4688 12.043C38.1992 12.3867 38.0645 12.9629 38.0645 13.7715V17H36.6875V10.5195H37.7656L37.959 11.3691H38.0293C38.2246 11.0605 38.502 10.8223 38.8613 10.6543C39.2207 10.4863 39.6191 10.4023 40.0566 10.4023C41.6113 10.4023 42.3887 11.1934 42.3887 12.7754V17ZM46.4902 17.1172C45.6816 17.1172 45.0508 16.8242 44.5977 16.2383C44.1445 15.6523 43.918 14.8301 43.918 13.7715C43.918 12.709 44.1465 11.8828 44.6035 11.293C45.0645 10.6992 45.7012 10.4023 46.5137 10.4023C47.3652 10.4023 48.0137 10.7168 48.459 11.3457H48.5293C48.4629 10.8809 48.4297 10.5137 48.4297 10.2441V7.88281H49.8125V17H48.7344L48.4941 16.1504H48.4297C47.9883 16.7949 47.3418 17.1172 46.4902 17.1172ZM46.8594 16.0039C47.4258 16.0039 47.8379 15.8457 48.0957 15.5293C48.3535 15.209 48.4863 14.6914 48.4941 13.9766V13.7832C48.4941 12.9668 48.3613 12.3867 48.0957 12.043C47.8301 11.6992 47.4141 11.5273 46.8477 11.5273C46.3633 11.5273 45.9902 11.7246 45.7285 12.1191C45.4668 12.5098 45.3359 13.0684 45.3359 13.7949C45.3359 14.5137 45.4629 15.0625 45.7168 15.4414C45.9707 15.8164 46.3516 16.0039 46.8594 16.0039ZM54.6113 17.1172C53.6035 17.1172 52.8145 16.8242 52.2441 16.2383C51.6777 15.6484 51.3945 14.8379 51.3945 13.8066C51.3945 12.748 51.6582 11.916 52.1855 11.3105C52.7129 10.7051 53.4375 10.4023 54.3594 10.4023C55.2148 10.4023 55.8906 10.6621 56.3867 11.1816C56.8828 11.7012 57.1309 12.416 57.1309 13.3262V14.0703H52.8125C52.832 14.6992 53.002 15.1836 53.3223 15.5234C53.6426 15.8594 54.0938 16.0273 54.6758 16.0273C55.0586 16.0273 55.4141 15.9922 55.7422 15.9219C56.0742 15.8477 56.4297 15.7266 56.8086 15.5586V16.6777C56.4727 16.8379 56.1328 16.9512 55.7891 17.0176C55.4453 17.084 55.0527 17.1172 54.6113 17.1172ZM54.3594 11.4453C53.9219 11.4453 53.5703 11.584 53.3047 11.8613C53.043 12.1387 52.8867 12.543 52.8359 13.0742H55.7773C55.7695 12.5391 55.6406 12.1348 55.3906 11.8613C55.1406 11.584 54.7969 11.4453 54.3594 11.4453ZM61.9824 10.4023C62.2598 10.4023 62.4883 10.4219 62.668 10.4609L62.5332 11.7441C62.3379 11.6973 62.1348 11.6738 61.9238 11.6738C61.373 11.6738 60.9258 11.8535 60.582 12.2129C60.2422 12.5723 60.0723 13.0391 60.0723 13.6133V17H58.6953V10.5195H59.7734L59.9551 11.6621H60.0254C60.2402 11.2754 60.5195 10.9688 60.8633 10.7422C61.2109 10.5156 61.584 10.4023 61.9824 10.4023ZM66.7051 17.1172C65.6973 17.1172 64.9082 16.8242 64.3379 16.2383C63.7715 15.6484 63.4883 14.8379 63.4883 13.8066C63.4883 12.748 63.752 11.916 64.2793 11.3105C64.8066 10.7051 65.5312 10.4023 66.4531 10.4023C67.3086 10.4023 67.9844 10.6621 68.4805 11.1816C68.9766 11.7012 69.2246 12.416 69.2246 13.3262V14.0703H64.9062C64.9258 14.6992 65.0957 15.1836 65.416 15.5234C65.7363 15.8594 66.1875 16.0273 66.7695 16.0273C67.1523 16.0273 67.5078 15.9922 67.8359 15.9219C68.168 15.8477 68.5234 15.7266 68.9023 15.5586V16.6777C68.5664 16.8379 68.2266 16.9512 67.8828 17.0176C67.5391 17.084 67.1465 17.1172 66.7051 17.1172ZM66.4531 11.4453C66.0156 11.4453 65.6641 11.584 65.3984 11.8613C65.1367 12.1387 64.9805 12.543 64.9297 13.0742H67.8711C67.8633 12.5391 67.7344 12.1348 67.4844 11.8613C67.2344 11.584 66.8906 11.4453 66.4531 11.4453ZM73.4023 17.1172C72.4219 17.1172 71.6758 16.832 71.1641 16.2617C70.6562 15.6875 70.4023 14.8652 70.4023 13.7949C70.4023 12.7051 70.668 11.8672 71.1992 11.2812C71.7344 10.6953 72.5059 10.4023 73.5137 10.4023C74.1973 10.4023 74.8125 10.5293 75.3594 10.7832L74.9434 11.8906C74.3613 11.6641 73.8809 11.5508 73.502 11.5508C72.3809 11.5508 71.8203 12.2949 71.8203 13.7832C71.8203 14.5098 71.959 15.0566 72.2363 15.4238C72.5176 15.7871 72.9277 15.9688 73.4668 15.9688C74.0801 15.9688 74.6602 15.8164 75.207 15.5117V16.7129C74.9609 16.8574 74.6973 16.9609 74.416 17.0234C74.1387 17.0859 73.8008 17.1172 73.4023 17.1172ZM74.3867 18.582C74.3867 19.4492 73.791 19.8828 72.5996 19.8828C72.3418 19.8828 72.1055 19.8535 71.8906 19.7949V18.9922C72.1016 19.0469 72.3418 19.0742 72.6113 19.0742C72.8223 19.0742 72.9883 19.041 73.1094 18.9746C73.2344 18.9121 73.2969 18.793 73.2969 18.6172C73.2969 18.2852 72.9473 18.0703 72.248 17.9727L72.7402 17H73.6309L73.3906 17.5156C73.7031 17.5977 73.9473 17.7305 74.123 17.9141C74.2988 18.1016 74.3867 18.3242 74.3867 18.582ZM82.4785 13.748C82.4785 14.8066 82.207 15.6328 81.6641 16.2266C81.1211 16.8203 80.3652 17.1172 79.3965 17.1172C78.791 17.1172 78.2559 16.9805 77.791 16.707C77.3262 16.4336 76.9688 16.041 76.7188 15.5293C76.4688 15.0176 76.3438 14.4238 76.3438 13.748C76.3438 12.6973 76.6133 11.877 77.1523 11.2871C77.6914 10.6973 78.4512 10.4023 79.4316 10.4023C80.3691 10.4023 81.1113 10.7051 81.6582 11.3105C82.2051 11.9121 82.4785 12.7246 82.4785 13.748ZM77.7617 13.748C77.7617 15.2441 78.3145 15.9922 79.4199 15.9922C80.5137 15.9922 81.0605 15.2441 81.0605 13.748C81.0605 12.2676 80.5098 11.5273 79.4082 11.5273C78.8301 11.5273 78.4102 11.7188 78.1484 12.1016C77.8906 12.4844 77.7617 13.0332 77.7617 13.748Z" fill="#00C1B4"/>
<circle cx="143" cy="12" r="12" fill="#0E97F7"/>
<path d="M146.253 17H139.684V16.0225L142.315 13.377C143.118 12.5658 143.646 11.987 143.901 11.6406C144.157 11.2943 144.348 10.957 144.476 10.6289C144.603 10.3008 144.667 9.94759 144.667 9.56934C144.667 9.03613 144.505 8.61458 144.182 8.30469C143.858 7.99023 143.409 7.83301 142.835 7.83301C142.42 7.83301 142.026 7.90137 141.652 8.03809C141.283 8.1748 140.871 8.42318 140.415 8.7832L139.813 8.01074C140.734 7.24512 141.737 6.8623 142.821 6.8623C143.76 6.8623 144.496 7.10384 145.029 7.58691C145.562 8.06543 145.829 8.71029 145.829 9.52148C145.829 10.1549 145.651 10.7816 145.296 11.4014C144.94 12.0212 144.275 12.805 143.3 13.7529L141.112 15.8926V15.9473H146.253V17Z" fill="white"/>
<path d="M165.07 8.43359H166.143L163.055 17H162.07L159 8.43359H160.055L162.023 13.9766C162.25 14.6133 162.43 15.2324 162.562 15.834C162.703 15.2012 162.887 14.5703 163.113 13.9414L165.07 8.43359ZM171.129 17L170.936 16.0859H170.889C170.568 16.4883 170.248 16.7617 169.928 16.9062C169.611 17.0469 169.215 17.1172 168.738 17.1172C168.102 17.1172 167.602 16.9531 167.238 16.625C166.879 16.2969 166.699 15.8301 166.699 15.2246C166.699 13.9277 167.736 13.248 169.811 13.1855L170.9 13.1504V12.752C170.9 12.248 170.791 11.877 170.572 11.6387C170.357 11.3965 170.012 11.2754 169.535 11.2754C169 11.2754 168.395 11.4395 167.719 11.7676L167.42 11.0234C167.736 10.8516 168.082 10.7168 168.457 10.6191C168.836 10.5215 169.215 10.4727 169.594 10.4727C170.359 10.4727 170.926 10.6426 171.293 10.9824C171.664 11.3223 171.85 11.8672 171.85 12.6172V17H171.129ZM168.932 16.3145C169.537 16.3145 170.012 16.1484 170.355 15.8164C170.703 15.4844 170.877 15.0195 170.877 14.4219V13.8418L169.904 13.8828C169.131 13.9102 168.572 14.0312 168.229 14.2461C167.889 14.457 167.719 14.7871 167.719 15.2363C167.719 15.5879 167.824 15.8555 168.035 16.0391C168.25 16.2227 168.549 16.3145 168.932 16.3145ZM174.832 17H173.859V7.88281H174.832V17ZM182.438 13.7832C182.438 14.8301 182.174 15.6484 181.646 16.2383C181.119 16.8242 180.391 17.1172 179.461 17.1172C178.887 17.1172 178.377 16.9824 177.932 16.7129C177.486 16.4434 177.143 16.0566 176.9 15.5527C176.658 15.0488 176.537 14.459 176.537 13.7832C176.537 12.7363 176.799 11.9219 177.322 11.3398C177.846 10.7539 178.572 10.4609 179.502 10.4609C180.4 10.4609 181.113 10.7598 181.641 11.3574C182.172 11.9551 182.438 12.7637 182.438 13.7832ZM177.545 13.7832C177.545 14.6035 177.709 15.2285 178.037 15.6582C178.365 16.0879 178.848 16.3027 179.484 16.3027C180.121 16.3027 180.604 16.0898 180.932 15.6641C181.264 15.2344 181.43 14.6074 181.43 13.7832C181.43 12.9668 181.264 12.3477 180.932 11.9258C180.604 11.5 180.117 11.2871 179.473 11.2871C178.836 11.2871 178.355 11.4961 178.031 11.9141C177.707 12.332 177.545 12.9551 177.545 13.7832ZM187.078 10.4609C187.363 10.4609 187.619 10.4844 187.846 10.5312L187.711 11.4336C187.445 11.375 187.211 11.3457 187.008 11.3457C186.488 11.3457 186.043 11.5566 185.672 11.9785C185.305 12.4004 185.121 12.9258 185.121 13.5547V17H184.148V10.5781H184.951L185.062 11.7676H185.109C185.348 11.3496 185.635 11.0273 185.971 10.8008C186.307 10.5742 186.676 10.4609 187.078 10.4609ZM191.76 17.1172C190.811 17.1172 190.061 16.8281 189.51 16.25C188.963 15.6719 188.689 14.8691 188.689 13.8418C188.689 12.8066 188.943 11.9844 189.451 11.375C189.963 10.7656 190.648 10.4609 191.508 10.4609C192.312 10.4609 192.949 10.7266 193.418 11.2578C193.887 11.7852 194.121 12.4824 194.121 13.3496V13.9648H189.697C189.717 14.7188 189.906 15.291 190.266 15.6816C190.629 16.0723 191.139 16.2676 191.795 16.2676C192.486 16.2676 193.17 16.123 193.846 15.834V16.7012C193.502 16.8496 193.176 16.9551 192.867 17.0176C192.562 17.084 192.193 17.1172 191.76 17.1172ZM191.496 11.2754C190.98 11.2754 190.568 11.4434 190.26 11.7793C189.955 12.1152 189.775 12.5801 189.721 13.1738H193.078C193.078 12.5605 192.941 12.0918 192.668 11.7676C192.395 11.4395 192.004 11.2754 191.496 11.2754ZM199.928 15.248C199.928 15.8457 199.705 16.3066 199.26 16.6309C198.814 16.9551 198.189 17.1172 197.385 17.1172C196.533 17.1172 195.869 16.9824 195.393 16.7129V15.8105C195.701 15.9668 196.031 16.0898 196.383 16.1797C196.738 16.2695 197.08 16.3145 197.408 16.3145C197.916 16.3145 198.307 16.2344 198.58 16.0742C198.854 15.9102 198.99 15.6621 198.99 15.3301C198.99 15.0801 198.881 14.8672 198.662 14.6914C198.447 14.5117 198.025 14.3008 197.396 14.0586C196.799 13.8359 196.373 13.6426 196.119 13.4785C195.869 13.3105 195.682 13.1211 195.557 12.9102C195.436 12.6992 195.375 12.4473 195.375 12.1543C195.375 11.6309 195.588 11.2188 196.014 10.918C196.439 10.6133 197.023 10.4609 197.766 10.4609C198.457 10.4609 199.133 10.6016 199.793 10.8828L199.447 11.6738C198.803 11.4082 198.219 11.2754 197.695 11.2754C197.234 11.2754 196.887 11.3477 196.652 11.4922C196.418 11.6367 196.301 11.8359 196.301 12.0898C196.301 12.2617 196.344 12.4082 196.43 12.5293C196.52 12.6504 196.662 12.7656 196.857 12.875C197.053 12.9844 197.428 13.1426 197.982 13.3496C198.744 13.627 199.258 13.9062 199.523 14.1875C199.793 14.4688 199.928 14.8223 199.928 15.248Z" fill="#0E97F7"/>
<circle cx="262" cy="12" r="11.5" stroke="#BCC2CF"/>
<path d="M264.877 9.35742C264.877 9.99544 264.697 10.5173 264.337 10.9229C263.981 11.3285 263.476 11.5996 262.819 11.7363V11.791C263.621 11.8913 264.216 12.1465 264.604 12.5566C264.991 12.9668 265.185 13.5046 265.185 14.1699C265.185 15.1224 264.854 15.8561 264.193 16.3711C263.533 16.8815 262.594 17.1367 261.377 17.1367C260.848 17.1367 260.363 17.0957 259.921 17.0137C259.483 16.9362 259.057 16.7972 258.643 16.5967V15.5166C259.076 15.7308 259.536 15.8949 260.023 16.0088C260.516 16.1182 260.98 16.1729 261.418 16.1729C263.145 16.1729 264.009 15.4961 264.009 14.1426C264.009 12.9303 263.056 12.3242 261.151 12.3242H260.167V11.3467H261.165C261.944 11.3467 262.562 11.1758 263.018 10.834C263.473 10.4876 263.701 10.0091 263.701 9.39844C263.701 8.91081 263.533 8.52799 263.195 8.25C262.863 7.97201 262.409 7.83301 261.835 7.83301C261.397 7.83301 260.985 7.89225 260.598 8.01074C260.21 8.12923 259.768 8.34798 259.271 8.66699L258.697 7.90137C259.107 7.5778 259.579 7.32487 260.112 7.14258C260.65 6.95573 261.215 6.8623 261.808 6.8623C262.778 6.8623 263.533 7.08561 264.07 7.53223C264.608 7.97428 264.877 8.58268 264.877 9.35742Z" fill="#757B89"/>
<path d="M286.016 12.6348C286.016 14.0488 285.631 15.1309 284.861 15.8809C284.096 16.627 282.992 17 281.551 17H279.178V8.43359H281.803C283.135 8.43359 284.17 8.80273 284.908 9.54102C285.646 10.2793 286.016 11.3105 286.016 12.6348ZM284.961 12.6699C284.961 11.5527 284.68 10.7109 284.117 10.1445C283.559 9.57812 282.727 9.29492 281.621 9.29492H280.174V16.1387H281.387C282.574 16.1387 283.467 15.8477 284.064 15.2656C284.662 14.6797 284.961 13.8145 284.961 12.6699ZM290.498 17.1172C289.549 17.1172 288.799 16.8281 288.248 16.25C287.701 15.6719 287.428 14.8691 287.428 13.8418C287.428 12.8066 287.682 11.9844 288.189 11.375C288.701 10.7656 289.387 10.4609 290.246 10.4609C291.051 10.4609 291.688 10.7266 292.156 11.2578C292.625 11.7852 292.859 12.4824 292.859 13.3496V13.9648H288.436C288.455 14.7188 288.645 15.291 289.004 15.6816C289.367 16.0723 289.877 16.2676 290.533 16.2676C291.225 16.2676 291.908 16.123 292.584 15.834V16.7012C292.24 16.8496 291.914 16.9551 291.605 17.0176C291.301 17.084 290.932 17.1172 290.498 17.1172ZM290.234 11.2754C289.719 11.2754 289.307 11.4434 288.998 11.7793C288.693 12.1152 288.514 12.5801 288.459 13.1738H291.816C291.816 12.5605 291.68 12.0918 291.406 11.7676C291.133 11.4395 290.742 11.2754 290.234 11.2754ZM298.666 15.248C298.666 15.8457 298.443 16.3066 297.998 16.6309C297.553 16.9551 296.928 17.1172 296.123 17.1172C295.271 17.1172 294.607 16.9824 294.131 16.7129V15.8105C294.439 15.9668 294.77 16.0898 295.121 16.1797C295.477 16.2695 295.818 16.3145 296.146 16.3145C296.654 16.3145 297.045 16.2344 297.318 16.0742C297.592 15.9102 297.729 15.6621 297.729 15.3301C297.729 15.0801 297.619 14.8672 297.4 14.6914C297.186 14.5117 296.764 14.3008 296.135 14.0586C295.537 13.8359 295.111 13.6426 294.857 13.4785C294.607 13.3105 294.42 13.1211 294.295 12.9102C294.174 12.6992 294.113 12.4473 294.113 12.1543C294.113 11.6309 294.326 11.2188 294.752 10.918C295.178 10.6133 295.762 10.4609 296.504 10.4609C297.195 10.4609 297.871 10.6016 298.531 10.8828L298.186 11.6738C297.541 11.4082 296.957 11.2754 296.434 11.2754C295.973 11.2754 295.625 11.3477 295.391 11.4922C295.156 11.6367 295.039 11.8359 295.039 12.0898C295.039 12.2617 295.082 12.4082 295.168 12.5293C295.258 12.6504 295.4 12.7656 295.596 12.875C295.791 12.9844 296.166 13.1426 296.721 13.3496C297.482 13.627 297.996 13.9062 298.262 14.1875C298.531 14.4688 298.666 14.8223 298.666 15.248ZM302.82 17.1172C301.891 17.1172 301.17 16.832 300.658 16.2617C300.15 15.6875 299.896 14.877 299.896 13.8301C299.896 12.7559 300.154 11.9258 300.67 11.3398C301.189 10.7539 301.928 10.4609 302.885 10.4609C303.193 10.4609 303.502 10.4941 303.811 10.5605C304.119 10.627 304.361 10.7051 304.537 10.7949L304.238 11.6211C304.023 11.5352 303.789 11.4648 303.535 11.4102C303.281 11.3516 303.057 11.3223 302.861 11.3223C301.557 11.3223 300.904 12.1543 300.904 13.8184C300.904 14.6074 301.062 15.2129 301.379 15.6348C301.699 16.0566 302.172 16.2676 302.797 16.2676C303.332 16.2676 303.881 16.1523 304.443 15.9219V16.7832C304.014 17.0059 303.473 17.1172 302.82 17.1172ZM308.902 10.4609C309.188 10.4609 309.443 10.4844 309.67 10.5312L309.535 11.4336C309.27 11.375 309.035 11.3457 308.832 11.3457C308.312 11.3457 307.867 11.5566 307.496 11.9785C307.129 12.4004 306.945 12.9258 306.945 13.5547V17H305.973V10.5781H306.775L306.887 11.7676H306.934C307.172 11.3496 307.459 11.0273 307.795 10.8008C308.131 10.5742 308.5 10.4609 308.902 10.4609ZM311.844 17H310.871V10.5781H311.844V17ZM310.789 8.83789C310.789 8.61523 310.844 8.45312 310.953 8.35156C311.062 8.24609 311.199 8.19336 311.363 8.19336C311.52 8.19336 311.654 8.24609 311.768 8.35156C311.881 8.45703 311.938 8.61914 311.938 8.83789C311.938 9.05664 311.881 9.2207 311.768 9.33008C311.654 9.43555 311.52 9.48828 311.363 9.48828C311.199 9.48828 311.062 9.43555 310.953 9.33008C310.844 9.2207 310.789 9.05664 310.789 8.83789ZM316.473 17.1172C315.543 17.1172 314.822 16.832 314.311 16.2617C313.803 15.6875 313.549 14.877 313.549 13.8301C313.549 12.7559 313.807 11.9258 314.322 11.3398C314.842 10.7539 315.58 10.4609 316.537 10.4609C316.846 10.4609 317.154 10.4941 317.463 10.5605C317.771 10.627 318.014 10.7051 318.189 10.7949L317.891 11.6211C317.676 11.5352 317.441 11.4648 317.188 11.4102C316.934 11.3516 316.709 11.3223 316.514 11.3223C315.209 11.3223 314.557 12.1543 314.557 13.8184C314.557 14.6074 314.715 15.2129 315.031 15.6348C315.352 16.0566 315.824 16.2676 316.449 16.2676C316.984 16.2676 317.533 16.1523 318.096 15.9219V16.7832C317.666 17.0059 317.125 17.1172 316.473 17.1172ZM317.34 18.6934C317.34 19.0723 317.189 19.3652 316.889 19.5723C316.592 19.7793 316.15 19.8828 315.564 19.8828C315.365 19.8828 315.178 19.8652 315.002 19.8301V19.209C315.178 19.2402 315.381 19.2559 315.611 19.2559C315.92 19.2559 316.152 19.2168 316.309 19.1387C316.469 19.0605 316.549 18.916 316.549 18.7051C316.549 18.5371 316.471 18.4004 316.314 18.2949C316.162 18.1934 315.873 18.1094 315.447 18.043L315.963 17H316.607L316.285 17.6738C316.988 17.8262 317.34 18.166 317.34 18.6934ZM323.574 17L323.381 16.0859H323.334C323.014 16.4883 322.693 16.7617 322.373 16.9062C322.057 17.0469 321.66 17.1172 321.184 17.1172C320.547 17.1172 320.047 16.9531 319.684 16.625C319.324 16.2969 319.145 15.8301 319.145 15.2246C319.145 13.9277 320.182 13.248 322.256 13.1855L323.346 13.1504V12.752C323.346 12.248 323.236 11.877 323.018 11.6387C322.803 11.3965 322.457 11.2754 321.98 11.2754C321.445 11.2754 320.84 11.4395 320.164 11.7676L319.865 11.0234C320.182 10.8516 320.527 10.7168 320.902 10.6191C321.281 10.5215 321.66 10.4727 322.039 10.4727C322.805 10.4727 323.371 10.6426 323.738 10.9824C324.109 11.3223 324.295 11.8672 324.295 12.6172V17H323.574ZM321.377 16.3145C321.982 16.3145 322.457 16.1484 322.801 15.8164C323.148 15.4844 323.322 15.0195 323.322 14.4219V13.8418L322.35 13.8828C321.576 13.9102 321.018 14.0312 320.674 14.2461C320.334 14.457 320.164 14.7871 320.164 15.2363C320.164 15.5879 320.27 15.8555 320.48 16.0391C320.695 16.2227 320.994 16.3145 321.377 16.3145ZM322.818 9.7168C322.65 9.7168 322.486 9.68164 322.326 9.61133C322.166 9.53711 322.008 9.45703 321.852 9.37109C321.699 9.28125 321.551 9.20117 321.406 9.13086C321.266 9.05664 321.129 9.01953 320.996 9.01953C320.801 9.01953 320.652 9.07812 320.551 9.19531C320.453 9.3125 320.377 9.49023 320.322 9.72852H319.748C319.799 9.25586 319.936 8.88672 320.158 8.62109C320.385 8.35156 320.676 8.2168 321.031 8.2168C321.211 8.2168 321.385 8.25391 321.553 8.32812C321.721 8.39844 321.881 8.47852 322.033 8.56836C322.186 8.6543 322.332 8.73438 322.473 8.80859C322.613 8.87891 322.746 8.91406 322.871 8.91406C323.062 8.91406 323.205 8.85742 323.299 8.74414C323.393 8.62695 323.469 8.44727 323.527 8.20508H324.107C324.057 8.67773 323.92 9.04883 323.697 9.31836C323.479 9.58398 323.186 9.7168 322.818 9.7168ZM331.848 13.7832C331.848 14.8301 331.584 15.6484 331.057 16.2383C330.529 16.8242 329.801 17.1172 328.871 17.1172C328.297 17.1172 327.787 16.9824 327.342 16.7129C326.896 16.4434 326.553 16.0566 326.311 15.5527C326.068 15.0488 325.947 14.459 325.947 13.7832C325.947 12.7363 326.209 11.9219 326.732 11.3398C327.256 10.7539 327.982 10.4609 328.912 10.4609C329.811 10.4609 330.523 10.7598 331.051 11.3574C331.582 11.9551 331.848 12.7637 331.848 13.7832ZM326.955 13.7832C326.955 14.6035 327.119 15.2285 327.447 15.6582C327.775 16.0879 328.258 16.3027 328.895 16.3027C329.531 16.3027 330.014 16.0898 330.342 15.6641C330.674 15.2344 330.84 14.6074 330.84 13.7832C330.84 12.9668 330.674 12.3477 330.342 11.9258C330.014 11.5 329.527 11.2871 328.883 11.2871C328.246 11.2871 327.766 11.4961 327.441 11.9141C327.117 12.332 326.955 12.9551 326.955 13.7832Z" fill="#757B89"/>
<circle cx="393" cy="12" r="11.5" stroke="#BCC2CF"/>
<path d="M395.725 14.7031H394.241V17H393.154V14.7031H388.294V13.7119L393.038 6.95117H394.241V13.6709H395.725V14.7031ZM393.154 13.6709V10.3486C393.154 9.69694 393.177 8.96094 393.223 8.14062H393.168C392.949 8.57812 392.744 8.94043 392.553 9.22754L389.429 13.6709H393.154Z" fill="#757B89"/>
<path d="M413.846 9.20117C412.904 9.20117 412.16 9.51562 411.613 10.1445C411.07 10.7695 410.799 11.627 410.799 12.7168C410.799 13.8379 411.061 14.7051 411.584 15.3184C412.111 15.9277 412.861 16.2324 413.834 16.2324C414.432 16.2324 415.113 16.125 415.879 15.9102V16.7832C415.285 17.0059 414.553 17.1172 413.682 17.1172C412.42 17.1172 411.445 16.7344 410.758 15.9688C410.074 15.2031 409.732 14.1152 409.732 12.7051C409.732 11.8223 409.896 11.0488 410.225 10.3848C410.557 9.7207 411.033 9.20898 411.654 8.84961C412.279 8.49023 413.014 8.31055 413.857 8.31055C414.756 8.31055 415.541 8.47461 416.213 8.80273L415.791 9.6582C415.143 9.35352 414.494 9.20117 413.846 9.20117ZM421.551 17L421.357 16.0859H421.311C420.99 16.4883 420.67 16.7617 420.35 16.9062C420.033 17.0469 419.637 17.1172 419.16 17.1172C418.523 17.1172 418.023 16.9531 417.66 16.625C417.301 16.2969 417.121 15.8301 417.121 15.2246C417.121 13.9277 418.158 13.248 420.232 13.1855L421.322 13.1504V12.752C421.322 12.248 421.213 11.877 420.994 11.6387C420.779 11.3965 420.434 11.2754 419.957 11.2754C419.422 11.2754 418.816 11.4395 418.141 11.7676L417.842 11.0234C418.158 10.8516 418.504 10.7168 418.879 10.6191C419.258 10.5215 419.637 10.4727 420.016 10.4727C420.781 10.4727 421.348 10.6426 421.715 10.9824C422.086 11.3223 422.271 11.8672 422.271 12.6172V17H421.551ZM419.354 16.3145C419.959 16.3145 420.434 16.1484 420.777 15.8164C421.125 15.4844 421.299 15.0195 421.299 14.4219V13.8418L420.326 13.8828C419.553 13.9102 418.994 14.0312 418.65 14.2461C418.311 14.457 418.141 14.7871 418.141 15.2363C418.141 15.5879 418.246 15.8555 418.457 16.0391C418.672 16.2227 418.971 16.3145 419.354 16.3145ZM427.211 10.4609C427.496 10.4609 427.752 10.4844 427.979 10.5312L427.844 11.4336C427.578 11.375 427.344 11.3457 427.141 11.3457C426.621 11.3457 426.176 11.5566 425.805 11.9785C425.438 12.4004 425.254 12.9258 425.254 13.5547V17H424.281V10.5781H425.084L425.195 11.7676H425.242C425.48 11.3496 425.768 11.0273 426.104 10.8008C426.439 10.5742 426.809 10.4609 427.211 10.4609ZM433.129 17L432.936 16.0859H432.889C432.568 16.4883 432.248 16.7617 431.928 16.9062C431.611 17.0469 431.215 17.1172 430.738 17.1172C430.102 17.1172 429.602 16.9531 429.238 16.625C428.879 16.2969 428.699 15.8301 428.699 15.2246C428.699 13.9277 429.736 13.248 431.811 13.1855L432.9 13.1504V12.752C432.9 12.248 432.791 11.877 432.572 11.6387C432.357 11.3965 432.012 11.2754 431.535 11.2754C431 11.2754 430.395 11.4395 429.719 11.7676L429.42 11.0234C429.736 10.8516 430.082 10.7168 430.457 10.6191C430.836 10.5215 431.215 10.4727 431.594 10.4727C432.359 10.4727 432.926 10.6426 433.293 10.9824C433.664 11.3223 433.85 11.8672 433.85 12.6172V17H433.129ZM430.932 16.3145C431.537 16.3145 432.012 16.1484 432.355 15.8164C432.703 15.4844 432.877 15.0195 432.877 14.4219V13.8418L431.904 13.8828C431.131 13.9102 430.572 14.0312 430.229 14.2461C429.889 14.457 429.719 14.7871 429.719 15.2363C429.719 15.5879 429.824 15.8555 430.035 16.0391C430.25 16.2227 430.549 16.3145 430.932 16.3145ZM438.426 17.1172C437.496 17.1172 436.775 16.832 436.264 16.2617C435.756 15.6875 435.502 14.877 435.502 13.8301C435.502 12.7559 435.76 11.9258 436.275 11.3398C436.795 10.7539 437.533 10.4609 438.49 10.4609C438.799 10.4609 439.107 10.4941 439.416 10.5605C439.725 10.627 439.967 10.7051 440.143 10.7949L439.844 11.6211C439.629 11.5352 439.395 11.4648 439.141 11.4102C438.887 11.3516 438.662 11.3223 438.467 11.3223C437.162 11.3223 436.51 12.1543 436.51 13.8184C436.51 14.6074 436.668 15.2129 436.984 15.6348C437.305 16.0566 437.777 16.2676 438.402 16.2676C438.938 16.2676 439.486 16.1523 440.049 15.9219V16.7832C439.619 17.0059 439.078 17.1172 438.426 17.1172ZM443.652 16.3145C443.824 16.3145 443.99 16.3027 444.15 16.2793C444.311 16.252 444.438 16.2246 444.531 16.1973V16.9414C444.426 16.9922 444.27 17.0332 444.062 17.0645C443.859 17.0996 443.676 17.1172 443.512 17.1172C442.27 17.1172 441.648 16.4629 441.648 15.1543V11.334H440.729V10.8652L441.648 10.4609L442.059 9.08984H442.621V10.5781H444.484V11.334H442.621V15.1133C442.621 15.5 442.713 15.7969 442.896 16.0039C443.08 16.2109 443.332 16.3145 443.652 16.3145ZM448.533 17.1172C447.584 17.1172 446.834 16.8281 446.283 16.25C445.736 15.6719 445.463 14.8691 445.463 13.8418C445.463 12.8066 445.717 11.9844 446.225 11.375C446.736 10.7656 447.422 10.4609 448.281 10.4609C449.086 10.4609 449.723 10.7266 450.191 11.2578C450.66 11.7852 450.895 12.4824 450.895 13.3496V13.9648H446.471C446.49 14.7188 446.68 15.291 447.039 15.6816C447.402 16.0723 447.912 16.2676 448.568 16.2676C449.26 16.2676 449.943 16.123 450.619 15.834V16.7012C450.275 16.8496 449.949 16.9551 449.641 17.0176C449.336 17.084 448.967 17.1172 448.533 17.1172ZM448.27 11.2754C447.754 11.2754 447.342 11.4434 447.033 11.7793C446.729 12.1152 446.549 12.5801 446.494 13.1738H449.852C449.852 12.5605 449.715 12.0918 449.441 11.7676C449.168 11.4395 448.777 11.2754 448.27 11.2754ZM455.488 10.4609C455.773 10.4609 456.029 10.4844 456.256 10.5312L456.121 11.4336C455.855 11.375 455.621 11.3457 455.418 11.3457C454.898 11.3457 454.453 11.5566 454.082 11.9785C453.715 12.4004 453.531 12.9258 453.531 13.5547V17H452.559V10.5781H453.361L453.473 11.7676H453.52C453.758 11.3496 454.045 11.0273 454.381 10.8008C454.717 10.5742 455.086 10.4609 455.488 10.4609ZM458.43 17H457.457V10.5781H458.43V17ZM457.416 9.58203C457.604 9.33984 457.805 9.04688 458.02 8.70312C458.238 8.35938 458.41 8.06055 458.535 7.80664H459.719V7.92969C459.547 8.18359 459.291 8.49609 458.951 8.86719C458.611 9.23828 458.316 9.52539 458.066 9.72852H457.416V9.58203ZM464.635 15.248C464.635 15.8457 464.412 16.3066 463.967 16.6309C463.521 16.9551 462.896 17.1172 462.092 17.1172C461.24 17.1172 460.576 16.9824 460.1 16.7129V15.8105C460.408 15.9668 460.738 16.0898 461.09 16.1797C461.445 16.2695 461.787 16.3145 462.115 16.3145C462.623 16.3145 463.014 16.2344 463.287 16.0742C463.561 15.9102 463.697 15.6621 463.697 15.3301C463.697 15.0801 463.588 14.8672 463.369 14.6914C463.154 14.5117 462.732 14.3008 462.104 14.0586C461.506 13.8359 461.08 13.6426 460.826 13.4785C460.576 13.3105 460.389 13.1211 460.264 12.9102C460.143 12.6992 460.082 12.4473 460.082 12.1543C460.082 11.6309 460.295 11.2188 460.721 10.918C461.146 10.6133 461.73 10.4609 462.473 10.4609C463.164 10.4609 463.84 10.6016 464.5 10.8828L464.154 11.6738C463.51 11.4082 462.926 11.2754 462.402 11.2754C461.941 11.2754 461.594 11.3477 461.359 11.4922C461.125 11.6367 461.008 11.8359 461.008 12.0898C461.008 12.2617 461.051 12.4082 461.137 12.5293C461.227 12.6504 461.369 12.7656 461.564 12.875C461.76 12.9844 462.135 13.1426 462.689 13.3496C463.451 13.627 463.965 13.9062 464.23 14.1875C464.5 14.4688 464.635 14.8223 464.635 15.248ZM468.297 16.3145C468.469 16.3145 468.635 16.3027 468.795 16.2793C468.955 16.252 469.082 16.2246 469.176 16.1973V16.9414C469.07 16.9922 468.914 17.0332 468.707 17.0645C468.504 17.0996 468.32 17.1172 468.156 17.1172C466.914 17.1172 466.293 16.4629 466.293 15.1543V11.334H465.373V10.8652L466.293 10.4609L466.703 9.08984H467.266V10.5781H469.129V11.334H467.266V15.1133C467.266 15.5 467.357 15.7969 467.541 16.0039C467.725 16.2109 467.977 16.3145 468.297 16.3145ZM471.438 17H470.465V10.5781H471.438V17ZM470.383 8.83789C470.383 8.61523 470.438 8.45312 470.547 8.35156C470.656 8.24609 470.793 8.19336 470.957 8.19336C471.113 8.19336 471.248 8.24609 471.361 8.35156C471.475 8.45703 471.531 8.61914 471.531 8.83789C471.531 9.05664 471.475 9.2207 471.361 9.33008C471.248 9.43555 471.113 9.48828 470.957 9.48828C470.793 9.48828 470.656 9.43555 470.547 9.33008C470.438 9.2207 470.383 9.05664 470.383 8.83789ZM476.066 17.1172C475.137 17.1172 474.416 16.832 473.904 16.2617C473.396 15.6875 473.143 14.877 473.143 13.8301C473.143 12.7559 473.4 11.9258 473.916 11.3398C474.436 10.7539 475.174 10.4609 476.131 10.4609C476.439 10.4609 476.748 10.4941 477.057 10.5605C477.365 10.627 477.607 10.7051 477.783 10.7949L477.484 11.6211C477.27 11.5352 477.035 11.4648 476.781 11.4102C476.527 11.3516 476.303 11.3223 476.107 11.3223C474.803 11.3223 474.15 12.1543 474.15 13.8184C474.15 14.6074 474.309 15.2129 474.625 15.6348C474.945 16.0566 475.418 16.2676 476.043 16.2676C476.578 16.2676 477.127 16.1523 477.689 15.9219V16.7832C477.26 17.0059 476.719 17.1172 476.066 17.1172ZM483.168 17L482.975 16.0859H482.928C482.607 16.4883 482.287 16.7617 481.967 16.9062C481.65 17.0469 481.254 17.1172 480.777 17.1172C480.141 17.1172 479.641 16.9531 479.277 16.625C478.918 16.2969 478.738 15.8301 478.738 15.2246C478.738 13.9277 479.775 13.248 481.85 13.1855L482.939 13.1504V12.752C482.939 12.248 482.83 11.877 482.611 11.6387C482.396 11.3965 482.051 11.2754 481.574 11.2754C481.039 11.2754 480.434 11.4395 479.758 11.7676L479.459 11.0234C479.775 10.8516 480.121 10.7168 480.496 10.6191C480.875 10.5215 481.254 10.4727 481.633 10.4727C482.398 10.4727 482.965 10.6426 483.332 10.9824C483.703 11.3223 483.889 11.8672 483.889 12.6172V17H483.168ZM480.971 16.3145C481.576 16.3145 482.051 16.1484 482.395 15.8164C482.742 15.4844 482.916 15.0195 482.916 14.4219V13.8418L481.943 13.8828C481.17 13.9102 480.611 14.0312 480.268 14.2461C479.928 14.457 479.758 14.7871 479.758 15.2363C479.758 15.5879 479.863 15.8555 480.074 16.0391C480.289 16.2227 480.588 16.3145 480.971 16.3145ZM490.041 15.248C490.041 15.8457 489.818 16.3066 489.373 16.6309C488.928 16.9551 488.303 17.1172 487.498 17.1172C486.646 17.1172 485.982 16.9824 485.506 16.7129V15.8105C485.814 15.9668 486.145 16.0898 486.496 16.1797C486.852 16.2695 487.193 16.3145 487.521 16.3145C488.029 16.3145 488.42 16.2344 488.693 16.0742C488.967 15.9102 489.104 15.6621 489.104 15.3301C489.104 15.0801 488.994 14.8672 488.775 14.6914C488.561 14.5117 488.139 14.3008 487.51 14.0586C486.912 13.8359 486.486 13.6426 486.232 13.4785C485.982 13.3105 485.795 13.1211 485.67 12.9102C485.549 12.6992 485.488 12.4473 485.488 12.1543C485.488 11.6309 485.701 11.2188 486.127 10.918C486.553 10.6133 487.137 10.4609 487.879 10.4609C488.57 10.4609 489.246 10.6016 489.906 10.8828L489.561 11.6738C488.916 11.4082 488.332 11.2754 487.809 11.2754C487.348 11.2754 487 11.3477 486.766 11.4922C486.531 11.6367 486.414 11.8359 486.414 12.0898C486.414 12.2617 486.457 12.4082 486.543 12.5293C486.633 12.6504 486.775 12.7656 486.971 12.875C487.166 12.9844 487.541 13.1426 488.096 13.3496C488.857 13.627 489.371 13.9062 489.637 14.1875C489.906 14.4688 490.041 14.8223 490.041 15.248Z" fill="#757B89"/>
<circle cx="553" cy="12" r="11.5" stroke="#BCC2CF"/>
<path d="M551.808 10.8955C552.86 10.8955 553.688 11.1576 554.289 11.6816C554.895 12.2012 555.198 12.9144 555.198 13.8213C555.198 14.8558 554.868 15.667 554.207 16.2549C553.551 16.8428 552.644 17.1367 551.486 17.1367C550.361 17.1367 549.502 16.9567 548.909 16.5967V15.5029C549.228 15.708 549.625 15.8698 550.099 15.9883C550.573 16.1022 551.04 16.1592 551.5 16.1592C552.302 16.1592 552.924 15.9701 553.366 15.5918C553.813 15.2135 554.036 14.6667 554.036 13.9512C554.036 12.5566 553.182 11.8594 551.473 11.8594C551.04 11.8594 550.461 11.9255 549.736 12.0576L549.148 11.6816L549.524 7.00586H554.494V8.05176H550.495L550.242 11.0527C550.766 10.9479 551.288 10.8955 551.808 10.8955Z" fill="#757B89"/>
<path d="M571.174 17H570.178V8.43359H574.953V9.31836H571.174V12.4531H574.725V13.3379H571.174V17ZM581.773 13.7832C581.773 14.8301 581.51 15.6484 580.982 16.2383C580.455 16.8242 579.727 17.1172 578.797 17.1172C578.223 17.1172 577.713 16.9824 577.268 16.7129C576.822 16.4434 576.479 16.0566 576.236 15.5527C575.994 15.0488 575.873 14.459 575.873 13.7832C575.873 12.7363 576.135 11.9219 576.658 11.3398C577.182 10.7539 577.908 10.4609 578.838 10.4609C579.736 10.4609 580.449 10.7598 580.977 11.3574C581.508 11.9551 581.773 12.7637 581.773 13.7832ZM576.881 13.7832C576.881 14.6035 577.045 15.2285 577.373 15.6582C577.701 16.0879 578.184 16.3027 578.82 16.3027C579.457 16.3027 579.939 16.0898 580.268 15.6641C580.6 15.2344 580.766 14.6074 580.766 13.7832C580.766 12.9668 580.6 12.3477 580.268 11.9258C579.939 11.5 579.453 11.2871 578.809 11.2871C578.172 11.2871 577.691 11.4961 577.367 11.9141C577.043 12.332 576.881 12.9551 576.881 13.7832ZM585.559 16.3145C585.73 16.3145 585.896 16.3027 586.057 16.2793C586.217 16.252 586.344 16.2246 586.438 16.1973V16.9414C586.332 16.9922 586.176 17.0332 585.969 17.0645C585.766 17.0996 585.582 17.1172 585.418 17.1172C584.176 17.1172 583.555 16.4629 583.555 15.1543V11.334H582.635V10.8652L583.555 10.4609L583.965 9.08984H584.527V10.5781H586.391V11.334H584.527V15.1133C584.527 15.5 584.619 15.7969 584.803 16.0039C584.986 16.2109 585.238 16.3145 585.559 16.3145ZM593.27 13.7832C593.27 14.8301 593.006 15.6484 592.479 16.2383C591.951 16.8242 591.223 17.1172 590.293 17.1172C589.719 17.1172 589.209 16.9824 588.764 16.7129C588.318 16.4434 587.975 16.0566 587.732 15.5527C587.49 15.0488 587.369 14.459 587.369 13.7832C587.369 12.7363 587.631 11.9219 588.154 11.3398C588.678 10.7539 589.404 10.4609 590.334 10.4609C591.232 10.4609 591.945 10.7598 592.473 11.3574C593.004 11.9551 593.27 12.7637 593.27 13.7832ZM588.377 13.7832C588.377 14.6035 588.541 15.2285 588.869 15.6582C589.197 16.0879 589.68 16.3027 590.316 16.3027C590.953 16.3027 591.436 16.0898 591.764 15.6641C592.096 15.2344 592.262 14.6074 592.262 13.7832C592.262 12.9668 592.096 12.3477 591.764 11.9258C591.436 11.5 590.949 11.2871 590.305 11.2871C589.668 11.2871 589.188 11.4961 588.863 11.9141C588.539 12.332 588.377 12.9551 588.377 13.7832ZM599.123 15.248C599.123 15.8457 598.9 16.3066 598.455 16.6309C598.01 16.9551 597.385 17.1172 596.58 17.1172C595.729 17.1172 595.064 16.9824 594.588 16.7129V15.8105C594.896 15.9668 595.227 16.0898 595.578 16.1797C595.934 16.2695 596.275 16.3145 596.604 16.3145C597.111 16.3145 597.502 16.2344 597.775 16.0742C598.049 15.9102 598.186 15.6621 598.186 15.3301C598.186 15.0801 598.076 14.8672 597.857 14.6914C597.643 14.5117 597.221 14.3008 596.592 14.0586C595.994 13.8359 595.568 13.6426 595.314 13.4785C595.064 13.3105 594.877 13.1211 594.752 12.9102C594.631 12.6992 594.57 12.4473 594.57 12.1543C594.57 11.6309 594.783 11.2188 595.209 10.918C595.635 10.6133 596.219 10.4609 596.961 10.4609C597.652 10.4609 598.328 10.6016 598.988 10.8828L598.643 11.6738C597.998 11.4082 597.414 11.2754 596.891 11.2754C596.43 11.2754 596.082 11.3477 595.848 11.4922C595.613 11.6367 595.496 11.8359 595.496 12.0898C595.496 12.2617 595.539 12.4082 595.625 12.5293C595.715 12.6504 595.857 12.7656 596.053 12.875C596.248 12.9844 596.623 13.1426 597.178 13.3496C597.939 13.627 598.453 13.9062 598.719 14.1875C598.988 14.4688 599.123 14.8223 599.123 15.248Z" fill="#757B89"/>
<rect x="498" y="13" width="40" height="1" fill="#BCC2CF"/>
<rect x="87" y="13" width="40" height="1" fill="#BCC2CF"/>
<rect x="205" y="13" width="40" height="1" fill="#BCC2CF"/>
<rect x="338" y="13" width="40" height="1" fill="#BCC2CF"/>
<circle cx="12" cy="13" r="12" fill="#00C1B4"/>
<path d="M7 12.6268L10.3759 16L16.3824 10" stroke="white" stroke-width="2" stroke-linecap="round" stroke-linejoin="round"/>
</svg>
