<svg width="600" height="25" viewBox="0 0 600 25" fill="none" xmlns="http://www.w3.org/2000/svg">
<path d="M34.9766 17H30.1309V8.43359H34.9766V9.61719H31.5312V11.9492H34.7598V13.1211H31.5312V15.8105H34.9766V17ZM42.3887 17H41.0059V13.0156C41.0059 12.5156 40.9043 12.1426 40.7012 11.8965C40.502 11.6504 40.1836 11.5273 39.7461 11.5273C39.1641 11.5273 38.7383 11.6992 38.4688 12.043C38.1992 12.3867 38.0645 12.9629 38.0645 13.7715V17H36.6875V10.5195H37.7656L37.959 11.3691H38.0293C38.2246 11.0605 38.502 10.8223 38.8613 10.6543C39.2207 10.4863 39.6191 10.4023 40.0566 10.4023C41.6113 10.4023 42.3887 11.1934 42.3887 12.7754V17ZM46.4902 17.1172C45.6816 17.1172 45.0508 16.8242 44.5977 16.2383C44.1445 15.6523 43.918 14.8301 43.918 13.7715C43.918 12.709 44.1465 11.8828 44.6035 11.293C45.0645 10.6992 45.7012 10.4023 46.5137 10.4023C47.3652 10.4023 48.0137 10.7168 48.459 11.3457H48.5293C48.4629 10.8809 48.4297 10.5137 48.4297 10.2441V7.88281H49.8125V17H48.7344L48.4941 16.1504H48.4297C47.9883 16.7949 47.3418 17.1172 46.4902 17.1172ZM46.8594 16.0039C47.4258 16.0039 47.8379 15.8457 48.0957 15.5293C48.3535 15.209 48.4863 14.6914 48.4941 13.9766V13.7832C48.4941 12.9668 48.3613 12.3867 48.0957 12.043C47.8301 11.6992 47.4141 11.5273 46.8477 11.5273C46.3633 11.5273 45.9902 11.7246 45.7285 12.1191C45.4668 12.5098 45.3359 13.0684 45.3359 13.7949C45.3359 14.5137 45.4629 15.0625 45.7168 15.4414C45.9707 15.8164 46.3516 16.0039 46.8594 16.0039ZM54.6113 17.1172C53.6035 17.1172 52.8145 16.8242 52.2441 16.2383C51.6777 15.6484 51.3945 14.8379 51.3945 13.8066C51.3945 12.748 51.6582 11.916 52.1855 11.3105C52.7129 10.7051 53.4375 10.4023 54.3594 10.4023C55.2148 10.4023 55.8906 10.6621 56.3867 11.1816C56.8828 11.7012 57.1309 12.416 57.1309 13.3262V14.0703H52.8125C52.832 14.6992 53.002 15.1836 53.3223 15.5234C53.6426 15.8594 54.0938 16.0273 54.6758 16.0273C55.0586 16.0273 55.4141 15.9922 55.7422 15.9219C56.0742 15.8477 56.4297 15.7266 56.8086 15.5586V16.6777C56.4727 16.8379 56.1328 16.9512 55.7891 17.0176C55.4453 17.084 55.0527 17.1172 54.6113 17.1172ZM54.3594 11.4453C53.9219 11.4453 53.5703 11.584 53.3047 11.8613C53.043 12.1387 52.8867 12.543 52.8359 13.0742H55.7773C55.7695 12.5391 55.6406 12.1348 55.3906 11.8613C55.1406 11.584 54.7969 11.4453 54.3594 11.4453ZM61.9824 10.4023C62.2598 10.4023 62.4883 10.4219 62.668 10.4609L62.5332 11.7441C62.3379 11.6973 62.1348 11.6738 61.9238 11.6738C61.373 11.6738 60.9258 11.8535 60.582 12.2129C60.2422 12.5723 60.0723 13.0391 60.0723 13.6133V17H58.6953V10.5195H59.7734L59.9551 11.6621H60.0254C60.2402 11.2754 60.5195 10.9688 60.8633 10.7422C61.2109 10.5156 61.584 10.4023 61.9824 10.4023ZM66.7051 17.1172C65.6973 17.1172 64.9082 16.8242 64.3379 16.2383C63.7715 15.6484 63.4883 14.8379 63.4883 13.8066C63.4883 12.748 63.752 11.916 64.2793 11.3105C64.8066 10.7051 65.5312 10.4023 66.4531 10.4023C67.3086 10.4023 67.9844 10.6621 68.4805 11.1816C68.9766 11.7012 69.2246 12.416 69.2246 13.3262V14.0703H64.9062C64.9258 14.6992 65.0957 15.1836 65.416 15.5234C65.7363 15.8594 66.1875 16.0273 66.7695 16.0273C67.1523 16.0273 67.5078 15.9922 67.8359 15.9219C68.168 15.8477 68.5234 15.7266 68.9023 15.5586V16.6777C68.5664 16.8379 68.2266 16.9512 67.8828 17.0176C67.5391 17.084 67.1465 17.1172 66.7051 17.1172ZM66.4531 11.4453C66.0156 11.4453 65.6641 11.584 65.3984 11.8613C65.1367 12.1387 64.9805 12.543 64.9297 13.0742H67.8711C67.8633 12.5391 67.7344 12.1348 67.4844 11.8613C67.2344 11.584 66.8906 11.4453 66.4531 11.4453ZM73.4023 17.1172C72.4219 17.1172 71.6758 16.832 71.1641 16.2617C70.6562 15.6875 70.4023 14.8652 70.4023 13.7949C70.4023 12.7051 70.668 11.8672 71.1992 11.2812C71.7344 10.6953 72.5059 10.4023 73.5137 10.4023C74.1973 10.4023 74.8125 10.5293 75.3594 10.7832L74.9434 11.8906C74.3613 11.6641 73.8809 11.5508 73.502 11.5508C72.3809 11.5508 71.8203 12.2949 71.8203 13.7832C71.8203 14.5098 71.959 15.0566 72.2363 15.4238C72.5176 15.7871 72.9277 15.9688 73.4668 15.9688C74.0801 15.9688 74.6602 15.8164 75.207 15.5117V16.7129C74.9609 16.8574 74.6973 16.9609 74.416 17.0234C74.1387 17.0859 73.8008 17.1172 73.4023 17.1172ZM74.3867 18.582C74.3867 19.4492 73.791 19.8828 72.5996 19.8828C72.3418 19.8828 72.1055 19.8535 71.8906 19.7949V18.9922C72.1016 19.0469 72.3418 19.0742 72.6113 19.0742C72.8223 19.0742 72.9883 19.041 73.1094 18.9746C73.2344 18.9121 73.2969 18.793 73.2969 18.6172C73.2969 18.2852 72.9473 18.0703 72.248 17.9727L72.7402 17H73.6309L73.3906 17.5156C73.7031 17.5977 73.9473 17.7305 74.123 17.9141C74.2988 18.1016 74.3867 18.3242 74.3867 18.582ZM82.4785 13.748C82.4785 14.8066 82.207 15.6328 81.6641 16.2266C81.1211 16.8203 80.3652 17.1172 79.3965 17.1172C78.791 17.1172 78.2559 16.9805 77.791 16.707C77.3262 16.4336 76.9688 16.041 76.7188 15.5293C76.4688 15.0176 76.3438 14.4238 76.3438 13.748C76.3438 12.6973 76.6133 11.877 77.1523 11.2871C77.6914 10.6973 78.4512 10.4023 79.4316 10.4023C80.3691 10.4023 81.1113 10.7051 81.6582 11.3105C82.2051 11.9121 82.4785 12.7246 82.4785 13.748ZM77.7617 13.748C77.7617 15.2441 78.3145 15.9922 79.4199 15.9922C80.5137 15.9922 81.0605 15.2441 81.0605 13.748C81.0605 12.2676 80.5098 11.5273 79.4082 11.5273C78.8301 11.5273 78.4102 11.7188 78.1484 12.1016C77.8906 12.4844 77.7617 13.0332 77.7617 13.748Z" fill="#00C1B4"/>
<circle cx="396" cy="12" r="12" fill="#0E97F7"/>
<path d="M399.725 14.7031H398.241V17H397.154V14.7031H392.294V13.7119L397.038 6.95117H398.241V13.6709H399.725V14.7031ZM397.154 13.6709V10.3486C397.154 9.69694 397.177 8.96094 397.223 8.14062H397.168C396.949 8.57812 396.744 8.94043 396.553 9.22754L393.429 13.6709H397.154Z" fill="white"/>
<path d="M416.846 9.20117C415.904 9.20117 415.16 9.51562 414.613 10.1445C414.07 10.7695 413.799 11.627 413.799 12.7168C413.799 13.8379 414.061 14.7051 414.584 15.3184C415.111 15.9277 415.861 16.2324 416.834 16.2324C417.432 16.2324 418.113 16.125 418.879 15.9102V16.7832C418.285 17.0059 417.553 17.1172 416.682 17.1172C415.42 17.1172 414.445 16.7344 413.758 15.9688C413.074 15.2031 412.732 14.1152 412.732 12.7051C412.732 11.8223 412.896 11.0488 413.225 10.3848C413.557 9.7207 414.033 9.20898 414.654 8.84961C415.279 8.49023 416.014 8.31055 416.857 8.31055C417.756 8.31055 418.541 8.47461 419.213 8.80273L418.791 9.6582C418.143 9.35352 417.494 9.20117 416.846 9.20117ZM424.551 17L424.357 16.0859H424.311C423.99 16.4883 423.67 16.7617 423.35 16.9062C423.033 17.0469 422.637 17.1172 422.16 17.1172C421.523 17.1172 421.023 16.9531 420.66 16.625C420.301 16.2969 420.121 15.8301 420.121 15.2246C420.121 13.9277 421.158 13.248 423.232 13.1855L424.322 13.1504V12.752C424.322 12.248 424.213 11.877 423.994 11.6387C423.779 11.3965 423.434 11.2754 422.957 11.2754C422.422 11.2754 421.816 11.4395 421.141 11.7676L420.842 11.0234C421.158 10.8516 421.504 10.7168 421.879 10.6191C422.258 10.5215 422.637 10.4727 423.016 10.4727C423.781 10.4727 424.348 10.6426 424.715 10.9824C425.086 11.3223 425.271 11.8672 425.271 12.6172V17H424.551ZM422.354 16.3145C422.959 16.3145 423.434 16.1484 423.777 15.8164C424.125 15.4844 424.299 15.0195 424.299 14.4219V13.8418L423.326 13.8828C422.553 13.9102 421.994 14.0312 421.65 14.2461C421.311 14.457 421.141 14.7871 421.141 15.2363C421.141 15.5879 421.246 15.8555 421.457 16.0391C421.672 16.2227 421.971 16.3145 422.354 16.3145ZM430.211 10.4609C430.496 10.4609 430.752 10.4844 430.979 10.5312L430.844 11.4336C430.578 11.375 430.344 11.3457 430.141 11.3457C429.621 11.3457 429.176 11.5566 428.805 11.9785C428.438 12.4004 428.254 12.9258 428.254 13.5547V17H427.281V10.5781H428.084L428.195 11.7676H428.242C428.48 11.3496 428.768 11.0273 429.104 10.8008C429.439 10.5742 429.809 10.4609 430.211 10.4609ZM436.129 17L435.936 16.0859H435.889C435.568 16.4883 435.248 16.7617 434.928 16.9062C434.611 17.0469 434.215 17.1172 433.738 17.1172C433.102 17.1172 432.602 16.9531 432.238 16.625C431.879 16.2969 431.699 15.8301 431.699 15.2246C431.699 13.9277 432.736 13.248 434.811 13.1855L435.9 13.1504V12.752C435.9 12.248 435.791 11.877 435.572 11.6387C435.357 11.3965 435.012 11.2754 434.535 11.2754C434 11.2754 433.395 11.4395 432.719 11.7676L432.42 11.0234C432.736 10.8516 433.082 10.7168 433.457 10.6191C433.836 10.5215 434.215 10.4727 434.594 10.4727C435.359 10.4727 435.926 10.6426 436.293 10.9824C436.664 11.3223 436.85 11.8672 436.85 12.6172V17H436.129ZM433.932 16.3145C434.537 16.3145 435.012 16.1484 435.355 15.8164C435.703 15.4844 435.877 15.0195 435.877 14.4219V13.8418L434.904 13.8828C434.131 13.9102 433.572 14.0312 433.229 14.2461C432.889 14.457 432.719 14.7871 432.719 15.2363C432.719 15.5879 432.824 15.8555 433.035 16.0391C433.25 16.2227 433.549 16.3145 433.932 16.3145ZM441.426 17.1172C440.496 17.1172 439.775 16.832 439.264 16.2617C438.756 15.6875 438.502 14.877 438.502 13.8301C438.502 12.7559 438.76 11.9258 439.275 11.3398C439.795 10.7539 440.533 10.4609 441.49 10.4609C441.799 10.4609 442.107 10.4941 442.416 10.5605C442.725 10.627 442.967 10.7051 443.143 10.7949L442.844 11.6211C442.629 11.5352 442.395 11.4648 442.141 11.4102C441.887 11.3516 441.662 11.3223 441.467 11.3223C440.162 11.3223 439.51 12.1543 439.51 13.8184C439.51 14.6074 439.668 15.2129 439.984 15.6348C440.305 16.0566 440.777 16.2676 441.402 16.2676C441.938 16.2676 442.486 16.1523 443.049 15.9219V16.7832C442.619 17.0059 442.078 17.1172 441.426 17.1172ZM446.652 16.3145C446.824 16.3145 446.99 16.3027 447.15 16.2793C447.311 16.252 447.438 16.2246 447.531 16.1973V16.9414C447.426 16.9922 447.27 17.0332 447.062 17.0645C446.859 17.0996 446.676 17.1172 446.512 17.1172C445.27 17.1172 444.648 16.4629 444.648 15.1543V11.334H443.729V10.8652L444.648 10.4609L445.059 9.08984H445.621V10.5781H447.484V11.334H445.621V15.1133C445.621 15.5 445.713 15.7969 445.896 16.0039C446.08 16.2109 446.332 16.3145 446.652 16.3145ZM451.533 17.1172C450.584 17.1172 449.834 16.8281 449.283 16.25C448.736 15.6719 448.463 14.8691 448.463 13.8418C448.463 12.8066 448.717 11.9844 449.225 11.375C449.736 10.7656 450.422 10.4609 451.281 10.4609C452.086 10.4609 452.723 10.7266 453.191 11.2578C453.66 11.7852 453.895 12.4824 453.895 13.3496V13.9648H449.471C449.49 14.7188 449.68 15.291 450.039 15.6816C450.402 16.0723 450.912 16.2676 451.568 16.2676C452.26 16.2676 452.943 16.123 453.619 15.834V16.7012C453.275 16.8496 452.949 16.9551 452.641 17.0176C452.336 17.084 451.967 17.1172 451.533 17.1172ZM451.27 11.2754C450.754 11.2754 450.342 11.4434 450.033 11.7793C449.729 12.1152 449.549 12.5801 449.494 13.1738H452.852C452.852 12.5605 452.715 12.0918 452.441 11.7676C452.168 11.4395 451.777 11.2754 451.27 11.2754ZM458.488 10.4609C458.773 10.4609 459.029 10.4844 459.256 10.5312L459.121 11.4336C458.855 11.375 458.621 11.3457 458.418 11.3457C457.898 11.3457 457.453 11.5566 457.082 11.9785C456.715 12.4004 456.531 12.9258 456.531 13.5547V17H455.559V10.5781H456.361L456.473 11.7676H456.52C456.758 11.3496 457.045 11.0273 457.381 10.8008C457.717 10.5742 458.086 10.4609 458.488 10.4609ZM461.43 17H460.457V10.5781H461.43V17ZM460.416 9.58203C460.604 9.33984 460.805 9.04688 461.02 8.70312C461.238 8.35938 461.41 8.06055 461.535 7.80664H462.719V7.92969C462.547 8.18359 462.291 8.49609 461.951 8.86719C461.611 9.23828 461.316 9.52539 461.066 9.72852H460.416V9.58203ZM467.635 15.248C467.635 15.8457 467.412 16.3066 466.967 16.6309C466.521 16.9551 465.896 17.1172 465.092 17.1172C464.24 17.1172 463.576 16.9824 463.1 16.7129V15.8105C463.408 15.9668 463.738 16.0898 464.09 16.1797C464.445 16.2695 464.787 16.3145 465.115 16.3145C465.623 16.3145 466.014 16.2344 466.287 16.0742C466.561 15.9102 466.697 15.6621 466.697 15.3301C466.697 15.0801 466.588 14.8672 466.369 14.6914C466.154 14.5117 465.732 14.3008 465.104 14.0586C464.506 13.8359 464.08 13.6426 463.826 13.4785C463.576 13.3105 463.389 13.1211 463.264 12.9102C463.143 12.6992 463.082 12.4473 463.082 12.1543C463.082 11.6309 463.295 11.2188 463.721 10.918C464.146 10.6133 464.73 10.4609 465.473 10.4609C466.164 10.4609 466.84 10.6016 467.5 10.8828L467.154 11.6738C466.51 11.4082 465.926 11.2754 465.402 11.2754C464.941 11.2754 464.594 11.3477 464.359 11.4922C464.125 11.6367 464.008 11.8359 464.008 12.0898C464.008 12.2617 464.051 12.4082 464.137 12.5293C464.227 12.6504 464.369 12.7656 464.564 12.875C464.76 12.9844 465.135 13.1426 465.689 13.3496C466.451 13.627 466.965 13.9062 467.23 14.1875C467.5 14.4688 467.635 14.8223 467.635 15.248ZM471.297 16.3145C471.469 16.3145 471.635 16.3027 471.795 16.2793C471.955 16.252 472.082 16.2246 472.176 16.1973V16.9414C472.07 16.9922 471.914 17.0332 471.707 17.0645C471.504 17.0996 471.32 17.1172 471.156 17.1172C469.914 17.1172 469.293 16.4629 469.293 15.1543V11.334H468.373V10.8652L469.293 10.4609L469.703 9.08984H470.266V10.5781H472.129V11.334H470.266V15.1133C470.266 15.5 470.357 15.7969 470.541 16.0039C470.725 16.2109 470.977 16.3145 471.297 16.3145ZM474.438 17H473.465V10.5781H474.438V17ZM473.383 8.83789C473.383 8.61523 473.438 8.45312 473.547 8.35156C473.656 8.24609 473.793 8.19336 473.957 8.19336C474.113 8.19336 474.248 8.24609 474.361 8.35156C474.475 8.45703 474.531 8.61914 474.531 8.83789C474.531 9.05664 474.475 9.2207 474.361 9.33008C474.248 9.43555 474.113 9.48828 473.957 9.48828C473.793 9.48828 473.656 9.43555 473.547 9.33008C473.438 9.2207 473.383 9.05664 473.383 8.83789ZM479.066 17.1172C478.137 17.1172 477.416 16.832 476.904 16.2617C476.396 15.6875 476.143 14.877 476.143 13.8301C476.143 12.7559 476.4 11.9258 476.916 11.3398C477.436 10.7539 478.174 10.4609 479.131 10.4609C479.439 10.4609 479.748 10.4941 480.057 10.5605C480.365 10.627 480.607 10.7051 480.783 10.7949L480.484 11.6211C480.27 11.5352 480.035 11.4648 479.781 11.4102C479.527 11.3516 479.303 11.3223 479.107 11.3223C477.803 11.3223 477.15 12.1543 477.15 13.8184C477.15 14.6074 477.309 15.2129 477.625 15.6348C477.945 16.0566 478.418 16.2676 479.043 16.2676C479.578 16.2676 480.127 16.1523 480.689 15.9219V16.7832C480.26 17.0059 479.719 17.1172 479.066 17.1172ZM486.168 17L485.975 16.0859H485.928C485.607 16.4883 485.287 16.7617 484.967 16.9062C484.65 17.0469 484.254 17.1172 483.777 17.1172C483.141 17.1172 482.641 16.9531 482.277 16.625C481.918 16.2969 481.738 15.8301 481.738 15.2246C481.738 13.9277 482.775 13.248 484.85 13.1855L485.939 13.1504V12.752C485.939 12.248 485.83 11.877 485.611 11.6387C485.396 11.3965 485.051 11.2754 484.574 11.2754C484.039 11.2754 483.434 11.4395 482.758 11.7676L482.459 11.0234C482.775 10.8516 483.121 10.7168 483.496 10.6191C483.875 10.5215 484.254 10.4727 484.633 10.4727C485.398 10.4727 485.965 10.6426 486.332 10.9824C486.703 11.3223 486.889 11.8672 486.889 12.6172V17H486.168ZM483.971 16.3145C484.576 16.3145 485.051 16.1484 485.395 15.8164C485.742 15.4844 485.916 15.0195 485.916 14.4219V13.8418L484.943 13.8828C484.17 13.9102 483.611 14.0312 483.268 14.2461C482.928 14.457 482.758 14.7871 482.758 15.2363C482.758 15.5879 482.863 15.8555 483.074 16.0391C483.289 16.2227 483.588 16.3145 483.971 16.3145ZM493.041 15.248C493.041 15.8457 492.818 16.3066 492.373 16.6309C491.928 16.9551 491.303 17.1172 490.498 17.1172C489.646 17.1172 488.982 16.9824 488.506 16.7129V15.8105C488.814 15.9668 489.145 16.0898 489.496 16.1797C489.852 16.2695 490.193 16.3145 490.521 16.3145C491.029 16.3145 491.42 16.2344 491.693 16.0742C491.967 15.9102 492.104 15.6621 492.104 15.3301C492.104 15.0801 491.994 14.8672 491.775 14.6914C491.561 14.5117 491.139 14.3008 490.51 14.0586C489.912 13.8359 489.486 13.6426 489.232 13.4785C488.982 13.3105 488.795 13.1211 488.67 12.9102C488.549 12.6992 488.488 12.4473 488.488 12.1543C488.488 11.6309 488.701 11.2188 489.127 10.918C489.553 10.6133 490.137 10.4609 490.879 10.4609C491.57 10.4609 492.246 10.6016 492.906 10.8828L492.561 11.6738C491.916 11.4082 491.332 11.2754 490.809 11.2754C490.348 11.2754 490 11.3477 489.766 11.4922C489.531 11.6367 489.414 11.8359 489.414 12.0898C489.414 12.2617 489.457 12.4082 489.543 12.5293C489.633 12.6504 489.775 12.7656 489.971 12.875C490.166 12.9844 490.541 13.1426 491.096 13.3496C491.857 13.627 492.371 13.9062 492.637 14.1875C492.906 14.4688 493.041 14.8223 493.041 15.248Z" fill="#0E97F7"/>
<circle cx="553" cy="12" r="11.5" stroke="#BCC2CF"/>
<path d="M551.808 10.8955C552.86 10.8955 553.688 11.1576 554.289 11.6816C554.895 12.2012 555.198 12.9144 555.198 13.8213C555.198 14.8558 554.868 15.667 554.207 16.2549C553.551 16.8428 552.644 17.1367 551.486 17.1367C550.361 17.1367 549.502 16.9567 548.909 16.5967V15.5029C549.228 15.708 549.625 15.8698 550.099 15.9883C550.573 16.1022 551.04 16.1592 551.5 16.1592C552.302 16.1592 552.924 15.9701 553.366 15.5918C553.813 15.2135 554.036 14.6667 554.036 13.9512C554.036 12.5566 553.182 11.8594 551.473 11.8594C551.04 11.8594 550.461 11.9255 549.736 12.0576L549.148 11.6816L549.524 7.00586H554.494V8.05176H550.495L550.242 11.0527C550.766 10.9479 551.288 10.8955 551.808 10.8955Z" fill="#757B89"/>
<path d="M571.174 17H570.178V8.43359H574.953V9.31836H571.174V12.4531H574.725V13.3379H571.174V17ZM581.773 13.7832C581.773 14.8301 581.51 15.6484 580.982 16.2383C580.455 16.8242 579.727 17.1172 578.797 17.1172C578.223 17.1172 577.713 16.9824 577.268 16.7129C576.822 16.4434 576.479 16.0566 576.236 15.5527C575.994 15.0488 575.873 14.459 575.873 13.7832C575.873 12.7363 576.135 11.9219 576.658 11.3398C577.182 10.7539 577.908 10.4609 578.838 10.4609C579.736 10.4609 580.449 10.7598 580.977 11.3574C581.508 11.9551 581.773 12.7637 581.773 13.7832ZM576.881 13.7832C576.881 14.6035 577.045 15.2285 577.373 15.6582C577.701 16.0879 578.184 16.3027 578.82 16.3027C579.457 16.3027 579.939 16.0898 580.268 15.6641C580.6 15.2344 580.766 14.6074 580.766 13.7832C580.766 12.9668 580.6 12.3477 580.268 11.9258C579.939 11.5 579.453 11.2871 578.809 11.2871C578.172 11.2871 577.691 11.4961 577.367 11.9141C577.043 12.332 576.881 12.9551 576.881 13.7832ZM585.559 16.3145C585.73 16.3145 585.896 16.3027 586.057 16.2793C586.217 16.252 586.344 16.2246 586.438 16.1973V16.9414C586.332 16.9922 586.176 17.0332 585.969 17.0645C585.766 17.0996 585.582 17.1172 585.418 17.1172C584.176 17.1172 583.555 16.4629 583.555 15.1543V11.334H582.635V10.8652L583.555 10.4609L583.965 9.08984H584.527V10.5781H586.391V11.334H584.527V15.1133C584.527 15.5 584.619 15.7969 584.803 16.0039C584.986 16.2109 585.238 16.3145 585.559 16.3145ZM593.27 13.7832C593.27 14.8301 593.006 15.6484 592.479 16.2383C591.951 16.8242 591.223 17.1172 590.293 17.1172C589.719 17.1172 589.209 16.9824 588.764 16.7129C588.318 16.4434 587.975 16.0566 587.732 15.5527C587.49 15.0488 587.369 14.459 587.369 13.7832C587.369 12.7363 587.631 11.9219 588.154 11.3398C588.678 10.7539 589.404 10.4609 590.334 10.4609C591.232 10.4609 591.945 10.7598 592.473 11.3574C593.004 11.9551 593.27 12.7637 593.27 13.7832ZM588.377 13.7832C588.377 14.6035 588.541 15.2285 588.869 15.6582C589.197 16.0879 589.68 16.3027 590.316 16.3027C590.953 16.3027 591.436 16.0898 591.764 15.6641C592.096 15.2344 592.262 14.6074 592.262 13.7832C592.262 12.9668 592.096 12.3477 591.764 11.9258C591.436 11.5 590.949 11.2871 590.305 11.2871C589.668 11.2871 589.188 11.4961 588.863 11.9141C588.539 12.332 588.377 12.9551 588.377 13.7832ZM599.123 15.248C599.123 15.8457 598.9 16.3066 598.455 16.6309C598.01 16.9551 597.385 17.1172 596.58 17.1172C595.729 17.1172 595.064 16.9824 594.588 16.7129V15.8105C594.896 15.9668 595.227 16.0898 595.578 16.1797C595.934 16.2695 596.275 16.3145 596.604 16.3145C597.111 16.3145 597.502 16.2344 597.775 16.0742C598.049 15.9102 598.186 15.6621 598.186 15.3301C598.186 15.0801 598.076 14.8672 597.857 14.6914C597.643 14.5117 597.221 14.3008 596.592 14.0586C595.994 13.8359 595.568 13.6426 595.314 13.4785C595.064 13.3105 594.877 13.1211 594.752 12.9102C594.631 12.6992 594.57 12.4473 594.57 12.1543C594.57 11.6309 594.783 11.2188 595.209 10.918C595.635 10.6133 596.219 10.4609 596.961 10.4609C597.652 10.4609 598.328 10.6016 598.988 10.8828L598.643 11.6738C597.998 11.4082 597.414 11.2754 596.891 11.2754C596.43 11.2754 596.082 11.3477 595.848 11.4922C595.613 11.6367 595.496 11.8359 595.496 12.0898C595.496 12.2617 595.539 12.4082 595.625 12.5293C595.715 12.6504 595.857 12.7656 596.053 12.875C596.248 12.9844 596.623 13.1426 597.178 13.3496C597.939 13.627 598.453 13.9062 598.719 14.1875C598.988 14.4688 599.123 14.8223 599.123 15.248Z" fill="#757B89"/>
<rect x="498" y="13" width="40" height="1" fill="#BCC2CF"/>
<rect x="87" y="13" width="40" height="1" fill="#BCC2CF"/>
<rect x="205" y="13" width="40" height="1" fill="#BCC2CF"/>
<rect x="338" y="13" width="40" height="1" fill="#BCC2CF"/>
<circle cx="12" cy="13" r="12" fill="#00C1B4"/>
<path d="M7 12.6268L10.3759 16L16.3824 10" stroke="white" stroke-width="2" stroke-linecap="round" stroke-linejoin="round"/>
<path d="M165.012 8.43359H166.465L163.465 17H161.988L159 8.43359H160.441L162.229 13.7598C162.322 14.0137 162.422 14.3418 162.527 14.7441C162.633 15.1426 162.701 15.4395 162.732 15.6348C162.783 15.3379 162.861 14.9941 162.967 14.6035C163.072 14.2129 163.158 13.9238 163.225 13.7363L165.012 8.43359ZM171.504 17L171.229 16.0977H171.182C170.869 16.4922 170.555 16.7617 170.238 16.9062C169.922 17.0469 169.516 17.1172 169.02 17.1172C168.383 17.1172 167.885 16.9453 167.525 16.6016C167.17 16.2578 166.992 15.7715 166.992 15.1426C166.992 14.4746 167.24 13.9707 167.736 13.6309C168.232 13.291 168.988 13.1055 170.004 13.0742L171.123 13.0391V12.6934C171.123 12.2793 171.025 11.9707 170.83 11.7676C170.639 11.5605 170.34 11.457 169.934 11.457C169.602 11.457 169.283 11.5059 168.979 11.6035C168.674 11.7012 168.381 11.8164 168.1 11.9492L167.654 10.9648C168.006 10.7812 168.391 10.6426 168.809 10.5488C169.227 10.4512 169.621 10.4023 169.992 10.4023C170.816 10.4023 171.438 10.582 171.855 10.9414C172.277 11.3008 172.488 11.8652 172.488 12.6348V17H171.504ZM169.453 16.0625C169.953 16.0625 170.354 15.9238 170.654 15.6465C170.959 15.3652 171.111 14.9727 171.111 14.4688V13.9062L170.279 13.9414C169.631 13.9648 169.158 14.0742 168.861 14.2695C168.568 14.4609 168.422 14.7559 168.422 15.1543C168.422 15.4434 168.508 15.668 168.68 15.8281C168.852 15.9844 169.109 16.0625 169.453 16.0625ZM175.787 17H174.41V7.88281H175.787V17ZM183.51 13.748C183.51 14.8066 183.238 15.6328 182.695 16.2266C182.152 16.8203 181.396 17.1172 180.428 17.1172C179.822 17.1172 179.287 16.9805 178.822 16.707C178.357 16.4336 178 16.041 177.75 15.5293C177.5 15.0176 177.375 14.4238 177.375 13.748C177.375 12.6973 177.645 11.877 178.184 11.2871C178.723 10.6973 179.482 10.4023 180.463 10.4023C181.4 10.4023 182.143 10.7051 182.689 11.3105C183.236 11.9121 183.51 12.7246 183.51 13.748ZM178.793 13.748C178.793 15.2441 179.346 15.9922 180.451 15.9922C181.545 15.9922 182.092 15.2441 182.092 13.748C182.092 12.2676 181.541 11.5273 180.439 11.5273C179.861 11.5273 179.441 11.7188 179.18 12.1016C178.922 12.4844 178.793 13.0332 178.793 13.748ZM188.385 10.4023C188.662 10.4023 188.891 10.4219 189.07 10.4609L188.936 11.7441C188.74 11.6973 188.537 11.6738 188.326 11.6738C187.775 11.6738 187.328 11.8535 186.984 12.2129C186.645 12.5723 186.475 13.0391 186.475 13.6133V17H185.098V10.5195H186.176L186.357 11.6621H186.428C186.643 11.2754 186.922 10.9688 187.266 10.7422C187.613 10.5156 187.986 10.4023 188.385 10.4023ZM193.107 17.1172C192.1 17.1172 191.311 16.8242 190.74 16.2383C190.174 15.6484 189.891 14.8379 189.891 13.8066C189.891 12.748 190.154 11.916 190.682 11.3105C191.209 10.7051 191.934 10.4023 192.855 10.4023C193.711 10.4023 194.387 10.6621 194.883 11.1816C195.379 11.7012 195.627 12.416 195.627 13.3262V14.0703H191.309C191.328 14.6992 191.498 15.1836 191.818 15.5234C192.139 15.8594 192.59 16.0273 193.172 16.0273C193.555 16.0273 193.91 15.9922 194.238 15.9219C194.57 15.8477 194.926 15.7266 195.305 15.5586V16.6777C194.969 16.8379 194.629 16.9512 194.285 17.0176C193.941 17.084 193.549 17.1172 193.107 17.1172ZM192.855 11.4453C192.418 11.4453 192.066 11.584 191.801 11.8613C191.539 12.1387 191.383 12.543 191.332 13.0742H194.273C194.266 12.5391 194.137 12.1348 193.887 11.8613C193.637 11.584 193.293 11.4453 192.855 11.4453ZM201.545 15.1543C201.545 15.7871 201.314 16.2734 200.854 16.6133C200.393 16.9492 199.732 17.1172 198.873 17.1172C198.01 17.1172 197.316 16.9863 196.793 16.7246V15.5352C197.555 15.8867 198.264 16.0625 198.92 16.0625C199.768 16.0625 200.191 15.8066 200.191 15.2949C200.191 15.1309 200.145 14.9941 200.051 14.8848C199.957 14.7754 199.803 14.6621 199.588 14.5449C199.373 14.4277 199.074 14.2949 198.691 14.1465C197.945 13.8574 197.439 13.5684 197.174 13.2793C196.912 12.9902 196.781 12.6152 196.781 12.1543C196.781 11.5996 197.004 11.1699 197.449 10.8652C197.898 10.5566 198.508 10.4023 199.277 10.4023C200.039 10.4023 200.76 10.5566 201.439 10.8652L200.994 11.9023C200.295 11.6133 199.707 11.4688 199.23 11.4688C198.504 11.4688 198.141 11.6758 198.141 12.0898C198.141 12.293 198.234 12.4648 198.422 12.6055C198.613 12.7461 199.027 12.9395 199.664 13.1855C200.199 13.3926 200.588 13.582 200.83 13.7539C201.072 13.9258 201.252 14.125 201.369 14.3516C201.486 14.5742 201.545 14.8418 201.545 15.1543Z" fill="#00C1B4"/>
<circle cx="142" cy="13" r="12" fill="#00C1B4"/>
<path d="M137 12.6268L140.376 16L146.382 10" stroke="white" stroke-width="2" stroke-linecap="round" stroke-linejoin="round"/>
<path d="M286.098 12.6348C286.098 14.0488 285.705 15.1309 284.92 15.8809C284.135 16.627 283.004 17 281.527 17H279.131V8.43359H281.779C283.143 8.43359 284.203 8.80078 284.961 9.53516C285.719 10.2695 286.098 11.3027 286.098 12.6348ZM284.621 12.6816C284.621 10.6309 283.662 9.60547 281.744 9.60547H280.531V15.8223H281.527C283.59 15.8223 284.621 14.7754 284.621 12.6816ZM290.627 17.1172C289.619 17.1172 288.83 16.8242 288.26 16.2383C287.693 15.6484 287.41 14.8379 287.41 13.8066C287.41 12.748 287.674 11.916 288.201 11.3105C288.729 10.7051 289.453 10.4023 290.375 10.4023C291.23 10.4023 291.906 10.6621 292.402 11.1816C292.898 11.7012 293.146 12.416 293.146 13.3262V14.0703H288.828C288.848 14.6992 289.018 15.1836 289.338 15.5234C289.658 15.8594 290.109 16.0273 290.691 16.0273C291.074 16.0273 291.43 15.9922 291.758 15.9219C292.09 15.8477 292.445 15.7266 292.824 15.5586V16.6777C292.488 16.8379 292.148 16.9512 291.805 17.0176C291.461 17.084 291.068 17.1172 290.627 17.1172ZM290.375 11.4453C289.938 11.4453 289.586 11.584 289.32 11.8613C289.059 12.1387 288.902 12.543 288.852 13.0742H291.793C291.785 12.5391 291.656 12.1348 291.406 11.8613C291.156 11.584 290.812 11.4453 290.375 11.4453ZM299.064 15.1543C299.064 15.7871 298.834 16.2734 298.373 16.6133C297.912 16.9492 297.252 17.1172 296.393 17.1172C295.529 17.1172 294.836 16.9863 294.312 16.7246V15.5352C295.074 15.8867 295.783 16.0625 296.439 16.0625C297.287 16.0625 297.711 15.8066 297.711 15.2949C297.711 15.1309 297.664 14.9941 297.57 14.8848C297.477 14.7754 297.322 14.6621 297.107 14.5449C296.893 14.4277 296.594 14.2949 296.211 14.1465C295.465 13.8574 294.959 13.5684 294.693 13.2793C294.432 12.9902 294.301 12.6152 294.301 12.1543C294.301 11.5996 294.523 11.1699 294.969 10.8652C295.418 10.5566 296.027 10.4023 296.797 10.4023C297.559 10.4023 298.279 10.5566 298.959 10.8652L298.514 11.9023C297.814 11.6133 297.227 11.4688 296.75 11.4688C296.023 11.4688 295.66 11.6758 295.66 12.0898C295.66 12.293 295.754 12.4648 295.941 12.6055C296.133 12.7461 296.547 12.9395 297.184 13.1855C297.719 13.3926 298.107 13.582 298.35 13.7539C298.592 13.9258 298.771 14.125 298.889 14.3516C299.006 14.5742 299.064 14.8418 299.064 15.1543ZM303.172 17.1172C302.191 17.1172 301.445 16.832 300.934 16.2617C300.426 15.6875 300.172 14.8652 300.172 13.7949C300.172 12.7051 300.438 11.8672 300.969 11.2812C301.504 10.6953 302.275 10.4023 303.283 10.4023C303.967 10.4023 304.582 10.5293 305.129 10.7832L304.713 11.8906C304.131 11.6641 303.65 11.5508 303.271 11.5508C302.15 11.5508 301.59 12.2949 301.59 13.7832C301.59 14.5098 301.729 15.0566 302.006 15.4238C302.287 15.7871 302.697 15.9688 303.236 15.9688C303.85 15.9688 304.43 15.8164 304.977 15.5117V16.7129C304.73 16.8574 304.467 16.9609 304.186 17.0234C303.908 17.0859 303.57 17.1172 303.172 17.1172ZM309.787 10.4023C310.064 10.4023 310.293 10.4219 310.473 10.4609L310.338 11.7441C310.143 11.6973 309.939 11.6738 309.729 11.6738C309.178 11.6738 308.73 11.8535 308.387 12.2129C308.047 12.5723 307.877 13.0391 307.877 13.6133V17H306.5V10.5195H307.578L307.76 11.6621H307.83C308.045 11.2754 308.324 10.9688 308.668 10.7422C309.016 10.5156 309.389 10.4023 309.787 10.4023ZM313.057 17H311.68V10.5195H313.057V17ZM311.598 8.80273C311.598 8.55664 311.664 8.36719 311.797 8.23438C311.934 8.10156 312.127 8.03516 312.377 8.03516C312.619 8.03516 312.807 8.10156 312.939 8.23438C313.076 8.36719 313.145 8.55664 313.145 8.80273C313.145 9.03711 313.076 9.22266 312.939 9.35938C312.807 9.49219 312.619 9.55859 312.377 9.55859C312.127 9.55859 311.934 9.49219 311.797 9.35938C311.664 9.22266 311.598 9.03711 311.598 8.80273ZM317.645 17.1172C316.664 17.1172 315.918 16.832 315.406 16.2617C314.898 15.6875 314.645 14.8652 314.645 13.7949C314.645 12.7051 314.91 11.8672 315.441 11.2812C315.977 10.6953 316.748 10.4023 317.756 10.4023C318.439 10.4023 319.055 10.5293 319.602 10.7832L319.186 11.8906C318.604 11.6641 318.123 11.5508 317.744 11.5508C316.623 11.5508 316.062 12.2949 316.062 13.7832C316.062 14.5098 316.201 15.0566 316.479 15.4238C316.76 15.7871 317.17 15.9688 317.709 15.9688C318.322 15.9688 318.902 15.8164 319.449 15.5117V16.7129C319.203 16.8574 318.939 16.9609 318.658 17.0234C318.381 17.0859 318.043 17.1172 317.645 17.1172ZM318.629 18.582C318.629 19.4492 318.033 19.8828 316.842 19.8828C316.584 19.8828 316.348 19.8535 316.133 19.7949V18.9922C316.344 19.0469 316.584 19.0742 316.854 19.0742C317.064 19.0742 317.23 19.041 317.352 18.9746C317.477 18.9121 317.539 18.793 317.539 18.6172C317.539 18.2852 317.189 18.0703 316.49 17.9727L316.982 17H317.873L317.633 17.5156C317.945 17.5977 318.189 17.7305 318.365 17.9141C318.541 18.1016 318.629 18.3242 318.629 18.582ZM325.027 17L324.752 16.0977H324.705C324.393 16.4922 324.078 16.7617 323.762 16.9062C323.445 17.0469 323.039 17.1172 322.543 17.1172C321.906 17.1172 321.408 16.9453 321.049 16.6016C320.693 16.2578 320.516 15.7715 320.516 15.1426C320.516 14.4746 320.764 13.9707 321.26 13.6309C321.756 13.291 322.512 13.1055 323.527 13.0742L324.646 13.0391V12.6934C324.646 12.2793 324.549 11.9707 324.354 11.7676C324.162 11.5605 323.863 11.457 323.457 11.457C323.125 11.457 322.807 11.5059 322.502 11.6035C322.197 11.7012 321.904 11.8164 321.623 11.9492L321.178 10.9648C321.529 10.7812 321.914 10.6426 322.332 10.5488C322.75 10.4512 323.145 10.4023 323.516 10.4023C324.34 10.4023 324.961 10.582 325.379 10.9414C325.801 11.3008 326.012 11.8652 326.012 12.6348V17H325.027ZM322.977 16.0625C323.477 16.0625 323.877 15.9238 324.178 15.6465C324.482 15.3652 324.635 14.9727 324.635 14.4688V13.9062L323.803 13.9414C323.154 13.9648 322.682 14.0742 322.385 14.2695C322.092 14.4609 321.945 14.7559 321.945 15.1543C321.945 15.4434 322.031 15.668 322.203 15.8281C322.375 15.9844 322.633 16.0625 322.977 16.0625ZM324.371 9.72852C324.207 9.72852 324.045 9.69531 323.885 9.62891C323.729 9.55859 323.574 9.48242 323.422 9.40039C323.27 9.31445 323.121 9.23828 322.977 9.17188C322.832 9.10156 322.693 9.06641 322.561 9.06641C322.244 9.06641 322.031 9.29102 321.922 9.74023H321.207C321.254 9.19727 321.404 8.7832 321.658 8.49805C321.916 8.21289 322.244 8.07031 322.643 8.07031C322.811 8.07031 322.975 8.10547 323.135 8.17578C323.295 8.24219 323.451 8.31836 323.604 8.4043C323.756 8.48633 323.902 8.5625 324.043 8.63281C324.188 8.69922 324.326 8.73242 324.459 8.73242C324.768 8.73242 324.975 8.50781 325.08 8.05859H325.812C325.766 8.58203 325.615 8.99219 325.361 9.28906C325.107 9.58203 324.777 9.72852 324.371 9.72852ZM333.682 13.748C333.682 14.8066 333.41 15.6328 332.867 16.2266C332.324 16.8203 331.568 17.1172 330.6 17.1172C329.994 17.1172 329.459 16.9805 328.994 16.707C328.529 16.4336 328.172 16.041 327.922 15.5293C327.672 15.0176 327.547 14.4238 327.547 13.748C327.547 12.6973 327.816 11.877 328.355 11.2871C328.895 10.6973 329.654 10.4023 330.635 10.4023C331.572 10.4023 332.314 10.7051 332.861 11.3105C333.408 11.9121 333.682 12.7246 333.682 13.748ZM328.965 13.748C328.965 15.2441 329.518 15.9922 330.623 15.9922C331.717 15.9922 332.264 15.2441 332.264 13.748C332.264 12.2676 331.713 11.5273 330.611 11.5273C330.033 11.5273 329.613 11.7188 329.352 12.1016C329.094 12.4844 328.965 13.0332 328.965 13.748Z" fill="#00C1B4"/>
<circle cx="262" cy="13" r="12" fill="#00C1B4"/>
<path d="M257 12.6268L260.376 16L266.382 10" stroke="white" stroke-width="2" stroke-linecap="round" stroke-linejoin="round"/>
</svg>
