<svg width="20" height="22" viewBox="0 0 20 22" fill="none" xmlns="http://www.w3.org/2000/svg">
<path d="M9.99986 5.25717C11.065 5.25717 11.9284 4.39372 11.9284 3.3286C11.9284 2.26348 11.065 1.40002 9.99986 1.40002C8.93474 1.40002 8.07129 2.26348 8.07129 3.3286C8.07129 4.39372 8.93474 5.25717 9.99986 5.25717Z" stroke="#4B4B66" stroke-miterlimit="10" stroke-linecap="round" stroke-linejoin="round"/>
<path d="M11.9286 15.6072C15.9786 15.8643 19 16.8929 19 18.1143C19 19.3357 14.9821 20.6857 10 20.6857C5.01786 20.6857 1 19.5286 1 18.1143C1 16.7 4.02143 15.8643 8.07143 15.6072" stroke="#4B4B66" stroke-miterlimit="10" stroke-linecap="round" stroke-linejoin="round"/>
<path d="M13.2145 6.54285H6.78592C6.61543 6.54285 6.45191 6.61058 6.33136 6.73114C6.2108 6.85169 6.14307 7.01521 6.14307 7.1857V11.0428C6.14307 11.2133 6.2108 11.3769 6.33136 11.4974C6.45191 11.618 6.61543 11.6857 6.78592 11.6857H8.07164V16.5071C8.07164 16.7629 8.17323 17.0081 8.35407 17.189C8.53491 17.3698 8.78018 17.4714 9.03592 17.4714H10.9645C11.2202 17.4714 11.4655 17.3698 11.6463 17.189C11.8272 17.0081 11.9288 16.7629 11.9288 16.5071V11.6857H13.2145C13.385 11.6857 13.5485 11.618 13.6691 11.4974C13.7896 11.3769 13.8574 11.2133 13.8574 11.0428V7.1857C13.8574 7.01521 13.7896 6.85169 13.6691 6.73114C13.5485 6.61058 13.385 6.54285 13.2145 6.54285Z" stroke="#4B4B66" stroke-miterlimit="10" stroke-linecap="round" stroke-linejoin="round"/>
</svg>
