<svg width="229" height="204" viewBox="0 0 229 204" fill="none" xmlns="http://www.w3.org/2000/svg">
<path d="M83.7092 179.686H174.112C178.301 179.686 181.707 176.296 181.707 172.1V47.7277C181.707 43.5435 178.313 40.1415 174.112 40.1415H83.7092C79.5203 40.1415 76.1145 43.5311 76.1145 47.7277V172.112C76.1145 176.296 79.5203 179.686 83.7092 179.686Z" fill="#0E97F7"/>
<path d="M159.457 52.942C159.457 52.942 177.17 67.5806 169.936 80.4312C162.714 93.2819 158.177 82.7779 158.177 82.7779C158.177 82.7779 152.832 84.8017 159.88 69.0829C163.223 61.6829 159.457 52.942 159.457 52.942Z" fill="#BBD070"/>
<path d="M188.99 33.6973C188.99 33.6973 202.713 47.715 187.188 69.5177C171.65 91.3203 175.044 102.048 175.044 102.048C175.044 102.048 148.928 67.8167 188.99 33.6973Z" fill="#00C1B4"/>
<path d="M170.259 95.7406C162.478 97.8886 167.785 74.8567 179.146 67.047C190.495 59.2373 201.048 57.8219 207.201 50.6329C207.201 50.6205 208.593 85.1869 170.259 95.7406Z" fill="#009D92"/>
<path d="M198.611 20.4745C175.579 21.9644 175.144 48.1127 175.144 48.1127V172.659H82.6775V48.1127C82.6775 48.1127 82.5781 22.0513 106.257 20.4745H198.611Z" fill="url(#paint0_linear)"/>
<path d="M158.326 53.004H94.8218V58.6037H158.326V53.004Z" fill="#DFEAF0"/>
<path d="M149.054 65.9542H94.8218V69.915H149.054V65.9542Z" fill="#DFEAF0"/>
<path d="M122.081 76.421H94.8218V82.3062H122.081V76.421Z" fill="#DFEAF0"/>
<path d="M158.326 76.421H130.135V82.3062H158.326V76.421Z" fill="#DFEAF0"/>
<path d="M138.252 87.7571H94.8218V91.9537H138.252V87.7571Z" fill="#DFEAF0"/>
<path d="M143.746 98.2484H94.8218V100.583H143.746V98.2484Z" fill="#DFEAF0"/>
<path d="M153.665 108.753H94.8218V111.087H153.665V108.753Z" fill="#DFEAF0"/>
<path d="M122.266 132.256H94.6343V119.058H122.266V132.256ZM95.0072 131.883H121.893V119.43H95.0072V131.883Z" fill="#DFEAF0"/>
<path d="M153.664 119.244H128.916V122.274H153.664V119.244Z" fill="#DFEAF0"/>
<path d="M146.454 125.651H128.916V128.68H146.454V125.651Z" fill="#DFEAF0"/>
<path d="M143.311 140.227H94.8218V142.562H143.311V140.227Z" fill="#DFEAF0"/>
<path d="M122.69 150.731H94.8218V153.065H122.69V150.731Z" fill="#DFEAF0"/>
<path d="M165.722 156.89H148.295V139.483H165.722V156.89ZM149.936 155.263H164.094V141.121H149.936V155.263Z" fill="#00C1B4"/>
<path d="M157.293 151.836L151.166 146.063L153.03 144.089L157.405 148.211L166.989 140.351L168.717 142.45L157.293 151.836Z" fill="#00C1B4"/>
<path d="M190.532 159.791H205.075V158.934H190.532V159.791Z" fill="#E2D2CA"/>
<path d="M203.124 162.03H201.856V201.228H203.124V162.03Z" fill="#706865"/>
<path d="M182.709 159.92H192.814V158.691H182.709V159.92Z" fill="#CCBDB7"/>
<path d="M185.853 159.784H189.682V148.175H185.853V159.784Z" fill="#4667A8"/>
<path d="M154.304 162.029H210.289V159.794H154.304V162.029Z" fill="#B59074"/>
<path d="M221.036 146.311C221.036 146.311 221.645 154.891 219.967 155.921C218.91 156.567 214.721 158.727 214.845 159.137C214.97 159.547 217.207 162.75 217.207 162.75C217.207 162.75 225.262 157.461 225.523 155.785C225.771 154.158 225.125 143.22 224.019 142.723C223.186 142.35 222.751 142.661 221.707 143.431C220.252 144.523 221.036 146.311 221.036 146.311Z" fill="#F75A5A"/>
<path d="M206.368 148.758L205.659 148.497C205.659 148.497 206.542 146.423 206.927 146.473C207.375 146.535 207.921 146.672 207.921 146.672L206.368 148.758Z" fill="#EAD8CF"/>
<path d="M206.206 149.117C206.293 149.055 207.71 146.336 207.71 146.336L210.743 146.746L209.102 149.961L206.206 149.117Z" fill="#DA9B5B"/>
<path d="M211.128 195.877C211.128 195.877 211.377 197.615 211.414 197.876C211.452 198.136 214.199 197.727 214.199 197.727L214.422 195.665C214.422 195.653 211.476 195.641 211.128 195.877Z" fill="#424773"/>
<path d="M211.39 197.652C211.39 197.652 210.519 198.695 209.674 199.154C208.829 199.614 207.499 199.788 207.002 200.259C206.641 200.595 205.684 202.072 209.189 202.035C212.695 202.01 214.385 202.246 214.758 201.675C215.131 201.116 214.211 197.528 214.211 197.528C214.211 197.528 213.391 197.838 211.39 197.652Z" fill="#292C47"/>
<path d="M193.49 195.901C193.49 195.901 193.739 197.639 193.776 197.9C193.813 198.161 196.56 197.751 196.56 197.751L196.784 195.69C196.784 195.678 193.838 195.653 193.49 195.901Z" fill="#424773"/>
<path d="M193.752 197.677C193.752 197.677 192.881 198.72 192.036 199.179C191.191 199.639 188.084 200.011 187.586 200.483C187.226 200.818 186.629 202.196 191.564 202.072C195.069 201.985 196.76 202.283 197.132 201.712C197.505 201.153 196.586 197.565 196.586 197.565C196.586 197.565 195.803 197.876 193.752 197.677Z" fill="#292C47"/>
<path d="M220.016 165.904C220.016 165.904 210.01 167.593 207.748 167.953C205.486 168.313 193.23 171.355 191.701 172.286C190.483 173.031 192.335 190.773 192.77 197.553H197.593L197.941 177.24C203.733 177.389 207.872 175.886 212.086 176.532C216.3 177.178 219.817 178.084 222.502 174.496C222.515 174.471 222.614 166.686 220.016 165.904Z" fill="#1A1859"/>
<path d="M210.146 197.553L214.857 197.267L215.317 177.227C217.815 177.29 218.66 177.128 220.686 176.892L224.49 168.077C221.159 168.747 210.494 171.429 209.065 172.286C207.834 173.018 209.711 190.786 210.146 197.553Z" fill="#292C47"/>
<path d="M215.404 128.419C215.404 128.419 211.737 127.401 210.333 130.257C208.928 133.1 209.562 138.501 211.414 139.01C213.266 139.519 215.926 138.936 216.697 137.16C217.468 135.385 218.077 132.877 217.89 131.238C217.716 129.611 216.386 128.817 215.404 128.419Z" fill="#EEA886"/>
<path d="M212.383 138.44C212.383 138.44 212.421 140.6 212.185 141.06C211.948 141.519 217.293 141.407 217.293 141.407C217.293 141.407 216.448 138.812 216.933 136.59C217.405 134.405 212.383 138.44 212.383 138.44Z" fill="#EEA886"/>
<path d="M217.219 135.77C217.219 135.77 216.933 136.354 215.553 136.254C214.174 136.155 212.346 134.491 211.75 134.342C211.166 134.193 211.128 133.858 211.128 133.858L210.817 134.404L210.221 134.491C210.221 134.491 210.631 132.815 209.736 132.231C208.841 131.648 210.134 126.905 214.646 128.047C214.646 128.047 218.089 128.68 218.139 130.605C218.176 132.529 217.89 134.752 217.219 135.77Z" fill="#3A3F47"/>
<path d="M211.899 141.01C211.899 141.01 211.911 140.128 212.309 140.041C212.707 139.954 216.51 139.433 217.008 139.632L217.219 140.799C217.219 140.786 216.274 141.37 211.899 141.01Z" fill="#E2D2CA"/>
<path d="M210.804 133.473C210.904 132.753 211.724 131.921 212.197 133.051C212.669 134.181 211.873 135.82 211.351 135.733C210.817 135.634 210.655 134.454 210.804 133.473Z" fill="#EEA886"/>
<path d="M195.966 151.414C195.966 151.414 195.98 151.414 195.966 151.414C195.952 151.429 195.937 151.429 195.966 151.414Z" fill="#323657"/>
<path d="M216.474 128.942C216.474 128.942 220.948 128.731 217.257 135.708L216.474 128.942Z" fill="#3A3F47"/>
<path d="M226.442 199.936L226.119 200.867L212.048 196.522L212.719 194.622L226.442 199.936Z" fill="#918783"/>
<path d="M211.568 195.849H213.171V180.577H211.568V195.849Z" fill="#918783"/>
<path d="M207.666 180.673H217.087V179.779H207.666V180.673Z" fill="#5E5854"/>
<path d="M198.164 199.937L198.499 200.868L212.558 196.522L211.936 194.498L198.164 199.937Z" fill="#918783"/>
<path d="M208.071 200.769V201.861L212.558 196.522L211.936 194.498L208.071 200.769Z" fill="#918783"/>
<path d="M199.097 202.169C199.612 201.655 199.612 200.822 199.097 200.308C198.583 199.794 197.749 199.794 197.234 200.308C196.72 200.822 196.72 201.655 197.234 202.169C197.749 202.683 198.583 202.683 199.097 202.169Z" fill="#BFB2AC"/>
<path d="M209.58 202.501C210.288 202.334 210.726 201.625 210.559 200.917C210.392 200.21 209.682 199.772 208.974 199.939C208.266 200.106 207.827 200.815 207.995 201.522C208.162 202.23 208.872 202.668 209.58 202.501Z" fill="#BFB2AC"/>
<path d="M226.835 202.5C227.532 202.291 227.928 201.558 227.719 200.861C227.511 200.165 226.776 199.77 226.079 199.978C225.382 200.187 224.986 200.92 225.195 201.617C225.404 202.313 226.138 202.708 226.835 202.5Z" fill="#BFB2AC"/>
<path d="M202.825 179.76H221.793C222.726 179.76 223.484 179.003 223.484 178.072V178.035C223.484 177.103 222.726 176.346 221.793 176.346H202.825C201.893 176.346 201.135 177.103 201.135 178.035V178.072C201.135 179.015 201.893 179.76 202.825 179.76Z" fill="#E2D2CA"/>
<path d="M161.475 201.238H162.743V162.04H161.475V201.238Z" fill="#706865"/>
<path d="M172.919 153.773H202.602C203.534 153.773 204.28 153.016 204.28 152.097V132.169C204.28 131.238 203.522 130.493 202.602 130.493H172.919C171.987 130.493 171.241 131.251 171.241 132.169V152.097C171.241 153.016 171.999 153.773 172.919 153.773Z" fill="#5F8BE3"/>
<path d="M172.542 150.125H202.995V131.749H172.542V150.125Z" fill="#F5F7FF"/>
<path d="M180.924 159.833V159.423C180.924 159.423 181.509 156.84 185.635 156.84C189.762 156.84 189.675 159.833 189.675 159.833H180.924Z" fill="#2C4069"/>
<path d="M189.724 157.225C189.724 157.225 188.829 157.151 188.493 156.952C188.17 156.753 186.206 155.437 185.734 155.648C185.274 155.859 182.204 156.803 182.303 157.25C182.403 157.697 182.689 157.66 182.912 157.573C183.124 157.498 185.361 157.027 185.56 157.101C185.56 157.101 183.372 157.896 183.36 158.479C183.348 159.063 183.82 159.199 184.031 159.423C184.242 159.646 184.491 160.193 185.05 160.23C185.61 160.267 188.369 159.311 188.941 159.274C189.513 159.224 190.557 159.311 190.631 159.212C190.706 159.137 189.724 157.225 189.724 157.225Z" fill="#EEA886"/>
<path d="M206.032 142.226C208.891 141.73 211.899 141.01 211.899 141.01L217.219 140.799C217.219 140.799 222.104 141.866 224.03 142.736C224.217 142.822 224.217 147.081 224.714 148.211L223.123 151.576C223.123 151.576 222.203 158.231 222.017 161.198C221.93 162.552 222.265 174.334 222.265 174.334C222.265 174.334 221.793 174.57 218.151 174.968C214.521 175.365 205.447 174.819 205.385 174.397C205.323 173.962 207.138 158.442 207.225 157.635C207.349 156.406 206.864 150.694 206.864 150.694C206.181 151.613 204.441 155.76 202.613 157.734C201.544 158.889 196.249 159.609 195.255 159.634C193.08 159.708 189.115 160.143 189.003 159.932C188.916 159.808 188.655 156.418 188.903 156.331C189.127 156.257 196.485 155.834 198.362 154.841C199.046 154.481 201.109 149.987 201.109 149.987C201.109 149.987 204.466 142.934 206.032 142.226Z" fill="#7450F0"/>
<path d="M216.523 173.975H225.46C227.25 173.975 228.692 172.522 228.692 170.746V155.897C228.692 154.109 227.238 152.669 225.46 152.669H216.523C214.733 152.669 213.291 154.121 213.291 155.897V170.746C213.291 172.522 214.733 173.975 216.523 173.975Z" fill="#E2D2CA"/>
<path d="M216.013 178.916C218.288 178.916 220.127 178.159 221.482 176.656C224.565 173.267 224.006 167.295 223.981 167.034C223.931 166.562 223.508 166.214 223.048 166.264C222.576 166.314 222.228 166.724 222.278 167.195C222.29 167.257 222.775 172.671 220.214 175.502C219.183 176.644 217.803 177.203 216.013 177.203C215.541 177.203 215.156 177.588 215.156 178.059C215.156 178.531 215.541 178.916 216.013 178.916Z" fill="#E2D2CA"/>
<path d="M89.1775 153.165C89.1775 153.165 89.5504 153.525 89.6872 153.861C89.7866 154.134 90.1346 154.481 90.2962 154.68C90.4578 154.879 91.0669 155.822 91.1539 156.095C91.1912 156.207 91.1415 156.94 91.2409 157.151C91.3403 157.362 91.5889 157.772 91.4025 157.846C91.216 157.921 90.8929 157.623 90.8929 157.623C90.8929 157.623 90.9674 157.821 90.8183 157.933C90.5324 158.157 90.3335 158.07 90.3335 158.07C90.3335 158.07 90.2714 158.318 90.1346 158.38C89.8239 158.529 89.625 158.43 89.625 158.43C89.625 158.43 89.5131 158.591 89.2894 158.641C88.9911 158.703 88.8046 158.479 88.8046 158.479C88.8046 158.479 88.4566 158.641 88.295 158.492C88.1334 158.343 88.1086 158.157 88.0215 158.008C87.9345 157.859 87.5616 156.443 87.7481 155.313C87.9345 154.183 87.052 153.339 87.052 153.339L89.1775 153.165Z" fill="#EEA886"/>
<path d="M92.3109 161.857H87.426C86.9288 161.857 86.531 161.447 86.531 160.963V157.883C86.531 157.387 86.9412 156.989 87.426 156.989H92.3109C92.8081 156.989 93.2059 157.387 93.2059 157.883V160.963C93.2059 161.459 92.8081 161.857 92.3109 161.857ZM87.4135 157.585C87.2519 157.585 87.1152 157.722 87.1152 157.883V160.963C87.1152 161.124 87.2519 161.261 87.4135 161.261H92.2985C92.4601 161.261 92.5968 161.124 92.5968 160.963V157.883C92.5968 157.722 92.4601 157.585 92.2985 157.585H87.4135Z" fill="#0E1E2B"/>
<path d="M99.0345 160.54H80.688V173.677H99.0345V160.54Z" fill="#595C59"/>
<path d="M82.0684 125.402C82.0684 125.402 81.1237 125.415 80.726 128.221C80.3282 131.027 81.0864 132.206 81.1734 133.373C81.2604 134.541 82.6402 142.09 82.6774 142.425C82.7147 142.76 82.9012 146.77 83.4357 147.838C83.9702 148.906 87.898 154.94 87.9602 155.238C88.0099 155.536 89.8744 154.183 89.8744 154.183C89.8744 154.183 86.7793 147.726 86.6053 146.982C86.4313 146.249 85.1883 142.487 85.3747 141.332C85.5736 140.178 84.8278 133.845 84.9024 133.138C84.9646 132.442 83.8707 125.824 82.0684 125.402Z" fill="#EEA886"/>
<path d="M82.0679 125.402C82.0679 125.402 81.1232 125.415 80.7255 128.221C80.3277 131.027 80.6882 132.033 80.9243 133.249C81.1481 134.404 81.9312 141.432 81.9685 141.767C82.0057 142.102 82.938 146.336 83.4228 147.826C83.7957 148.956 87.3009 154.891 87.3506 155.201C87.4003 155.499 90.0728 153.81 90.0728 153.81C90.0728 153.81 86.6421 147.131 86.4681 146.398C86.2941 145.665 85.7099 143.108 85.685 141.941C85.6601 140.575 84.8025 133.858 84.877 133.15C84.9641 132.442 84.6906 126.358 82.0679 125.402Z" fill="#384C9E"/>
<path d="M74.2124 190.86C74.2124 190.86 75.8531 193.294 76.5119 193.877C76.5119 193.877 78.0284 194.411 78.1278 195.442C78.1899 196.112 78.1278 197.205 76.4 197.242C74.6599 197.292 73.5536 196.684 73.2304 195.641C72.9073 194.585 72.3106 194.126 72.3106 194.126V196.323H71.9253C71.9253 196.323 71.8259 194.2 71.801 193.815C71.7761 193.43 71.5151 191.928 72.3479 191.258C73.1558 190.587 74.2124 190.86 74.2124 190.86Z" fill="#EDDAD3"/>
<path d="M85.3126 188.923C85.3126 188.923 85.5985 189.594 86.133 190.289C86.5308 190.798 87.7489 192.896 88.2834 193.045C88.8179 193.194 90.4835 193.48 90.6326 194.411C90.7818 195.342 90.8564 196 89.2156 196.075C87.5749 196.149 86.5059 196.249 85.7228 195.094C84.9397 193.952 83.6967 193.12 83.6967 193.12V196.112H83.0628C83.0628 196.112 82.7645 192.996 82.6029 192.784C82.4289 192.561 81.9938 190.177 83.5103 188.935C85.0019 187.681 85.3126 188.923 85.3126 188.923Z" fill="#EDDAD3"/>
<path d="M73.1056 144.002C73.1056 144.002 71.0422 146.684 70.4828 149.875C69.9235 153.054 70.8184 163.744 70.7936 165.321C70.7687 166.897 69.302 170.809 69.6003 173.776C69.8986 176.743 72.3473 191.245 72.3473 191.245L74.2243 190.861C74.2243 190.861 74.0378 175.825 74.2243 174.571C74.4107 173.329 74.7712 168.785 74.8457 168.276C74.9203 167.767 79.4945 154.308 79.4945 152.011C79.4945 149.714 78.09 140.265 73.1056 144.002Z" fill="#EEA886"/>
<path d="M83.4859 145.057C83.4859 145.057 86.8793 157.995 87.2895 159.795C87.6873 161.583 88.2715 163.073 88.2715 163.83C88.2715 165.593 87.6127 168.437 87.6127 168.437L85.3007 188.935H83.4859C83.4859 188.935 82.3424 176.966 82.1559 174.558C81.9695 172.136 83.4735 168.412 83.113 167.381C82.7526 166.351 77.2088 154.53 77.2088 154.53C77.2088 154.53 73.02 141.295 83.4859 145.057Z" fill="#EEA886"/>
<path d="M76.7846 194.001C76.7846 194.001 75.3552 194.734 74.0625 193.766C72.7698 192.797 72.3347 191.245 72.3347 191.245L74.2116 190.86L76.7846 194.001Z" fill="#EEA886"/>
<path d="M88.283 193.045C88.283 193.045 86.8162 193.405 86.2569 193.045C85.6975 192.685 83.7833 189.457 83.1494 189.258C83.1494 189.258 83.7585 188.017 85.3122 188.923C85.3122 188.923 87.8603 192.511 88.283 193.045Z" fill="#EEA886"/>
<path d="M87.8347 161.856C87.8347 161.856 81.5949 165.518 69.8984 165.518C69.8984 165.518 69.2396 151.973 70.9301 148.161C72.6329 144.349 83.9193 146.721 83.9193 146.721C83.9193 146.721 87.437 159.05 87.8347 161.856Z" fill="#1D3B54"/>
<path d="M79.3087 124.385C79.3087 124.385 81.1235 125.242 81.7574 125.366C82.3913 125.49 84.8276 128.656 85.2626 129.823C85.6852 130.978 85.2626 132.716 84.3801 134.752C83.4976 136.788 84.3304 137.471 83.9326 139.508C83.5349 141.544 83.1744 145.865 83.249 146.994C83.3236 148.124 73.0689 148.335 70.7196 146.274C70.7196 146.274 73.0689 142.748 73.3796 142.252C73.6779 141.742 73.4293 139.011 73.1559 138.303C72.8824 137.596 71.0304 131.611 71.0304 131.611C71.0304 131.611 69.5264 127.017 70.8812 125.949C72.0621 125.03 75.2938 124.708 75.8656 124.497C76.4498 124.298 78.1278 124.211 79.3087 124.385Z" fill="#EDDAD3"/>
<path d="M79.8937 128.432L81 127.141L80.0429 123.751C80.0429 123.751 79.7197 125.638 79.8937 128.432Z" fill="#D6C5BE"/>
<path d="M77.021 111.534C78.1024 111.162 82.0551 110.23 82.9874 115.284C83.9196 120.337 81.1229 123.938 78.5499 122.982C75.9769 122.026 74.3983 118.524 74.2491 115.867C74.1 113.21 75.6662 112.018 77.021 111.534Z" fill="#EEA886"/>
<path d="M82.9872 115.283C82.9872 115.283 83.1861 110.963 78.8729 110.801C74.5722 110.652 73.4037 114.191 73.7642 116.773C74.1123 119.356 75.9022 120.722 75.9022 120.722C75.9022 120.722 75.753 118.636 76.5858 118.089C77.4186 117.543 80.7747 116.463 82.229 113.955C82.229 113.955 82.9126 114.75 82.9872 115.283Z" fill="#252E3B"/>
<path d="M77.6308 114.824C77.0591 116.55 75.381 117.544 73.877 117.047C72.373 116.55 71.6023 114.75 72.1741 113.024C72.7459 111.298 74.4239 110.305 75.9279 110.802C77.432 111.311 78.1902 113.099 77.6308 114.824Z" fill="#252E3B"/>
<path d="M80.1796 122.298C80.1796 122.298 79.8192 125.626 79.8938 126.706C79.8938 126.706 78.0044 128.593 75.8665 124.508C75.8665 124.508 76.7738 122.82 76.0902 120.523C75.4066 118.226 80.1796 122.298 80.1796 122.298Z" fill="#EEA886"/>
<path d="M79.8933 126.706V128.432L77.7305 126.805L79.8933 126.706Z" fill="#EEA886"/>
<path d="M79.8932 128.432L78.9983 127.314L75.9654 124.297L74.9834 125.241L79.8932 128.432Z" fill="#D6C5BE"/>
<path d="M75.5424 124.583C75.5424 124.583 78.0906 128.444 78.2149 130.133C78.3392 131.834 77.2702 144.535 76.4125 148.62C75.5549 152.705 69.3772 148.161 69.3772 148.161C69.3772 148.161 73.5288 141.456 71.9378 136.08C70.3467 130.704 69.7625 128.556 69.7625 128.556C69.7625 128.556 70.3094 125.564 72.2485 125.142C73.9514 124.782 75.5424 124.583 75.5424 124.583Z" fill="#384C9E"/>
<path d="M85.4252 130.344C85.4252 130.344 85.8851 131.97 84.0952 135.559C84.0952 135.559 84.1201 140.153 84.1698 141.58C84.2195 143.008 84.5551 148.434 84.5551 148.434L82.79 149.465C82.4296 149.676 81.9945 149.39 82.0443 148.98C82.5414 144.858 84.1698 129.202 80.6521 124.993L82.0691 125.402C82.0691 125.402 84.58 127.451 85.4252 130.344Z" fill="#384C9E"/>
<path d="M77.0206 117.17C76.8591 116.773 76.337 116.661 76.0387 116.885C75.7404 117.108 75.5663 117.791 76.0387 118.673C76.511 119.554 78.2015 120.175 77.0206 117.17Z" fill="#EEA886"/>
<path d="M81.0003 127.141L82.38 127.525L80.0432 123.751L81.0003 127.141Z" fill="#FAE6DE"/>
<path d="M78.998 127.314L77.7302 128.978L75.1199 124.645L75.9651 124.297L78.998 127.314Z" fill="#FAE6DE"/>
<path d="M80.1051 123.031L80.0429 123.702C80.0429 123.702 78.5513 123.987 76.5874 121.591C76.5874 121.591 77.9796 123.279 80.1051 123.031Z" fill="#A77860"/>
<path d="M87.8115 143.368C87.8115 143.368 88.694 143.939 89.2036 143.616C89.6387 143.343 90.3845 143.306 90.6206 143.294C90.9314 143.281 91.8636 142.872 91.8885 143.269C91.9133 143.654 90.3845 144.001 90.0737 144.138C89.763 144.275 91.1178 144.933 91.267 145.243C91.4162 145.553 90.198 147.726 89.3279 147.167C88.4578 146.609 87.8985 145.442 87.7245 145.367C87.5505 145.305 87.0781 144.982 87.0781 144.982L87.8115 143.368Z" fill="#EEA886"/>
<path d="M71.0809 125.751C71.0809 125.751 72.299 125.453 73.3556 126.582C74.4121 127.712 74.9466 129.575 75.2201 130.183C75.4935 130.791 78.9988 136.366 79.1976 136.503C79.3965 136.627 82.9515 139.495 84.5674 141.035C86.1832 142.574 89.3156 144.275 89.3156 144.275L88.1347 145.939C88.1347 145.939 78.5886 140.861 77.3829 138.998C76.1772 137.136 71.3544 131.983 71.3544 131.983C71.3544 131.983 68.483 127.625 71.0809 125.751Z" fill="#EEA886"/>
<path d="M91.0928 145.082C91.0928 145.082 93.6533 146.969 93.7155 147.23C93.7776 147.503 93.6658 147.627 93.4296 147.466C93.181 147.304 90.9063 145.715 90.9063 145.715C90.9063 145.715 93.5539 148.459 93.6533 148.658C93.7155 148.782 93.5166 149.043 93.3799 148.968C93.2432 148.894 90.4588 146.324 90.4588 146.324C90.4588 146.324 92.9324 148.881 92.9573 149.08C92.9821 149.254 92.746 149.452 92.5471 149.279C92.3482 149.105 89.9244 146.857 89.9244 146.857C89.9244 146.857 91.6024 148.832 91.5278 149.018C91.4781 149.13 91.3289 149.365 90.9063 148.844C90.4837 148.322 89.3774 147.193 89.3774 147.193L91.0928 145.082Z" fill="#EEA886"/>
<path d="M84.5176 134.652C84.5176 134.652 84.6046 140.376 84.2566 143.145L84.1074 135.546L84.5176 134.652Z" fill="#27356E"/>
<path d="M71.7146 125.328C71.7146 125.328 72.4107 125.44 73.4672 126.582C74.5238 127.712 75.0583 129.574 75.3317 130.183C75.6052 130.791 79.1104 136.366 79.3093 136.502C79.5082 136.639 82.4292 138.626 84.0327 140.165C85.6486 141.705 88.6442 143.53 88.6442 143.53L87.1029 145.814C87.1029 145.814 78.6878 141.158 77.3454 139.383C75.9159 137.483 70.8321 131.933 70.8321 131.933C70.8321 131.933 67.5506 126.855 71.7146 125.328Z" fill="#384C9E"/>
<path d="M90.9191 157.473C90.9191 157.473 90.5959 156.194 90.1858 156.008C89.7756 155.822 89.8626 156.281 89.8626 156.281C89.8626 156.281 89.7756 155.822 89.4027 155.847C89.0174 155.871 89.1541 156.418 89.1541 156.418C89.1541 156.418 88.9925 156.082 88.632 156.244C88.2716 156.405 88.4829 156.827 88.4829 156.827C88.4829 156.827 87.9981 156.48 87.8738 156.952C87.6749 157.759 88.2591 158.516 88.2591 158.516C88.2591 158.516 88.458 158.69 88.7936 158.516C88.7936 158.516 89.1914 158.938 89.6388 158.466C89.6388 158.466 90.2976 158.64 90.3598 158.106C90.3598 158.094 91.1056 158.206 90.9191 157.473Z" fill="#DB9C7C"/>
<path d="M77.4575 140.711L74.5737 136.068C74.5737 136.068 77.0348 138.961 77.2834 139.271C77.5445 139.582 77.5569 139.606 77.5569 139.606C77.5569 139.606 77.4948 140.55 77.4575 140.711Z" fill="#27356E"/>
<path d="M112.21 151.712C112.21 151.712 112.409 152.618 112.757 153.537C112.931 153.984 113.018 156.939 112.993 157.324C112.981 157.647 112.77 157.461 112.658 157.25C112.596 157.125 112.397 156.107 112.21 155.561C112.049 155.102 111.912 154.94 111.837 155.077C111.763 155.226 111.614 157.125 111.788 157.932C111.962 158.74 111.775 160.614 111.353 160.341C110.93 160.068 109.923 156.691 110.01 155.424C110.097 154.158 110.545 152.556 110.545 152.556L112.21 151.712Z" fill="#EEA886"/>
<path d="M111.801 153.426C111.801 153.426 113.193 144.163 113.566 142.4C113.727 141.605 114.2 139.619 114.485 137.992C114.585 137.459 114.659 136.9 114.734 136.366C115.008 134.205 115.082 132.231 115.082 132.231C115.082 132.231 116.288 126.694 112.795 126.359C112.795 126.359 111.863 126.657 111.801 127.029C111.589 128.507 111.105 131.71 111.092 132.467C111.08 133.088 110.172 139.296 110.16 139.507C110.135 139.929 109.924 142.81 109.837 144.076C109.638 147.019 109.563 153.624 109.563 153.624L111.801 153.426Z" fill="#7450F0"/>
<path d="M110.694 192.896C110.694 192.896 109.339 194.399 107.972 194.722C106.605 195.032 105.648 195.442 105.635 196.298C105.623 197.168 109.576 197.726 111.142 196.857C113.479 195.553 113.715 195.951 113.976 195.305C114.237 194.66 113.665 192.921 113.677 192.71C113.702 192.449 110.694 192.896 110.694 192.896Z" fill="#202338"/>
<path d="M124.455 193.294C124.455 193.294 123.46 194.759 122.13 195.095C120.825 195.43 119.967 196.063 119.905 196.907C119.843 197.752 122.988 198.844 125.2 197.367C126.655 196.398 127.202 196.448 127.487 195.839C127.786 195.219 127.338 193.493 127.363 193.294C127.425 193.046 124.455 193.294 124.455 193.294Z" fill="#202338"/>
<path d="M110.843 192.177C110.843 192.177 110.669 192.884 110.694 192.897C110.719 192.909 113.777 193.282 113.69 192.71C113.615 192.251 113.503 191.754 113.503 191.754L110.843 192.177Z" fill="#81807E"/>
<path d="M124.503 192.561C124.503 192.561 124.441 193.269 124.466 193.281C124.491 193.294 127.412 193.84 127.387 193.281C127.374 192.834 127.2 192.288 127.2 192.288L124.503 192.561Z" fill="#81807E"/>
<path d="M113.627 149.962C113.627 149.962 112.508 160.764 111.936 164.451C111.265 168.772 111.029 172.348 110.843 174.583C110.606 177.401 110.557 191.233 110.395 192.065C110.233 192.884 114.087 192.288 114.087 192.288C114.087 192.288 115.989 174.198 116.685 171.206C117.343 168.412 119.792 156.406 120.389 157.163C120.985 157.921 121.731 171.181 122.179 173.379C122.626 175.576 123.981 192.81 123.981 192.81C123.981 192.81 127.051 193.418 127.859 192.735C127.859 192.735 128.232 177.886 127.946 173.763C127.834 172.187 129.786 154.916 127.287 147.95C125.957 144.288 113.627 149.962 113.627 149.962Z" fill="#1A1859"/>
<path d="M132.708 151.501C132.708 151.501 130.831 152.073 130.048 151.924C129.265 151.775 129.662 142.14 129.625 140.141C129.6 138.514 128.705 134.218 128.705 134.218C128.705 134.218 128.705 134.218 128.705 134.231C128.705 134.231 128.705 134.231 128.705 134.243C128.618 134.566 127.413 139.023 127.375 141.159C127.326 143.381 127.661 151.874 127.661 151.874L124.678 153.277L114.349 153.575L112.845 153.6C112.845 153.6 113.081 148.559 113.168 146.833C113.218 145.74 113.441 143.766 113.379 141.854C113.379 141.854 113.416 139.843 113.218 138.974C113.193 135.137 112.969 131.35 112.969 131.35C112.845 129.612 112.745 127.985 112.696 126.471C113.118 126.247 113.615 125.986 114.026 125.8C115.281 125.204 117.021 124.409 118.14 123.888C118.799 123.59 119.433 123.367 119.433 123.367C119.433 123.367 123.895 122.944 124.255 122.957C124.367 122.969 124.927 123.155 125.66 123.441C127.239 124.037 130.296 125.266 130.781 125.614C131.49 126.123 133.006 138.241 133.068 139.085C133.193 140.625 132.708 151.501 132.708 151.501Z" fill="#D8D5E0"/>
<path d="M124.231 122.957C123.908 125.961 120.564 125.961 120.564 125.961C120.564 125.961 119.184 124.757 119.221 123.863C119.221 123.838 119.221 123.826 119.221 123.801C119.246 123.64 119.433 123.429 119.445 123.106C119.445 123.056 119.445 123.019 119.445 122.969C119.445 122.919 119.445 122.882 119.445 122.833C119.445 122.609 119.433 122.373 119.42 122.224C119.42 122.174 119.408 122.125 119.408 122.088C119.408 122.038 119.395 122.001 119.395 122.001C119.395 122.001 119.93 121.43 120.614 120.759C121.807 119.58 123.46 118.065 123.46 118.661C123.46 118.698 123.46 118.735 123.448 118.772C123.174 120.126 124.231 122.957 124.231 122.957Z" fill="#EEA886"/>
<path d="M123.919 147.788C123.919 147.788 124.192 149.489 124.217 149.936L124.789 149.825C124.789 149.825 124.627 148.024 124.54 147.714L123.919 147.788Z" fill="#5D676C"/>
<path d="M133.292 157.709C133.292 157.709 133.118 155.326 132.472 154.953C131.838 154.593 132.211 155.326 132.211 155.326C132.211 155.326 132.596 157.051 132.683 157.759C132.696 157.796 133.292 157.709 133.292 157.709Z" fill="#7F827F"/>
<path d="M126.978 159.398L135.405 156.878L135.542 167.295L127.189 172.46L126.978 159.398Z" fill="#7F827F"/>
<path d="M127.189 172.46L128.258 172.646L136.375 167.431L136.114 156.915L135.405 156.878L127.189 172.46Z" fill="#7F827F"/>
<path d="M121.943 124.732L120.551 125.974C120.551 125.974 122.155 125.862 122.453 125.602L121.943 124.732Z" fill="#B4B1BA"/>
<path d="M113.131 151.985C113.131 151.985 119.669 152.544 125.387 151.985V153.86C125.387 153.86 116.785 155.102 112.845 153.5L113.131 151.985Z" fill="#292C47"/>
<path d="M118.128 123.888C117.767 124.049 117.345 124.248 116.885 124.459C115.94 124.894 114.859 125.39 114.013 125.8C113.566 126.011 113.007 126.26 112.584 126.446C112.634 127.985 112.708 129.637 112.845 131.412C112.845 131.412 112.969 135.733 113.218 139.83C113.305 140.414 113.342 141.022 113.292 141.631C113.23 142.438 113.143 143.307 113.044 144.226C113.044 144.238 113.044 144.25 113.044 144.263C113.019 144.474 112.994 144.697 112.969 144.921C112.969 144.921 112.969 144.921 112.969 144.933C112.41 149.502 111.478 154.742 110.981 156.331C110.881 156.667 111.229 156.965 111.49 157.2L113.28 158.33C113.28 158.33 114.013 151.551 114.262 149.254C114.498 147.032 115.244 144.052 115.567 141.159C115.977 137.484 116.549 133.871 116.86 131.735C117.655 126.16 118.724 123.665 118.724 123.665L118.128 123.888Z" fill="#7450F0"/>
<path d="M129.488 140.239C129.624 142.102 128.841 152.395 129.624 152.544C130.407 152.693 133.304 152.06 133.304 152.06C133.304 152.06 133.664 140.96 133.552 139.792C133.465 138.948 132.123 126.234 131.402 125.725C130.992 125.427 127.934 124.347 126.442 123.763C126.169 123.652 125.908 123.552 125.659 123.465C125.336 123.813 121.98 130.046 121.706 135.099C121.632 136.639 121.992 139.892 122.266 142.549C122.564 145.38 122.887 147.59 123.123 149.961C123.596 154.63 123.919 158.342 123.919 158.342L128.568 156.269C129.326 155.896 130.358 154.344 130.084 153.562C129.015 150.557 127.66 145.417 127.648 142.772C127.648 142.772 128.17 136.304 128.58 134.888C128.58 134.876 129.314 137.868 129.488 140.239Z" fill="#7450F0"/>
<path d="M130.346 152.407C130.346 152.407 130.122 153.45 129.812 154.481C129.501 155.524 129.202 155.859 129.352 156.442C129.451 156.889 129.973 157.212 130.097 157.076C130.222 156.927 130.259 155.188 130.98 155.188C131.701 155.188 130.793 157.349 131.229 157.175C131.664 157.001 133.292 156.082 133.18 155.213C133.068 154.344 132.397 153.711 132.409 152.407C132.434 151.215 132.049 150.731 132.049 150.731L130.346 152.407Z" fill="#EEA886"/>
<path d="M130.905 155.114C130.905 155.114 129.948 155.375 130.06 158.615L131.142 158.417C131.142 158.417 131.092 156.629 131.403 155.648C131.403 155.648 131.328 155.015 130.905 155.114Z" fill="#7F827F"/>
<path d="M129.364 145.442L129.414 153.625C129.414 153.625 131.054 153.55 133.304 152.718L133.466 141.184L129.364 145.442Z" fill="#7450F0"/>
<path d="M119.035 124.943C119.035 124.943 118.911 126.657 120.365 126.694C121.807 126.731 122.963 125.353 122.963 125.353L120.564 125.974L119.097 124.732L119.035 124.943Z" fill="#D8D5E0"/>
<path d="M124.031 122.398C124.031 122.398 122.664 124.149 121.943 124.732L123.111 126.694L125.137 123.255L124.031 122.398Z" fill="#EAE6F2"/>
<path d="M119.321 125.055L120.564 125.974C120.564 125.974 119.483 124 119.458 123.118L119.321 125.055Z" fill="#B4B1BA"/>
<path d="M119.444 123.105L118.649 123.664L117.766 126.296L119.32 125.055L119.444 123.105Z" fill="#EAE6F2"/>
<path d="M113.044 136.739C113.044 136.739 113.392 139.781 113.205 142.562C113.019 145.343 112.26 149.776 112.26 149.776C112.26 149.776 112.26 140.029 113.044 136.739Z" fill="#1A1859"/>
<path d="M115.517 114.303C115.517 114.303 114.647 116.426 115.219 116.674C115.691 116.885 114.933 118.959 114.846 119.294C114.759 119.629 115.703 119.766 115.927 119.952C116.151 120.138 116.996 122.622 117.779 122.622C118.55 122.622 121.881 121.057 122.714 119.977C123.547 118.897 123.857 114.414 123.037 112.614C122.192 110.826 117.058 110.59 115.517 114.303Z" fill="#EEA886"/>
<path d="M115.343 114.762C115.343 114.762 114.013 112.713 115.853 110.888C117.692 109.063 121.695 111.496 122.13 111.571C122.565 111.633 125.076 112.167 124.243 115.991C123.497 119.393 123.423 119.48 123.423 119.48C123.423 119.48 122.428 117.679 121.956 117.406C121.223 116.984 119.756 117.257 119.756 117.257C119.756 117.257 120.265 115.308 119.134 115.159C117.978 115.01 116.425 114.228 115.343 114.762Z" fill="#323657"/>
<path d="M120.8 116.065C120.874 115.792 121.073 114.65 122.092 115.209C123.112 115.755 121.782 118.015 121.62 118.052C121.471 118.102 120.216 118.325 120.8 116.065Z" fill="#EEA886"/>
<path d="M122.564 120.138C122.54 120.2 121.781 122.038 119.457 122.969C119.457 122.919 119.457 122.882 119.457 122.832C119.457 122.609 119.445 122.373 119.432 122.224C119.432 122.174 119.42 122.125 119.42 122.087C119.407 122.087 121.918 120.908 122.564 120.138Z" fill="#A77860"/>
<path d="M147.524 83.4362H121.123V103.24V107.399L125.15 103.24H147.524V83.4362Z" fill="#7450F0"/>
<path d="M38.5889 83.4362H64.99V103.24V107.399L60.9627 103.24H38.5889V83.4362Z" fill="#00C1B4"/>
<path d="M134.013 99.8752C133.478 99.8379 132.969 99.6393 132.583 99.304C132.148 98.9316 131.9 98.4225 131.9 97.8886C131.825 96.8332 131.502 95.753 131.228 95.0081C129.936 93.9775 129.24 92.3883 129.364 90.7494C129.575 88.0178 131.962 85.9692 134.696 86.1802C137.431 86.3913 139.482 88.7752 139.27 91.5067C139.159 92.9967 138.4 94.3252 137.182 95.1819C136.809 96.1876 136.586 97.1064 136.523 97.9259C136.511 99.0185 135.467 99.9 134.199 99.8876C134.137 99.8876 134.075 99.8876 134.013 99.8752ZM134.671 86.5776C132.161 86.3913 129.973 88.2661 129.774 90.7742C129.662 92.3014 130.309 93.7789 131.527 94.7101L131.576 94.7473L131.601 94.797C131.887 95.5668 132.235 96.7215 132.322 97.8514V97.8638C132.322 98.2859 132.509 98.6708 132.857 98.9688C133.217 99.2792 133.702 99.453 134.212 99.453C135.256 99.4655 136.113 98.7577 136.126 97.8886V97.8762V97.8638C136.2 96.9947 136.436 96.0138 136.834 94.946L136.859 94.8839L136.909 94.8467C138.052 94.0645 138.773 92.8104 138.885 91.4322C139.059 88.9614 137.17 86.7762 134.671 86.5776Z" fill="white"/>
<path d="M133.08 98.187L132.434 92.7736L133.565 93.7172L134.261 92.935L134.87 93.6675L135.927 92.7736L135.28 98.187L134.883 98.1373L135.405 93.742L134.82 94.2387L134.249 93.5558L133.602 94.2759L132.956 93.742L133.49 98.1373L133.08 98.187Z" fill="white"/>
<path d="M135.968 99.4053L132.45 99.3816L132.441 100.797L135.959 100.821L135.968 99.4053Z" fill="white"/>
<path d="M136.56 97.9558L131.899 97.9246L131.884 100.209L136.545 100.24L136.56 97.9558Z" fill="white"/>
<path d="M55.0465 90.6251C54.9471 90.5134 54.7979 90.4016 54.6115 90.2775C54.425 90.1533 54.2013 90.0291 53.9527 89.9174C53.7041 89.8056 53.4306 89.7063 53.1323 89.6194C52.834 89.5325 52.5232 89.4828 52.2125 89.458L52.2001 92.8476L52.5108 92.9097C53.095 93.0587 53.6295 93.2077 54.1018 93.3939C54.5742 93.5677 54.9719 93.7788 55.3075 94.0395C55.6307 94.2879 55.8917 94.5983 56.0658 94.9707C56.2398 95.3308 56.3392 95.7778 56.3268 96.2993C56.3268 96.8828 56.2149 97.3671 56.016 97.7768C55.8047 98.1865 55.5188 98.5218 55.1584 98.7949C54.7855 99.0681 54.3629 99.2667 53.8781 99.4033C53.3933 99.5399 52.8713 99.6144 52.3119 99.6144V101.328H51.4543V99.5771C50.6712 99.515 49.9254 99.366 49.2169 99.1053C48.5084 98.8446 47.862 98.4845 47.2654 98.0251L48.1106 96.4607C48.2349 96.5972 48.4089 96.7338 48.6327 96.8828C48.8564 97.0318 49.1299 97.1808 49.4282 97.3298C49.7389 97.4788 50.0745 97.603 50.435 97.7147C50.7955 97.8264 51.1808 97.9009 51.5786 97.9506L51.591 94.561C51.5288 94.5362 51.4543 94.5238 51.3921 94.4989C51.3175 94.4865 51.2554 94.4617 51.1932 94.4368C50.609 94.2879 50.1118 94.114 49.6768 93.9526C49.2417 93.7788 48.8937 93.5801 48.6078 93.3318C48.3219 93.0959 48.1106 92.8103 47.9615 92.4875C47.8123 92.1647 47.7377 91.7798 47.7501 91.3204C47.7501 90.7865 47.8496 90.3147 48.036 89.8926C48.2225 89.4828 48.4835 89.1228 48.8316 88.8248C49.1672 88.5268 49.5649 88.2909 50.0248 88.1295C50.4723 87.9681 50.9819 87.8563 51.5288 87.8191V86.1677H52.3865V87.8191C53.095 87.8687 53.7538 88.0053 54.3504 88.2536C54.9471 88.502 55.4816 88.7875 55.9415 89.1228L55.0465 90.6251ZM49.6395 91.0348C49.6395 91.4942 49.8011 91.8419 50.1243 92.0654C50.4474 92.3013 50.9322 92.4999 51.591 92.6738L51.6034 89.4456C50.9322 89.4704 50.4474 89.6318 50.1243 89.905C49.8011 90.1905 49.6395 90.563 49.6395 91.0348ZM54.3504 96.4855C54.3504 96.0013 54.164 95.6412 53.7787 95.3929C53.3933 95.1446 52.8588 94.9211 52.1752 94.7224L52.1628 97.963C52.8588 97.9506 53.4058 97.8264 53.7787 97.5781C54.164 97.3298 54.3504 96.9573 54.3504 96.4855Z" fill="white"/>
<path d="M140.949 10.9255L135.007 7.51111V9.75842H126.182V12.0926H135.007V14.3524L140.949 10.9255Z" fill="#0E97F7"/>
<path d="M126.182 3.41443L132.124 6.84127V4.58154H140.949V2.25973H132.124V0L126.182 3.41443Z" fill="#0E97F7"/>
<path d="M53.368 171.902C63.1927 162.088 63.1927 146.177 53.368 136.363C43.5432 126.549 27.6141 126.549 17.7893 136.363C7.96455 146.177 7.96455 162.088 17.7893 171.902C27.6141 181.716 43.5432 181.716 53.368 171.902Z" fill="#F8BB66"/>
<path d="M41.397 178.581L32.7209 129.165C45.8594 127.65 58.0531 136.614 60.3651 149.788C62.677 162.961 54.262 175.539 41.397 178.581Z" fill="#F8BB66"/>
<path d="M10.7938 158.479C8.75531 146.895 15.02 135.77 25.312 131.188L33.7519 179.214C22.5152 178.394 12.8323 170.063 10.7938 158.479Z" fill="#F8BB66"/>
<path d="M49.097 167.635C56.5627 160.178 56.5627 148.087 49.097 140.63C41.6314 133.172 29.5271 133.172 22.0615 140.63C14.5958 148.087 14.5958 160.178 22.0615 167.635C29.5271 175.092 41.6314 175.092 49.097 167.635Z" fill="#F89829"/>
<path d="M36.462 147.503C36.2134 147.479 35.8902 147.491 35.5049 147.541C35.1195 147.59 34.6969 147.69 34.2494 147.826C33.802 147.963 33.3296 148.149 32.8573 148.373C32.385 148.608 31.9251 148.882 31.49 149.204L35.2936 153.55L35.7659 153.289C36.6857 152.805 37.5434 152.42 38.3513 152.11C39.1593 151.799 39.9175 151.626 40.6136 151.576C41.3221 151.526 41.9933 151.638 42.6272 151.911C43.2736 152.184 43.8826 152.644 44.4668 153.327C45.1132 154.072 45.5358 154.816 45.7347 155.574C45.9211 156.331 45.946 157.089 45.772 157.846C45.6104 158.603 45.2872 159.348 44.8149 160.069C44.3425 160.789 43.7583 161.472 43.0498 162.105L44.9765 164.315L43.8826 165.271L41.9187 163.024C40.8497 163.831 39.7062 164.476 38.5129 164.936C37.3196 165.407 36.0766 165.668 34.8088 165.743L34.1127 162.788C34.411 162.825 34.7964 162.812 35.2687 162.75C35.741 162.688 36.2382 162.577 36.7976 162.415C37.3445 162.254 37.9163 162.043 38.5129 161.77C39.1095 161.496 39.6813 161.174 40.2282 160.789L36.4247 156.443C36.3128 156.493 36.2009 156.542 36.1015 156.604C35.9896 156.666 35.8778 156.716 35.7783 156.766C34.8585 157.213 34.0381 157.573 33.2923 157.846C32.5465 158.107 31.8629 158.256 31.229 158.256C30.5951 158.268 29.9984 158.144 29.4515 157.896C28.9046 157.647 28.3701 157.225 27.848 156.642C27.2514 155.959 26.8288 155.239 26.6051 154.506C26.3813 153.761 26.3192 153.016 26.4062 152.246C26.5056 151.477 26.7542 150.732 27.1395 150.011C27.5373 149.291 28.0593 148.596 28.7057 147.926L26.8536 145.802L27.9475 144.846L29.7995 146.97C30.7566 146.225 31.7635 145.678 32.8076 145.318C33.8517 144.958 34.8585 144.735 35.828 144.648L36.462 147.503ZM29.9984 154.109C30.508 154.692 31.1047 154.953 31.7759 154.891C32.4471 154.829 33.3048 154.531 34.3365 154.022L30.7193 149.887C29.899 150.67 29.4391 151.427 29.3521 152.135C29.2526 152.842 29.4764 153.5 29.9984 154.109ZM42.1797 155.785C41.6452 155.164 40.9865 154.916 40.2158 155.028C39.4451 155.139 38.5129 155.462 37.4066 155.971L41.0486 160.131C41.9311 159.336 42.478 158.566 42.6769 157.821C42.8882 157.076 42.7142 156.393 42.1797 155.785Z" fill="#F8C681"/>
<path d="M38.1292 128.668C38.1292 128.668 38.1541 129.028 38.0795 129.19C38.0795 129.19 37.9303 129.475 37.8433 129.686C37.8185 129.748 37.7936 129.811 37.7812 129.848C37.7315 130.009 37.6817 130.382 37.458 130.742C37.2343 131.102 35.8794 132.418 35.8794 132.418L34.9596 131.884L34.0273 131.512C34.0273 131.512 34.0522 128.917 34.2138 128.556C34.2262 128.519 34.2511 128.482 34.2635 128.457C34.4375 128.172 34.6861 128.023 34.798 127.874C34.8353 127.824 35.2703 127.327 35.4692 127.34C35.7427 127.352 35.9291 127.464 36.0286 127.625C36.0286 127.625 36.563 127.663 36.8241 127.911C36.8241 127.911 37.3088 127.936 37.5574 128.333C37.545 128.308 38.0422 128.395 38.1292 128.668Z" fill="#EEA886"/>
<path d="M9.39136 189.308C9.39136 189.308 9.14276 191.034 9.10547 191.295C9.06818 191.556 6.3336 191.146 6.3336 191.146L6.10986 189.085C6.10986 189.085 9.04332 189.072 9.39136 189.308Z" fill="#424773"/>
<path d="M9.14254 191.083C9.14254 191.083 10.0126 192.126 10.8454 192.573C11.6907 193.033 13.0082 193.207 13.5054 193.678C13.8659 194.014 14.8106 195.479 11.3178 195.441C7.82497 195.417 6.14693 195.653 5.77403 195.094C5.40114 194.535 6.32095 190.959 6.32095 190.959C6.32095 190.959 7.14132 191.257 9.14254 191.083Z" fill="#292C47"/>
<path d="M29.0288 189.308C29.0288 189.308 28.7802 191.034 28.7429 191.295C28.7056 191.556 25.9711 191.146 25.9711 191.146L25.7473 189.085C25.7597 189.085 28.6808 189.072 29.0288 189.308Z" fill="#424773"/>
<path d="M28.7805 191.083C28.7805 191.083 29.6506 192.126 30.4834 192.573C31.3286 193.033 34.4112 193.405 34.9084 193.865C35.2689 194.2 35.8655 195.566 30.9557 195.441C27.4629 195.355 25.7849 195.653 25.412 195.094C25.0391 194.535 25.9589 190.959 25.9589 190.959C25.9589 190.959 26.7295 191.282 28.7805 191.083Z" fill="#292C47"/>
<path d="M11.6662 144.921C11.6662 144.921 9.09318 149.006 9.27963 152.706C9.46608 156.406 8.34739 160.428 7.96206 164.29C7.52701 168.598 5.76197 178.779 5.69982 181.076C5.63767 183.373 5.97327 190.724 5.97327 190.724L9.50337 190.811C9.50337 190.811 12.4741 173.006 13.2448 171.181C14.0154 169.368 17.819 156.406 17.9557 154.953C18.08 153.5 11.6662 144.921 11.6662 144.921Z" fill="#292C47"/>
<path d="M25.2136 145.467C25.2136 145.467 26.295 150.384 26.556 152.644C26.8171 154.903 27.8363 168.797 27.9606 170.212C28.0849 171.628 28.8183 188.712 29.5019 190.811H24.9899C24.9899 190.811 21.5219 178.395 21.5219 172.522C21.5219 166.649 18.8371 159.746 17.1093 155.872C15.3815 151.998 11.4164 151.899 10.3599 144.71C10.3599 144.71 23.7717 143.195 25.2136 145.467Z" fill="#292C47"/>
<path d="M15.9528 110.553C15.9528 110.553 19.4083 109.261 20.9994 111.893C22.5904 114.526 22.4412 119.79 20.7011 120.436C18.9609 121.081 16.3382 120.746 15.4432 119.095C14.5482 117.456 13.7403 115.072 13.79 113.483C13.8273 111.893 15.0454 111.012 15.9528 110.553Z" fill="#EEA886"/>
<path d="M20.3291 120.548C20.3291 120.548 20.1799 121.479 20.4285 121.939C20.6647 122.398 15.9538 122.41 15.9538 122.41C15.9538 122.41 15.5684 119.915 14.8475 117.804C14.1141 115.693 20.3291 120.548 20.3291 120.548Z" fill="#EEA886"/>
<path d="M14.835 117.803C14.835 117.803 15.1582 118.337 16.4882 118.126C17.8182 117.915 19.434 116.152 19.9934 115.953C20.5527 115.755 20.5527 115.432 20.5527 115.432L20.9008 115.941L21.485 115.978C21.485 115.978 20.9505 114.401 21.7584 113.756C22.5664 113.11 20.9132 108.64 16.6497 110.13C16.6497 110.13 13.3807 111.037 13.4926 112.887C13.6293 114.762 14.1016 116.872 14.835 117.803Z" fill="#3A3F47"/>
<path d="M20.7021 121.889C20.7021 121.889 20.6897 121.008 20.2919 120.933C19.8942 120.846 15.8917 120.461 15.407 120.66V121.678C15.407 121.666 16.3517 122.249 20.7021 121.889Z" fill="#E2D2CA"/>
<path d="M20.4662 114.774C20.3916 114.464 19.5961 113.57 19.2977 114.526C18.9994 115.482 19.7577 116.761 20.1803 116.649C20.6029 116.537 20.6526 115.556 20.4662 114.774Z" fill="#EEA886"/>
<path d="M36.5623 132.256C36.5929 132.271 36.5929 132.271 36.5623 132.256V132.256Z" fill="#323657"/>
<path d="M9.26652 152.321C9.26652 152.321 11.4293 153.674 15.0464 154.071C18.6635 154.469 26.4944 153.091 26.5565 152.656C26.6187 152.234 25.1644 141.655 25.2763 140.861C25.3881 140.066 25.1022 134.305 25.1022 134.305C25.152 135.087 26.3701 138.75 27.3272 140.476C27.6752 141.097 28.8312 143.058 29.3906 142.611C32.1003 140.451 36.1027 132.778 36.3637 132.716C36.14 132.616 34.1885 130.506 33.9399 130.419C33.7286 130.344 32.15 133.262 30.9567 134.541C30.4347 135.112 30.0493 135.522 30.0493 135.522C29.7137 134.752 28.1724 130.133 27.7249 128.469C26.6435 124.459 26.3577 124.211 26.3577 124.211C26.1091 123.255 20.6896 121.889 20.6896 121.889L15.3945 121.678C15.3945 121.678 10.5344 122.746 8.62017 123.615C8.43372 123.702 8.43372 127.948 7.93652 129.065L9.53998 132.393C9.53998 132.393 9.75129 138.911 9.93774 141.854C10.0247 143.207 9.26652 152.321 9.26652 152.321Z" fill="#384C9E"/>
<path d="M7.31408 135.67C7.46324 136.167 7.86099 137.16 8.30847 137.334C8.59436 137.446 9.42716 137.483 9.80006 137.471L10.173 137.409L14.1381 136.217C14.1381 136.217 15.0206 126.035 8.61922 123.602C8.4452 123.664 5.89707 131.114 7.31408 135.67Z" fill="#384C9E"/>
<path d="M30.0745 135.521L30.5219 138.278C30.5219 138.278 30.9943 135.509 30.9694 134.528C30.4474 135.112 30.0745 135.521 30.0745 135.521Z" fill="#1C264F"/>
<path d="M14.9712 110.864C14.9712 110.864 10.8817 111.745 14.8966 117.904L14.9712 110.864Z" fill="#3A3F47"/>
<defs>
<linearGradient id="paint0_linear" x1="140.645" y1="-12.8329" x2="140.645" y2="37.1066" gradientUnits="userSpaceOnUse">
<stop stop-color="#DFEAF0"/>
<stop offset="1" stop-color="#FFF9F5"/>
</linearGradient>
</defs>
</svg>
