<svg width="414" height="273" viewBox="0 0 414 273" fill="none" xmlns="http://www.w3.org/2000/svg">
<path d="M189.243 238.544C226.768 243.246 263.931 251.746 301.727 251.746C321.981 251.746 342.597 249.304 361.224 241.347C378.042 234.114 393.142 222.268 402.636 206.626C412.131 190.983 415.748 171.994 413.216 154.001C411.046 138.81 404.807 124.523 396.85 111.503C376.867 78.68 346.123 53.0004 311.492 36.4534C276.68 19.9064 238.161 12.2206 199.732 11.2259C161.122 10.3217 121.88 16.1991 87.1579 33.0174C52.4362 49.9261 22.5973 78.4991 8.49165 114.396C-7.78412 155.809 -1.99718 211.87 37.5168 237.911C50.1757 246.23 66.1802 248.31 81.1901 246.592C98.1892 244.693 113.742 236.103 130.56 236.103C150.362 236.193 169.531 236.103 189.243 238.544Z" fill="#0E97F7"/>
<path d="M356.25 39.7085C360.048 39.799 363.936 39.799 367.372 38.3522C371.079 36.8151 374.154 33.1982 373.973 29.1293C373.792 25.0603 369.361 21.5339 365.654 23.0711C363.032 24.1561 361.676 27.0496 361.314 29.7622C360.5 27.2304 357.697 25.5124 354.985 25.8741C352.362 26.2358 350.102 28.6772 350.011 31.3898C349.469 29.3101 347.208 27.6825 345.038 27.8634C342.868 28.0442 340.879 29.9431 340.698 32.1132C339.884 28.858 338.98 25.5124 336.629 23.0711C334.369 20.6297 330.209 19.6351 327.677 21.8052C324.784 24.337 325.688 28.858 326.864 32.5653C325.598 32.7461 324.332 33.1078 323.337 34.012C322.343 34.9162 321.89 36.363 322.433 37.448C322.976 38.6235 324.422 39.0756 325.779 39.166C335.906 39.4373 346.123 39.5277 356.25 39.7085Z" fill="#ECF4FF"/>
<path d="M82.9082 19.816C86.525 19.816 90.2323 19.7255 93.7587 18.9117C96.6521 18.1884 99.9977 16.2895 99.8169 13.2152C99.636 10.9547 97.2851 9.2367 95.0246 9.41755C92.7641 9.50797 90.7748 11.0451 89.5993 12.944C89.0568 10.4122 87.9717 7.78997 85.6208 6.70492C83.3603 5.52945 79.8339 6.97618 79.9243 9.50797C78.6584 6.88576 77.3925 4.17313 75.132 2.27429C72.0577 -0.257495 67.3558 -0.80002 64.0102 1.27966C60.6646 3.44976 59.1275 8.24207 61.0263 11.6781C58.9466 10.6834 56.3244 10.5026 54.2447 11.5876C52.1651 12.6727 50.8087 15.1141 51.2608 17.465C52.4363 22.8903 59.67 19.9064 63.3772 19.9064C69.8876 19.9064 76.3979 19.9064 82.9082 19.816Z" fill="#ECF4FF"/>
<path d="M253.804 33.4695C254.798 33.4695 255.883 33.4695 256.697 32.8365C257.601 32.1132 257.782 30.8473 257.873 29.6718C257.963 28.9484 257.963 28.1347 257.601 27.5017C257.149 26.7783 256.336 26.4167 255.612 26.1454C254.165 25.6933 252.628 25.422 251.182 25.9646C249.735 26.4167 248.559 27.8634 248.74 29.4006C248.198 28.1347 246.932 27.2304 245.575 27.14C244.219 27.0496 242.863 27.8634 242.139 29.0389C240.15 23.6136 233.549 20.3585 228.034 22.0765C226.768 22.5286 225.502 23.1615 224.779 24.337C224.055 25.5125 223.965 27.14 224.959 28.1347C225.502 28.6772 226.225 29.0389 226.497 29.6718C226.677 30.1239 226.587 30.4856 226.587 30.9377C226.949 35.3683 235.177 34.5545 238.071 34.1024C243.134 33.1982 248.469 33.4695 253.804 33.4695Z" fill="white"/>
<path d="M358.873 123.8V128.864L363.213 124.252L358.873 123.8Z" fill="white"/>
<path d="M359.958 124.252L377.138 110.418L369 126.603L359.958 124.252Z" fill="white"/>
<path d="M377.138 110.418L352.905 121.268L359.958 124.252L377.138 110.418Z" fill="white"/>
<path d="M359.958 124.252L358.873 123.8L377.138 110.418L359.958 124.252Z" fill="#662D91"/>
<path d="M70.7016 222.54C70.8825 221.003 70.9729 219.194 69.9783 217.928C68.5316 216.03 65.2764 216.391 63.468 218.019C61.6596 219.646 60.9362 222.178 60.3032 224.529C64.0105 212.955 67.6273 199.663 61.2075 189.355C60.4841 188.18 59.4895 187.004 58.2236 186.462C56.2343 185.739 53.8834 186.733 52.527 188.361C51.1707 189.988 50.6282 192.158 50.1761 194.238C48.8198 200.568 48.1868 206.988 48.3677 213.498C49.1815 207.982 47.4635 202.105 43.6658 198.036C43.2137 199.211 42.7616 200.477 42.3999 201.653C44.57 191.706 43.5754 181.037 39.6873 171.633C37.9693 167.383 34.7141 162.862 30.1027 162.953C26.305 163.043 23.3211 166.388 21.8743 169.915C18.5288 177.962 20.6085 187.185 23.7732 195.233C27.0283 203.461 31.3685 211.147 36.7034 218.2C35.3471 215.577 31.459 215.035 29.0176 216.753C26.5762 218.471 25.672 221.726 26.2146 224.71C26.7571 227.603 28.4751 230.135 30.4643 232.396C34.5333 236.826 39.8681 239.991 45.6551 241.528C60.3937 245.507 69.2549 235.832 70.7016 222.54Z" fill="#7BB3E8"/>
<path d="M56.5052 238.816C56.5052 238.816 26.2142 204.184 30.5544 166.66" stroke="#244E80" stroke-width="0.8504" stroke-miterlimit="10" stroke-linecap="round" stroke-linejoin="round"/>
<path d="M37.4268 175.883C37.4268 175.883 35.3471 186.1 31.9111 190.079" stroke="#244E80" stroke-width="0.8504" stroke-miterlimit="10" stroke-linecap="round" stroke-linejoin="round"/>
<path d="M34.8048 200.387C34.8048 200.387 31.3688 201.653 28.2041 197.584" stroke="#244E80" stroke-width="0.8504" stroke-miterlimit="10" stroke-linecap="round" stroke-linejoin="round"/>
<path d="M57.5001 191.435C57.5001 191.435 58.9469 211.509 48.9102 228.688" stroke="#244E80" stroke-width="0.8504" stroke-miterlimit="10" stroke-linecap="round" stroke-linejoin="round"/>
<path d="M52.6173 233.842C52.6173 233.842 41.4051 233.752 30.645 222.63" stroke="#244E80" stroke-width="0.8504" stroke-miterlimit="10" stroke-linecap="round" stroke-linejoin="round"/>
<path d="M67.7176 219.646C67.7176 219.646 63.1061 233.3 54.9683 237.007" stroke="#244E80" stroke-width="0.8504" stroke-miterlimit="10" stroke-linecap="round" stroke-linejoin="round"/>
<path d="M56.0537 209.338C56.0537 209.338 61.1173 207.168 62.3832 198.307" stroke="#244E80" stroke-width="0.8504" stroke-miterlimit="10" stroke-linecap="round" stroke-linejoin="round"/>
<path d="M41.2242 230.587C41.2242 230.587 39.8679 234.023 33.7192 231.22" stroke="#244E80" stroke-width="0.8504" stroke-miterlimit="10" stroke-linecap="round" stroke-linejoin="round"/>
<path d="M41.5859 216.21C41.5859 216.21 45.2028 210.062 45.0219 203.009" stroke="#244E80" stroke-width="0.8504" stroke-miterlimit="10" stroke-linecap="round" stroke-linejoin="round"/>
<g filter="url(#filter0_d)">
<path d="M346.757 228.055H51.1705C46.1974 228.055 42.1284 223.986 42.1284 219.013V55.4418C42.1284 50.4686 46.1974 46.3997 51.1705 46.3997H346.757C351.73 46.3997 355.799 50.4686 355.799 55.4418V219.013C355.799 223.986 351.73 228.055 346.757 228.055Z" fill="#383838"/>
<path d="M345.581 55.8035H52.2554V218.471H345.581V55.8035Z" fill="white"/>
<path d="M345.581 55.8035H52.2554V68.5528H345.581V55.8035Z" fill="#D7EFF9"/>
<path d="M113.561 70.4517H54.1543V216.391H113.561V70.4517Z" fill="#D7EFF9"/>
<path d="M183.908 70.4517H181.376V216.391H183.908V70.4517Z" fill="#D7EFF9"/>
<path d="M163.383 77.5044H116.816V81.5733H163.383V77.5044Z" fill="#D7EFF9"/>
<path d="M107.141 77.5044H60.5742V81.5733H107.141V77.5044Z" fill="white"/>
<path d="M107.141 143.24H60.5742V147.309H107.141V143.24Z" fill="white"/>
<path d="M104.248 152.554H60.5742V156.623H104.248V152.554Z" fill="white"/>
<path d="M75.4033 161.867H60.5742V165.936H75.4033V161.867Z" fill="white"/>
<path d="M91.7694 171.181H60.5742V175.25H91.7694V171.181Z" fill="white"/>
<path d="M168.175 84.467H116.816V88.536H168.175V84.467Z" fill="#D7EFF9"/>
<path d="M163.383 91.5195H116.816V95.5885H163.383V91.5195Z" fill="#D7EFF9"/>
<path d="M173.601 98.5725H116.816V102.641H173.601V98.5725Z" fill="#D7EFF9"/>
<path d="M149.639 105.625H116.816V109.694H149.639V105.625Z" fill="#D7EFF9"/>
<path d="M166.367 112.588H116.816V116.657H166.367V112.588Z" fill="#D7EFF9"/>
<path d="M168.175 119.641H116.816V123.71H168.175V119.641Z" fill="#D7EFF9"/>
<path d="M62.2015 62.2233C62.2015 63.3988 61.2069 64.3934 60.0314 64.3934C58.856 64.3934 57.8613 63.3988 57.8613 62.2233C57.8613 61.0479 58.856 60.0532 60.0314 60.0532C61.2069 60.0532 62.2015 61.0479 62.2015 62.2233Z" fill="#E54C64"/>
<path d="M70.1586 62.2233C70.1586 63.3988 69.1639 64.3934 67.9885 64.3934C66.813 64.3934 65.8184 63.3988 65.8184 62.2233C65.8184 61.0479 66.813 60.0532 67.9885 60.0532C69.1639 60.0532 70.1586 61.0479 70.1586 62.2233Z" fill="#FBB040"/>
<path d="M78.1156 62.2233C78.1156 63.3988 77.121 64.3934 75.9455 64.3934C74.77 64.3934 73.7754 63.3988 73.7754 62.2233C73.7754 61.0479 74.77 60.0532 75.9455 60.0532C77.121 60.0532 78.1156 61.0479 78.1156 62.2233Z" fill="#8DC63F"/>
<path d="M336.629 64.3936H107.141C105.514 64.3936 104.157 63.0373 104.157 61.4097C104.157 59.7821 105.514 58.4258 107.141 58.4258H336.629C338.257 58.4258 339.613 59.7821 339.613 61.4097C339.613 63.0373 338.257 64.3936 336.629 64.3936Z" fill="white"/>
</g>
<rect x="198" y="141" width="134" height="18" fill="#D7EFF9"/>
<rect x="198" y="166" width="134" height="18" fill="#D7EFF9"/>
<rect x="198" y="192" width="134" height="18" fill="#D7EFF9"/>
<path d="M345.038 267.298C345.038 268.745 321.981 269.92 293.498 269.92C265.016 269.92 241.958 268.745 241.958 267.298C241.958 265.851 265.016 264.676 293.498 264.676C321.891 264.586 345.038 265.761 345.038 267.298Z" fill="#ECF4FF"/>
<path opacity="0.6" d="M274.329 165.484C271.345 167.473 267.276 166.66 265.197 163.676C263.207 160.692 264.021 156.623 267.005 154.543C269.989 152.554 274.058 153.368 276.138 156.352C278.127 159.336 277.313 163.405 274.329 165.484Z" fill="white"/>
<path opacity="0.6" d="M274.329 165.484C274.691 165.304 274.962 165.032 275.233 164.761L269.898 153.549C268.904 153.639 267.909 154.001 267.095 154.634C267.005 154.634 267.005 154.724 266.915 154.815L272.701 166.389C273.244 166.027 273.787 165.846 274.329 165.484Z" fill="white"/>
<path opacity="0.6" d="M271.616 166.479L265.829 155.538C265.649 155.719 265.468 155.99 265.287 156.261L270.531 166.569C270.893 166.569 271.255 166.569 271.616 166.479Z" fill="white"/>
<path d="M264.745 163.947C262.575 160.692 263.479 156.261 266.734 154.091C269.989 151.921 274.42 152.825 276.59 156.081C278.76 159.336 277.856 163.766 274.601 165.936C271.345 168.107 266.915 167.202 264.745 163.947ZM275.686 156.623C273.877 153.91 270.17 153.097 267.367 154.905C264.654 156.714 263.84 160.421 265.649 163.224C267.457 165.936 271.165 166.75 273.968 164.942C276.771 163.133 277.494 159.426 275.686 156.623Z" fill="#3D2B4F"/>
<path d="M265.558 164.128L252.447 173.351C251.995 173.713 251.362 173.532 251.001 173.08C250.639 172.628 250.82 171.995 251.272 171.633C251.272 171.633 251.272 171.633 251.362 171.633L265.016 163.133C265.287 162.953 265.649 163.043 265.83 163.314C265.83 163.586 265.739 163.947 265.558 164.128Z" fill="#3D2B4F"/>
<path d="M268 267.479V270.011C268 270.011 257.873 272 248.74 270.011L252.899 267.479H268Z" fill="#171C27"/>
<path d="M332.018 252.289H334.73C334.73 252.289 336.539 262.144 334.73 266.394C334.73 266.394 333.464 268.203 330.842 267.931C330.842 267.931 332.379 266.846 331.927 264.857V252.289H332.018Z" fill="#171C27"/>
<path d="M303.716 227.151L304.168 250.751L332.108 252.288C332.108 252.288 333.917 261.059 332.108 264.947H304.168C304.168 264.947 289.882 267.479 289.068 253.735C288.254 239.991 288.164 230.859 288.164 230.859C288.164 230.859 297.929 225.976 303.716 227.151Z" fill="#062538"/>
<path d="M304.168 223.716C304.168 223.716 307.423 234.204 301.365 236.375C295.307 238.545 266.734 236.375 266.734 236.375L268 267.479C268 267.479 259.862 270.011 252.899 267.479L251.995 230.949C251.995 230.949 249.735 220.46 270.079 222.178L304.168 223.716Z" fill="#0A3759"/>
<path d="M260.947 164.038C260.676 163.676 260.495 163.405 260.133 163.224C259.771 163.043 259.229 163.133 259.048 163.495C258.777 164.038 259.41 164.58 259.41 165.213C259.41 165.665 259.138 166.117 258.777 166.298C258.415 166.569 257.963 166.66 257.511 166.931C255.522 167.926 254.527 170.367 255.25 172.447C255.341 172.808 255.612 173.26 255.974 173.441C256.426 173.713 256.968 173.532 257.511 173.351C258.867 172.899 260.133 172.447 261.309 171.633C262.394 171 264.021 169.644 263.569 168.287C262.936 166.841 261.851 165.394 260.947 164.038Z" fill="#A05E47"/>
<path d="M301.003 215.577C301.094 215.577 301.184 215.577 301.275 215.577C305.343 215.397 308.327 214.131 310.317 211.78C312.125 209.7 312.577 207.168 312.396 205.541C312.396 205.36 312.306 205.179 312.306 204.998C310.497 196.679 303.806 186.1 303.535 185.648C302.088 183.388 299.104 182.755 296.844 184.111C294.583 185.558 293.95 188.542 295.307 190.802C296.844 193.243 300.913 200.296 302.45 205.631C302.088 205.722 301.546 205.812 300.732 205.902C298.11 205.993 296.03 208.253 296.121 210.966C296.301 213.498 298.471 215.577 301.003 215.577Z" fill="#7450F0"/>
<path d="M300.732 205.903C298.11 205.993 296.03 208.253 296.121 210.966C296.211 213.588 298.381 215.578 300.913 215.578C301.003 215.578 301.094 215.578 301.184 215.578C304.259 215.397 306.7 214.673 308.599 213.317C304.259 206.355 303.174 192.792 303.174 192.792L297.568 194.781C299.285 197.945 301.456 202.195 302.45 205.722C302.089 205.722 301.546 205.812 300.732 205.903Z" fill="#5331CA"/>
<path d="M271.436 182.935L285.813 182.483C288.435 182.393 290.695 184.473 290.786 187.185C290.876 189.807 288.796 192.068 286.084 192.158L268.723 192.701C268.633 192.701 268.633 192.701 268.542 192.701C266.734 192.701 265.106 191.706 264.292 190.169L254.979 172.989C257.782 171.181 263.479 168.378 263.479 168.378L271.436 182.935Z" fill="#7450F0"/>
<path d="M297.206 173.894L296.754 182.303L292.685 185.648L289.068 183.116L289.339 178.053L297.206 173.894Z" fill="#A05E47"/>
<path d="M290.786 181.218L288.616 181.127C285.27 180.946 282.648 178.053 282.829 174.707L283.281 166.389C283.462 163.043 286.355 160.421 289.701 160.602L291.871 160.692C295.216 160.873 297.839 163.766 297.658 167.112L297.206 175.431C296.934 178.867 294.131 181.398 290.786 181.218Z" fill="#A05E47"/>
<path d="M290.153 177.329C289.158 176.154 288.706 174.526 288.344 172.989C288.254 172.718 288.254 172.447 288.254 172.266C288.344 171.995 288.525 171.814 288.616 171.633C288.977 171.181 289.339 170.548 289.339 170.005C289.339 169.372 288.977 168.74 288.344 168.649C287.621 168.468 286.988 169.101 286.807 169.825C286.626 170.548 286.807 171.271 286.988 171.995C286.265 172.266 285.541 171.452 285.451 170.729C285.361 169.915 285.722 169.192 285.632 168.378C285.541 167.112 284.456 166.208 283.733 165.213C283.01 164.218 282.558 162.591 283.552 161.777C284.004 161.415 284.547 161.325 284.999 161.144C285.813 160.692 286.265 159.878 286.988 159.426C287.531 159.064 288.164 158.974 288.706 158.884C292.413 158.341 296.663 159.607 298.381 162.953C299.737 165.394 299.376 168.468 299.014 171.181C298.743 173.532 298.743 177.239 296.392 178.505C294.403 179.409 291.69 179.047 290.153 177.329Z" fill="#171C27"/>
<path d="M296.573 181.941C296.573 181.941 304.801 181.941 304.168 190.712C303.535 199.483 302.45 204.727 303.445 210.514C304.439 216.21 304.168 223.715 304.168 223.715C304.168 223.715 287.259 229.231 278.036 223.173C278.036 223.173 279.393 194.509 279.664 190.169C279.935 185.739 284.095 181.941 290.695 181.941C297.206 181.941 297.206 181.941 297.206 181.941" fill="#7450F0"/>
<path d="M290.062 223.354C298.291 223.354 304.168 220.37 304.258 220.37C304.349 220.37 304.349 220.189 304.349 220.189C304.349 220.099 304.168 220.099 304.168 220.099C304.078 220.189 292.052 226.157 278.488 220.912C278.398 220.912 278.308 220.912 278.308 221.003C278.308 221.093 278.308 221.184 278.398 221.184C282.467 222.811 286.536 223.354 290.062 223.354Z" fill="#0D314C"/>
<path d="M303.987 216.211C304.078 216.211 304.168 216.12 304.168 216.03C304.078 213.136 303.535 210.424 303.535 210.424C302.812 206.355 303.174 202.557 303.716 197.403C303.897 195.414 304.168 193.244 304.349 190.712C304.349 190.621 304.259 190.531 304.168 190.531C304.078 190.531 303.987 190.621 303.987 190.712C303.806 193.153 303.626 195.414 303.445 197.403C302.993 202.467 302.541 206.445 303.264 210.514C303.264 210.514 303.806 213.227 303.897 216.03C303.897 216.12 303.897 216.211 303.987 216.211Z" fill="#0D314C"/>
<path d="M256.154 174.978C261.037 173.712 264.744 170.367 264.744 170.367C264.835 170.276 264.835 170.186 264.744 170.096C264.654 170.005 264.563 170.005 264.473 170.096C264.473 170.096 260.766 173.441 256.064 174.617C255.973 174.617 255.883 174.707 255.973 174.798C255.973 174.978 256.064 174.978 256.154 174.978Z" fill="#0D314C"/>
<path d="M264.111 170.277C264.202 170.277 264.202 170.277 264.111 170.277C264.292 170.186 264.292 170.096 264.202 170.005L263.478 168.92C263.388 168.83 263.298 168.83 263.298 168.92C263.207 169.011 263.207 169.101 263.298 169.101L264.021 170.186C264.021 170.277 264.111 170.277 264.111 170.277Z" fill="#0D314C"/>
<path d="M263.388 170.91C263.569 170.819 263.569 170.729 263.569 170.638C263.388 170.186 263.117 169.825 262.755 169.463C262.665 169.372 262.574 169.372 262.484 169.463C262.394 169.553 262.394 169.644 262.484 169.734C262.755 170.096 263.027 170.457 263.207 170.91C263.298 170.91 263.298 170.91 263.388 170.91Z" fill="#0D314C"/>
<path d="M262.574 171.543C262.755 171.452 262.755 171.362 262.755 171.271C262.574 170.91 262.303 170.548 262.122 170.186C262.032 170.096 261.941 170.096 261.941 170.186C261.851 170.277 261.851 170.367 261.941 170.367C262.213 170.729 262.393 171.09 262.574 171.452C262.484 171.543 262.484 171.543 262.574 171.543Z" fill="#0D314C"/>
<path d="M261.67 171.904H261.761C261.851 171.814 261.851 171.723 261.761 171.723C261.489 171.271 261.218 170.819 260.947 170.367C260.947 170.277 260.766 170.277 260.766 170.277C260.676 170.277 260.676 170.367 260.676 170.457C260.947 170.91 261.218 171.362 261.489 171.814C261.58 171.904 261.67 171.904 261.67 171.904Z" fill="#0D314C"/>
<path d="M260.676 172.628C260.766 172.628 260.766 172.628 260.676 172.628C260.856 172.537 260.857 172.447 260.857 172.356L260.314 171.09C260.314 171 260.224 171 260.133 171C260.043 171 260.043 171.09 260.043 171.181L260.585 172.447C260.585 172.537 260.676 172.628 260.676 172.628Z" fill="#0D314C"/>
<path d="M259.771 172.989H259.862C259.952 172.899 259.952 172.808 259.862 172.808C259.5 172.356 259.229 171.904 258.958 171.362C258.958 171.271 258.777 171.271 258.777 171.271C258.686 171.271 258.686 171.452 258.686 171.452C258.958 171.995 259.229 172.447 259.59 172.899C259.681 172.989 259.681 172.989 259.771 172.989Z" fill="#0D314C"/>
<path d="M258.867 173.532C259.048 173.441 259.048 173.351 259.048 173.26L258.415 171.994C258.415 171.904 258.234 171.904 258.234 171.904C258.144 171.904 258.144 171.994 258.144 172.085L258.777 173.351C258.777 173.441 258.777 173.532 258.867 173.532Z" fill="#0D314C"/>
<path d="M257.692 173.894C257.782 173.894 257.782 173.894 257.692 173.894C257.873 173.803 257.873 173.713 257.873 173.622C257.601 173.17 257.33 172.628 257.149 172.176C257.149 172.085 257.059 172.085 256.968 172.085C256.878 172.085 256.878 172.176 256.878 172.266C257.149 172.718 257.33 173.261 257.601 173.713C257.601 173.803 257.692 173.894 257.692 173.894Z" fill="#0D314C"/>
<path d="M256.516 174.346H256.607C256.697 174.255 256.697 174.165 256.607 174.074C256.335 173.803 256.155 173.441 256.064 173.08C256.064 172.989 255.974 172.989 255.883 172.989C255.793 172.989 255.793 173.08 255.793 173.17C255.974 173.532 256.155 173.893 256.426 174.255L256.516 174.346Z" fill="#0D314C"/>
<path d="M303.354 223.806C303.445 223.806 303.535 223.715 303.535 223.625V221.364C303.535 221.274 303.445 221.184 303.354 221.184C303.264 221.184 303.173 221.274 303.173 221.364V223.625C303.173 223.806 303.264 223.806 303.354 223.806Z" fill="#0D314C"/>
<path d="M302.36 223.715C302.45 223.715 302.541 223.625 302.541 223.534V221.907C302.541 221.816 302.45 221.726 302.36 221.726C302.269 221.726 302.179 221.816 302.179 221.907V223.534C302.179 223.625 302.269 223.715 302.36 223.715Z" fill="#0D314C"/>
<path d="M301.184 224.258C301.275 224.258 301.365 224.167 301.365 224.077V222.268C301.365 222.178 301.275 222.088 301.184 222.088C301.094 222.088 301.003 222.178 301.003 222.268V224.077C301.003 224.258 301.094 224.258 301.184 224.258Z" fill="#0D314C"/>
<path d="M299.828 224.529C299.918 224.529 300.009 224.439 300.009 224.349V222.902C300.009 222.811 299.918 222.721 299.828 222.721C299.737 222.721 299.647 222.811 299.647 222.902V224.349C299.647 224.439 299.737 224.529 299.828 224.529Z" fill="#0D314C"/>
<path d="M298.562 224.8C298.652 224.8 298.743 224.71 298.743 224.619V222.992C298.743 222.901 298.652 222.811 298.562 222.811C298.472 222.811 298.381 222.901 298.381 222.992V224.619C298.472 224.8 298.472 224.8 298.562 224.8Z" fill="#0D314C"/>
<path d="M297.387 225.162C297.477 225.162 297.567 225.072 297.567 224.981V223.354C297.567 223.263 297.477 223.173 297.387 223.173C297.296 223.173 297.206 223.263 297.206 223.354V224.981C297.296 225.072 297.296 225.162 297.387 225.162Z" fill="#0D314C"/>
<path d="M296.03 225.072C296.121 225.072 296.211 224.981 296.211 224.891V223.354C296.211 223.263 296.121 223.173 296.03 223.173C295.94 223.173 295.849 223.263 295.849 223.354V224.891C295.849 225.072 295.94 225.072 296.03 225.072Z" fill="#0D314C"/>
<path d="M294.855 225.162C294.945 225.162 295.036 225.072 295.036 224.981V223.625C295.036 223.535 294.945 223.444 294.855 223.444C294.764 223.444 294.674 223.535 294.674 223.625V224.981C294.674 225.162 294.764 225.162 294.855 225.162Z" fill="#0D314C"/>
<path d="M293.77 225.614C293.86 225.614 293.951 225.524 293.951 225.433V223.806C293.951 223.715 293.86 223.625 293.77 223.625C293.679 223.625 293.589 223.715 293.589 223.806V225.433C293.589 225.524 293.679 225.614 293.77 225.614Z" fill="#0D314C"/>
<path d="M292.323 225.343C292.413 225.343 292.504 225.252 292.504 225.162V224.167C292.504 224.077 292.413 223.987 292.323 223.987C292.232 223.987 292.142 224.077 292.142 224.167V225.162C292.233 225.252 292.232 225.343 292.323 225.343Z" fill="#0D314C"/>
<path d="M291.419 225.614C291.509 225.614 291.599 225.524 291.599 225.433V224.258C291.599 224.168 291.509 224.077 291.419 224.077C291.328 224.077 291.238 224.168 291.238 224.258V225.524C291.238 225.524 291.328 225.614 291.419 225.614Z" fill="#0D314C"/>
<path d="M290.424 225.795C290.514 225.795 290.605 225.705 290.605 225.614V223.987C290.605 223.896 290.514 223.806 290.424 223.806C290.334 223.806 290.243 223.896 290.243 223.987V225.614C290.243 225.705 290.334 225.795 290.424 225.795Z" fill="#0D314C"/>
<path d="M289.429 225.795C289.52 225.795 289.61 225.705 289.61 225.614V223.987C289.61 223.896 289.52 223.806 289.429 223.806C289.339 223.806 289.249 223.896 289.249 223.987V225.614C289.249 225.705 289.339 225.795 289.429 225.795Z" fill="#0D314C"/>
<path d="M288.344 225.524C288.435 225.524 288.525 225.433 288.525 225.343V223.987C288.525 223.896 288.435 223.806 288.344 223.806C288.254 223.806 288.164 223.896 288.164 223.987V225.343C288.164 225.433 288.254 225.524 288.344 225.524Z" fill="#0D314C"/>
<path d="M287.259 225.343C287.35 225.343 287.44 225.253 287.44 225.162V223.987C287.44 223.896 287.35 223.806 287.259 223.806C287.169 223.806 287.078 223.896 287.078 223.987V225.162C287.078 225.253 287.169 225.343 287.259 225.343Z" fill="#0D314C"/>
<path d="M285.993 225.614C286.084 225.614 286.174 225.524 286.174 225.433V223.896C286.174 223.806 286.084 223.715 285.993 223.715C285.903 223.715 285.812 223.806 285.812 223.896V225.433C285.812 225.524 285.903 225.614 285.993 225.614Z" fill="#0D314C"/>
<path d="M284.818 225.343C284.908 225.343 284.999 225.252 284.999 225.162V223.444C284.999 223.354 284.908 223.263 284.818 223.263C284.727 223.263 284.637 223.354 284.637 223.444V225.162C284.637 225.252 284.727 225.343 284.818 225.343Z" fill="#0D314C"/>
<path d="M283.914 225.072C284.004 225.072 284.095 224.981 284.095 224.891V223.354C284.095 223.263 284.004 223.173 283.914 223.173C283.823 223.173 283.733 223.263 283.733 223.354V224.891C283.733 224.981 283.823 225.072 283.914 225.072Z" fill="#0D314C"/>
<path d="M282.738 224.891C282.829 224.891 282.919 224.8 282.919 224.71V222.992C282.919 222.901 282.829 222.811 282.738 222.811C282.648 222.811 282.557 222.901 282.557 222.992V224.71C282.648 224.8 282.648 224.891 282.738 224.891Z" fill="#0D314C"/>
<path d="M281.834 224.71C281.924 224.71 282.015 224.62 282.015 224.529V222.902C282.015 222.811 281.924 222.721 281.834 222.721C281.744 222.721 281.653 222.811 281.653 222.902V224.529C281.653 224.62 281.744 224.71 281.834 224.71Z" fill="#0D314C"/>
<path d="M280.659 224.348C280.749 224.348 280.839 224.258 280.839 224.167V222.721C280.839 222.63 280.749 222.54 280.659 222.54C280.568 222.54 280.478 222.63 280.478 222.721V224.167C280.478 224.348 280.568 224.348 280.659 224.348Z" fill="#0D314C"/>
<path d="M279.573 223.806C279.664 223.806 279.754 223.715 279.754 223.625V222.088C279.754 221.997 279.664 221.907 279.573 221.907C279.483 221.907 279.393 221.997 279.393 222.088V223.625C279.393 223.715 279.483 223.806 279.573 223.806Z" fill="#0D314C"/>
<path d="M278.76 223.444C278.85 223.444 278.941 223.354 278.941 223.263V221.636C278.941 221.545 278.85 221.455 278.76 221.455C278.669 221.455 278.579 221.545 278.579 221.636V223.263C278.579 223.444 278.669 223.444 278.76 223.444Z" fill="#0D314C"/>
<path d="M186.802 270.011C186.802 271.457 174.505 272.633 159.314 272.633C144.123 272.633 131.826 271.457 131.826 270.011C131.826 268.564 144.123 267.388 159.314 267.388C174.505 267.388 186.802 268.473 186.802 270.011Z" fill="#ECDEFF"/>
<path d="M137.975 164.399C138.065 163.676 138.065 162.862 137.884 162.138C137.523 161.234 136.799 160.511 135.895 160.059C134.991 159.697 133.996 159.607 133.002 159.607C132.64 159.607 132.188 159.697 131.826 159.878C131.284 160.059 130.922 160.511 130.47 160.873C130.108 161.234 129.837 161.596 129.656 161.958C129.566 162.319 129.475 162.591 129.475 162.952C129.385 164.218 129.656 165.484 130.199 166.66C130.47 167.112 130.741 167.564 131.103 167.835C131.645 168.287 132.369 168.468 133.002 168.558C133.635 168.649 134.267 168.739 134.9 168.558C136.709 168.106 137.794 166.027 137.975 164.399Z" fill="#D6957B"/>
<path opacity="0.6" d="M131.664 156.775C135.296 156.463 137.987 153.266 137.675 149.634C137.363 146.002 134.165 143.31 130.533 143.622C126.901 143.934 124.21 147.132 124.522 150.764C124.834 154.396 128.032 157.087 131.664 156.775Z" fill="white"/>
<path opacity="0.6" d="M137.522 148.847C137.432 148.485 137.342 148.123 137.161 147.762L124.773 148.576C124.502 149.57 124.502 150.565 124.683 151.559C124.683 151.65 124.683 151.74 124.773 151.831L137.703 150.746C137.703 150.113 137.613 149.48 137.522 148.847Z" fill="white"/>
<path opacity="0.6" d="M137.523 151.74L125.226 153.096C125.316 153.368 125.497 153.639 125.678 153.91L137.161 152.735C137.342 152.373 137.432 152.102 137.523 151.74Z" fill="white"/>
<path d="M132.549 157.165C128.661 157.979 124.864 155.538 124.05 151.65C123.236 147.761 125.677 143.964 129.566 143.15C133.454 142.336 137.251 144.778 138.065 148.666C138.879 152.554 136.438 156.351 132.549 157.165ZM129.837 144.325C126.582 145.049 124.502 148.214 125.225 151.469C125.949 154.724 129.113 156.804 132.369 156.08C135.624 155.357 137.703 152.192 136.98 148.937C136.257 145.682 133.092 143.692 129.837 144.325Z" fill="#3D2B4F"/>
<path d="M133.001 156.533L136.799 172.085C136.889 172.628 136.618 173.17 136.076 173.351C135.533 173.441 134.99 173.17 134.81 172.628C134.81 172.628 134.81 172.628 134.81 172.537L131.916 156.713C131.826 156.442 132.097 156.08 132.368 156.08C132.64 155.99 133.001 156.261 133.001 156.533Z" fill="#3D2B4F"/>
<path d="M128.39 164.399C128.842 162.319 130.65 160.511 132.73 160.42C133.544 160.42 134.539 160.782 134.539 161.596C134.539 162.048 134.267 162.5 133.815 162.771C133.453 163.043 132.911 163.133 132.459 163.223C133.453 163.585 133.906 164.761 133.996 165.846C134.086 167.202 133.725 168.649 132.82 169.643C132.007 170.457 129.837 171.452 129.023 170.186C128.028 168.739 128.028 165.936 128.39 164.399Z" fill="#EEB399"/>
<path d="M160.58 267.75V269.649C160.58 269.649 170.255 270.553 176.765 269.649L174.414 267.75H160.58Z" fill="#171E26"/>
<path d="M141.411 267.75V269.649C141.411 269.649 151.086 270.553 157.596 269.649L155.246 267.75H141.411Z" fill="#171E26"/>
<path d="M152.442 149.48C150.091 148.304 147.107 149.208 145.932 151.65L138.156 167.292L137.703 166.298C132.278 167.112 128.933 170.457 128.933 170.457L133.635 180.494C134.177 181.579 135.081 182.483 136.257 182.935C136.799 183.116 137.432 183.297 137.975 183.297C139.783 183.297 141.501 182.302 142.315 180.584L154.612 156.08C155.788 153.548 154.883 150.655 152.442 149.48Z" fill="#E54C64"/>
<path d="M152.623 149.027C150.272 147.852 147.65 148.937 146.384 151.378L144.756 154.724C146.836 161.053 146.384 168.83 146.294 172.446L154.793 155.538C155.969 153.187 155.064 150.293 152.623 149.027Z" fill="#99293F"/>
<path d="M153.166 138.177L153.618 146.586L157.687 149.932L161.303 147.49L161.032 142.427L153.166 138.177Z" fill="#EEB399"/>
<path d="M159.314 145.591L162.208 145.41C165.372 145.23 167.814 142.517 167.633 139.443L167.181 130.401C167 127.236 164.287 124.794 161.213 124.975L158.319 125.156C155.155 125.337 152.713 128.05 152.894 131.124L153.346 140.166C153.437 143.331 156.149 145.772 159.314 145.591Z" fill="#EEB399"/>
<path d="M160.219 141.613C161.213 140.437 161.665 138.81 162.027 137.363C162.117 137.092 162.117 136.821 162.117 136.64C162.027 136.368 161.846 136.188 161.756 136.007C161.394 135.555 161.032 134.922 161.032 134.379C161.032 133.746 161.394 133.113 162.027 133.023C162.75 132.842 163.383 133.475 163.564 134.198C163.745 134.922 163.564 135.645 163.383 136.368C164.107 136.64 164.83 135.826 164.92 135.103C165.011 134.289 164.649 133.565 164.74 132.752C164.83 131.486 165.915 130.581 166.638 129.587C167.362 128.592 167.814 126.965 166.819 126.151C166.367 125.789 165.825 125.699 165.373 125.518C164.559 125.066 164.107 124.252 163.383 123.8C162.841 123.438 162.208 123.348 161.665 123.257C157.958 122.715 153.799 123.981 151.99 127.326C150.634 129.768 150.996 132.752 151.357 135.555C151.629 137.906 151.629 141.613 153.98 142.788C155.969 143.693 158.772 143.331 160.219 141.613Z" fill="#171C27"/>
<path d="M174.233 185.105L174.505 267.75C174.505 267.75 165.553 268.745 160.67 267.75L159.223 197.222L155.787 268.202C155.787 268.202 147.107 268.745 141.501 268.202L147.288 187.456L174.233 185.105Z" fill="#171E26"/>
<path d="M173.781 154.543C173.871 155.086 173.962 155.538 174.052 156.08C174.233 157.618 174.504 159.155 174.685 160.782C175.047 164.309 175.318 167.835 175.409 171.452C175.589 175.611 175.589 179.68 175.228 183.84C174.956 187.637 173.419 188.541 169.893 189.807C166.819 190.892 163.473 191.254 160.218 191.345C157.505 191.435 148.463 191.345 147.197 187.637C146.836 186.371 148.192 183.568 148.373 182.302C148.644 180.494 148.825 178.686 148.825 176.787C148.825 173.26 148.373 169.643 147.378 166.298C145.931 161.506 143.128 157.075 145.57 152.283C148.011 147.4 153.798 145.953 158.862 145.863C161.484 145.863 164.196 146.044 166.728 146.857C167.994 147.31 169.079 147.762 170.074 148.666C171.068 149.57 171.973 150.565 172.696 151.74C173.238 152.554 173.51 153.549 173.781 154.543Z" fill="#E54C64"/>
<path d="M150.995 193.062C150.995 193.062 157.144 199.663 168.085 196.679" stroke="#5077B5" stroke-width="0.5669" stroke-miterlimit="10" stroke-linecap="round" stroke-linejoin="round"/>
<path d="M192.95 150.655L182.642 158.16L169.983 148.395C167.904 146.767 164.829 147.129 163.202 149.299C161.574 151.378 161.936 154.453 164.106 156.08L179.568 168.016C180.472 168.649 181.467 169.01 182.552 169.01C183.547 169.01 184.541 168.739 185.355 168.106L198.647 158.522C198.014 154.181 192.95 150.655 192.95 150.655Z" fill="#E54C64"/>
<path d="M138.246 167.112C138.246 167.112 135.986 170.728 136.257 173.893" stroke="#99293F" stroke-width="0.2835" stroke-miterlimit="10" stroke-linecap="round" stroke-linejoin="round"/>
<path d="M160.761 263.41C160.761 263.41 168.085 264.676 174.053 263.41" stroke="#5077B5" stroke-width="0.5669" stroke-miterlimit="10" stroke-linecap="round" stroke-linejoin="round"/>
<path d="M142.134 263.41C142.134 263.41 150.724 264.676 155.607 263.41" stroke="#5077B5" stroke-width="0.5669" stroke-miterlimit="10" stroke-linecap="round" stroke-linejoin="round"/>
<path d="M197.11 147.671C197.472 147.49 197.833 147.219 198.285 147.309C198.737 147.309 199.099 147.581 199.19 148.033C199.19 148.666 198.376 148.937 198.104 149.57C197.924 150.022 198.014 150.565 198.285 150.926C198.557 151.288 198.918 151.65 199.19 152.011C200.636 153.729 200.546 156.623 199.009 158.341C198.737 158.612 198.376 158.974 197.924 158.974C197.381 158.974 196.929 158.612 196.567 158.25C195.482 157.256 194.397 156.261 193.674 154.995C192.95 153.91 191.865 151.921 192.95 150.836C193.945 149.48 195.663 148.485 197.11 147.671Z" fill="#EEB399"/>
<path d="M163.021 140.437C163.835 142.246 165.101 143.873 166.819 144.958C167.362 145.32 168.085 145.772 167.904 146.405C167.814 146.676 167.633 146.857 167.362 147.038C165.734 148.214 163.654 148.394 161.665 148.485C160.128 148.575 158.681 148.666 157.144 148.756C153.527 149.027 149.82 149.208 146.474 147.942C146.293 147.852 146.113 147.761 146.022 147.581C145.751 147.219 146.203 146.676 146.565 146.405C148.192 144.868 149.187 142.788 149.639 140.618C150.362 137.363 149.91 134.017 150.543 130.762C150.905 128.954 151.719 127.055 153.437 126.332C154.522 125.88 155.878 126.06 156.963 126.693C158.319 127.507 158.952 128.954 159.947 130.129C161.032 131.305 161.484 132.932 161.484 134.56C161.303 136.459 162.208 138.629 163.021 140.437Z" fill="#171C27"/>
<path d="M174.957 164.489L167.994 159.155C167.994 159.155 173.691 166.117 175.318 170.457C175.318 170.457 175.318 167.835 174.957 164.489Z" fill="#99293F"/>
<path d="M151.719 183.478C151.809 184.111 151.719 184.744 151.447 185.286" stroke="#FBB040" stroke-miterlimit="10" stroke-linecap="round" stroke-linejoin="round"/>
<path d="M151.809 179.409C152.261 179.771 152.532 180.404 152.351 180.946" stroke="#FBB040" stroke-miterlimit="10" stroke-linecap="round" stroke-linejoin="round"/>
<path d="M157.777 177.691C157.686 177.962 157.686 178.233 157.596 178.505" stroke="#FBB040" stroke-miterlimit="10" stroke-linecap="round" stroke-linejoin="round"/>
<path d="M153.979 173.17C153.708 173.531 153.436 173.893 153.165 174.255" stroke="#FBB040" stroke-miterlimit="10" stroke-linecap="round" stroke-linejoin="round"/>
<path d="M161.394 172.898C161.846 173.531 162.298 174.255 162.569 174.978" stroke="#FBB040" stroke-miterlimit="10" stroke-linecap="round" stroke-linejoin="round"/>
<path d="M157.053 182.302C156.872 182.755 156.692 183.207 156.511 183.659" stroke="#FBB040" stroke-miterlimit="10" stroke-linecap="round" stroke-linejoin="round"/>
<path d="M140.597 177.419C140.416 177.872 140.235 178.324 140.054 178.776" stroke="#FBB040" stroke-miterlimit="10" stroke-linecap="round" stroke-linejoin="round"/>
<path d="M134.358 171.271C133.815 171.633 133.453 171.994 133.092 172.537" stroke="#FBB040" stroke-miterlimit="10" stroke-linecap="round" stroke-linejoin="round"/>
<path d="M135.714 176.515C135.714 177.239 135.714 177.962 135.714 178.776" stroke="#FBB040" stroke-miterlimit="10" stroke-linecap="round" stroke-linejoin="round"/>
<path d="M140.597 171.09C140.687 171.452 140.778 171.813 140.868 172.175" stroke="#FBB040" stroke-miterlimit="10" stroke-linecap="round" stroke-linejoin="round"/>
<path d="M142.948 164.58C143.129 164.942 143.309 165.213 143.49 165.574" stroke="#FBB040" stroke-miterlimit="10" stroke-linecap="round" stroke-linejoin="round"/>
<path d="M144.123 169.282C144.213 170.005 144.123 170.728 143.852 171.361" stroke="#FBB040" stroke-miterlimit="10" stroke-linecap="round" stroke-linejoin="round"/>
<path d="M147.56 154.543C148.102 154.091 148.645 153.729 149.187 153.368" stroke="#FBB040" stroke-miterlimit="10" stroke-linecap="round" stroke-linejoin="round"/>
<path d="M155.788 152.373C155.516 152.735 155.336 153.187 155.245 153.639" stroke="#FBB040" stroke-miterlimit="10" stroke-linecap="round" stroke-linejoin="round"/>
<path d="M150.091 158.431C150.001 158.883 149.91 159.245 149.82 159.697" stroke="#FBB040" stroke-miterlimit="10" stroke-linecap="round" stroke-linejoin="round"/>
<path d="M156.33 158.883C156.42 159.426 156.601 159.968 156.873 160.42" stroke="#FBB040" stroke-miterlimit="10" stroke-linecap="round" stroke-linejoin="round"/>
<path d="M164.287 164.309C164.196 164.851 164.015 165.484 163.744 166.027" stroke="#FBB040" stroke-miterlimit="10" stroke-linecap="round" stroke-linejoin="round"/>
<path d="M152.623 165.032C152.442 165.665 152.352 166.207 152.171 166.84" stroke="#FBB040" stroke-miterlimit="10" stroke-linecap="round" stroke-linejoin="round"/>
<path d="M159.043 166.569C159.043 166.931 159.043 167.292 159.043 167.654" stroke="#FBB040" stroke-miterlimit="10" stroke-linecap="round" stroke-linejoin="round"/>
<path d="M162.298 154.995C162.388 155.357 162.479 155.719 162.569 156.08" stroke="#FBB040" stroke-miterlimit="10" stroke-linecap="round" stroke-linejoin="round"/>
<path d="M167.452 152.373C167.723 152.735 167.995 153.006 168.266 153.368" stroke="#FBB040" stroke-miterlimit="10" stroke-linecap="round" stroke-linejoin="round"/>
<path d="M168.898 172.356C169.531 172.808 170.074 173.17 170.707 173.622" stroke="#FBB040" stroke-miterlimit="10" stroke-linecap="round" stroke-linejoin="round"/>
<path d="M166.367 179.771C166.367 180.223 166.367 180.584 166.367 181.036" stroke="#FBB040" stroke-miterlimit="10" stroke-linecap="round" stroke-linejoin="round"/>
<path d="M161.484 184.02C161.394 184.472 161.303 184.924 161.213 185.377" stroke="#FBB040" stroke-miterlimit="10" stroke-linecap="round" stroke-linejoin="round"/>
<path d="M170.165 167.112C170.707 167.383 171.159 167.654 171.702 167.925" stroke="#FBB040" stroke-miterlimit="10" stroke-linecap="round" stroke-linejoin="round"/>
<path d="M165.824 170.548C166.367 170.909 166.819 171.181 167.361 171.542" stroke="#FBB040" stroke-miterlimit="10" stroke-linecap="round" stroke-linejoin="round"/>
<path d="M171.069 182.664C170.978 183.207 170.978 183.659 170.888 184.201" stroke="#FBB040" stroke-miterlimit="10" stroke-linecap="round" stroke-linejoin="round"/>
<path d="M165.824 187.547C165.553 187.909 165.372 188.451 165.372 188.903" stroke="#FBB040" stroke-miterlimit="10" stroke-linecap="round" stroke-linejoin="round"/>
<path d="M170.797 157.437C171.159 157.889 171.611 158.341 172.154 158.612" stroke="#FBB040" stroke-miterlimit="10" stroke-linecap="round" stroke-linejoin="round"/>
<path d="M175.951 155.538C176.042 155.899 176.042 156.261 176.132 156.623" stroke="#FBB040" stroke-miterlimit="10" stroke-linecap="round" stroke-linejoin="round"/>
<path d="M178.483 162.048C178.302 162.41 178.212 162.771 178.031 163.133" stroke="#FBB040" stroke-miterlimit="10" stroke-linecap="round" stroke-linejoin="round"/>
<path d="M183.185 162.771C183.275 163.224 183.456 163.585 183.728 163.947" stroke="#FBB040" stroke-miterlimit="10" stroke-linecap="round" stroke-linejoin="round"/>
<path d="M187.435 157.346C187.706 157.617 187.887 157.889 188.158 158.16" stroke="#FBB040" stroke-miterlimit="10" stroke-linecap="round" stroke-linejoin="round"/>
<path d="M192.95 158.702C193.041 159.154 193.041 159.516 193.131 159.968" stroke="#FBB040" stroke-miterlimit="10" stroke-linecap="round" stroke-linejoin="round"/>
<path d="M187.435 160.149C187.616 160.692 187.796 161.234 187.977 161.777" stroke="#FBB040" stroke-miterlimit="10" stroke-linecap="round" stroke-linejoin="round"/>
<path d="M181.377 167.112C181.196 167.292 181.015 167.473 180.834 167.654" stroke="#FBB040" stroke-miterlimit="10" stroke-linecap="round" stroke-linejoin="round"/>
<path d="M179.478 158.341C179.93 158.522 180.292 158.702 180.744 158.883" stroke="#FBB040" stroke-miterlimit="10" stroke-linecap="round" stroke-linejoin="round"/>
<path d="M165.011 159.697C165.372 160.149 165.644 160.601 166.005 161.053" stroke="#FBB040" stroke-miterlimit="10" stroke-linecap="round" stroke-linejoin="round"/>
<path d="M155.245 188.361C154.974 188.541 154.793 188.722 154.521 188.903" stroke="#FBB040" stroke-miterlimit="10" stroke-linecap="round" stroke-linejoin="round"/>
<path d="M168.175 176.425C168.718 176.877 169.441 177.148 170.074 177.148" stroke="#FBB040" stroke-miterlimit="10" stroke-linecap="round" stroke-linejoin="round"/>
<path d="M173.42 177.691C173.51 178.324 173.42 179.047 173.148 179.68" stroke="#FBB040" stroke-miterlimit="10" stroke-linecap="round" stroke-linejoin="round"/>
<path d="M148.192 150.655C148.464 150.293 148.825 150.112 149.277 149.932" stroke="#FBB040" stroke-miterlimit="10" stroke-linecap="round" stroke-linejoin="round"/>
<path d="M142.586 160.782C142.948 160.33 143.309 159.968 143.671 159.516" stroke="#FBB040" stroke-miterlimit="10" stroke-linecap="round" stroke-linejoin="round"/>
<path d="M332.018 239.54C331.837 238.003 331.747 236.194 332.742 234.928C334.188 233.03 337.444 233.391 339.252 235.019C341.06 236.646 341.784 239.178 342.417 241.529C338.709 229.955 335.093 216.663 341.513 206.355C342.236 205.18 343.231 204.004 344.496 203.462C346.486 202.739 348.837 203.733 350.193 205.361C351.549 206.988 352.092 209.158 352.544 211.238C353.9 217.568 354.533 223.988 354.352 230.498C353.539 224.982 355.257 219.105 359.054 215.036C359.506 216.211 359.958 217.477 360.32 218.653C358.15 208.706 359.145 198.037 363.033 188.633C364.751 184.383 368.006 179.862 372.617 179.953C376.415 180.043 379.399 183.388 380.846 186.915C384.191 194.962 382.112 204.185 378.947 212.233C375.692 220.461 371.351 228.147 366.017 235.2C367.373 232.577 371.261 232.035 373.702 233.753C376.144 235.471 377.048 238.726 376.505 241.71C375.963 244.603 374.245 247.135 372.256 249.396C368.187 253.826 362.852 256.991 357.065 258.528C342.417 262.507 333.465 252.832 332.018 239.54Z" fill="#7BB3E8"/>
<path d="M346.214 255.816C346.214 255.816 376.505 221.184 372.165 183.66" stroke="#244E80" stroke-width="0.8504" stroke-miterlimit="10" stroke-linecap="round" stroke-linejoin="round"/>
<path d="M365.293 192.883C365.293 192.883 367.373 203.1 370.809 207.079" stroke="#244E80" stroke-width="0.8504" stroke-miterlimit="10" stroke-linecap="round" stroke-linejoin="round"/>
<path d="M367.916 217.387C367.916 217.387 371.352 218.653 374.516 214.584" stroke="#244E80" stroke-width="0.8504" stroke-miterlimit="10" stroke-linecap="round" stroke-linejoin="round"/>
<path d="M345.22 208.435C345.22 208.435 343.773 228.509 353.81 245.688" stroke="#244E80" stroke-width="0.8504" stroke-miterlimit="10" stroke-linecap="round" stroke-linejoin="round"/>
<path d="M350.193 250.842C350.193 250.842 361.405 250.752 372.165 239.63" stroke="#244E80" stroke-width="0.8504" stroke-miterlimit="10" stroke-linecap="round" stroke-linejoin="round"/>
<path d="M335.002 236.646C335.002 236.646 339.614 250.3 347.752 254.007" stroke="#244E80" stroke-width="0.8504" stroke-miterlimit="10" stroke-linecap="round" stroke-linejoin="round"/>
<path d="M346.667 226.338C346.667 226.338 341.603 224.168 340.337 215.307" stroke="#244E80" stroke-width="0.8504" stroke-miterlimit="10" stroke-linecap="round" stroke-linejoin="round"/>
<path d="M361.495 247.587C361.495 247.587 362.852 251.023 369 248.22" stroke="#244E80" stroke-width="0.8504" stroke-miterlimit="10" stroke-linecap="round" stroke-linejoin="round"/>
<path d="M361.134 233.21C361.134 233.21 357.517 227.062 357.698 220.009" stroke="#244E80" stroke-width="0.8504" stroke-miterlimit="10" stroke-linecap="round" stroke-linejoin="round"/>
<path d="M97.828 231.8C97.7375 231.258 97.5567 230.625 97.1046 230.263C96.5621 229.901 95.8387 229.992 95.2058 230.173C89.9613 231.529 85.5307 235.688 83.7223 240.752C83.9936 228.997 82.366 217.152 78.6587 205.94C77.9354 203.679 77.1216 201.419 75.494 199.701C73.8664 197.983 71.2442 196.988 69.0741 197.802C67.4465 198.435 66.3615 199.882 65.5477 201.328C59.3991 211.817 61.8404 225.109 65.819 236.683C64.1914 234.332 60.3033 234.061 58.4044 236.14C56.5056 238.22 56.9577 242.018 59.3991 243.555C58.7661 241.294 56.596 239.938 54.5163 238.943C49.6336 236.592 43.0329 235.507 39.3256 239.486C35.2567 243.736 37.4268 250.969 41.4053 255.31C47.0114 261.277 55.2397 264.08 63.3776 264.713C71.2442 265.256 83.3606 265.437 89.4188 259.469C96.11 252.597 99.4555 240.842 97.828 231.8Z" fill="#987FC9"/>
<path d="M71.2441 199.429C71.2441 199.429 82.4563 241.927 71.2441 261.006" stroke="#244E80" stroke-width="0.8504" stroke-miterlimit="10" stroke-linecap="round" stroke-linejoin="round"/>
<path d="M44.5703 243.374C44.5703 243.374 57.6813 256.666 73.7763 255.309" stroke="#244E80" stroke-width="0.8504" stroke-miterlimit="10" stroke-linecap="round" stroke-linejoin="round"/>
<path d="M96.5623 232.523C96.5623 232.523 89.8712 252.687 74.4092 252.778" stroke="#244E80" stroke-width="0.8504" stroke-miterlimit="10" stroke-linecap="round" stroke-linejoin="round"/>
<path d="M61.1172 237.497C61.1172 237.497 68.8934 247.895 75.3133 248.618" stroke="#244E80" stroke-width="0.8504" stroke-miterlimit="10" stroke-linecap="round" stroke-linejoin="round"/>
<path d="M66.1807 209.195C66.1807 209.195 70.6113 221.311 75.494 223.391" stroke="#244E80" stroke-width="0.8504" stroke-miterlimit="10" stroke-linecap="round" stroke-linejoin="round"/>
<path d="M76.2178 237.497C76.2178 237.497 78.84 238.401 80.558 232.523" stroke="#244E80" stroke-width="0.8504" stroke-miterlimit="10" stroke-linecap="round" stroke-linejoin="round"/>
<path d="M43.7563 250.969C43.7563 250.969 48.7295 252.055 54.6069 250.969" stroke="#244E80" stroke-width="0.8504" stroke-miterlimit="10" stroke-linecap="round" stroke-linejoin="round"/>
<path d="M69.1651 245.725C69.1651 245.725 66.0004 248.076 61.6602 245.725" stroke="#244E80" stroke-width="0.8504" stroke-miterlimit="10" stroke-linecap="round" stroke-linejoin="round"/>
<path d="M81.0098 251.512C81.0098 251.512 83.632 254.405 90.1423 252.868" stroke="#244E80" stroke-width="0.8504" stroke-miterlimit="10" stroke-linecap="round" stroke-linejoin="round"/>
<defs>
<filter id="filter0_d" x="8.12842" y="16.3997" width="381.67" height="249.656" filterUnits="userSpaceOnUse" color-interpolation-filters="sRGB">
<feFlood flood-opacity="0" result="BackgroundImageFix"/>
<feColorMatrix in="SourceAlpha" type="matrix" values="0 0 0 0 0 0 0 0 0 0 0 0 0 0 0 0 0 0 127 0"/>
<feOffset dy="4"/>
<feGaussianBlur stdDeviation="17"/>
<feColorMatrix type="matrix" values="0 0 0 0 0 0 0 0 0 0 0 0 0 0 0 0 0 0 0.08 0"/>
<feBlend mode="normal" in2="BackgroundImageFix" result="effect1_dropShadow"/>
<feBlend mode="normal" in="SourceGraphic" in2="effect1_dropShadow" result="shape"/>
</filter>
</defs>
</svg>
