<svg width="43" height="11" viewBox="0 0 43 11" fill="none" xmlns="http://www.w3.org/2000/svg">
<path d="M6.01172 1.43359H7.46484L4.46484 10H2.98828L0 1.43359H1.44141L3.22852 6.75977C3.32227 7.01367 3.42188 7.3418 3.52734 7.74414C3.63281 8.14258 3.70117 8.43945 3.73242 8.63477C3.7832 8.33789 3.86133 7.99414 3.9668 7.60352C4.07227 7.21289 4.1582 6.92383 4.22461 6.73633L6.01172 1.43359ZM12.5039 10L12.2285 9.09766H12.1816C11.8691 9.49219 11.5547 9.76172 11.2383 9.90625C10.9219 10.0469 10.5156 10.1172 10.0195 10.1172C9.38281 10.1172 8.88477 9.94531 8.52539 9.60156C8.16992 9.25781 7.99219 8.77148 7.99219 8.14258C7.99219 7.47461 8.24023 6.9707 8.73633 6.63086C9.23242 6.29102 9.98828 6.10547 11.0039 6.07422L12.123 6.03906V5.69336C12.123 5.2793 12.0254 4.9707 11.8301 4.76758C11.6387 4.56055 11.3398 4.45703 10.9336 4.45703C10.6016 4.45703 10.2832 4.50586 9.97852 4.60352C9.67383 4.70117 9.38086 4.81641 9.09961 4.94922L8.6543 3.96484C9.00586 3.78125 9.39062 3.64258 9.80859 3.54883C10.2266 3.45117 10.6211 3.40234 10.9922 3.40234C11.8164 3.40234 12.4375 3.58203 12.8555 3.94141C13.2773 4.30078 13.4883 4.86523 13.4883 5.63477V10H12.5039ZM10.4531 9.0625C10.9531 9.0625 11.3535 8.92383 11.6543 8.64648C11.959 8.36523 12.1113 7.97266 12.1113 7.46875V6.90625L11.2793 6.94141C10.6309 6.96484 10.1582 7.07422 9.86133 7.26953C9.56836 7.46094 9.42188 7.75586 9.42188 8.1543C9.42188 8.44336 9.50781 8.66797 9.67969 8.82812C9.85156 8.98438 10.1094 9.0625 10.4531 9.0625ZM16.7871 10H15.4102V0.882812H16.7871V10ZM24.5098 6.74805C24.5098 7.80664 24.2383 8.63281 23.6953 9.22656C23.1523 9.82031 22.3965 10.1172 21.4277 10.1172C20.8223 10.1172 20.2871 9.98047 19.8223 9.70703C19.3574 9.43359 19 9.04102 18.75 8.5293C18.5 8.01758 18.375 7.42383 18.375 6.74805C18.375 5.69727 18.6445 4.87695 19.1836 4.28711C19.7227 3.69727 20.4824 3.40234 21.4629 3.40234C22.4004 3.40234 23.1426 3.70508 23.6895 4.31055C24.2363 4.91211 24.5098 5.72461 24.5098 6.74805ZM19.793 6.74805C19.793 8.24414 20.3457 8.99219 21.4512 8.99219C22.5449 8.99219 23.0918 8.24414 23.0918 6.74805C23.0918 5.26758 22.541 4.52734 21.4395 4.52734C20.8613 4.52734 20.4414 4.71875 20.1797 5.10156C19.9219 5.48438 19.793 6.0332 19.793 6.74805ZM29.3848 3.40234C29.6621 3.40234 29.8906 3.42188 30.0703 3.46094L29.9355 4.74414C29.7402 4.69727 29.5371 4.67383 29.3262 4.67383C28.7754 4.67383 28.3281 4.85352 27.9844 5.21289C27.6445 5.57227 27.4746 6.03906 27.4746 6.61328V10H26.0977V3.51953H27.1758L27.3574 4.66211H27.4277C27.6426 4.27539 27.9219 3.96875 28.2656 3.74219C28.6133 3.51562 28.9863 3.40234 29.3848 3.40234ZM34.1074 10.1172C33.0996 10.1172 32.3105 9.82422 31.7402 9.23828C31.1738 8.64844 30.8906 7.83789 30.8906 6.80664C30.8906 5.74805 31.1543 4.91602 31.6816 4.31055C32.209 3.70508 32.9336 3.40234 33.8555 3.40234C34.7109 3.40234 35.3867 3.66211 35.8828 4.18164C36.3789 4.70117 36.627 5.41602 36.627 6.32617V7.07031H32.3086C32.3281 7.69922 32.498 8.18359 32.8184 8.52344C33.1387 8.85938 33.5898 9.02734 34.1719 9.02734C34.5547 9.02734 34.9102 8.99219 35.2383 8.92188C35.5703 8.84766 35.9258 8.72656 36.3047 8.55859V9.67773C35.9688 9.83789 35.6289 9.95117 35.2852 10.0176C34.9414 10.084 34.5488 10.1172 34.1074 10.1172ZM33.8555 4.44531C33.418 4.44531 33.0664 4.58398 32.8008 4.86133C32.5391 5.13867 32.3828 5.54297 32.332 6.07422H35.2734C35.2656 5.53906 35.1367 5.13477 34.8867 4.86133C34.6367 4.58398 34.293 4.44531 33.8555 4.44531ZM42.5449 8.1543C42.5449 8.78711 42.3145 9.27344 41.8535 9.61328C41.3926 9.94922 40.7324 10.1172 39.873 10.1172C39.0098 10.1172 38.3164 9.98633 37.793 9.72461V8.53516C38.5547 8.88672 39.2637 9.0625 39.9199 9.0625C40.7676 9.0625 41.1914 8.80664 41.1914 8.29492C41.1914 8.13086 41.1445 7.99414 41.0508 7.88477C40.957 7.77539 40.8027 7.66211 40.5879 7.54492C40.373 7.42773 40.0742 7.29492 39.6914 7.14648C38.9453 6.85742 38.4395 6.56836 38.1738 6.2793C37.9121 5.99023 37.7812 5.61523 37.7812 5.1543C37.7812 4.59961 38.0039 4.16992 38.4492 3.86523C38.8984 3.55664 39.5078 3.40234 40.2773 3.40234C41.0391 3.40234 41.7598 3.55664 42.4395 3.86523L41.9941 4.90234C41.2949 4.61328 40.707 4.46875 40.2305 4.46875C39.5039 4.46875 39.1406 4.67578 39.1406 5.08984C39.1406 5.29297 39.2344 5.46484 39.4219 5.60547C39.6133 5.74609 40.0273 5.93945 40.6641 6.18555C41.1992 6.39258 41.5879 6.58203 41.8301 6.75391C42.0723 6.92578 42.252 7.125 42.3691 7.35156C42.4863 7.57422 42.5449 7.8418 42.5449 8.1543Z" fill="#00C1B4"/>
</svg>
