<svg width="30" height="30" viewBox="0 0 30 30" fill="none" xmlns="http://www.w3.org/2000/svg">
<path d="M7.5332 3.8V22.4667H14.0665V24.3333C14.0665 25.571 14.5582 26.758 15.4334 27.6332C16.3085 28.5083 17.4955 29 18.7332 29C19.9709 29 21.1579 28.5083 22.033 27.6332C22.9082 26.758 23.3999 25.571 23.3999 24.3333V3.8C23.3998 3.06541 23.6884 2.3602 24.2034 1.83642C24.7185 1.31264 25.4187 1.01224 26.1532 1H10.3332C9.5906 1 8.87841 1.295 8.3533 1.8201C7.8282 2.3452 7.5332 3.05739 7.5332 3.8Z" fill="#F9F9FB"/>
<path d="M18.7333 29C17.4957 29 16.3087 28.5083 15.4335 27.6332C14.5583 26.758 14.0667 25.571 14.0667 24.3333V22.4667H1V24.3333C1 25.571 1.49167 26.758 2.36683 27.6332C2.80018 28.0665 3.31462 28.4102 3.88081 28.6448C4.447 28.8793 5.05383 29 5.66667 29H18.7333ZM23.4 3.8C23.4 3.05739 23.695 2.3452 24.2201 1.8201C24.7452 1.295 25.4574 1 26.2 1C26.9426 1 27.6548 1.295 28.1799 1.8201C28.705 2.3452 29 3.05739 29 3.8V5.66667H23.4V3.8Z" fill="#E0EAFC"/>
<path d="M18.7333 29C17.4957 29 16.3087 28.5083 15.4335 27.6332C14.5583 26.758 14.0667 25.571 14.0667 24.3333V22.4667H1V24.3333C1 25.571 1.49167 26.758 2.36683 27.6332C2.80018 28.0665 3.31462 28.4102 3.88081 28.6448C4.447 28.8793 5.05383 29 5.66667 29H18.7333ZM23.4 3.8C23.4 3.05739 23.695 2.3452 24.2201 1.8201C24.7452 1.295 25.4574 1 26.2 1C26.9426 1 27.6548 1.295 28.1799 1.8201C28.705 2.3452 29 3.05739 29 3.8V5.66667H23.4V3.8Z" fill="#D3D3DF"/>
<path d="M7.5332 22.4667V3.8C7.5332 3.05739 7.8282 2.3452 8.3533 1.8201C8.87841 1.295 9.5906 1 10.3332 1H26.1999" stroke="#7C7C99" stroke-linecap="round" stroke-linejoin="round"/>
<path d="M23.4 5.66667H29V3.8C29 3.05739 28.705 2.3452 28.1799 1.8201C27.6548 1.295 26.9426 1 26.2 1C25.4574 1 24.7452 1.295 24.2201 1.8201C23.695 2.3452 23.4 3.05739 23.4 3.8V24.3333C23.4 25.571 22.9083 26.758 22.0332 27.6332C21.158 28.5083 19.971 29 18.7333 29M18.7333 29C17.4957 29 16.3087 28.5083 15.4335 27.6332C14.5583 26.758 14.0667 25.571 14.0667 24.3333V22.4667H1V24.3333C1 25.571 1.49167 26.758 2.36683 27.6332C2.80018 28.0665 3.31462 28.4102 3.88081 28.6448C4.447 28.8793 5.05383 29 5.66667 29H18.7333ZM11.2667 5.66667H18.7333M11.2667 13.1333H18.7333M11.2667 9.4H16.8667M11.2667 16.8667H16.8667" stroke="#7C7C99" stroke-linecap="round" stroke-linejoin="round"/>
</svg>
