<svg width="262" height="300" viewBox="0 0 262 300" fill="none" xmlns="http://www.w3.org/2000/svg">
<path d="M43 147.009C47.8478 149.366 53.1445 150.643 58.5309 151.331C78.9994 153.983 99.6475 148.384 119.218 141.017C138.789 133.65 157.821 124.614 178.11 120.194C182.509 119.211 187.087 118.524 191.486 119.408C192.294 119.604 193.192 119.801 194 120.095" stroke="#2D3E76" stroke-width="2" stroke-miterlimit="10" stroke-linecap="round" stroke-linejoin="round" stroke-dasharray="4 4"/>
<path d="M234.126 18.3043C230.594 13.919 225.964 10.5516 220.863 8.20233C173.672 -11.4176 91.5906 6.8661 52.9138 34.5144C37.4531 45.4778 25.2101 64.1939 28.2708 83.7713C29.605 92.4637 34.0784 99.8248 40.6708 105.541C49.3822 113.138 61.0758 118.384 67.3543 128.408C79.9112 148.455 53.4632 172.731 69.0024 192.074C75.6732 200.375 87.1315 202.881 97.2555 203.194C111.539 203.585 125.744 200.766 138.458 209.067C143.638 212.434 148.19 216.585 153.369 219.874C158.941 223.398 164.984 225.042 171.577 225.669C179.033 226.374 186.488 226.608 194.022 226.843C197.868 226.922 201.714 227 205.559 227C208.62 227 210.032 227 211.681 224.181C214.506 219.247 213.172 225.747 210.582 221.048C207.129 214.705 215.919 202.411 206.815 181.894C200.458 167.485 182.093 160.907 194.493 137.805C199.595 128.33 212.544 123.474 207.992 100.451C206.579 93.3251 202.341 84.8677 205.559 77.6631C208.384 71.4767 215.683 67.6395 220.863 63.724C225.807 59.8868 230.594 55.8147 234.283 50.7246C241.268 40.6226 242.053 28.1713 234.126 18.3043Z" fill="#EBF3FF"/>
<path d="M210.5 281.934C213.8 283.834 218 282.734 219.9 279.534L236.2 251.734L224.4 244.734L208.1 272.534C206.2 275.834 207.3 280.034 210.5 281.934Z" fill="#202F5A"/>
<path d="M208.5 255.934L218.5 265.834C219.9 267.234 222.2 267.234 223.6 265.834C225 264.434 225 262.134 223.6 260.734L213.6 250.834C212.2 249.434 209.9 249.434 208.5 250.834C207.1 252.234 207.1 254.534 208.5 255.934Z" fill="#FD9F9E"/>
<g opacity="0.4">
<g opacity="0.4">
<path opacity="0.4" d="M218.9 265.334C220 266.434 221.9 266.434 223 265.334C224.1 264.234 224.1 262.334 223 261.234C221.9 260.134 220 260.134 218.9 261.234C217.7 262.334 217.7 264.234 218.9 265.334Z" fill="#FD9F9E"/>
</g>
</g>
<path d="M211.8 249.334L222.4 259.834C223.8 261.234 226.1 261.234 227.5 259.834C228.9 258.434 228.9 256.134 227.5 254.734L216.9 244.234C215.5 242.834 213.2 242.834 211.8 244.234C210.3 245.734 210.3 247.934 211.8 249.334Z" fill="#FD9F9E"/>
<path d="M221.3 257.934L224.1 260.634C224.5 261.034 225.1 261.034 225.5 260.634L228.2 257.834C228.6 257.434 228.6 256.834 228.2 256.434L225.4 253.734C225 253.334 224.4 253.334 224 253.734L221.3 256.534C220.9 256.934 220.9 257.534 221.3 257.934Z" fill="#FD9F9E"/>
<path d="M204 269.134C204.3 268.934 204.6 268.634 204.8 268.334L215.9 273.834L227.8 266.234L223.7 260.734L217.2 259.034C215 258.434 213.7 256.234 214.3 254.034C214.8 252.034 216.7 250.734 218.8 250.934L226.7 251.834C227.9 251.934 229.1 252.634 229.8 253.634L238.6 265.134C239.8 266.734 239.8 268.934 238.6 270.534L223.9 289.034V293.334H207.5L207.6 285.534L204 269.134Z" fill="#F08B8A"/>
<path d="M204.9 268.134L208 268.734C210.1 271.734 212.3 274.634 214.8 277.334C213.6 279.034 212.6 280.834 212.3 282.634C211.7 286.934 214.3 288.734 214.3 288.734V293.334H207.4V285.534L203.7 270.234C204.3 269.834 204.6 268.534 204.9 268.134Z" fill="#F08B8A"/>
<g opacity="0.5">
<g opacity="0.5">
<path opacity="0.5" d="M219.4 251.834L218.4 251.734C216.8 251.534 215.4 252.634 215.2 254.234L215.1 255.234C214.9 256.834 216 258.234 217.6 258.434L218.6 258.534C220.2 258.734 221.6 257.634 221.8 256.034L221.9 255.034C222.1 253.434 221 252.034 219.4 251.834Z" fill="white"/>
</g>
</g>
<path d="M227.799 266.5C227.799 266.5 219.4 273.434 219.4 280.434C218.799 283 214.2 284.134 211.4 282.534L209.6 281.434C206.8 279.834 205.9 276.234 207.5 273.434L217.799 268L227.799 266.5Z" fill="#202F5A"/>
<path d="M204.5 271.634L211.7 278.734C213.1 280.134 215.4 280.134 216.8 278.734C218.2 277.334 218.2 275.034 216.8 273.634L209.6 266.534C208.2 265.134 205.9 265.134 204.5 266.534C203.1 268.034 203.1 270.234 204.5 271.634Z" fill="#FD9F9E"/>
<g opacity="0.4">
<path opacity="0.4" d="M212 278.234C213.1 279.334 215 279.334 216.1 278.234C217.2 277.134 217.2 275.234 216.1 274.134C215 273.034 213.1 273.034 212 274.134C210.9 275.234 210.9 277.134 212 278.234Z" fill="#FD9F9E"/>
</g>
<path d="M205.2 262.534L215.7 272.834C216.8 273.934 218.5 273.934 219.6 272.834L220.8 271.634C221.9 270.534 221.9 268.834 220.8 267.734L210.9 258.034C209.5 256.634 207.2 256.634 205.8 258.034L205.2 258.634C204.1 259.734 204.2 261.434 205.2 262.534Z" fill="#FD9F9E"/>
<g opacity="0.4">
<g opacity="0.4">
<path opacity="0.4" d="M215.4 271.634C216.5 272.734 218.4 272.734 219.5 271.634C220.6 270.534 220.6 268.634 219.5 267.534C218.4 266.434 216.5 266.434 215.4 267.534C214.2 268.734 214.3 270.534 215.4 271.634Z" fill="#FD9F9E"/>
</g>
</g>
<path d="M193.2 188.734L184.4 182.734L169.7 201.934L180.9 210.334L193.2 188.734Z" fill="#7450F0"/>
<path d="M256 233.634L238.5 217.234L219.6 243.634L241.5 255.734L256 233.634Z" fill="#7450F0"/>
<path d="M238.5 217.234L208.3 169.534L166.1 228.034L219.6 243.634L238.5 217.234Z" fill="#0E97F7"/>
<path d="M205.175 167.259L163.025 225.754L169.191 230.197L211.34 171.702L205.175 167.259Z" fill="#1A1859"/>
<path d="M235.521 253.095L243.792 259.065L261.175 234.984L252.905 229.014L235.521 253.095Z" fill="#1A1859"/>
<path d="M168.9 178.134L166.8 180.834L138.3 162.034L145.1 155.134L168.9 178.134Z" fill="#2D3E76"/>
<path d="M159.5 195.634L158.6 198.934L125.1 192.434L128.8 183.534L159.5 195.634Z" fill="#2D3E76"/>
<path d="M186.2 171.234L183.2 172.934L164.7 144.134L173.1 138.334L186.2 171.234Z" fill="#2D3E76"/>
<path d="M225.9 290.234H205.1V295.434H225.9V290.234Z" fill="#EDECE8"/>
<path d="M227.1 292.934H204V299.434H227.1V292.934Z" fill="#1A1859"/>
<path d="M196.6 96.2C203.007 96.2 208.2 91.0065 208.2 84.6C208.2 78.1935 203.007 73 196.6 73C190.194 73 185 78.1935 185 84.6C185 91.0065 190.194 96.2 196.6 96.2Z" fill="#FEC930"/>
<path d="M197.5 90V91.7H196V90C194.5 89.9 193 89.4 192.2 88.8L193 86.9C193.8 87.5 194.9 87.9 196 88V85.4C194.3 85 192.4 84.4 192.4 82.2C192.4 80.6 193.6 79.2 196 78.9V77.2H197.5V78.9C198.6 79 199.8 79.3 200.6 79.8L199.8 81.7C199 81.3 198.2 81 197.5 80.9V83.5C199.2 83.9 201.1 84.5 201.1 86.6C201.1 88.4 199.9 89.7 197.5 90ZM196 83.3V81.1C195.2 81.3 194.9 81.7 194.9 82.2C194.8 82.8 195.3 83 196 83.3ZM198.6 87C198.6 86.5 198.2 86.2 197.5 85.9V88C198.3 87.8 198.6 87.4 198.6 87Z" fill="white"/>
<path d="M252.9 232.234H252.2C251.5 232.234 250.9 231.634 250.9 230.934V230.234C250.9 229.534 250.3 228.934 249.6 228.934C248.9 228.934 248.3 229.534 248.3 230.234V230.934C248.3 231.634 247.7 232.234 247 232.234H246.3C245.6 232.234 245 232.834 245 233.534C245 234.234 245.6 234.834 246.3 234.834H247C247.7 234.834 248.3 235.434 248.3 236.134V236.834C248.3 237.534 248.9 238.134 249.6 238.134C250.3 238.134 250.9 237.534 250.9 236.834V236.034C250.9 235.334 251.5 234.734 252.2 234.734H252.9C253.6 234.734 254.2 234.134 254.2 233.434C254.2 232.834 253.6 232.234 252.9 232.234Z" fill="white"/>
<path d="M248 242.934H247.7C247.4 242.934 247.1 242.734 247.1 242.334V242.034C247.1 241.734 246.9 241.434 246.5 241.434C246.2 241.434 245.9 241.634 245.9 242.034V242.334C245.9 242.634 245.7 242.934 245.3 242.934H245C244.7 242.934 244.4 243.134 244.4 243.534C244.4 243.834 244.6 244.134 245 244.134H245.3C245.6 244.134 245.9 244.334 245.9 244.734V245.034C245.9 245.334 246.1 245.634 246.5 245.634C246.8 245.634 247.1 245.434 247.1 245.034V244.734C247.1 244.434 247.3 244.134 247.7 244.134H248C248.3 244.134 248.6 243.934 248.6 243.534C248.6 243.134 248.4 242.934 248 242.934Z" fill="white"/>
<path d="M52.0999 53.0341C50.0999 51.0341 47.4999 49.9341 44.7999 50.1341C42.0999 50.2341 39.6999 51.6341 37.8999 53.8341C34.2999 58.3341 34.6999 65.4341 38.6999 69.5341L46.1999 77.1341L52.8999 68.7341C56.5999 64.2341 56.1999 57.2341 52.0999 53.0341ZM45.5999 65.1341C42.7999 65.2341 40.4999 63.1341 40.2999 60.4341C40.1999 57.6341 42.2999 55.3341 44.9999 55.1341C47.7999 55.0341 50.0999 57.1341 50.2999 59.8341C50.4999 62.6341 48.3999 65.0341 45.5999 65.1341Z" fill="#FD7171"/>
<path d="M44.9931 83C45.1799 88.4254 41.538 93.0471 38.1763 97.0659C32.9469 103.295 27.344 110.027 26.2234 118.265C24.9161 127.308 29.4918 136.551 36.1219 142.177C38.4564 144.187 40.9777 145.694 43.6858 147" stroke="#2D3E76" stroke-width="2" stroke-miterlimit="10" stroke-linecap="round" stroke-linejoin="round" stroke-dasharray="4 4"/>
<path d="M55.1004 89.534C57.4004 89.534 59.3004 87.634 59.3004 85.334C59.3004 83.034 57.4004 81.134 55.1004 81.134C52.8004 81.134 50.9004 83.034 50.9004 85.334C50.9004 87.734 52.8004 89.534 55.1004 89.534Z" fill="#7C7C99"/>
<path d="M56.8003 89.834H53.2003C50.2003 89.834 47.8003 92.234 47.8003 95.234V99.634V99.734L48.1003 99.834C50.9003 100.734 53.4003 101.034 55.4003 101.034C59.3003 101.034 61.6003 99.934 61.8003 99.834L62.1003 99.734V95.334C62.2003 92.234 59.8003 89.834 56.8003 89.834Z" fill="#7C7C99"/>
<path d="M79.3001 89.534C81.6001 89.534 83.5001 87.634 83.5001 85.334C83.5001 83.034 81.6001 81.134 79.3001 81.134C77.0001 81.134 75.1001 83.034 75.1001 85.334C75.1001 87.734 77.0001 89.534 79.3001 89.534Z" fill="#7C7C99"/>
<path d="M81.1002 89.834H77.6002C74.6002 89.834 72.2002 92.234 72.2002 95.234V99.634V99.734L72.5002 99.834C75.3002 100.734 77.8002 101.034 79.8002 101.034C83.7002 101.034 86.0002 99.934 86.2002 99.834L86.5002 99.734V95.334C86.5002 92.234 84.1002 89.834 81.1002 89.834Z" fill="#7C7C99"/>
<path d="M106.5 89.534C108.8 89.534 110.7 87.634 110.7 85.334C110.7 83.034 108.8 81.134 106.5 81.134C104.2 81.134 102.3 83.034 102.3 85.334C102.3 87.734 104.2 89.534 106.5 89.534Z" fill="#7C7C99"/>
<path d="M108.3 89.834H104.7C101.7 89.834 99.3003 92.234 99.3003 95.234V99.634V99.734L99.6003 99.834C102.4 100.734 104.9 101.034 106.9 101.034C110.8 101.034 113.1 99.934 113.3 99.834L113.6 99.734V95.334C113.7 92.234 111.2 89.834 108.3 89.834Z" fill="#7C7C99"/>
<path d="M68.0003 109.634C70.3003 109.634 72.2003 107.734 72.2003 105.434C72.2003 103.134 70.3003 101.234 68.0003 101.234C65.7003 101.234 63.8003 103.134 63.8003 105.434C63.8003 107.734 65.7003 109.634 68.0003 109.634Z" fill="#7C7C99"/>
<path d="M69.8003 109.934H66.2003C63.2003 109.934 60.8003 112.334 60.8003 115.334V119.734V119.834L61.1003 119.934C63.9003 120.834 66.4003 121.134 68.4003 121.134C72.3003 121.134 74.6003 120.034 74.8003 119.934L75.1003 119.834V115.434C75.2003 112.334 72.7003 109.934 69.8003 109.934Z" fill="#7C7C99"/>
<path d="M93.6004 109.634C95.9004 109.634 97.8004 107.734 97.8004 105.434C97.8004 103.134 95.9004 101.234 93.6004 101.234C91.3004 101.234 89.4004 103.134 89.4004 105.434C89.4004 107.734 91.3004 109.634 93.6004 109.634Z" fill="#7C7C99"/>
<path d="M95.3003 109.934H91.7003C88.7003 109.934 86.3003 112.334 86.3003 115.334V119.734V119.834L86.6003 119.934C89.4003 120.834 91.9003 121.134 93.9003 121.134C97.8003 121.134 100.1 120.034 100.3 119.934L100.6 119.834V115.434C100.7 112.334 98.3003 109.934 95.3003 109.934Z" fill="#7C7C99"/>
<path d="M98.1 18.834C94.4 18.834 91.4 21.834 91.5 25.534V45.534C91.5 49.234 94.5 52.234 98.2 52.234H116L120.8 58.534L125.6 52.234H127.7C131.4 52.234 134.4 49.234 134.4 45.534V25.534C134.4 21.834 131.4 18.834 127.7 18.834H98.1Z" fill="#7450F0"/>
<path d="M119.7 36.534C119.7 34.334 121.5 32.634 123.6 32.634C125.8 32.634 127.5 34.434 127.5 36.534C127.5 38.734 125.7 40.434 123.6 40.434C121.5 40.434 119.7 38.734 119.7 36.534Z" fill="white"/>
<path d="M108.9 36.534C108.9 34.334 110.7 32.634 112.8 32.634C115 32.634 116.7 34.434 116.7 36.534C116.7 38.734 114.9 40.434 112.8 40.434C110.7 40.434 108.9 38.734 108.9 36.534Z" fill="white"/>
<path d="M98.1001 36.534C98.1001 34.334 99.9001 32.634 102 32.634C104.2 32.634 105.9 34.434 105.9 36.534C105.9 38.734 104.1 40.434 102 40.434C99.9001 40.434 98.1001 38.734 98.1001 36.534Z" fill="white"/>
<path d="M162.9 130.634H125.7C124 130.634 122.7 129.234 122.7 127.634V102.634C122.7 100.934 124.1 99.634 125.7 99.634H162.9C164.6 99.634 165.9 101.034 165.9 102.634V127.634C166 129.334 164.6 130.634 162.9 130.634Z" fill="#5DC5FF"/>
<path d="M166.799 99H121.799V111.034H166.799V99Z" fill="#FD7171"/>
<path d="M127.8 101.634C127.2 101.634 126.7 101.321 126.7 100.945V96.6886C126.7 96.313 127.2 96 127.8 96C128.4 96 128.9 96.313 128.9 96.6886V100.945C128.9 101.384 128.4 101.634 127.8 101.634Z" fill="#1A1859"/>
<path d="M133.3 101.634C132.7 101.634 132.2 101.321 132.2 100.945V96.6886C132.2 96.313 132.7 96 133.3 96C133.9 96 134.4 96.313 134.4 96.6886V100.945C134.4 101.384 133.9 101.634 133.3 101.634Z" fill="#1A1859"/>
<path d="M138.8 101.634C138.2 101.634 137.7 101.321 137.7 100.945V96.6886C137.7 96.313 138.2 96 138.8 96C139.4 96 139.9 96.313 139.9 96.6886V100.945C139.9 101.384 139.4 101.634 138.8 101.634Z" fill="#1A1859"/>
<path d="M144.3 101.634C143.7 101.634 143.2 101.321 143.2 100.945V96.6886C143.2 96.313 143.7 96 144.3 96C144.9 96 145.4 96.313 145.4 96.6886V100.945C145.4 101.384 144.9 101.634 144.3 101.634Z" fill="#1A1859"/>
<path d="M149.8 101.634C149.2 101.634 148.7 101.321 148.7 100.945V96.6886C148.7 96.313 149.2 96 149.8 96C150.4 96 150.9 96.313 150.9 96.6886V100.945C150.9 101.384 150.4 101.634 149.8 101.634Z" fill="#1A1859"/>
<path d="M155.3 101.634C154.7 101.634 154.2 101.321 154.2 100.945V96.6886C154.2 96.313 154.7 96 155.3 96C155.9 96 156.4 96.313 156.4 96.6886V100.945C156.4 101.384 155.9 101.634 155.3 101.634Z" fill="#1A1859"/>
<path d="M160.8 101.634C160.2 101.634 159.7 101.321 159.7 100.945V96.6886C159.7 96.313 160.2 96 160.8 96C161.4 96 161.9 96.313 161.9 96.6886V100.945C161.9 101.384 161.4 101.634 160.8 101.634Z" fill="#1A1859"/>
<path d="M138.837 125.092C138.026 125.092 137.304 124.892 136.67 124.491C136.036 124.09 135.538 123.512 135.174 122.757C134.82 121.993 134.643 121.084 134.643 120.031C134.643 118.978 134.82 118.073 135.174 117.318C135.538 116.554 136.036 115.971 136.67 115.571C137.304 115.17 138.026 114.969 138.837 114.969C139.648 114.969 140.371 115.17 141.004 115.571C141.638 115.971 142.132 116.554 142.487 117.318C142.85 118.073 143.032 118.978 143.032 120.031C143.032 121.084 142.85 121.993 142.487 122.757C142.132 123.512 141.638 124.09 141.004 124.491C140.371 124.892 139.648 125.092 138.837 125.092ZM138.837 123.177C139.434 123.177 139.9 122.92 140.235 122.408C140.58 121.895 140.753 121.103 140.753 120.031C140.753 118.959 140.58 118.167 140.235 117.654C139.9 117.141 139.434 116.885 138.837 116.885C138.25 116.885 137.784 117.141 137.439 117.654C137.104 118.167 136.936 118.959 136.936 120.031C136.936 121.103 137.104 121.895 137.439 122.408C137.784 122.92 138.25 123.177 138.837 123.177ZM148.568 119.122C149.425 119.262 150.083 119.583 150.539 120.087C150.996 120.581 151.224 121.196 151.224 121.932C151.224 122.501 151.075 123.028 150.777 123.512C150.479 123.988 150.022 124.37 149.407 124.659C148.801 124.948 148.055 125.092 147.17 125.092C146.48 125.092 145.799 125.004 145.128 124.827C144.467 124.64 143.903 124.379 143.437 124.044L144.317 122.31C144.69 122.59 145.119 122.809 145.604 122.967C146.098 123.116 146.601 123.191 147.114 123.191C147.682 123.191 148.13 123.084 148.456 122.869C148.782 122.646 148.945 122.333 148.945 121.932C148.945 121.131 148.335 120.73 147.114 120.73H146.079V119.234L148.093 116.955H143.926V115.137H150.777V116.605L148.568 119.122Z" fill="white"/>
<path d="M149.6 66.434C150.3 67.034 151.4 66.934 152 66.134L157.5 59.134C159.7 60.134 162.2 60.534 164.9 60.034C169.8 59.034 173.7 55.034 174.4 50.034C175.5 42.234 169 35.634 161.3 36.434C155.6 37.034 151.1 41.734 150.6 47.334C150.3 51.234 151.9 54.834 154.6 57.234L149.3 63.934C148.7 64.834 148.8 65.934 149.6 66.434ZM162.5 57.434C157.5 57.434 153.5 53.334 153.5 48.434C153.5 43.434 157.6 39.434 162.5 39.434C167.5 39.434 171.5 43.534 171.5 48.434C171.6 53.434 167.5 57.434 162.5 57.434Z" fill="#7C7C99"/>
<path d="M76.1002 201.834H67.0002V230.734H76.1002V201.834Z" fill="#7C7C99"/>
<path d="M89.5004 174.434H80.4004V230.734H89.5004V174.434Z" fill="#D3D3DF"/>
<path d="M102.9 191.834H93.8003V230.734H102.9V191.834Z" fill="#7C7C99"/>
<path d="M116.4 166.034H107.3V230.734H116.4V166.034Z" fill="#D3D3DF"/>
<path d="M58.7002 186.834L87.3002 160.934L93.7002 168.734L115.1 147.034" stroke="#00C1B4" stroke-width="1.3" stroke-miterlimit="10"/>
<path d="M61.4003 186.834C61.4003 188.334 60.2003 189.634 58.6003 189.634C57.1003 189.634 55.8003 188.434 55.8003 186.834C55.8003 185.334 57.0003 184.034 58.6003 184.034C60.2003 184.034 61.4003 185.334 61.4003 186.834Z" fill="#00C1B4"/>
<path d="M118.2 147.034C118.2 148.534 117 149.834 115.4 149.834C113.9 149.834 112.6 148.634 112.6 147.034C112.6 145.534 113.8 144.234 115.4 144.234C117 144.234 118.2 145.534 118.2 147.034Z" fill="#00C1B4"/>
<path d="M5.5 49.934H5C4.5 49.934 4.1 49.534 4.1 49.034V48.534C4.1 48.034 3.7 47.634 3.2 47.634C2.7 47.634 2.3 48.034 2.3 48.534V49.034C2.3 49.534 1.9 49.934 1.4 49.934H0.9C0.4 49.934 0 50.334 0 50.834C0 51.334 0.4 51.734 0.9 51.734H1.4C1.9 51.734 2.3 52.134 2.3 52.634V53.134C2.3 53.634 2.7 54.034 3.2 54.034C3.7 54.034 4.1 53.634 4.1 53.134V52.634C4.1 52.134 4.5 51.734 5 51.734H5.5C6 51.734 6.4 51.334 6.4 50.834C6.4 50.334 6 49.934 5.5 49.934Z" fill="white"/>
<path d="M157.6 79.3342H156.9C156.2 79.3342 155.6 78.7342 155.6 78.0342V77.3342C155.6 76.6342 155 76.0342 154.3 76.0342C153.6 76.0342 153 76.6342 153 77.3342V78.0342C153 78.7342 152.4 79.3342 151.7 79.3342H151C150.3 79.3342 149.7 79.9342 149.7 80.6342C149.7 81.3342 150.3 81.9342 151 81.9342H151.7C152.4 81.9342 153 82.5342 153 83.2342V83.9342C153 84.6342 153.6 85.2342 154.3 85.2342C155 85.2342 155.6 84.6342 155.6 83.9342V83.2342C155.6 82.5342 156.2 81.9342 156.9 81.9342H157.6C158.3 81.9342 158.9 81.3342 158.9 80.6342C158.9 79.9342 158.3 79.3342 157.6 79.3342Z" fill="white"/>
<path d="M149.9 77.0341H149.5C149.1 77.0341 148.8 76.7341 148.8 76.3341V75.9341C148.8 75.5341 148.5 75.2341 148.1 75.2341C147.7 75.2341 147.4 75.5341 147.4 75.9341V76.3341C147.4 76.7341 147.1 77.0341 146.7 77.0341H146.3C145.9 77.0341 145.6 77.3341 145.6 77.7341C145.6 78.1341 145.9 78.4341 146.3 78.4341H146.7C147.1 78.4341 147.4 78.7341 147.4 79.1341V79.5341C147.4 79.9341 147.7 80.2341 148.1 80.2341C148.5 80.2341 148.8 79.9341 148.8 79.5341V79.1341C148.8 78.7341 149.1 78.4341 149.5 78.4341H149.9C150.3 78.4341 150.6 78.1341 150.6 77.7341C150.6 77.3341 150.3 77.0341 149.9 77.0341Z" fill="white"/>
<path d="M59.2001 141.734H58.5001C57.8001 141.734 57.2001 141.134 57.2001 140.434V139.734C57.2001 139.034 56.6001 138.434 55.9001 138.434C55.2001 138.434 54.6001 139.034 54.6001 139.734V140.434C54.6001 141.134 54 141.734 53.3 141.734H52.6001C51.9001 141.734 51.3 142.334 51.3 143.034C51.3 143.734 51.9001 144.334 52.6001 144.334H53.3C54 144.334 54.6001 144.934 54.6001 145.634V146.334C54.6001 147.034 55.2001 147.634 55.9001 147.634C56.6001 147.634 57.2001 147.034 57.2001 146.334V145.634C57.2001 144.934 57.8001 144.334 58.5001 144.334H59.2001C59.9001 144.334 60.5001 143.734 60.5001 143.034C60.4001 142.334 59.9001 141.734 59.2001 141.734Z" fill="white"/>
<path d="M66.8 135.134H66.4C66 135.134 65.7 134.834 65.7 134.434V134.034C65.7 133.634 65.4 133.334 65 133.334C64.6 133.334 64.3 133.634 64.3 134.034V134.434C64.3 134.834 64 135.134 63.6 135.134H63.2C62.8 135.134 62.5 135.434 62.5 135.834C62.5 136.234 62.8 136.534 63.2 136.534H63.6C64 136.534 64.3 136.834 64.3 137.234V137.634C64.3 138.034 64.6 138.334 65 138.334C65.4 138.334 65.7 138.034 65.7 137.634V137.234C65.7 136.834 66 136.534 66.4 136.534H66.8C67.2 136.534 67.5 136.234 67.5 135.834C67.5 135.534 67.2 135.134 66.8 135.134Z" fill="white"/>
<path d="M198.1 166.634H197.7C197.3 166.634 197 166.334 197 165.934V165.534C197 165.134 196.7 164.834 196.3 164.834C195.9 164.834 195.6 165.134 195.6 165.534V165.934C195.6 166.334 195.3 166.634 194.9 166.634H194.5C194.1 166.634 193.8 166.934 193.8 167.334C193.8 167.734 194.1 168.034 194.5 168.034H194.9C195.3 168.034 195.6 168.334 195.6 168.734V169.134C195.6 169.534 195.9 169.834 196.3 169.834C196.7 169.834 197 169.534 197 169.134V168.734C197 168.334 197.3 168.034 197.7 168.034H198.1C198.5 168.034 198.8 167.734 198.8 167.334C198.8 167.034 198.5 166.634 198.1 166.634Z" fill="white"/>
<path d="M114.5 179.3H114C113.5 179.3 113.1 178.9 113.1 178.4V177.9C113.1 177.4 112.7 177 112.2 177C111.7 177 111.3 177.4 111.3 177.9V178.4C111.3 178.9 110.9 179.3 110.4 179.3H109.9C109.4 179.3 109 179.7 109 180.2C109 180.7 109.4 181.1 109.9 181.1H110.4C110.9 181.1 111.3 181.5 111.3 182V182.5C111.3 183 111.7 183.4 112.2 183.4C112.7 183.4 113.1 183 113.1 182.5V182C113.1 181.5 113.5 181.1 114 181.1H114.5C115 181.1 115.4 180.7 115.4 180.2C115.4 179.7 115 179.3 114.5 179.3Z" fill="white"/>
</svg>
